<svg width="364" height="222" viewBox="0 0 364 222" fill="none" xmlns="http://www.w3.org/2000/svg">
<g clip-path="url(#clip0_914_2)">
<path d="M100.831 38.6501H78.0485V123.487H100.831V38.6501Z" fill="white"/>
<path d="M162.075 79.8455C157.82 76.8231 152.162 74.2263 145.099 72.0553C139.861 70.5083 136.406 69.3084 134.735 68.4557C132.987 67.5241 132.113 66.2061 132.111 64.5017C132.108 63.8967 132.252 63.3002 132.53 62.7637C132.808 62.2272 133.211 61.7668 133.706 61.4223C134.772 60.609 136.251 60.2021 138.151 60.2021C143.237 60.2021 146.882 63.0685 149.086 68.8012L168 57.5233C165.683 51.7104 161.57 46.8006 156.268 43.5179C150.947 40.2262 144.87 38.5802 138.037 38.5798C129.531 38.5798 122.582 41.0205 117.192 45.9018C111.949 50.7831 109.328 56.943 109.33 64.3814C109.33 76.9394 117.267 85.6582 133.142 90.5379L137.581 91.814C140.089 92.59 141.456 93.0204 141.684 93.096C142.649 93.3962 143.599 93.7451 144.53 94.1414C146.351 94.9176 147.263 96.1569 147.265 97.8593C147.265 100.65 144.683 102.046 139.519 102.046C132.608 102.046 127.822 98.5974 125.163 91.7011L105.685 103.209C107.663 109.471 111.832 114.799 117.417 118.203C123.189 121.846 130.366 123.667 138.949 123.666C148.591 123.666 156.185 121.38 161.73 116.807C167.275 112.234 170.048 105.842 170.049 97.6301C170.049 89.4944 167.391 83.5662 162.075 79.8455Z" fill="white"/>
<path d="M219.233 102.236L208.578 95.9437C208.179 98.1684 207.49 100.33 206.529 102.373L199.356 94.1444C199.175 93.9589 198.923 93.683 198.605 93.3144C198.288 92.9458 198.058 92.6813 197.922 92.5178C197.787 92.3544 197.592 92.1252 197.342 91.8253C197.153 91.6097 196.982 91.3791 196.83 91.1357C196.708 90.9298 196.572 90.7329 196.422 90.5467C196.271 90.3673 196.144 90.1694 196.043 89.9578C195.977 89.7973 195.897 89.623 195.804 89.44C195.717 89.2662 195.659 89.0786 195.635 88.8853C195.613 88.7013 195.602 88.5161 195.602 88.3307C195.602 86.4424 196.58 85.4977 198.537 85.4968C200.724 85.4968 202.455 87.1796 203.728 90.5453L215.134 83.8363C211.674 76.3724 205.869 72.6404 197.719 72.6404C193.072 72.6404 189.224 74.0232 186.174 76.7887C183.122 79.4647 181.598 82.9233 181.6 87.1645C181.609 90.0027 182.465 92.7728 184.057 95.1157C178.912 98.2959 176.34 102.653 176.339 108.188C176.3 110.216 176.694 112.229 177.495 114.09C178.297 115.951 179.486 117.618 180.982 118.977C184.079 121.837 188.314 123.265 193.689 123.263C198.087 123.319 202.413 122.146 206.188 119.877L209.944 124.095L220.258 118.078L214.724 111.716C216.687 108.799 218.207 105.604 219.233 102.236ZM195.326 111.782C193.642 111.782 192.345 111.378 191.435 110.571C190.994 110.193 190.643 109.72 190.406 109.187C190.17 108.655 190.055 108.076 190.069 107.493C190.064 106.799 190.208 106.112 190.49 105.48C190.773 104.847 191.189 104.284 191.708 103.828L198.4 111.229C197.412 111.58 196.374 111.767 195.326 111.784V111.782Z" fill="white"/>
<path d="M279.544 47.0549C273.921 41.4743 267.01 38.6849 258.812 38.6865H226.913V123.568H249.694V99.5587H258.807C267.012 99.5587 273.923 96.8102 279.541 91.3131C285.085 85.7325 287.857 78.3346 287.857 69.1194C287.859 59.8241 285.088 52.4692 279.544 47.0549ZM263.31 74.1527C262.736 74.7692 262.037 75.2555 261.261 75.5796C260.485 75.9037 259.649 76.0581 258.81 76.0325H249.696V62.2122H258.81C259.649 62.1868 260.484 62.3408 261.26 62.664C262.036 62.9872 262.735 63.4722 263.31 64.0871C264.488 65.3456 265.076 67.0232 265.076 69.1199C265.076 71.227 264.489 72.8997 263.31 74.1527Z" fill="white"/>
<path d="M8.68295 0L0 23.4118H4.08684L5.60977 18.9675H14.521L16.0449 23.4118H20.1318L11.4493 0H8.68295ZM6.87807 15.28L10.0688 5.97369L13.26 15.28H6.87807Z" fill="white"/>
<path d="M37.2094 19.8849V6.69824H25.2196V14.993C25.2351 15.9349 25.1819 16.8767 25.0606 17.8108C25.0047 18.3761 24.7926 18.9144 24.4484 19.3647C24.2713 19.5478 24.0563 19.6894 23.8186 19.7793C23.5809 19.8693 23.3264 19.9053 23.0733 19.8849H22.103V27.6138H25.664V23.4119H36.2231V27.6143H39.784V19.8849H37.2094ZM28.0679 19.8849C28.7488 18.7401 29.0747 17.4168 29.004 16.0846V10.2247H33.4089V19.8849H28.0679Z" fill="white"/>
<path d="M53.4919 14.6357C54.4343 14.5149 55.3057 14.0681 55.9567 13.3718C56.5529 12.6726 56.8646 11.7726 56.8294 10.852C56.8611 10.2735 56.7591 9.69547 56.5315 9.16325C56.304 8.63103 55.957 8.15908 55.5177 7.78442C54.6432 7.05997 53.4109 6.69775 51.8206 6.69775H43.5065V23.4119H51.7748C53.4811 23.4119 54.8008 23.0389 55.7338 22.2929C56.1989 21.9143 56.5682 21.4302 56.8115 20.8802C57.0548 20.3303 57.1651 19.7302 57.1333 19.1291V19.08C57.1707 18.0227 56.8324 16.9867 56.1792 16.1577C55.4892 15.3481 54.5377 14.8092 53.4919 14.6357ZM52.5538 10.3288C52.7072 10.4864 52.8261 10.6745 52.9028 10.8811C52.9795 11.0877 53.0123 11.3082 52.9992 11.5283C53.0126 11.7389 52.9796 11.9498 52.9026 12.1461C52.8256 12.3423 52.7065 12.519 52.5538 12.6636C52.1924 12.9475 51.7396 13.0873 51.2821 13.0562H47.2914V9.90179H51.3138C51.7669 9.87437 52.2124 10.0278 52.5538 10.3288ZM53.3011 18.2756C53.3167 18.5364 53.2781 18.7977 53.1878 19.0428C53.0975 19.2878 52.9575 19.5113 52.7767 19.6989C52.3645 20.0596 51.8273 20.2418 51.2821 20.2059H47.2914V16.2622H51.2821C51.5527 16.2446 51.824 16.281 52.0806 16.3694C52.3371 16.4577 52.5737 16.5963 52.7767 16.7771C52.9583 16.9696 53.0986 17.1976 53.1888 17.4469C53.279 17.6963 53.3172 17.9616 53.3011 18.2265V18.2756Z" fill="white"/>
<path d="M71.3582 7.30224C70.1817 6.74531 68.8976 6.45654 67.5974 6.45654C66.2973 6.45654 65.0132 6.74531 63.8367 7.30224C62.8052 7.85234 61.971 8.71384 61.4513 9.76563C60.8759 10.9781 60.5952 12.3108 60.6323 13.6539V16.3749C60.5943 17.7337 60.8749 19.0824 61.4513 20.3117C61.9687 21.3713 62.8028 22.2411 63.8367 22.7992C65.0117 23.3615 66.2964 23.6532 67.5974 23.6532C68.8985 23.6532 70.1832 23.3615 71.3582 22.7992C72.3887 22.2439 73.2222 21.3802 73.7436 20.3275C74.3198 19.1094 74.6005 17.771 74.5626 16.4225V13.6539C74.5995 12.3108 74.3187 10.9782 73.7436 9.76563C73.2236 8.71403 72.3895 7.85261 71.3582 7.30224ZM70.7616 16.423C70.8218 17.3687 70.5266 18.3025 69.9348 19.0396C69.2985 19.6347 68.462 19.9654 67.5933 19.9654C66.7246 19.9654 65.8881 19.6347 65.2518 19.0396C64.6648 18.3003 64.3728 17.3674 64.4328 16.423V13.6534C64.3733 12.7154 64.6685 11.7895 65.2592 11.0614C65.8963 10.4712 66.7307 10.1436 67.5967 10.1436C68.4628 10.1436 69.2971 10.4712 69.9343 11.0614C70.5251 11.7894 70.8205 12.7153 70.7611 13.6534L70.7616 16.423Z" fill="white"/>
<path d="M92.4188 6.69824H88.189L84.8173 13.203H82.6558V6.69824H78.8553V23.4114H82.6558V16.8743H84.8685L88.7295 23.4109H93.389L87.9012 14.8148L92.4188 6.69824Z" fill="white"/>
<path d="M105.269 7.18894C104.142 6.6729 102.913 6.42228 101.675 6.45615C100.479 6.44071 99.291 6.65734 98.1764 7.09421C97.1965 7.46912 96.3229 8.08001 95.632 8.87341L98.1608 11.033C98.6628 10.6608 99.2212 10.3726 99.8145 10.1795C100.42 9.97729 101.053 9.87406 101.691 9.87369C102.533 9.81978 103.362 10.0969 104.005 10.6467C104.286 10.9303 104.505 11.2706 104.646 11.6453C104.787 12.02 104.848 12.4205 104.824 12.8205V13.5288H100.548C98.6393 13.5288 97.2085 13.942 96.255 14.7686C95.3015 15.5951 94.8244 16.8349 94.8237 18.488C94.8237 20.2271 95.2953 21.5233 96.2384 22.3767C97.1815 23.23 98.6021 23.6567 100.5 23.6567C101.204 23.663 101.904 23.5736 102.584 23.3907C103.174 23.2361 103.728 22.9652 104.214 22.5936C104.45 22.4083 104.656 22.187 104.824 21.9379V23.4118H108.336V12.6718C108.37 11.5028 108.099 10.3453 107.55 9.31465C107.025 8.38656 106.228 7.64414 105.269 7.18894ZM103.942 20.1425C103.079 20.4565 102.163 20.5933 101.247 20.545C100.476 20.5985 99.7075 20.4221 99.0364 20.038C98.7924 19.8637 98.5969 19.6293 98.4688 19.3572C98.3407 19.0851 98.2842 18.7844 98.3047 18.484C98.2828 18.2104 98.3221 17.9353 98.4198 17.6789C98.5174 17.4226 98.671 17.1915 98.8691 17.0028C99.3592 16.6455 99.9592 16.4744 100.563 16.5198H104.823V18.8934C104.823 19.1681 104.739 19.4361 104.58 19.66C104.422 19.8839 104.198 20.0526 103.94 20.1425H103.942Z" fill="white"/>
<path d="M111.04 10.3052H115.715V23.4114H119.499V10.3052H124.174V6.69824H111.04V10.3052Z" fill="white"/>
<path d="M135.911 19.5635C135.332 19.8308 134.703 19.9682 134.066 19.9659C133.566 19.9985 133.064 19.9275 132.593 19.7571C132.121 19.5867 131.689 19.3207 131.323 18.9755C130.985 18.5918 130.725 18.1442 130.56 17.6588C130.395 17.1734 130.327 16.6598 130.361 16.1479V13.8798C130.329 13.3775 130.399 12.874 130.566 12.3994C130.732 11.9249 130.993 11.4891 131.331 11.1185C131.698 10.7792 132.13 10.518 132.6 10.3506C133.069 10.1832 133.568 10.113 134.066 10.1442C134.694 10.1425 135.316 10.2684 135.894 10.5143C136.471 10.7573 136.991 11.1193 137.421 11.5769L139.997 9.12974C139.575 8.55316 139.049 8.06164 138.446 7.68086C137.798 7.27077 137.09 6.96384 136.349 6.77089C135.537 6.55722 134.7 6.45162 133.861 6.45677C132.495 6.4177 131.141 6.71616 129.917 7.326C128.843 7.88849 127.97 8.77526 127.421 9.86203C126.817 11.1121 126.523 12.4902 126.562 13.8793V16.1479C126.522 17.5527 126.816 18.9468 127.421 20.2138C127.967 21.3085 128.84 22.2037 129.917 22.7739C131.14 23.3892 132.495 23.6909 133.862 23.6519C134.696 23.6563 135.527 23.5534 136.334 23.3457C137.075 23.1581 137.783 22.8566 138.432 22.4519C139.035 22.0763 139.566 21.5941 139.998 21.0285L137.422 18.4199C137.007 18.9073 136.491 19.2976 135.911 19.5635Z" fill="white"/>
<path d="M153.846 12.7995C152.919 12.3131 151.885 12.0693 150.84 12.0908H147.056V6.69824H143.256V23.4119H147.056H150.84C151.889 23.4347 152.928 23.1939 153.861 22.7115C154.712 22.263 155.413 21.5747 155.881 20.7311C156.372 19.8203 156.619 18.7963 156.597 17.7602C156.619 16.7232 156.369 15.6985 155.873 14.7893C155.4 13.9447 154.697 13.2542 153.846 12.7995ZM152.224 19.1522C152.043 19.3442 151.823 19.4947 151.578 19.5933C151.334 19.692 151.072 19.7366 150.809 19.724H147.056V15.5368H150.809C151.168 15.5287 151.523 15.6208 151.833 15.8028C152.124 15.9795 152.359 16.2366 152.509 16.5435C152.674 16.8872 152.755 17.2653 152.747 17.6468C152.773 18.1979 152.586 18.7376 152.224 19.1522Z" fill="white"/>
<path d="M174.057 6.69824H169.827L166.456 13.203H164.294V6.69824H160.493V23.4114H164.294V16.8743H166.507L170.368 23.4109H175.027L169.54 14.8148L174.057 6.69824Z" fill="white"/>
<path d="M187.025 7.52721C185.962 6.7946 184.695 6.41968 183.407 6.45625C182.069 6.4178 180.745 6.73434 179.567 7.37408C178.499 7.9887 177.649 8.92309 177.134 10.047C176.545 11.378 176.259 12.8252 176.299 14.2818V16.1655C176.259 17.5722 176.559 18.9676 177.174 20.2314C177.731 21.3272 178.615 22.2198 179.702 22.7837C180.943 23.3942 182.313 23.6925 183.693 23.6529C184.778 23.6477 185.851 23.4259 186.85 23.0006C187.895 22.5654 188.852 21.9405 189.672 21.1571L187.192 18.8061C186.705 19.2348 186.148 19.5753 185.546 19.8123C184.956 20.0499 184.327 20.1728 183.692 20.1745C183.171 20.2069 182.649 20.133 182.157 19.9573C181.666 19.7816 181.214 19.5078 180.83 19.1521C180.191 18.4636 179.833 17.5586 179.826 16.6166H190.1V15.5216C190.141 13.855 189.874 12.1953 189.313 10.6267C188.874 9.38768 188.077 8.3086 187.025 7.52721ZM179.822 13.7988C179.804 12.7932 180.132 11.8122 180.749 11.0213C181.083 10.6525 181.495 10.3636 181.955 10.1756C182.414 9.98754 182.91 9.90523 183.405 9.93465C183.817 9.9179 184.228 9.99623 184.605 10.1636C184.983 10.3311 185.318 10.5831 185.583 10.9006C186.177 11.686 186.515 12.636 186.553 13.6216L186.569 13.7988H179.822Z" fill="white"/>
<path d="M213.231 7.30224C212.054 6.74531 210.77 6.45654 209.47 6.45654C208.17 6.45654 206.886 6.74531 205.709 7.30224C204.678 7.85234 203.844 8.71384 203.324 9.76563C202.748 10.9781 202.468 12.3108 202.505 13.6539V16.3749C202.467 17.7337 202.747 19.0824 203.324 20.3117C203.841 21.3713 204.675 22.2411 205.709 22.7992C206.884 23.3615 208.169 23.6532 209.47 23.6532C210.771 23.6532 212.056 23.3615 213.231 22.7992C214.261 22.2439 215.095 21.3802 215.616 20.3275C216.192 19.1094 216.473 17.771 216.435 16.4225V13.6539C216.472 12.3108 216.191 10.9782 215.616 9.76563C215.096 8.71403 214.262 7.85261 213.231 7.30224ZM212.635 16.423C212.695 17.3687 212.4 18.3025 211.808 19.0396C211.172 19.6347 210.335 19.9654 209.466 19.9654C208.598 19.9654 207.761 19.6347 207.125 19.0396C206.538 18.3003 206.246 17.3674 206.306 16.423V13.6534C206.246 12.7154 206.542 11.7895 207.132 11.0614C207.769 10.4712 208.604 10.1436 209.47 10.1436C210.336 10.1436 211.17 10.4712 211.807 11.0614C212.398 11.7894 212.694 12.7153 212.634 13.6534L212.635 16.423Z" fill="white"/>
<path d="M231.771 7.94578C230.748 7.36026 229.585 7.06796 228.408 7.1006C227.249 7.03942 226.104 7.38038 225.164 8.06652C224.858 8.3113 224.59 8.60063 224.369 8.92496V8.3404C224.343 7.62324 224.481 6.90961 224.775 6.25542C225.039 5.71945 225.481 5.29263 226.024 5.04802C226.702 4.76283 227.435 4.62888 228.17 4.65537C229.262 4.69008 230.351 4.52084 231.382 4.15621C232.159 3.87335 232.817 3.33408 233.25 2.62634C233.687 1.82285 233.899 0.915081 233.863 0L230.142 0C230.153 0.275114 230.069 0.54568 229.903 0.764688C229.707 0.986383 229.45 1.14343 229.164 1.21526C228.752 1.32878 228.327 1.38574 227.9 1.38459C226.512 1.35594 225.134 1.61994 223.854 2.15958C222.833 2.62072 222.002 3.42263 221.501 4.42959C220.944 5.65535 220.68 6.9954 220.73 8.34236V13.8144V16.3745C220.692 17.7333 220.973 19.0819 221.549 20.3113C222.066 21.3709 222.9 22.2407 223.934 22.7988C225.109 23.3609 226.394 23.6526 227.695 23.6526C228.996 23.6526 230.28 23.3609 231.455 22.7988C232.486 22.2438 233.32 21.38 233.841 20.3271C234.417 19.109 234.698 17.7706 234.66 16.4221V14.2969C234.695 12.9623 234.443 11.6359 233.92 10.4087C233.474 9.38392 232.724 8.52346 231.771 7.94578ZM230.857 16.4231C230.917 17.37 230.619 18.3048 230.023 19.0396C229.721 19.3555 229.356 19.6018 228.951 19.7617C228.546 19.9215 228.111 19.991 227.677 19.9653C227.245 19.9921 226.812 19.9231 226.41 19.7631C226.007 19.6032 225.645 19.3562 225.347 19.0396C224.761 18.3003 224.469 17.3674 224.528 16.4231V14.2979C224.469 13.3597 224.764 12.4335 225.355 11.7054C225.653 11.3925 226.015 11.1484 226.416 10.99C226.817 10.8315 227.247 10.7625 227.677 10.7876C228.11 10.7618 228.544 10.8305 228.949 10.9889C229.354 11.1473 229.72 11.3917 230.023 11.7054C230.618 12.4314 230.917 13.3584 230.857 14.2979V16.4231Z" fill="white"/>
<path d="M237.043 9.3873L240.923 5.49073V0H237.043V9.3873Z" fill="white"/>
<path d="M250.592 19.5635C250.013 19.8308 249.384 19.9682 248.748 19.9659C248.247 19.9985 247.746 19.9275 247.274 19.7571C246.802 19.5867 246.37 19.3207 246.005 18.9755C245.435 18.3511 245.103 17.544 245.069 16.6971H251.402V13.4126H245.06C245.088 12.5566 245.426 11.7405 246.011 11.1185C246.378 10.7792 246.81 10.518 247.279 10.3506C247.749 10.1832 248.248 10.113 248.746 10.1442C249.374 10.1425 249.996 10.2684 250.574 10.5143C251.151 10.7573 251.671 11.1193 252.101 11.5769L254.677 9.12974C254.255 8.55316 253.729 8.06164 253.126 7.68086C252.478 7.27077 251.77 6.96384 251.029 6.77089C250.216 6.55722 249.38 6.45162 248.541 6.45677C247.175 6.4177 245.821 6.71616 244.597 7.326C243.522 7.88849 242.649 8.77526 242.101 9.86203C241.497 11.1121 241.203 12.4902 241.242 13.8793V16.1479C241.202 17.5527 241.496 18.9468 242.101 20.2138C242.647 21.3085 243.52 22.2037 244.597 22.7739C245.82 23.3892 247.175 23.6909 248.542 23.6519C249.376 23.6563 250.207 23.5534 251.014 23.3457C251.755 23.1581 252.463 22.8566 253.112 22.4519C253.715 22.0763 254.246 21.5941 254.678 21.0285L252.102 18.4199C251.688 18.9071 251.172 19.2974 250.592 19.5635Z" fill="white"/>
<path d="M271.358 19.8849V6.69824H259.367V14.993C259.382 15.9349 259.329 16.8767 259.208 17.8108C259.152 18.3761 258.94 18.9144 258.595 19.3647C258.419 19.5483 258.204 19.6905 257.966 19.7809C257.728 19.8714 257.474 19.9079 257.22 19.8879H256.25V27.6138H259.811V23.4119H270.37V27.6143H273.931V19.8849H271.354H271.358ZM262.216 19.8849C262.898 18.7402 263.224 17.4169 263.153 16.0846V10.2247H267.558V19.8849H262.216Z" fill="white"/>
<path d="M287.848 13.4445H281.455V6.69824H277.655V23.4114H281.455V16.9548H287.848V23.4114H291.649V6.69824H287.848V13.4445Z" fill="white"/>
<path d="M306.071 7.18894C304.944 6.6729 303.715 6.42228 302.477 6.45615C301.281 6.44071 300.093 6.65734 298.978 7.09421C297.998 7.46912 297.125 8.08001 296.434 8.87341L298.963 11.033C299.465 10.6608 300.023 10.3726 300.616 10.1795C301.222 9.97729 301.855 9.87406 302.493 9.87369C303.335 9.81978 304.164 10.0969 304.807 10.6467C305.088 10.9303 305.307 11.2706 305.448 11.6453C305.589 12.02 305.65 12.4205 305.626 12.8205V13.5288H301.349C299.441 13.5288 298.01 13.942 297.056 14.7686C296.103 15.5951 295.626 16.8349 295.625 18.488C295.625 20.2271 296.097 21.5233 297.04 22.3767C297.983 23.23 299.404 23.6567 301.302 23.6567C302.005 23.663 302.706 23.5736 303.385 23.3907C303.976 23.2361 304.53 22.9652 305.015 22.5936C305.251 22.4081 305.458 22.1867 305.626 21.9374V23.4118H309.138V12.6718C309.172 11.5028 308.901 10.3453 308.352 9.31465C307.827 8.38656 307.03 7.64414 306.071 7.18894ZM304.743 20.1425C303.881 20.4565 302.964 20.5933 302.048 20.545C301.278 20.5985 300.509 20.4221 299.838 20.038C299.594 19.8637 299.398 19.6293 299.27 19.3572C299.142 19.0851 299.086 18.7844 299.106 18.484C299.084 18.2104 299.124 17.9353 299.221 17.6789C299.319 17.4226 299.472 17.1915 299.671 17.0028C300.161 16.6455 300.761 16.4744 301.364 16.5198H305.625V18.8904C305.626 19.1656 305.542 19.4341 305.384 19.6586C305.225 19.883 305.002 20.0522 304.743 20.1425Z" fill="white"/>
<path d="M323.945 13.4445H317.552V6.69824H313.752V23.4114H317.552V16.9548H323.945V23.4114H327.745V6.69824H323.945V13.4445Z" fill="white"/>
<path d="M342.708 13.4445H336.316V6.69824H332.515V23.4114H336.316V16.9548H342.708V23.4114H346.508V6.69824H342.708V13.4445Z" fill="white"/>
<path d="M362.108 6.69825H356.255C355.205 6.67551 354.167 6.91623 353.234 7.39864C352.383 7.8467 351.681 8.53505 351.214 9.37908C350.722 10.2896 350.475 11.3135 350.498 12.3495C350.476 13.3865 350.725 14.4112 351.221 15.3204C351.694 16.1647 352.398 16.8549 353.249 17.3092C353.443 17.4127 353.644 17.5045 353.849 17.584L350.166 23.4119H354.571L357.858 18.0189H360.199V23.4119H364.001V6.69825H362.108ZM356.368 14.5724C356.009 14.5807 355.654 14.4886 355.344 14.3064C355.052 14.13 354.818 13.8728 354.668 13.5657C354.503 13.2222 354.421 12.8443 354.429 12.4629C354.404 11.9117 354.592 11.3722 354.954 10.9575C355.135 10.7655 355.355 10.6151 355.599 10.5164C355.844 10.4177 356.106 10.3731 356.369 10.3857H360.2V14.5724H356.368Z" fill="white"/>
<path d="M286.9 141.084H77.1002V143.433H286.9V141.084Z" fill="white"/>
<path d="M97.9042 160.425H88.5349H86.3495H84.7778V183.423H88.5349V164.047H97.9042V160.425Z" fill="white"/>
<path d="M111.738 183.422V172.869C111.771 171.72 111.501 170.583 110.957 169.572C110.438 168.658 109.65 167.929 108.702 167.484C107.587 166.977 106.372 166.731 105.149 166.764C103.967 166.748 102.793 166.96 101.69 167.389C100.723 167.757 99.8597 168.357 99.1754 169.137L101.675 171.256C102.172 170.89 102.724 170.607 103.31 170.418C103.908 170.22 104.534 170.118 105.164 170.117C105.995 170.064 106.814 170.336 107.451 170.877C107.729 171.155 107.944 171.489 108.084 171.857C108.223 172.225 108.284 172.619 108.26 173.012V173.708H104.031C102.145 173.708 100.731 174.114 99.7876 174.926C98.8445 175.738 98.3729 176.956 98.3729 178.58C98.3729 180.288 98.8393 181.561 99.772 182.4C100.705 183.238 102.109 183.657 103.984 183.658C104.679 183.664 105.371 183.576 106.043 183.396C106.626 183.244 107.173 182.977 107.653 182.611C107.887 182.429 108.092 182.21 108.259 181.964V183.417L111.738 183.422ZM108.263 178.978C108.264 179.249 108.18 179.514 108.024 179.736C107.867 179.957 107.646 180.123 107.391 180.212C106.537 180.52 105.631 180.654 104.726 180.607C103.965 180.66 103.205 180.487 102.541 180.109C102.3 179.938 102.107 179.708 101.98 179.441C101.854 179.174 101.798 178.878 101.818 178.583C101.796 178.313 101.835 178.043 101.932 177.791C102.029 177.539 102.18 177.312 102.376 177.127C102.861 176.776 103.454 176.608 104.05 176.653H108.264V178.984L108.263 178.978Z" fill="white"/>
<path d="M126.373 173.632H120.054V167.004H116.297V183.423H120.054V177.08H126.373V183.423H130.131V167.004H126.373V173.632Z" fill="white"/>
<path d="M138.604 177.08H144.923V183.423H148.68V167.004H144.923V173.632H138.604V167.004H134.847V183.423H138.604V177.08Z" fill="white"/>
<path d="M158.27 173.711C156.383 173.711 154.969 174.117 154.026 174.928C153.083 175.74 152.611 176.958 152.611 178.582C152.611 180.29 153.077 181.564 154.01 182.402C154.943 183.24 156.347 183.66 158.222 183.66C158.917 183.666 159.61 183.578 160.281 183.399C160.864 183.247 161.411 182.98 161.891 182.614C162.126 182.431 162.331 182.212 162.498 181.965V183.42H165.972V172.867C166.005 171.718 165.736 170.58 165.192 169.569C164.672 168.656 163.884 167.926 162.936 167.481C161.821 166.974 160.606 166.728 159.383 166.762C158.201 166.746 157.027 166.958 155.925 167.387C154.957 167.754 154.094 168.354 153.41 169.134L155.909 171.254C156.406 170.888 156.958 170.605 157.544 170.415C158.142 170.217 158.768 170.116 159.398 170.115C160.229 170.062 161.049 170.334 161.685 170.874C161.963 171.152 162.179 171.486 162.318 171.855C162.458 172.223 162.518 172.617 162.495 173.01V173.706L158.27 173.711ZM162.499 178.988V178.978C162.5 179.249 162.416 179.514 162.26 179.736C162.104 179.957 161.882 180.123 161.627 180.212C160.773 180.52 159.867 180.654 158.962 180.607C158.201 180.66 157.441 180.487 156.777 180.109C156.536 179.939 156.343 179.709 156.217 179.441C156.09 179.174 156.034 178.878 156.054 178.583C156.033 178.313 156.072 178.043 156.168 177.791C156.265 177.539 156.416 177.312 156.612 177.127C157.097 176.776 157.69 176.608 158.287 176.653H162.5L162.499 178.988Z" fill="white"/>
<path d="M183.171 160.425H179.336V183.423H183.171V160.425Z" fill="white"/>
<path d="M191.739 183.423H196.14H199.882H204.283H206.06H207.129V187.551H210.87V179.879H208.025V167.004H204.283V179.879H199.882V167.004H196.14V179.879H191.739V167.004H187.981V183.423H190.135H191.739Z" fill="white"/>
<path d="M226.764 181.208L224.311 178.902C223.83 179.323 223.279 179.657 222.685 179.89C222.102 180.123 221.48 180.244 220.853 180.246C220.338 180.278 219.823 180.206 219.337 180.033C218.851 179.861 218.404 179.592 218.024 179.242C217.393 178.567 217.038 177.677 217.031 176.751H227.189V175.676C227.229 174.037 226.964 172.406 226.408 170.866C225.972 169.647 225.183 168.587 224.145 167.823C223.092 167.102 221.841 166.734 220.568 166.771C219.247 166.733 217.938 167.043 216.772 167.672C215.718 168.274 214.877 169.192 214.366 170.298C213.784 171.605 213.502 173.027 213.542 174.458V176.309C213.502 177.691 213.798 179.063 214.406 180.303C214.958 181.381 215.833 182.257 216.905 182.81C218.133 183.41 219.487 183.703 220.851 183.663C221.924 183.658 222.985 183.441 223.973 183.023C225.006 182.595 225.952 181.98 226.764 181.208ZM217.945 171.252C218.276 170.889 218.684 170.605 219.138 170.42C219.592 170.236 220.081 170.155 220.57 170.184C220.977 170.168 221.382 170.244 221.756 170.409C222.129 170.573 222.46 170.821 222.724 171.134C223.31 171.904 223.645 172.837 223.683 173.807L223.698 173.98H217.025C217.008 172.991 217.333 172.026 217.945 171.25V171.252Z" fill="white"/>
<path d="M235.032 177.08H241.352V183.423H245.109V167.004H241.352V173.632H235.032V167.004H231.275V183.423H235.032V177.08Z" fill="white"/>
<path d="M264.194 183.423L258.769 174.978L263.235 167.004H259.053L255.72 173.394H253.582V167.004H249.825V183.423H253.582V177.001H255.77L259.588 183.423H264.194Z" fill="white"/>
<path d="M278.412 170.018C277.897 168.983 277.073 168.137 276.054 167.598C274.89 167.051 273.621 166.767 272.337 166.767C271.052 166.767 269.783 167.051 268.619 167.598C267.601 168.137 266.776 168.983 266.261 170.018C265.693 171.208 265.415 172.518 265.451 173.838V176.511C265.414 177.846 265.692 179.171 266.261 180.378C266.774 181.421 267.599 182.276 268.619 182.822C269.782 183.374 271.051 183.66 272.337 183.66C273.622 183.66 274.892 183.374 276.054 182.822C277.072 182.278 277.896 181.43 278.412 180.394C278.982 179.198 279.26 177.883 279.222 176.558V173.838C279.258 172.518 278.981 171.208 278.412 170.018ZM275.464 176.558C275.523 177.488 275.231 178.406 274.647 179.128C274.016 179.714 273.19 180.038 272.332 180.038C271.474 180.038 270.647 179.714 270.017 179.128C269.437 178.403 269.149 177.487 269.208 176.558V173.838C269.149 172.915 269.442 172.005 270.025 171.291C270.657 170.711 271.481 170.39 272.336 170.39C273.191 170.39 274.015 170.711 274.647 171.291C275.23 172.005 275.523 172.915 275.464 173.838V176.558Z" fill="white"/>
<path d="M93.0861 202.45H97.7075V215.325H101.449V202.45H106.071V198.907H93.0861V202.45Z" fill="white"/>
<path d="M119.543 199.389C118.428 198.882 117.214 198.636 115.991 198.669C114.809 198.653 113.635 198.865 112.532 199.294C111.565 199.662 110.701 200.262 110.017 201.042L112.516 203.161C113.013 202.795 113.565 202.512 114.152 202.323C114.75 202.124 115.375 202.023 116.005 202.023C116.836 201.969 117.656 202.241 118.293 202.782C118.57 203.06 118.786 203.394 118.925 203.762C119.065 204.13 119.125 204.524 119.102 204.917V205.614H114.873C112.986 205.614 111.572 206.02 110.629 206.832C109.686 207.643 109.214 208.861 109.214 210.485C109.214 212.193 109.68 213.466 110.613 214.305C111.546 215.144 112.95 215.563 114.825 215.563C115.52 215.57 116.213 215.482 116.884 215.302C117.467 215.15 118.014 214.883 118.494 214.517C118.729 214.334 118.933 214.115 119.101 213.869V215.323H122.575V204.77C122.608 203.621 122.338 202.483 121.795 201.472C121.275 200.561 120.489 199.834 119.543 199.389ZM119.104 210.891V210.881C119.105 211.152 119.022 211.417 118.865 211.639C118.709 211.86 118.487 212.026 118.232 212.115C117.379 212.423 116.473 212.558 115.567 212.51C114.806 212.563 114.046 212.39 113.382 212.012C113.142 211.841 112.949 211.611 112.822 211.344C112.695 211.077 112.639 210.781 112.659 210.486C112.638 210.216 112.677 209.946 112.774 209.694C112.87 209.442 113.022 209.215 113.217 209.03C113.703 208.679 114.296 208.511 114.892 208.556H119.106L119.104 210.891Z" fill="white"/>
<path d="M145.859 198.907H139.539H137.936H135.782V215.325H139.539V202.529H145.859V215.325H149.616V198.907H147.95H145.859Z" fill="white"/>
<path d="M163.875 199.389C162.76 198.882 161.545 198.636 160.322 198.669C159.14 198.653 157.966 198.865 156.863 199.294C155.896 199.662 155.033 200.262 154.348 201.042L156.848 203.161C157.345 202.795 157.897 202.512 158.483 202.323C159.081 202.124 159.707 202.023 160.337 202.023C161.168 201.969 161.987 202.241 162.624 202.782C162.901 203.06 163.117 203.394 163.257 203.762C163.396 204.13 163.456 204.524 163.433 204.917V205.614H159.204C157.318 205.614 155.903 206.02 154.96 206.832C154.017 207.643 153.545 208.861 153.545 210.485C153.545 212.193 154.012 213.466 154.944 214.305C155.877 215.144 157.281 215.563 159.156 215.563C159.851 215.57 160.544 215.482 161.216 215.302C161.798 215.15 162.345 214.883 162.825 214.517C163.06 214.334 163.265 214.115 163.432 213.868V215.323H166.906V204.77C166.939 203.621 166.67 202.483 166.126 201.472C165.606 200.561 164.82 199.834 163.875 199.389ZM163.436 210.891V210.881C163.437 211.152 163.353 211.417 163.197 211.639C163.04 211.86 162.819 212.026 162.563 212.115C161.71 212.423 160.804 212.558 159.898 212.51C159.137 212.563 158.378 212.39 157.714 212.012C157.473 211.841 157.28 211.611 157.153 211.344C157.027 211.077 156.971 210.781 156.991 210.486C156.969 210.216 157.008 209.946 157.105 209.694C157.201 209.442 157.353 209.215 157.549 209.03C158.034 208.679 158.627 208.511 159.223 208.556H163.437L163.436 210.891Z" fill="white"/>
<path d="M182.213 199.477C181.325 198.92 180.294 198.64 179.249 198.67C178.348 198.663 177.467 198.937 176.726 199.452C176.117 199.88 175.605 200.434 175.224 201.076V198.907H171.468V222H175.224V213.219C175.54 213.866 176.017 214.42 176.608 214.827C177.368 215.329 178.262 215.585 179.171 215.563C180.228 215.592 181.271 215.312 182.173 214.756C183.035 214.19 183.702 213.37 184.083 212.408C184.546 211.228 184.768 209.966 184.736 208.698V205.598C184.768 204.315 184.549 203.039 184.091 201.842C183.721 200.878 183.066 200.052 182.213 199.477ZM180.979 208.698C181.037 209.603 180.763 210.498 180.208 211.213C179.935 211.513 179.598 211.748 179.223 211.902C178.848 212.055 178.443 212.122 178.039 212.099C177.51 212.115 176.985 211.995 176.514 211.751C176.099 211.524 175.764 211.173 175.555 210.746C175.322 210.25 175.209 209.705 175.225 209.157V205.076C175.21 204.525 175.323 203.978 175.555 203.478C175.761 203.05 176.097 202.698 176.514 202.474C176.986 202.235 177.511 202.118 178.039 202.134C178.445 202.111 178.852 202.181 179.227 202.338C179.603 202.496 179.938 202.737 180.208 203.044C180.763 203.78 181.037 204.692 180.979 205.614V208.698Z" fill="white"/>
<path d="M186.936 202.45H191.558V215.325H195.3V202.45H199.921V198.907H186.936V202.45Z" fill="white"/>
<path d="M213.928 205.534H207.608V198.907H203.851V215.325H207.608V208.982H213.928V215.325H217.685V198.907H213.928V205.534Z" fill="white"/>
<path d="M232.533 199.721C231.48 199.001 230.229 198.633 228.957 198.669C227.635 198.631 226.326 198.942 225.161 199.571C224.106 200.172 223.265 201.091 222.755 202.197C222.172 203.503 221.89 204.925 221.93 206.357V208.208C221.89 209.59 222.187 210.961 222.794 212.201C223.347 213.279 224.221 214.156 225.294 214.708C226.522 215.309 227.875 215.602 229.24 215.562C230.312 215.557 231.373 215.339 232.362 214.921C233.394 214.494 234.34 213.881 235.152 213.11L232.7 210.804C232.218 211.225 231.668 211.56 231.073 211.792C230.49 212.026 229.869 212.147 229.241 212.148C228.727 212.181 228.211 212.108 227.725 211.936C227.239 211.763 226.792 211.494 226.412 211.144C225.781 210.469 225.427 209.579 225.419 208.652H235.577V207.577C235.617 205.939 235.352 204.307 234.797 202.767C234.361 201.547 233.572 200.487 232.533 199.721ZM225.415 205.882C225.399 204.893 225.723 203.929 226.333 203.153C226.665 202.791 227.073 202.507 227.527 202.322C227.981 202.137 228.47 202.057 228.959 202.086C229.366 202.069 229.771 202.146 230.144 202.31C230.518 202.475 230.849 202.723 231.112 203.035C231.699 203.805 232.034 204.739 232.071 205.708L232.087 205.882H225.415Z" fill="white"/>
<path d="M250.407 199.477C249.519 198.92 248.489 198.64 247.444 198.67C246.542 198.663 245.661 198.937 244.92 199.452C244.311 199.88 243.799 200.433 243.419 201.075V198.907H239.663V222H243.419V213.221C243.735 213.867 244.212 214.42 244.803 214.827C245.563 215.328 246.456 215.585 247.365 215.563C248.422 215.592 249.465 215.312 250.368 214.756C251.229 214.19 251.896 213.37 252.277 212.408C252.74 211.228 252.962 209.966 252.93 208.698V205.598C252.963 204.315 252.744 203.039 252.286 201.842C251.916 200.878 251.26 200.052 250.407 199.477ZM249.173 208.698C249.231 209.603 248.957 210.498 248.403 211.213C248.129 211.513 247.792 211.748 247.417 211.902C247.042 212.055 246.638 212.122 246.233 212.099C245.704 212.115 245.179 211.995 244.708 211.751C244.293 211.524 243.958 211.173 243.749 210.746C243.517 210.25 243.403 209.705 243.419 209.157V205.076C243.404 204.525 243.517 203.978 243.749 203.478C243.956 203.05 244.291 202.698 244.708 202.474C245.181 202.235 245.705 202.118 246.233 202.134C246.64 202.111 247.046 202.181 247.422 202.338C247.797 202.496 248.133 202.737 248.403 203.044C248.958 203.78 249.231 204.692 249.173 205.614V208.698Z" fill="white"/>
<path d="M260.822 209.448V198.907H257.174V215.309H260.428L267.267 205.026V215.309H270.914V198.907H267.691L260.822 209.448Z" fill="white"/>
</g>
<defs>
<clipPath id="clip0_914_2">
<rect width="364" height="222" fill="white"/>
</clipPath>
</defs>
</svg>
