<svg width="163" height="163" viewBox="0 0 163 163" fill="none" xmlns="http://www.w3.org/2000/svg">
<g clip-path="url(#clip0_1102_1149)">
<path d="M5.08035 84.0317C5.11206 78.0866 5.7836 72.1622 7.08338 66.3607C8.16872 61.2755 9.82923 56.3303 12.0329 51.6203C14.2947 46.7459 17.0062 42.0928 20.1321 37.7214L23.3689 33.4995C23.5417 33.2867 23.7259 33.0833 23.9204 32.8902C24.1527 32.629 24.2107 32.4839 24.501 32.1648L26.8959 29.6113C28.8445 27.475 30.9449 25.4822 33.1808 23.6484C36.7653 20.5656 40.6561 17.8578 44.7925 15.5673C45.8957 14.9435 46.8536 14.4067 48.0003 13.8263C57.9582 8.74525 68.8817 5.83464 80.0486 5.28692C91.2155 4.7392 102.372 6.56685 112.779 10.649L124.391 16.3218C128.152 18.5538 131.699 21.1278 134.987 24.0111C135.292 24.2868 135.393 24.3013 135.713 24.5915L138.325 26.9853C140.096 28.4361 141.518 30.3367 143.13 31.9471C143.594 32.4114 143.87 32.7741 144.291 33.2674L146.497 36.0239C147.979 37.8592 149.328 39.7986 150.532 41.8272C151.751 43.8729 153.058 45.9621 154.132 48.1383L157.18 54.8556C163.502 70.9827 164.373 88.7339 159.662 105.402C158.264 110.284 156.412 115.025 154.132 119.562C151.74 124.37 148.819 128.896 145.423 133.055L143.26 135.754C143.06 135.941 142.871 136.14 142.694 136.348C142.514 136.6 142.315 136.838 142.099 137.059L139.69 139.613C137.642 141.667 135.481 143.605 133.216 145.416C132.723 145.808 132.345 146.112 131.765 146.504C131.184 146.896 130.923 147.186 130.313 147.578C127.414 149.647 124.4 151.551 121.285 153.279C116.326 155.995 111.077 158.146 105.638 159.692C92.7978 163.332 79.2503 163.701 66.2308 160.766C64.7793 160.476 63.7197 160.171 62.3989 159.794C59.8842 159.093 57.4085 158.26 54.9819 157.298C53.7771 156.805 52.645 156.384 51.4983 155.847L44.9958 152.511C42.8857 151.365 40.8453 150.096 38.8851 148.709L34.7048 145.605C33.384 144.488 31.9325 143.414 30.7423 142.181C29.5521 140.947 28.2458 139.83 27.0991 138.539C26.7072 138.104 26.2863 137.727 25.8654 137.306L23.5721 134.665C19.3478 129.639 15.7643 124.108 12.9038 118.199C11.4523 115.413 10.5088 112.395 9.34767 109.494L8.15746 105.722C6.09706 98.6516 5.06083 91.3229 5.08035 83.9591V84.0317Z" fill="#999999"/>
<mask id="mask0_1102_1149" style="mask-type:luminance" maskUnits="userSpaceOnUse" x="0" y="1" width="164" height="162">
<path d="M81.5432 162.782C126.538 162.782 163.014 126.589 163.014 81.9425C163.014 37.2958 126.538 1.1026 81.5432 1.1026C36.5481 1.1026 0.0722656 37.2958 0.0722656 81.9425C0.0722656 126.589 36.5481 162.782 81.5432 162.782Z" fill="white"/>
</mask>
<g mask="url(#mask0_1102_1149)">
<path d="M120.747 -43.1185L126.234 -32.6435L-38.2325 53.7385L-43.748 43.2781L120.747 -43.1185Z" fill="#00FFFF"/>
<path d="M126.102 -32.9337L126.523 -32.0922L-37.9426 54.3043L-38.3926 53.4628L126.102 -32.9337Z" fill="#00FFFF"/>
<path d="M126.393 -32.3679L126.843 -31.5264L-37.6371 54.8701L-38.1016 54.0287L126.393 -32.3679Z" fill="#00FFFF"/>
<path d="M126.684 -31.8021L127.119 -30.9606L-37.3469 55.4214L-37.7969 54.5799L126.684 -31.8021Z" fill="#00FEFF"/>
<path d="M126.975 -31.2507L127.41 -30.4093L-37.0704 55.9873L-37.5059 55.1458L126.975 -31.2507Z" fill="#00FEFF"/>
<path d="M127.278 -30.6849L127.699 -29.8435L-36.7523 56.5386L-37.2168 55.6971L127.278 -30.6849Z" fill="#00FEFF"/>
<path d="M127.568 -30.1336L128.004 -29.2921L-36.4767 57.1044L-36.9121 56.2629L127.568 -30.1336Z" fill="#00FEFF"/>
<path d="M127.845 -29.5677L128.295 -28.7263L-36.1857 57.6702L-36.6211 56.8288L127.845 -29.5677Z" fill="#00FEFF"/>
<path d="M128.164 -29.002L128.585 -28.175L-35.8664 58.2215L-36.3164 57.3801L128.164 -29.002Z" fill="#00FEFF"/>
<path d="M128.455 -28.4506L128.905 -27.6091L-35.59 58.7874L-36.0254 57.9459L128.455 -28.4506Z" fill="#00FDFF"/>
<path d="M128.731 -27.8848L129.181 -27.0433L-35.2998 59.3387L-35.7207 58.4972L128.731 -27.8848Z" fill="#00FDFF"/>
<path d="M129.049 -27.3335L129.47 -26.492L-34.9962 59.9045L-35.4316 59.063L129.049 -27.3335Z" fill="#00FDFF"/>
<path d="M129.34 -26.7677L129.775 -25.9262L-34.7052 60.4558L-35.1406 59.6288L129.34 -26.7677Z" fill="#00FDFF"/>
<path d="M129.63 -26.2018L130.065 -25.3749L-34.4005 61.0217L-34.8359 60.1802L129.63 -26.2018Z" fill="#00FDFF"/>
<path d="M129.907 -25.6506L130.356 -24.8091L-34.1095 61.5874L-34.5449 60.746L129.907 -25.6506Z" fill="#01FCFF"/>
<path d="M130.225 -25.0847L130.661 -24.2432L-33.8196 62.1388L-34.2695 61.2973L130.225 -25.0847Z" fill="#01FCFF"/>
<path d="M130.515 -24.5334L130.95 -23.692L-33.516 62.7046L-33.9805 61.8631L130.515 -24.5334Z" fill="#01FCFF"/>
<path d="M130.79 -23.9676L131.24 -23.1261L-33.2258 63.2559L-33.6758 62.4289L130.79 -23.9676Z" fill="#01FCFF"/>
<path d="M131.11 -23.4018L131.546 -22.5748L-32.9493 63.8217L-33.3848 62.9802L131.11 -23.4018Z" fill="#01FCFF"/>
<path d="M131.401 -22.8505L131.837 -22.009L-32.6293 64.3875L-33.0938 63.5461L131.401 -22.8505Z" fill="#01FCFF"/>
<path d="M131.677 -22.2847L132.127 -21.4432L-32.3536 64.9388L-32.7891 64.0974L131.677 -22.2847Z" fill="#01FBFF"/>
<path d="M131.966 -21.7333L132.416 -20.8919L-32.0646 65.5047L-32.5 64.6632L131.966 -21.7333Z" fill="#01FBFF"/>
<path d="M132.285 -21.1675L132.721 -20.3261L-31.7599 66.056L-32.1953 65.2145L132.285 -21.1675Z" fill="#01FBFF"/>
<path d="M132.562 -20.6017L133.012 -19.7747L-31.4689 66.6218L-31.9043 65.7803L132.562 -20.6017Z" fill="#01FBFF"/>
<path d="M132.852 -20.0504L133.302 -19.2089L-31.1787 67.1877L-31.5996 66.3462L132.852 -20.0504Z" fill="#01FBFF"/>
<path d="M133.172 -19.4846L133.607 -18.6431L-30.8732 67.7389L-31.3086 66.8975L133.172 -19.4846Z" fill="#01FAFF"/>
<path d="M133.447 -18.9332L133.897 -18.0918L-30.5832 68.3048L-31.0332 67.4633L133.447 -18.9332Z" fill="#01FAFF"/>
<path d="M133.738 -18.3674L134.174 -17.526L-30.2777 68.8561L-30.7422 68.0291L133.738 -18.3674Z" fill="#01FAFF"/>
<path d="M134.028 -17.8016L134.492 -16.9746L-29.9884 69.4219L-30.4238 68.5804L134.028 -17.8016Z" fill="#01FAFF"/>
<path d="M134.347 -17.2503L134.782 -16.4088L-29.6985 69.9877L-30.1484 69.1462L134.347 -17.2503Z" fill="#01FAFF"/>
<path d="M134.623 -16.6844L135.073 -15.843L-29.393 70.539L-29.8574 69.6976L134.623 -16.6844Z" fill="#01F9FF"/>
<path d="M134.913 -16.1332L135.378 -15.2917L-29.1028 71.1048L-29.5527 70.2634L134.913 -16.1332Z" fill="#01F9FF"/>
<path d="M135.233 -15.5673L135.669 -14.7258L-28.8263 71.6562L-29.2617 70.8147L135.233 -15.5673Z" fill="#01F9FF"/>
<path d="M135.509 -15.0015L135.959 -14.1746L-28.5361 72.222L-28.957 71.3805L135.509 -15.0015Z" fill="#01F9FF"/>
<path d="M135.798 -14.4502L136.233 -13.6087L-28.2325 72.7878L-28.668 71.9463L135.798 -14.4502Z" fill="#01F9FF"/>
<path d="M136.104 -13.8844L136.553 -13.0429L-27.9415 73.3391L-28.377 72.4976L136.104 -13.8844Z" fill="#01F8FF"/>
<path d="M136.394 -13.3331L136.844 -12.4916L-27.6513 73.9049L-28.0723 73.0635L136.394 -13.3331Z" fill="#01F8FF"/>
<path d="M136.685 -12.7673L137.12 -11.9258L-27.3458 74.4562L-27.7812 73.6293L136.685 -12.7673Z" fill="#01F8FF"/>
<path d="M136.989 -12.2159L137.439 -11.3745L-27.0556 75.0221L-27.4766 74.1806L136.989 -12.2159Z" fill="#02F8FF"/>
<path d="M137.278 -11.6501L137.728 -10.8086L-26.7521 75.5734L-27.1875 74.7464L137.278 -11.6501Z" fill="#02F8FF"/>
<path d="M137.57 -11.0843L138.006 -10.2428L-26.4602 76.1392L-26.9102 75.2977L137.57 -11.0843Z" fill="#02F7FF"/>
<path d="M137.859 -10.533L138.295 -9.69148L-26.1566 76.705L-26.6211 75.8636L137.859 -10.533Z" fill="#02F7FF"/>
<path d="M138.164 -9.96716L138.614 -9.12569L-25.8665 77.2563L-26.3164 76.4149L138.164 -9.96716Z" fill="#02F7FF"/>
<path d="M138.455 -9.41583L138.891 -8.57436L-25.5899 77.8222L-26.0254 76.9807L138.455 -9.41583Z" fill="#02F7FF"/>
<path d="M138.746 -8.85004L139.182 -8.00856L-25.2699 78.388L-25.7344 77.5465L138.746 -8.85004Z" fill="#02F6FF"/>
<path d="M139.051 -8.28418L139.501 -7.4427L-24.9797 78.9393L-25.4297 78.0978L139.051 -8.28418Z" fill="#02F6FF"/>
<path d="M139.34 -7.73291L139.79 -6.89143L-24.7052 79.5051L-25.1406 78.6636L139.34 -7.73291Z" fill="#02F6FF"/>
<path d="M139.63 -7.16705L140.065 -6.32558L-24.415 80.0564L-24.8359 79.215L139.63 -7.16705Z" fill="#02F6FF"/>
<path d="M139.936 -6.61572L140.356 -5.77425L-24.1095 80.6223L-24.5449 79.7808L139.936 -6.61572Z" fill="#02F6FF"/>
<path d="M140.226 -6.04993L140.676 -5.20845L-23.8193 81.1736L-24.2402 80.3466L140.226 -6.04993Z" fill="#02F5FF"/>
<path d="M140.517 -5.48413L140.952 -4.64265L-23.5138 81.7394L-23.9492 80.8979L140.517 -5.48413Z" fill="#02F5FF"/>
<path d="M140.82 -4.9328L141.241 -4.09132L-23.2102 82.3052L-23.6602 81.4637L140.82 -4.9328Z" fill="#02F5FF"/>
<path d="M141.11 -4.367L141.56 -3.52553L-22.9203 82.8565L-23.3848 82.015L141.11 -4.367Z" fill="#02F5FF"/>
<path d="M141.402 -3.81567L141.837 -2.9742L-22.6435 83.4223L-23.0645 82.5809L141.402 -3.81567Z" fill="#02F5FF"/>
<path d="M141.706 -3.24982L142.127 -2.40834L-22.3391 83.9882L-22.7891 83.1467L141.706 -3.24982Z" fill="#02F4FF"/>
<path d="M141.996 -2.68402L142.432 -1.84254L-22.0489 84.5395L-22.4844 83.698L141.996 -2.68402Z" fill="#02F4FF"/>
<path d="M142.287 -2.13269L142.723 -1.29121L-21.7434 85.1053L-22.1934 84.2638L142.287 -2.13269Z" fill="#02F4FF"/>
<path d="M142.576 -1.56689L143.012 -0.725417L-21.4689 85.6566L-21.9043 84.8151L142.576 -1.56689Z" fill="#02F4FF"/>
<path d="M142.883 -1.01556L143.304 -0.174086L-21.1477 86.2224L-21.5977 85.381L142.883 -1.01556Z" fill="#02F3FF"/>
<path d="M143.173 -0.449768L143.608 0.391709L-20.8723 86.7737L-21.3223 85.9468L143.173 -0.449768Z" fill="#02F3FF"/>
<path d="M143.448 0.116089L143.898 0.957566L-20.583 87.3396L-21.0039 86.4981L143.448 0.116089Z" fill="#02F3FF"/>
<path d="M143.767 0.667358L144.187 1.50884L-20.2786 87.9054L-20.7285 87.0639L143.767 0.667358Z" fill="#03F3FF"/>
<path d="M144.057 1.23322L144.492 2.07469L-19.9884 88.4567L-20.4238 87.6152L144.057 1.23322Z" fill="#03F3FF"/>
<path d="M144.333 1.78448L144.783 2.62596L-19.6829 89.0225L-20.1328 88.181L144.333 1.78448Z" fill="#03F2FF"/>
<path d="M144.623 2.35034L145.073 3.19182L-19.4072 89.5883L-19.8281 88.7469L144.623 2.35034Z" fill="#03F2FF"/>
<path d="M144.943 2.91614L145.379 3.74311L-19.0872 90.1396L-19.5371 89.2981L144.943 2.91614Z" fill="#03F2FF"/>
<path d="M145.233 3.46747L145.669 4.30895L-18.8118 90.7055L-19.2617 89.864L145.233 3.46747Z" fill="#03F2FF"/>
<path d="M145.508 4.03326L145.958 4.87474L-18.5224 91.2568L-18.9434 90.4153L145.508 4.03326Z" fill="#03F1FF"/>
<path d="M145.829 4.58459L146.264 5.42607L-18.2161 91.8226L-18.666 90.9811L145.829 4.58459Z" fill="#03F1FF"/>
<path d="M146.119 5.15045L146.555 5.99193L-17.9259 92.3739L-18.3613 91.5325L146.119 5.15045Z" fill="#03F1FF"/>
<path d="M146.395 5.71625L146.844 6.54322L-17.6215 92.9397L-18.0859 92.0983L146.395 5.71625Z" fill="#03F1FF"/>
<path d="M146.713 6.26758L147.148 7.10906L-17.3467 93.5056L-17.7676 92.6641L146.713 6.26758Z" fill="#03F0FF"/>
<path d="M147.004 6.83337L147.439 7.67485L-17.0411 94.0569L-17.4766 93.2154L147.004 6.83337Z" fill="#03F0FF"/>
<path d="M147.279 7.3847L147.729 8.22618L-16.7512 94.6227L-17.2012 93.7812L147.279 7.3847Z" fill="#03F0FF"/>
<path d="M147.571 7.9505L148.021 8.79198L-16.4599 95.174L-16.8809 94.347L147.571 7.9505Z" fill="#03F0FF"/>
<path d="M147.89 8.51636L148.325 9.34333L-16.1555 95.7399L-16.6055 94.8984L147.89 8.51636Z" fill="#03EFFF"/>
<path d="M148.165 9.06763L148.615 9.9091L-15.8653 96.3056L-16.3008 95.4642L148.165 9.06763Z" fill="#03EFFF"/>
<path d="M148.456 9.63348L148.906 10.475L-15.5598 96.857L-16.0098 96.0155L148.456 9.63348Z" fill="#03EFFF"/>
<path d="M148.746 10.1848L149.211 11.0262L-15.2842 97.4228L-15.7051 96.5813L148.746 10.1848Z" fill="#03EFFF"/>
<path d="M149.051 10.7506L149.501 11.5921L-14.9797 97.9741L-15.4297 97.1326L149.051 10.7506Z" fill="#03EEFF"/>
<path d="M149.342 11.3164L149.777 12.1434L-14.6887 98.5399L-15.1387 97.6984L149.342 11.3164Z" fill="#03EEFF"/>
<path d="M149.631 11.8677L150.096 12.7092L-14.3849 99.1057L-14.8203 98.2643L149.631 11.8677Z" fill="#04EEFF"/>
<path d="M149.95 12.4335L150.386 13.275L-14.095 99.657L-14.5449 98.8155L149.95 12.4335Z" fill="#04EEFF"/>
<path d="M150.226 12.9849L150.676 13.8263L-13.8048 100.223L-14.2402 99.3814L150.226 12.9849Z" fill="#04EDFF"/>
<path d="M150.516 13.5507L150.98 14.3921L-13.5004 100.774L-13.9648 99.9472L150.516 13.5507Z" fill="#04EDFF"/>
<path d="M150.821 14.102L151.271 14.9435L-13.2236 101.34L-13.6445 100.499L150.821 14.102Z" fill="#04EDFF"/>
<path d="M151.111 14.6678L151.561 15.5093L-12.9192 101.906L-13.3691 101.064L151.111 14.6678Z" fill="#04EDFF"/>
<path d="M151.402 15.2336L151.838 16.0751L-12.6282 102.457L-13.0781 101.616L151.402 15.2336Z" fill="#04ECFF"/>
<path d="M151.706 15.785L152.156 16.6265L-12.3243 103.023L-12.7598 102.182L151.706 15.785Z" fill="#04ECFF"/>
<path d="M151.996 16.3508L152.446 17.1922L-12.0344 103.574L-12.4844 102.733L151.996 16.3508Z" fill="#04ECFF"/>
<path d="M152.288 16.9021L152.724 17.7436L-11.7423 104.14L-12.1777 103.299L152.288 16.9021Z" fill="#04ECFF"/>
<path d="M152.593 17.4679L153.014 18.3094L-11.4379 104.706L-11.9023 103.864L152.593 17.4679Z" fill="#04EBFF"/>
<path d="M152.883 18.0338L153.333 18.8752L-11.1477 105.257L-11.5977 104.416L152.883 18.0338Z" fill="#04EBFF"/>
<path d="M153.172 18.585L153.607 19.4265L-10.8732 105.823L-11.3086 104.982L153.172 18.585Z" fill="#04EBFF"/>
<path d="M153.464 19.1509L153.899 19.9924L-10.5665 106.374L-11.002 105.533L153.464 19.1509Z" fill="#04EBFF"/>
<path d="M153.768 19.7022L154.218 20.5437L-10.2774 106.94L-10.7129 106.099L153.768 19.7022Z" fill="#04EAFF"/>
<path d="M154.058 20.268L154.493 21.1095L-9.98728 107.491L-10.4082 106.665L154.058 20.268Z" fill="#04EAFF"/>
<path d="M154.349 20.8338L154.784 21.6753L-9.68175 108.057L-10.1172 107.216L154.349 20.8338Z" fill="#04EAFF"/>
<path d="M154.653 21.3851L155.103 22.2266L-9.37733 108.623L-9.8418 107.782L154.653 21.3851Z" fill="#04EAFF"/>
<path d="M154.943 21.9509L155.393 22.7924L-9.08715 109.174L-9.53711 108.333L154.943 21.9509Z" fill="#04E9FF"/>
<path d="M155.234 22.5023L155.67 23.3437L-8.81065 109.74L-9.24609 108.899L155.234 22.5023Z" fill="#05E9FF"/>
<path d="M155.538 23.0681L155.959 23.9096L-8.50708 110.292L-8.95703 109.465L155.538 23.0681Z" fill="#05E9FF"/>
<path d="M155.828 23.6339L156.278 24.4609L-8.2169 110.857L-8.65234 110.016L155.828 23.6339Z" fill="#05E8FF"/>
<path d="M156.118 24.1852L156.554 25.0267L-7.92673 111.423L-8.34766 110.582L156.118 24.1852Z" fill="#05E8FF"/>
<path d="M156.424 24.751L156.845 25.5925L-7.6212 111.975L-8.05664 111.133L156.424 24.751Z" fill="#05E8FF"/>
<path d="M156.714 25.3024L157.149 26.1438L-7.31678 112.54L-7.78125 111.699L156.714 25.3024Z" fill="#05E8FF"/>
<path d="M157.005 25.8682L157.44 26.7096L-7.0255 113.092L-7.46094 112.25L157.005 25.8682Z" fill="#05E7FF"/>
<path d="M157.309 26.434L157.73 27.261L-6.73559 113.658L-7.18555 112.816L157.309 26.434Z" fill="#05E7FF"/>
<path d="M157.6 26.9854L158.036 27.8268L-6.43006 114.223L-6.89453 113.382L157.6 26.9854Z" fill="#05E7FF"/>
<path d="M157.891 27.5511L158.326 28.3926L-6.1544 114.775L-6.58984 113.933L157.891 27.5511Z" fill="#05E6FF"/>
<path d="M158.166 28.1025L158.616 28.944L-5.86423 115.34L-6.28516 114.499L158.166 28.1025Z" fill="#05E6FF"/>
<path d="M158.484 28.6683L158.905 29.5098L-5.56065 115.892L-5.99609 115.065L158.484 28.6683Z" fill="#05E6FF"/>
<path d="M158.776 29.2341L159.212 30.061L-5.26879 116.458L-5.71875 115.616L158.776 29.2341Z" fill="#05E6FF"/>
<path d="M159.052 29.7854L159.502 30.6269L-4.96411 117.023L-5.41406 116.182L159.052 29.7854Z" fill="#05E5FF"/>
<path d="M159.371 30.3512L159.792 31.1927L-4.68845 117.575L-5.10938 116.733L159.371 30.3512Z" fill="#05E5FF"/>
<path d="M159.661 30.9025L160.096 31.744L-4.38403 118.141L-4.83398 117.299L159.661 30.9025Z" fill="#05E5FF"/>
<path d="M159.937 31.4684L160.387 32.3099L-4.07934 118.692L-4.5293 117.85L159.937 31.4684Z" fill="#05E4FF"/>
<path d="M160.228 32.0342L160.678 32.8611L-3.80284 119.258L-4.23828 118.416L160.228 32.0342Z" fill="#06E4FF"/>
<path d="M160.547 32.5855L160.982 33.427L-3.51267 119.824L-3.93359 118.982L160.547 32.5855Z" fill="#06E4FF"/>
<path d="M160.837 33.1513L161.272 33.9928L-3.20825 120.375L-3.6582 119.533L160.837 33.1513Z" fill="#06E4FF"/>
<path d="M161.112 33.7026L161.562 34.5441L-2.90356 120.941L-3.35352 120.099L161.112 33.7026Z" fill="#06E3FF"/>
<path d="M161.403 34.2684L161.867 35.1099L-2.61339 121.492L-3.04883 120.65L161.403 34.2684Z" fill="#06E3FF"/>
<path d="M161.722 34.8343L162.157 35.6613L-2.30897 122.058L-2.77344 121.216L161.722 34.8343Z" fill="#06E3FF"/>
<path d="M161.998 35.3856L162.448 36.227L-2.03247 122.609L-2.48242 121.782L161.998 35.3856Z" fill="#06E2FF"/>
<path d="M162.288 35.9514L162.753 36.7929L-1.74229 123.175L-2.17773 122.333L162.288 35.9514Z" fill="#06E2FF"/>
<path d="M162.607 36.5027L163.043 37.3442L-1.43761 123.741L-1.87305 122.899L162.607 36.5027Z" fill="#06E2FF"/>
<path d="M162.884 37.0685L163.334 37.91L-1.14659 124.292L-1.58203 123.451L162.884 37.0685Z" fill="#06E1FF"/>
<path d="M163.173 37.6199L163.623 38.4614L-0.843013 124.858L-1.29297 124.016L163.173 37.6199Z" fill="#06E1FF"/>
<path d="M163.479 38.1857L163.928 39.0271L-0.566512 125.424L-1.00195 124.582L163.479 38.1857Z" fill="#06E1FF"/>
<path d="M163.769 38.7515L164.219 39.593L-0.261825 125.975L-0.697266 125.134L163.769 38.7515Z" fill="#06E0FF"/>
<path d="M164.06 39.3028L164.495 40.1443L0.0437055 126.541L-0.40625 125.699L164.06 39.3028Z" fill="#06E0FF"/>
<path d="M164.35 39.8687L164.814 40.7101L0.333878 127.092L-0.101562 126.251L164.35 39.8687Z" fill="#06E0FF"/>
<path d="M164.653 40.4199L165.103 41.2614L0.608426 127.658L0.1875 126.816L164.653 40.4199Z" fill="#07DFFF"/>
<path d="M164.944 40.9858L165.38 41.8273L0.928471 128.209L0.478516 127.382L164.944 40.9858Z" fill="#07DFFF"/>
<path d="M165.234 41.5516L165.698 42.3931L1.20302 128.775L0.767578 127.934L165.234 41.5516Z" fill="#07DFFF"/>
<path d="M165.539 42.1029L165.989 42.9444L1.49403 129.341L1.05859 128.499L165.539 42.1029Z" fill="#07DFFF"/>
<path d="M165.829 42.6687L166.279 43.5102L1.81324 129.892L1.36328 129.051L165.829 42.6687Z" fill="#07DEFF"/>
<path d="M166.12 43.22L166.556 44.0615L2.10425 130.458L1.6543 129.617L166.12 43.22Z" fill="#07DEFF"/>
<path d="M166.424 43.7859L166.874 44.6274L2.39331 131.024L1.94336 130.182L166.424 43.7859Z" fill="#07DEFF"/>
<path d="M166.715 44.3517L167.165 45.1932L2.66982 131.575L2.23438 130.734L166.715 44.3517Z" fill="#07DDFF"/>
<path d="M167.005 44.903L167.44 45.7444L2.98902 132.141L2.53906 131.299L167.005 44.903Z" fill="#07DDFF"/>
<path d="M167.311 45.4688L167.761 46.3103L3.26552 132.692L2.83008 131.851L167.311 45.4688Z" fill="#07DDFF"/>
<path d="M167.6 46.0201L168.05 46.8616L3.5691 133.258L3.11914 132.417L167.6 46.0201Z" fill="#07DCFF"/>
<path d="M167.891 46.5859L168.326 47.4274L3.87463 133.809L3.41016 132.982L167.891 46.5859Z" fill="#07DCFF"/>
<path d="M168.195 47.1517L168.616 47.9932L4.1648 134.375L3.71484 133.534L168.195 47.1517Z" fill="#07DBFF"/>
<path d="M168.486 47.7031L168.935 48.5445L4.44046 134.941L4.01953 134.1L168.486 47.7031Z" fill="#07DBFF"/>
<path d="M168.775 48.2689L169.211 49.1104L4.74488 135.492L4.29492 134.651L168.775 48.2689Z" fill="#07DBFF"/>
<path d="M169.066 48.8202L169.501 49.6617L5.02054 136.058L4.59961 135.217L169.066 48.8202Z" fill="#08DAFF"/>
<path d="M169.371 49.386L169.821 50.2275L5.32607 136.61L4.89062 135.783L169.371 49.386Z" fill="#08DAFF"/>
<path d="M169.661 49.9373L170.097 50.7788L5.63075 137.175L5.19531 136.334L169.661 49.9373Z" fill="#08DAFF"/>
<path d="M169.951 50.5032L170.387 51.3446L5.92066 137.741L5.4707 136.9L169.951 50.5032Z" fill="#08D9FF"/>
<path d="M170.256 51.069L170.677 51.9104L6.22535 138.292L5.77539 137.451L170.256 51.069Z" fill="#08D9FF"/>
<path d="M170.547 51.6203L170.997 52.4618L6.51636 138.858L6.06641 138.017L170.547 51.6203Z" fill="#08D9FF"/>
<path d="M170.838 52.1861L171.273 53.0276L6.79286 139.41L6.35742 138.568L170.838 52.1861Z" fill="#08D8FF"/>
<path d="M171.142 52.752L171.562 53.5789L7.08193 139.975L6.64648 139.134L171.142 52.752Z" fill="#08D8FF"/>
<path d="M171.432 53.3032L171.867 54.1447L7.38661 140.541L6.95117 139.7L171.432 53.3032Z" fill="#08D8FF"/>
<path d="M171.722 53.8691L172.157 54.7106L7.67679 141.093L7.25586 140.251L171.722 53.8691Z" fill="#08D7FF"/>
<path d="M172.027 54.4203L172.448 55.2618L7.98232 141.658L7.54688 140.817L172.027 54.4203Z" fill="#08D7FF"/>
<path d="M172.317 54.9862L172.753 55.8277L8.28674 142.21L7.82227 141.383L172.317 54.9862Z" fill="#08D6FF"/>
<path d="M172.608 55.5375L173.044 56.379L8.57775 142.776L8.11328 141.934L172.608 55.5375Z" fill="#08D6FF"/>
<path d="M172.884 56.1033L173.334 56.9448L8.86792 143.341L8.41797 142.5L172.884 56.1033Z" fill="#09D6FF"/>
<path d="M173.204 56.6692L173.639 57.5107L9.17345 143.893L8.70898 143.051L173.204 56.6692Z" fill="#09D5FF"/>
<path d="M173.494 57.2205L173.93 58.0619L9.44911 144.458L9.01367 143.617L173.494 57.2205Z" fill="#09D5FF"/>
<path d="M173.77 57.7863L174.22 58.6278L9.73929 145.01L9.31836 144.168L173.77 57.7863Z" fill="#09D5FF"/>
<path d="M174.088 58.3521L174.509 59.1791L10.0429 145.576L9.60742 144.734L174.088 58.3521Z" fill="#09D4FF"/>
<path d="M174.379 58.9034L174.814 59.7449L10.3484 146.127L9.89844 145.3L174.379 58.9034Z" fill="#09D4FF"/>
<path d="M174.655 59.4692L175.105 60.3107L10.6386 146.693L10.2031 145.851L174.655 59.4692Z" fill="#09D3FF"/>
<path d="M174.945 60.0206L175.394 60.862L10.9285 147.259L10.4785 146.417L174.945 60.0206Z" fill="#09D3FF"/>
<path d="M175.265 60.5864L175.7 61.4278L11.234 147.81L10.7695 146.968L175.265 60.5864Z" fill="#09D3FF"/>
<path d="M175.54 61.1377L175.99 61.9792L11.5097 148.376L11.0742 147.534L175.54 61.1377Z" fill="#09D2FF"/>
<path d="M175.829 61.7035L176.279 62.545L11.7987 148.942L11.3633 148.1L175.829 61.7035Z" fill="#09D2FF"/>
<path d="M176.15 62.2693L176.586 63.1108L12.1054 149.493L11.6699 148.651L176.15 62.2693Z" fill="#09D1FF"/>
<path d="M176.44 62.8207L176.876 63.6622L12.3953 150.059L11.9453 149.217L176.44 62.8207Z" fill="#0AD1FF"/>
<path d="M176.716 63.3865L177.166 64.228L12.6854 150.61L12.25 149.769L176.716 63.3865Z" fill="#0AD1FF"/>
<path d="M177.005 63.9378L177.469 64.7793L12.989 151.176L12.5391 150.334L177.005 63.9378Z" fill="#0AD0FF"/>
<path d="M177.326 64.5036L177.762 65.3451L13.2666 151.742L12.8457 150.9L177.326 64.5036Z" fill="#0AD0FF"/>
<path d="M177.602 65.0694L178.052 65.8964L13.5856 152.293L13.1211 151.451L177.602 65.0694Z" fill="#0ACFFF"/>
<path d="M177.891 65.6207L178.355 66.4622L13.8604 152.859L13.4395 152.017L177.891 65.6207Z" fill="#0ACFFF"/>
<path d="M178.211 66.1866L178.646 67.0281L14.1659 153.41L13.7305 152.569L178.211 66.1866Z" fill="#0ACFFF"/>
<path d="M178.486 66.7379L178.936 67.5794L14.4558 153.976L14.0059 153.134L178.486 66.7379Z" fill="#0ACEFF"/>
<path d="M178.777 67.3037L179.226 68.1452L14.746 154.542L14.3105 153.7L178.777 67.3037Z" fill="#0ACEFF"/>
<path d="M179.082 67.8695L179.532 68.6965L15.0515 155.093L14.6016 154.252L179.082 67.8695Z" fill="#0ACDFF"/>
<path d="M179.372 68.4208L179.822 69.2623L15.3272 155.659L14.9062 154.817L179.372 68.4208Z" fill="#0ACDFF"/>
<path d="M179.662 68.9866L180.098 69.8281L15.6461 156.21L15.1816 155.369L179.662 68.9866Z" fill="#0ACCFF"/>
<path d="M179.951 69.538L180.416 70.3794L15.9209 156.776L15.5 155.934L179.951 69.538Z" fill="#0BCCFF"/>
<path d="M180.257 70.1038L180.707 70.9452L16.2265 157.327L15.791 156.5L180.257 70.1038Z" fill="#0BCCFF"/>
<path d="M180.547 70.6551L180.982 71.4966L16.5164 157.893L16.0664 157.052L180.547 70.6551Z" fill="#0BCBFF"/>
<path d="M180.837 71.2209L181.273 72.0624L16.821 158.459L16.3711 157.617L180.837 71.2209Z" fill="#0BCBFF"/>
<path d="M181.143 71.7867L181.593 72.6282L17.1121 159.01L16.6621 158.169L181.143 71.7867Z" fill="#0BCAFF"/>
<path d="M181.433 72.3381L181.883 73.1795L17.3877 159.576L16.9668 158.735L181.433 72.3381Z" fill="#0BCAFF"/>
<path d="M181.723 72.9039L182.158 73.7453L17.7067 160.127L17.2422 159.286L181.723 72.9039Z" fill="#0BC9FF"/>
<path d="M182.028 73.4697L182.478 74.2967L17.9834 160.693L17.5625 159.852L182.028 73.4697Z" fill="#0BC9FF"/>
<path d="M182.318 74.021L182.768 74.8625L18.2878 161.259L17.8379 160.418L182.318 74.021Z" fill="#0BC9FF"/>
<path d="M182.609 74.5869L183.045 75.4283L18.5789 161.81L18.1289 160.969L182.609 74.5869Z" fill="#0BC8FF"/>
<path d="M182.914 75.1382L183.335 75.9797L18.8835 162.376L18.4336 161.535L182.914 75.1382Z" fill="#0BC8FF"/>
<path d="M183.203 75.704L183.653 76.5455L19.1726 162.927L18.7227 162.086L183.203 75.704Z" fill="#0CC7FF"/>
<path d="M183.493 76.2552L183.929 77.0967L19.4483 163.493L19.0273 162.652L183.493 76.2552Z" fill="#0CC7FF"/>
<path d="M183.8 76.8211L184.221 77.6626L19.7692 164.059L19.3047 163.218L183.8 76.8211Z" fill="#0CC6FF"/>
<path d="M184.089 77.3869L184.539 78.2284L20.044 164.61L19.623 163.769L184.089 77.3869Z" fill="#0CC6FF"/>
<path d="M184.379 77.9382L184.814 78.7797L20.3484 165.176L19.8984 164.335L184.379 77.9382Z" fill="#0CC5FF"/>
<path d="M184.67 78.504L185.105 79.3455L20.6249 165.728L20.1895 164.901L184.67 78.504Z" fill="#0CC5FF"/>
<path d="M184.975 79.0554L185.396 79.8968L20.9441 166.293L20.4941 165.452L184.975 79.0554Z" fill="#0CC5FF"/>
<path d="M185.266 79.6212L185.701 80.4627L21.2351 166.859L20.7852 166.018L185.266 79.6212Z" fill="#0CC4FF"/>
<path d="M185.541 80.187L186.006 81.014L21.5108 167.411L21.0898 166.569L185.541 80.187Z" fill="#0CC4FF"/>
<path d="M185.846 80.7383L186.281 81.5798L21.8297 167.976L21.3652 167.135L185.846 80.7383Z" fill="#0CC3FF"/>
<path d="M186.15 81.3041L186.6 82.1456L22.1054 168.528L21.6699 167.686L186.15 81.3041Z" fill="#0CC3FF"/>
<path d="M186.427 81.8555L186.877 82.6969L22.4109 169.093L21.9609 168.252L186.427 81.8555Z" fill="#0DC2FF"/>
<path d="M186.746 82.4213L187.182 83.2627L22.6866 169.659L22.2656 168.818L186.746 82.4213Z" fill="#0DC2FF"/>
<path d="M187.021 82.9871L187.471 83.8286L23.0046 170.211L22.5547 169.369L187.021 82.9871Z" fill="#0DC1FF"/>
<path d="M187.326 83.5384L187.776 84.3799L23.2957 170.776L22.8457 169.935L187.326 83.5384Z" fill="#0DC1FF"/>
<path d="M187.616 84.1042L188.052 84.9457L23.5858 171.328L23.1504 170.486L187.616 84.1042Z" fill="#0DC0FF"/>
<path d="M187.921 84.6555L188.342 85.497L23.8757 171.894L23.4258 171.052L187.921 84.6555Z" fill="#0DC0FF"/>
<path d="M188.197 85.2214L188.647 86.0628L24.1813 172.459L23.7168 171.618L188.197 85.2214Z" fill="#0DBFFF"/>
<path d="M188.502 85.7872L188.952 86.6141L24.4714 173.011L24.0215 172.169L188.502 85.7872Z" fill="#0DBFFF"/>
<path d="M188.791 86.3385L189.241 87.18L24.746 173.577L24.3105 172.735L188.791 86.3385Z" fill="#0DBEFF"/>
<path d="M189.097 86.9043L189.518 87.7458L25.066 174.128L24.6016 173.286L189.097 86.9043Z" fill="#0DBEFF"/>
<path d="M189.372 87.4556L189.822 88.2971L25.3417 174.694L24.9062 173.852L189.372 87.4556Z" fill="#0EBDFF"/>
<path d="M189.678 88.0215L190.128 88.863L25.6327 175.245L25.1973 174.418L189.678 88.0215Z" fill="#0EBDFF"/>
<path d="M189.968 88.5873L190.418 89.4288L25.9519 175.811L25.502 174.969L189.968 88.5873Z" fill="#0EBCFF"/>
<path d="M190.271 89.1385L190.721 89.98L26.2265 176.377L25.791 175.535L190.271 89.1385Z" fill="#0EBCFF"/>
<path d="M190.547 89.7044L190.997 90.5459L26.5166 176.928L26.0957 176.086L190.547 89.7044Z" fill="#0EBBFF"/>
<path d="M190.867 90.2557L191.288 91.0972L26.8222 177.494L26.3867 176.652L190.867 90.2557Z" fill="#0EBBFF"/>
<path d="M191.144 90.8215L191.594 91.663L27.1132 178.045L26.6777 177.218L191.144 90.8215Z" fill="#0EBAFF"/>
<path d="M191.448 91.3873L191.898 92.2143L27.4179 178.611L26.9824 177.769L191.448 91.3873Z" fill="#0EBAFF"/>
<path d="M191.737 91.9387L192.187 92.7801L27.7069 179.177L27.2715 178.335L191.737 91.9387Z" fill="#0EB9FF"/>
<path d="M192.044 92.5045L192.465 93.346L27.9988 179.728L27.5488 178.887L192.044 92.5045Z" fill="#0FB9FF"/>
<path d="M192.318 93.0558L192.768 93.8973L28.3024 180.294L27.8379 179.452L192.318 93.0558Z" fill="#0FB8FF"/>
<path d="M192.623 93.6216L193.059 94.4631L28.5925 180.845L28.1426 180.004L192.623 93.6216Z" fill="#0FB8FF"/>
<path d="M192.914 94.1874L193.364 95.0144L28.869 181.411L28.4336 180.569L192.914 94.1874Z" fill="#0FB7FF"/>
<path d="M193.219 94.7388L193.64 95.5802L29.1882 181.977L28.7383 181.135L193.219 94.7388Z" fill="#0FB7FF"/>
<path d="M193.495 95.3046L193.96 96.146L29.4647 182.528L29.0293 181.687L193.495 95.3046Z" fill="#0FB6FF"/>
<path d="M193.784 95.8559L194.234 96.6974L29.7538 183.094L29.3184 182.252L193.784 95.8559Z" fill="#0FB6FF"/>
<path d="M194.089 96.4218L194.539 97.2632L30.044 183.645L29.623 182.804L194.089 96.4218Z" fill="#0FB5FF"/>
<path d="M194.395 96.973L194.815 97.8145L30.3495 184.211L29.9141 183.37L194.395 96.973Z" fill="#0FB5FF"/>
<path d="M194.685 97.5389L195.135 98.3803L30.6397 184.777L30.2188 183.935L194.685 97.5389Z" fill="#10B4FF"/>
<path d="M194.99 98.1047L195.411 98.9461L30.9452 185.328L30.5098 184.487L194.99 98.1047Z" fill="#10B4FF"/>
<path d="M195.266 98.656L195.716 99.4975L31.2351 185.894L30.7852 185.053L195.266 98.656Z" fill="#10B3FF"/>
<path d="M195.569 99.2218L196.005 100.063L31.5387 186.445L31.0742 185.618L195.569 99.2218Z" fill="#10B2FF"/>
<path d="M195.861 99.7876L196.31 100.615L31.83 187.011L31.3945 186.17L195.861 99.7876Z" fill="#10B2FF"/>
<path d="M196.165 100.339L196.586 101.18L32.1199 187.577L31.6699 186.735L196.165 100.339Z" fill="#10B1FF"/>
<path d="M196.441 100.905L196.891 101.746L32.4254 188.128L31.9609 187.287L196.441 100.905Z" fill="#10B1FF"/>
<path d="M196.732 101.456L197.182 102.298L32.7156 188.694L32.2656 187.853L196.732 101.456Z" fill="#10B0FF"/>
<path d="M197.037 102.022L197.487 102.863L32.9921 189.245L32.5566 188.418L197.037 102.022Z" fill="#10B0FF"/>
<path d="M197.342 102.573L197.763 103.415L33.3113 189.811L32.8613 188.97L197.342 102.573Z" fill="#11AFFF"/>
<path d="M197.631 103.139L198.066 103.981L33.5858 190.377L33.1504 189.536L197.631 103.139Z" fill="#11AEFF"/>
<path d="M197.907 103.705L198.356 104.546L33.876 190.928L33.4551 190.087L197.907 103.705Z" fill="#11AEFF"/>
<path d="M198.212 104.256L198.662 105.098L34.1815 191.494L33.7461 190.653L198.212 104.256Z" fill="#11ADFF"/>
<path d="M198.503 104.822L198.939 105.664L34.4725 192.046L34.0371 191.204L198.503 104.822Z" fill="#11ADFF"/>
<path d="M198.808 105.388L199.257 106.215L34.7625 192.611L34.3125 191.77L198.808 105.388Z" fill="#11ACFF"/>
<path d="M199.082 105.939L199.532 106.781L35.0663 193.177L34.6309 192.336L199.082 105.939Z" fill="#11ACFF"/>
<path d="M199.401 106.505L199.837 107.332L35.3562 193.728L34.9062 192.887L199.401 106.505Z" fill="#11ABFF"/>
<path d="M199.678 107.056L200.128 107.898L35.6617 194.294L35.1973 193.453L199.678 107.056Z" fill="#12AAFF"/>
<path d="M199.982 107.622L200.432 108.464L35.9519 194.846L35.502 194.004L199.982 107.622Z" fill="#12AAFF"/>
<path d="M200.288 108.173L200.709 109.015L36.2284 195.411L35.793 194.57L200.288 108.173Z" fill="#12A9FF"/>
<path d="M200.577 108.739L201.012 109.581L36.5465 195.963L36.082 195.136L200.577 108.739Z" fill="#12A9FF"/>
<path d="M200.853 109.305L206.818 120.607L42.3232 207.003L36.3867 195.687L200.853 109.305Z" fill="#12A8FF"/>
</g>
<path d="M100.862 24.1272C100.862 25.2879 100.862 26.6662 101.544 26.6662H105.623C105.623 31.0186 105.623 53.5354 105.507 56.0163C105.725 56.9303 107.249 56.6982 108.003 56.3065C108.758 55.9148 109.063 55.6826 109.702 55.378C117.54 51.1125 125.349 46.1942 132.751 41.8273C132.925 42.5092 145.974 62.9803 147.048 65.0404C146.496 65.3306 145.843 65.7223 145.306 66.0705L129.558 75.5444C126.655 77.3144 123.665 79.0554 120.849 80.956C119.833 81.6379 119.209 81.5798 119.209 82.6679C119.209 83.1032 119.499 83.1177 119.876 83.3063C122.417 84.6266 133.317 91.3003 136.481 93.2444L140.836 95.8559C142.911 97.1036 144.9 98.4674 147.019 99.5845C146.685 100.371 146.246 101.108 145.713 101.775L136.336 116.864C135.21 118.871 133.965 120.809 132.606 122.667C132.033 122.449 131.491 122.157 130.995 121.797L126.176 118.895C125.668 118.576 125.145 118.3 124.608 117.981L122.968 116.994C122.446 116.675 121.807 116.4 121.284 116.051L118.106 114.122C116.422 113.208 114.854 112.076 113.171 111.22C112.024 110.611 111.11 109.929 109.876 109.407C109.063 109.058 108.845 108.884 108.134 108.522C107.487 108.073 106.739 107.789 105.957 107.695C105.188 107.695 105.521 109.61 105.521 110.176C105.461 111.181 105.461 112.188 105.521 113.193C105.841 115.558 105.623 134.709 105.623 138.017H87.0878C86.5653 138.017 86.6959 139.903 86.6523 140.788C86.6523 141.122 86.7539 141.223 87.0878 141.223H108.41C109.194 141.223 108.845 138.786 108.845 138.162V112.685C110.943 113.728 112.978 114.891 114.941 116.167L125.537 122.493C126.103 122.841 126.582 123.044 127.119 123.393C129.103 124.731 131.19 125.91 133.361 126.918C134.362 126.918 134.464 126.381 135.088 125.467L141.678 114.992C144.363 110.959 146.787 106.781 149.327 102.66C150.154 101.326 151.46 99.8602 151.46 98.5109C151.46 97.8581 148.906 96.5813 148.427 96.2912C147.266 95.5948 146.221 94.9419 145.045 94.2745L141.765 92.3014L140.124 91.3148L131.764 86.266C130.995 85.8017 125.958 82.9146 125.058 82.1747C125.857 81.9861 135.088 76.1828 136.583 75.3268C137.222 74.9641 137.701 74.6594 138.31 74.2967L149.791 67.4053C152.012 66.085 151.62 65.7368 149.893 62.8642L136.293 40.9278C136.002 40.478 134.406 37.6054 133.782 37.6054C132.531 37.9391 131.354 38.5051 130.313 39.2738L112.01 50.126C111.005 50.8024 109.953 51.4038 108.86 51.925V25.3604C108.86 22.9811 109.107 23.5904 102.038 23.5904C101.82 23.5904 100.862 23.5469 100.862 24.1272Z" fill="black"/>
<path d="M2.68548 81.6523C2.71452 75.6927 3.38607 69.7536 4.68851 63.9378C5.77633 58.8627 7.43679 53.9273 9.63802 49.2264C11.8991 44.3424 14.6105 39.6796 17.7372 35.2985L20.9885 31.1057C21.1614 30.8929 21.3455 30.6895 21.5401 30.4963C21.7723 30.2352 21.8304 30.0901 22.1207 29.7709L24.5156 27.2174C26.4641 25.0811 28.5646 23.0883 30.8004 21.2546C34.385 18.1719 38.2759 15.4641 42.4122 13.1735C43.5298 12.5496 44.4733 11.9983 45.6199 11.4325C55.5666 6.36493 66.4746 3.46167 77.6253 2.91401C88.776 2.36635 99.9162 4.18672 110.312 8.25518L121.924 13.9279C125.716 16.1592 129.292 18.7383 132.606 21.6318C132.911 21.9074 133.013 21.9219 133.332 22.2121L135.945 24.664C137.716 26.1148 139.138 28.0154 140.749 29.6258C141.159 30.0453 141.547 30.486 141.91 30.9461L144.117 33.7026C145.6 35.5375 146.948 37.4769 148.152 39.5059C149.385 41.5516 150.677 43.6408 151.751 45.817L154.799 52.5343C161.152 68.6239 162.074 86.3468 157.427 103.008C156.028 107.89 154.177 112.631 151.897 117.168C149.504 121.976 146.583 126.501 143.188 130.661L140.793 133.374C140.593 133.562 140.404 133.76 140.227 133.969C140.046 134.22 139.847 134.458 139.632 134.68L137.222 137.233C135.175 139.287 133.013 141.225 130.749 143.037L129.297 144.11C128.76 144.517 128.455 144.792 127.846 145.184C125.013 147.247 122.066 149.151 119.021 150.886C114.04 153.616 108.767 155.777 103.301 157.327C90.4609 160.966 76.9136 161.335 63.8939 158.401C62.4425 158.111 61.3829 157.806 60.0621 157.429C57.5476 156.728 55.0718 155.895 52.6451 154.933C51.4403 154.44 50.3082 154.019 49.1615 153.483L42.688 150.175C40.5776 149.03 38.5371 147.76 36.5773 146.374L32.3971 143.269C31.0472 142.152 29.6247 141.078 28.3765 139.845C27.1282 138.612 25.88 137.436 24.6752 136.145C24.2833 135.71 23.8624 135.333 23.4415 134.912L21.1191 132.272C16.9162 127.246 13.3523 121.72 10.5089 115.819C9.05743 113.034 8.11397 110.016 6.9528 107.114L5.80614 103.342C3.74593 96.2721 2.7097 88.9436 2.72902 81.5798L2.68548 81.6523ZM0.000262443 79.4616C-0.26754 86.7901 0.519455 94.1191 2.33713 101.224C3.25734 105.039 4.48045 108.775 5.99483 112.395C9.23241 120.223 13.6367 127.517 19.0581 134.027C19.2526 134.22 19.4367 134.424 19.6096 134.636C21.714 137.094 23.9629 139.424 26.3444 141.615C26.8379 142.108 27.1863 142.311 27.6653 142.776C28.1443 143.24 28.5071 143.515 28.9861 143.936L31.7439 146.127C40.6297 153.043 50.8867 157.988 61.8328 160.635C74.6111 163.84 87.9781 163.884 100.778 160.765C113.577 157.646 125.423 151.456 135.292 142.732L143.899 134.027C144.291 133.562 144.659 133.078 145.002 132.576L148.21 128.354C154.024 120.137 158.239 110.898 160.634 101.122C165.068 83.0911 163.251 64.0899 155.482 47.2243C153.412 42.8441 150.984 38.6419 148.224 34.6602C147.542 33.6446 146.773 32.8031 146.105 31.7585C145.728 31.2507 145.408 30.859 145.002 30.3077C143.178 28.0262 141.24 25.8376 139.196 23.75C138.311 22.865 137.512 22.2121 136.642 21.3416L132.636 17.9177C132.171 17.5248 131.687 17.1567 131.184 16.815C122.288 9.91646 112.034 4.97262 101.095 2.3068C83.05 -2.06034 64.0567 -0.183337 47.2166 7.63133C38.5656 11.7073 30.6728 17.2268 23.8769 23.9531L19.1306 29.118C18.7387 29.5827 18.3705 30.0669 18.0275 30.5688L11.8733 39.2738C10.2727 41.8845 8.81899 44.5824 7.51887 47.3549C5.32671 52.0414 3.61023 56.9358 2.39519 61.9647C0.918014 67.6839 0.11426 73.556 0.000262443 79.4616Z" fill="black"/>
<path d="M34.457 73.3392V92.9543C34.457 93.4911 34.8634 94.115 35.3279 94.115H58.8127C58.9977 94.0933 59.17 94.01 59.3017 93.8783C59.4334 93.7467 59.5168 93.5745 59.5384 93.3895V88.065C59.5384 87.5862 59.0159 87.3396 58.5224 87.3396H42.9191V86.0339H58.9578C59.0322 86.0358 59.1062 86.0231 59.1756 85.9964C59.245 85.9697 59.3085 85.9297 59.3624 85.8785C59.4163 85.8273 59.4596 85.7659 59.4898 85.698C59.52 85.6301 59.5365 85.5569 59.5384 85.4825V80.7674C59.5384 80.3176 59.1175 80.187 58.6675 80.187H42.9191V78.8813H58.9578C59.1005 78.8778 59.2367 78.8206 59.339 78.721C59.4412 78.6215 59.5021 78.487 59.5094 78.3445V72.6863C59.5113 72.612 59.4986 72.538 59.4719 72.4686C59.4452 72.3992 59.4051 72.3358 59.3539 72.2819C59.3027 72.228 59.2413 72.1847 59.1734 72.1545C59.1054 72.1243 59.0322 72.1078 58.9578 72.106H35.1828C34.6167 72.106 34.457 72.8314 34.457 73.4117V73.3392Z" fill="black"/>
<path d="M34.457 98.4093V116.341C34.457 116.835 34.7183 117.357 35.1828 117.357C41.2935 117.357 40.5822 117.923 40.5822 115.021V106.012C40.8145 106.389 42.5707 114.165 42.7159 114.818C42.9626 115.979 43.0497 117.386 43.8045 117.386C52.0053 117.386 50.5248 118.039 51.3376 114.847C51.6134 113.759 51.7585 112.83 52.0343 111.757C52.3101 110.683 52.4698 109.726 52.731 108.667L53.2681 106.432C53.3842 105.925 53.2681 106.084 53.5729 105.721C53.5029 106.057 53.4545 106.396 53.4277 106.737V116.646C53.4494 116.831 53.5328 117.003 53.6645 117.135C53.7962 117.267 53.9685 117.35 54.1535 117.372H58.9723C59.4223 117.372 59.5529 116.951 59.5529 116.501V98.1191C59.5549 98.0448 59.5421 97.9709 59.5154 97.9015C59.4888 97.8321 59.4487 97.7686 59.3975 97.7147C59.3462 97.6609 59.2849 97.6176 59.2169 97.5874C59.149 97.5572 59.0757 97.5407 59.0014 97.5388H49.6249C48.9137 97.5388 48.4637 100.963 48.1734 102.196L46.8671 107.361C46.8671 106.461 45.5753 101.108 45.2995 99.7441C45.1689 99.0622 45.1108 97.5968 44.3851 97.5968H35.0376C34.5877 97.5388 34.457 97.9596 34.457 98.4093Z" fill="black"/>
<path d="M34.3136 26.6806V41.5516C34.3136 44.4532 37.2166 47.2388 40.8743 47.2388H52.8344C54.0655 47.3095 55.2908 47.0225 56.3623 46.4123C57.4338 45.8022 58.3056 44.895 58.8725 43.8004C59.2543 43.0057 59.4716 42.1421 59.5112 41.2614V26.7532C59.5131 26.6789 59.5003 26.6049 59.4737 26.5355C59.447 26.4661 59.4069 26.4027 59.3557 26.3488C59.3045 26.2949 59.2431 26.2516 59.1751 26.2214C59.1072 26.1912 59.0339 26.1747 58.9596 26.1729C50.7443 26.1729 51.9635 25.4765 51.9635 28.9439V39.4479C51.6587 39.651 51.5861 39.8831 51.2378 39.8831H42.529C42.1806 39.8831 42.0935 39.651 41.8032 39.4479V29.0165C41.8032 25.3749 42.9789 26.1148 34.8071 26.1148C34.7328 26.1129 34.6588 26.1256 34.5894 26.1523C34.52 26.179 34.4565 26.219 34.4026 26.2702C34.3487 26.3214 34.3054 26.3827 34.2752 26.4507C34.245 26.5186 34.2284 26.5918 34.2266 26.6661L34.3136 26.6806Z" fill="black"/>
<path d="M46.4468 55.6971H47.3177C47.8726 57.2184 48.3093 58.7803 48.624 60.3687H44.9953C45.155 59.5853 46.1129 57.0173 46.4468 55.6971ZM34.3415 68.0871C34.3415 68.6384 34.4867 69.1027 35.3576 69.1027H41.9182C42.5133 69.1027 42.5714 68.4063 42.702 67.855C42.767 67.5917 42.8544 67.3345 42.9633 67.0861C42.9633 67.0861 42.7601 66.97 43.2536 66.8684H50.09C50.5254 66.8684 50.7431 66.3751 51.106 67.884C51.2802 68.5804 51.4108 69.0447 52.2817 69.0447C53.1526 69.0447 58.6536 69.2623 59.2342 68.8415C59.8148 68.4208 59.3649 67.3907 58.9294 65.9399C57.5941 61.2682 55.7942 56.0598 54.3718 51.2431C54.1686 50.5757 53.8638 49.2554 53.1526 49.2554H40.8731C39.6104 49.2554 39.4217 51.4172 38.7395 53.3903C38.0573 55.3634 34.3125 67.5648 34.3125 68.0871H34.3415Z" fill="black"/>
<path d="M34.312 121.013V126.7C34.31 126.775 34.3228 126.849 34.3494 126.918C34.3761 126.987 34.4162 127.051 34.4674 127.105C34.5187 127.159 34.58 127.202 34.648 127.232C34.7159 127.262 34.7892 127.279 34.8635 127.281H42.9192V140.73C42.9192 141.18 43.0498 141.6 43.4998 141.6C51.9618 141.6 50.7571 142.253 50.7571 139.119V128.441C50.7571 126.991 50.4813 127.281 54.2697 127.281H57.3323C59.9885 127.281 59.524 128.166 59.524 121.303C59.5185 121.055 59.4694 120.809 59.3788 120.578C57.7677 120.201 38.2019 120.418 34.8345 120.418C34.7601 120.416 34.6862 120.429 34.6167 120.456C34.5473 120.482 34.4838 120.523 34.4299 120.574C34.376 120.625 34.3327 120.686 34.3025 120.754C34.2723 120.822 34.2558 120.895 34.2539 120.97L34.312 121.013Z" fill="black"/>
<path d="M33.2539 72.135V91.8226C33.2539 92.3594 33.6603 92.9833 34.1248 92.9833H57.6096C57.7946 92.9617 57.9669 92.8783 58.0986 92.7467C58.2303 92.615 58.3137 92.4428 58.3353 92.2579V86.8608C58.3353 86.3966 57.8128 86.1354 57.3193 86.1354H41.716V84.8297H57.6821C57.7565 84.8316 57.8305 84.8189 57.8999 84.7922C57.9693 84.7655 58.0328 84.7255 58.0867 84.6743C58.1406 84.6231 58.1839 84.5617 58.2141 84.4938C58.2443 84.4259 58.2608 84.3527 58.2627 84.2784V79.5777C58.2627 79.1279 57.8418 78.9974 57.3918 78.9974H41.716V77.6916H57.6821C57.7565 77.6935 57.8305 77.6808 57.8999 77.6541C57.9693 77.6275 58.0328 77.5874 58.0867 77.5362C58.1406 77.485 58.1839 77.4237 58.2141 77.3558C58.2443 77.2878 58.2608 77.2146 58.2627 77.1403V71.4096C58.2647 71.3352 58.2519 71.2613 58.2252 71.1919C58.1986 71.1225 58.1585 71.059 58.1072 71.0052C58.056 70.9513 57.9947 70.908 57.9267 70.8778C57.8588 70.8476 57.7855 70.8311 57.7112 70.8292H33.9942C33.4281 70.8292 33.2684 71.5546 33.2684 72.135H33.2539Z" fill="#FFFF00"/>
<path d="M33.2539 97.2052V115.152C33.2539 115.645 33.5152 116.167 33.9796 116.167C40.0903 116.167 39.3791 116.733 39.3791 113.832V104.793C39.6113 105.17 41.3676 112.947 41.5128 113.599C41.7595 114.76 41.8466 116.167 42.6014 116.167C50.8022 116.167 49.3217 116.82 50.1345 113.628C50.4103 112.54 50.5554 111.612 50.8312 110.538C51.107 109.465 51.2666 108.507 51.5279 107.448L52.0649 105.214C52.1956 104.706 52.065 104.851 52.3698 104.503C52.2993 104.838 52.2508 105.177 52.2246 105.518V115.442C52.2462 115.627 52.3296 115.799 52.4613 115.931C52.593 116.062 52.7653 116.146 52.9503 116.167H57.7692C58.2192 116.167 58.3498 115.747 58.3498 115.297V96.9295C58.3517 96.8552 58.339 96.7812 58.3123 96.7118C58.2856 96.6425 58.2456 96.579 58.1943 96.5251C58.1431 96.4712 58.0818 96.4279 58.0138 96.3978C57.9458 96.3676 57.8726 96.3511 57.7983 96.3492H48.4218C47.7105 96.3492 47.2606 99.7731 46.9703 101.006L45.664 106.113C45.664 105.214 44.3722 99.8602 44.0964 98.4964C43.9657 97.8145 43.9077 96.3492 43.182 96.3492H33.8345C33.3845 96.3492 33.2539 96.7699 33.2539 97.2052Z" fill="#FFFF00"/>
<path d="M33.1074 25.4909V40.3619C33.1074 43.2635 36.0104 46.0491 39.6681 46.0491H51.6282C52.8605 46.1167 54.0862 45.8267 55.1575 45.2141C56.2288 44.6014 57.1 43.6923 57.6663 42.5961C58.0628 41.8045 58.2949 40.9409 58.3485 40.0572V25.549C58.3504 25.4747 58.3377 25.4007 58.311 25.3313C58.2843 25.2619 58.2442 25.1985 58.193 25.1446C58.1418 25.0907 58.0804 25.0474 58.0125 25.0172C57.9445 24.987 57.8713 24.9705 57.7969 24.9686C49.5816 24.9686 50.8008 24.2723 50.8008 27.7397V38.2437C50.496 38.4468 50.4235 38.6789 50.0751 38.6789H41.4243C41.076 38.6789 40.9889 38.4468 40.6986 38.2437V27.8268C40.6986 24.1852 41.8743 24.9251 33.7025 24.9251C33.6282 24.9232 33.5542 24.9359 33.4848 24.9626C33.4153 24.9893 33.3519 25.0293 33.2979 25.0805C33.244 25.1317 33.2007 25.193 33.1705 25.261C33.1403 25.3289 33.1238 25.4021 33.1219 25.4764L33.1074 25.4909Z" fill="#FFFF00"/>
<path d="M45.2127 54.5074H46.0836C46.6433 56.0284 47.0848 57.5903 47.4044 59.1791H43.9064C43.9644 58.4537 44.9079 55.8132 45.2127 54.5074ZM33.1074 66.8394C33.1074 67.3908 33.2526 67.855 34.1235 67.855H40.6405C41.2357 67.855 41.2937 67.1586 41.4243 66.6073C41.4894 66.344 41.5768 66.0868 41.6856 65.8384C41.6856 65.8384 41.4824 65.7223 41.9759 65.6207H48.8123C49.2478 65.6207 49.4655 65.1275 49.8284 66.6363C50.0025 67.3327 50.1332 67.797 50.9895 67.797C51.8459 67.797 57.3615 68.0146 57.9421 67.5939C58.5226 67.1731 58.0727 66.143 57.6373 64.6922C56.3019 60.0206 54.5021 54.8266 53.0796 49.9954C52.8909 49.328 52.5716 48.0078 51.8604 48.0078H39.6681C38.4053 48.0078 38.2166 50.1695 37.5344 52.1426C36.8522 54.1157 33.1074 66.3752 33.1074 66.8394Z" fill="#FFFF00"/>
<path d="M33.1083 119.809V125.496C33.1063 125.571 33.1191 125.645 33.1457 125.714C33.1724 125.783 33.2125 125.847 33.2637 125.901C33.315 125.955 33.3763 125.998 33.4443 126.028C33.5122 126.058 33.5855 126.075 33.6598 126.077H41.7155V139.497C41.7155 139.946 41.8461 140.367 42.2961 140.367C50.7581 140.367 49.5534 141.02 49.5534 137.886V127.237C49.5534 125.786 49.2776 126.077 53.066 126.077H56.1286C58.7848 126.077 58.3203 126.962 58.3203 120.099C58.3155 119.851 58.2663 119.605 58.1751 119.374C56.564 118.997 36.9982 119.229 33.6743 119.229C33.6 119.227 33.526 119.239 33.4566 119.266C33.3872 119.293 33.3237 119.333 33.2698 119.384C33.2158 119.435 33.1725 119.497 33.1423 119.565C33.1121 119.632 33.0956 119.706 33.0938 119.78L33.1083 119.809Z" fill="#FFFF00"/>
<path d="M99.6727 22.9375C99.6727 24.0982 99.6727 25.4764 100.355 25.4764H104.434C104.434 29.8289 104.434 52.3457 104.317 54.8266C104.535 55.7406 106.059 55.5085 106.814 55.1168C107.569 54.725 107.874 54.4929 108.512 54.1882C116.365 49.9373 124.159 45.0771 131.562 40.6376C131.736 41.3194 144.784 61.7906 145.858 63.8507C145.292 64.1409 144.654 64.5326 144.117 64.8808L128.368 74.3257C125.465 76.0957 122.475 77.8367 119.659 79.7372C118.643 80.4191 118.019 80.3611 118.019 81.4637C118.019 81.899 118.31 81.9135 118.687 82.1021C121.227 83.4223 132.128 90.0961 135.292 92.0402L139.646 94.6372C141.722 95.8849 143.696 97.2487 145.829 98.3658C145.495 99.1519 145.056 99.8889 144.523 100.557L135.118 115.645C133.992 117.653 132.746 119.591 131.387 121.448C130.814 121.231 130.272 120.938 129.776 120.578L124.957 117.676C124.449 117.357 123.927 117.081 123.39 116.762L121.75 115.776C121.227 115.457 120.588 115.181 120.066 114.833L116.887 112.903C115.203 111.989 113.636 110.857 111.952 110.001C110.806 109.392 109.891 108.71 108.657 108.188C107.845 107.84 107.627 107.666 106.916 107.303C106.251 106.845 105.483 106.561 104.68 106.476C103.911 106.476 104.245 108.391 104.245 108.957C104.184 109.962 104.184 110.97 104.245 111.975C104.564 114.339 104.346 133.49 104.346 136.798H85.9999C85.4774 136.798 85.608 138.684 85.5645 139.569C85.5645 139.903 85.6661 140.004 85.9999 140.004H107.206C107.99 140.004 107.641 137.567 107.641 136.943V111.496C109.74 112.553 111.775 113.73 113.737 115.021L124.333 121.347C124.899 121.695 125.378 121.898 125.901 122.246C127.866 123.587 129.933 124.771 132.084 125.786C133.086 125.786 133.187 125.25 133.811 124.336L140.401 113.861C143.086 109.827 145.51 105.649 148.05 101.529C148.878 100.194 150.184 98.7285 150.184 97.3793C150.184 96.7264 147.629 95.4497 147.15 95.1595C145.989 94.4631 144.944 93.8102 143.768 93.1428L140.488 91.1697L138.848 90.1832L130.487 85.1053C129.718 84.641 124.682 81.7539 123.782 81.014C124.594 80.8254 133.811 75.0221 135.306 74.1661C135.945 73.8034 136.424 73.4987 137.048 73.136L148.529 66.2446C150.75 64.9243 150.358 64.5761 148.631 61.718L134.987 39.738C134.755 39.2738 133.144 36.3721 132.534 36.3721C131.326 36.7104 130.19 37.2659 129.181 38.0116L110.805 48.9072C109.797 49.584 108.739 50.1853 107.641 50.7063V24.1562C107.641 21.7768 107.888 22.3862 100.819 22.3862C100.616 22.3862 99.6582 22.3862 99.6582 22.9375H99.6727Z" fill="#FFFF00"/>
<path d="M85.6375 65.0694C75.8691 70.6406 80.4412 68.5659 69.6713 74.6013C67.3635 75.878 67.1457 77.4159 67.2183 78.1848C67.4215 80.6657 67.436 81.5508 67.6828 83.756C67.857 84.7426 68.1618 87.8909 69.6423 88.5437C71.5093 89.8277 73.4477 91.0048 75.4481 92.0692C75.4481 92.0692 75.1143 83.0016 75.0998 82.1891C84.0408 77.1693 87.0309 75.5443 92.5174 72.0334C94.2447 70.9162 93.9689 61.8776 94.593 56.0743C94.7302 55.3011 94.6254 54.5045 94.2929 53.793C93.9604 53.0816 93.4164 52.49 92.7351 52.099C91.1385 51.1705 88.5839 49.5601 85.7245 47.8336C85.6375 52.984 85.9568 59.7449 85.6375 65.0694Z" fill="black"/>
<path d="M85.4474 95.3481C82.5445 96.799 77.3482 100.397 71.673 103.574C71.0633 104.026 70.5656 104.611 70.2183 105.285C69.871 105.959 69.6833 106.704 69.6699 107.463C69.9167 109.943 70.0763 110.973 70.3086 113.469C70.5263 114.702 70.5263 116.109 71.9778 116.98C72.5874 117.314 75.8241 119.33 76.5789 119.664C76.4918 116.835 76.2741 113.019 76.2741 110.248C76.2741 110.248 81.4994 107.1 87.8859 103.386C91.0501 101.529 90.7888 100.905 91.1081 99.2218C91.2242 98.1337 91.5726 94.2745 91.7323 91.9677C91.797 91.5709 91.7619 91.1641 91.6301 90.7842C91.4984 90.4043 91.2741 90.0631 90.9775 89.7915C89.9615 89.0951 87.5956 87.5427 85.6796 86.4981C85.549 89.9511 85.4474 91.8081 85.4474 95.3481Z" fill="black"/>
<path d="M74.7949 41.8562C74.7949 48.5155 75.2304 59.7014 75.3755 66.4042C75.2884 68.0291 75.3755 66.912 75.3755 69.8281C78.3801 68.1887 81.0943 66.5783 84.1859 64.7357C84.8246 64.3585 84.5923 63.517 84.6214 62.7771C84.8391 56.7417 84.7955 45.3672 84.7955 38.8095C84.4182 38.6789 84.6069 38.6789 83.6779 38.3307C83.0312 38.0075 82.3001 37.8925 81.5853 38.0016C80.8705 38.1108 80.2071 38.4386 79.6864 38.9401C79.5557 38.9256 75.6223 41.479 74.7949 41.8562Z" fill="black"/>
<path d="M76.623 82.9435C76.623 86.5561 76.8263 95.4061 77.0875 98.9026C77.0875 98.9026 83.445 95.2755 84.4755 94.5501C84.4755 89.9075 84.6642 82.8565 84.6642 78.2574C82.0661 79.6357 78.6551 81.5798 76.623 82.9435Z" fill="black"/>
<path d="M77.1016 111.061C77.2757 114.557 78.0305 123.813 78.1757 127.701C80.9189 126.091 82.4285 124.988 84.5766 123.697C84.5766 122.159 85.3314 106.766 85.1427 106.287C85.1572 106.229 80.8173 108.913 77.1016 111.061Z" fill="black"/>
<path d="M78.6699 135.028C78.8006 139.7 79.236 145.184 79.8746 150.465C80.3346 150.676 80.8386 150.772 81.3439 150.747C81.8492 150.722 82.3409 150.575 82.7776 150.32C83.5178 143.675 84.0839 137.814 84.3452 131.024C82.734 132.025 80.4262 133.838 78.6699 135.028Z" fill="black"/>
<path d="M87.9149 19.6441C87.0432 19.3791 86.2234 18.967 85.4909 18.4255C85.128 18.2223 84.9684 18.1788 84.8523 17.7581C85.9263 17.671 89.5695 15.785 90.3969 15.7124C90.0219 16.3878 89.5949 17.033 89.1196 17.642C88.65 18.2661 88.2463 18.937 87.9149 19.6441ZM81.2816 22.7344C80.3759 25.1444 79.8851 27.6903 79.8302 30.2642C79.8302 31.2217 90.513 37.4312 84.6345 32.8757C80.3963 29.5968 81.7316 21.3561 81.3542 22.7199L81.2816 22.7344ZM73.7485 41.3485C74.4307 40.7826 79.8592 37.3152 81.4558 36.4737C82.3412 36.2706 96.6817 41.7402 100.325 43.2781C100.615 43.3941 101.022 43.6263 101.355 43.2781C101.994 42.8459 102.497 42.2424 102.807 41.5371C98.1187 38.3162 94.969 37.1846 92.2402 33.6881C91.5576 32.7747 90.9554 31.8038 90.4404 30.7865C90.2953 30.5253 90.1646 30.2352 90.034 29.945C89.8567 29.4509 89.6532 28.9666 89.4244 28.4942C89.1895 28.0684 88.9952 27.6215 88.8438 27.1594C88.6532 26.593 88.4933 26.0166 88.3648 25.4329H92.5886C94.3495 22.9948 96.2492 20.66 98.2784 18.44C99.5992 18.8027 99.8314 18.6866 100.543 20.0649C100.906 21.5157 101.239 21.8639 101.486 20.1519C101.495 19.0553 101.313 17.9656 100.949 16.9311C100.804 16.4668 100.601 16.1622 100.717 15.785C101.368 14.7056 102.175 13.7279 103.112 12.8833C104.041 11.8967 103.286 8.53084 102.807 8.32772C102.328 8.12461 82.7331 15.8575 80.4108 16.728C79.4093 17.1052 79.4818 23.9821 78.64 25.1283C76.4192 26.8692 69.4812 30.5108 65.867 32.4984C65.1162 32.8082 64.4865 33.3535 64.0728 34.0522C63.6591 34.751 63.484 35.5652 63.5737 36.3721L63.864 39.9702C64.314 43.0749 63.5737 44.7434 65.4171 45.9911C68.1749 47.7466 69.3506 48.3124 72.7906 50.5902C73.1679 50.8078 73.8792 51.0545 73.8792 50.155C73.8792 47.6886 73.763 43.7133 73.763 41.2759L73.7485 41.3485Z" fill="black"/>
<path d="M85.4628 124.379C84.0984 125.279 83.0243 125.83 81.5438 126.758C79.773 127.774 77.5958 129.225 74.0833 131.212C72.7189 131.996 72.4286 132.489 72.4141 133.606C72.4871 135.172 72.6568 136.733 72.9221 138.278C73.4446 140.672 78.3651 149.885 78.2925 147.259C78.2199 144.633 77.6974 136.435 77.3926 134.317C77.3926 134.317 81.3696 131.416 87.0884 127.992C88.5399 127.107 88.5399 125.743 88.8157 124.06C88.8226 122.996 88.9051 121.935 89.0624 120.883C89.164 119.794 88.9608 119.229 88.4238 118.982C88.2496 118.866 87.4513 118.344 85.724 117.328C85.5789 120.825 85.5934 121.144 85.4337 124.394L85.4628 124.379Z" fill="black"/>
<path d="M84.491 63.9378C74.7226 69.5089 79.2947 67.4342 68.5248 73.4697C66.217 74.7464 65.9993 76.2843 66.0718 77.0532C66.275 79.5341 66.2895 80.4191 66.5363 82.6244C66.7105 83.6109 67.0153 86.7592 68.4958 87.4121C70.3954 88.7044 72.3678 89.8863 74.4033 90.9521C74.4033 90.9521 74.0259 81.8844 74.0259 81.0575C82.9814 76.0376 85.957 74.4127 91.4435 70.9017C93.1708 69.7846 92.895 60.7459 93.5191 54.9427C93.6655 54.1437 93.553 53.3189 93.1979 52.5882C92.8429 51.8576 92.2639 51.2593 91.5451 50.8803C89.9485 49.9518 87.3939 48.3414 84.5345 46.6149C84.5345 51.7944 84.7232 58.5407 84.4474 63.8797L84.491 63.9378Z" fill="#4D4D4D"/>
<path d="M84.1851 94.144C81.2822 95.5948 76.0859 99.1928 70.4107 102.37C69.7922 102.814 69.2845 103.394 68.9271 104.066C68.5696 104.738 68.372 105.483 68.3496 106.244C68.5964 108.725 68.756 109.755 68.9883 112.25C69.206 113.483 69.206 114.891 70.6574 115.761C71.2671 116.095 74.5038 118.112 75.2586 118.445C75.1715 115.616 74.9538 111.8 74.9538 109.029C74.9538 109.029 80.1791 105.881 86.5655 102.167C89.7297 100.31 89.4685 99.6861 89.7878 98.0031C89.8894 96.915 90.2523 93.0558 90.4119 90.749C90.4767 90.3522 90.4416 89.9454 90.3098 89.5655C90.1781 89.1856 89.9538 88.8444 89.6572 88.5728C88.6411 87.8764 86.2753 86.3095 84.3593 85.2794C84.3593 88.7759 84.1851 90.6039 84.1851 94.144Z" fill="#4D4D4D"/>
<path d="M73.5898 40.7246C73.5898 47.3839 74.0253 58.5698 74.1704 65.2726C74.0833 66.8975 74.1704 65.7803 74.1704 68.6965C77.3056 66.941 79.8892 65.3886 82.9954 63.5316C83.634 63.1544 83.4018 62.3129 83.4308 61.573C83.6485 55.5375 83.605 44.1631 83.605 37.6054C83.2276 37.4748 83.4163 37.4748 82.4874 37.1266C81.8406 36.8033 81.1095 36.6883 80.3947 36.7975C79.6799 36.9066 79.0165 37.2344 78.4958 37.7359C78.3652 37.7359 74.4172 40.2894 73.5898 40.6376V40.7246Z" fill="#4D4D4D"/>
<path d="M75.4766 81.7539C75.4766 85.3665 75.6798 94.2165 75.941 97.713C75.941 97.713 82.2985 94.0859 83.329 93.3605C83.329 88.7179 83.5177 81.6669 83.5177 77.0677C80.876 78.446 77.4651 80.3901 75.4766 81.7539Z" fill="#4D4D4D"/>
<path d="M75.8965 109.871C76.0707 113.367 76.8254 122.624 76.9706 126.512C79.7138 124.901 81.2234 123.799 83.3715 122.508C83.3715 120.97 84.1118 105.576 83.9376 105.098C83.9667 105.04 79.6268 107.666 75.8965 109.871Z" fill="#4D4D4D"/>
<path d="M77.4648 133.824C77.5955 138.496 78.0309 143.98 78.6696 149.261C79.1298 149.47 79.6336 149.566 80.1387 149.541C80.6438 149.516 81.1354 149.37 81.5725 149.116C82.3128 142.471 82.8788 136.61 83.1401 129.82C81.529 130.792 79.2211 132.634 77.4648 133.824Z" fill="#4D4D4D"/>
<path d="M86.7259 18.4545C85.8136 18.202 84.9535 17.7893 84.1858 17.2358C83.8229 17.0327 83.6633 16.9891 83.5472 16.5684C84.6212 16.4814 88.2644 14.5953 89.0918 14.5227C88.7169 15.1982 88.2899 15.8434 87.8145 16.4523C87.3858 17.0818 87.0211 17.7525 86.7259 18.4545ZM80.0781 21.5447C79.138 23.9633 78.6177 26.5245 78.5396 29.118C78.5396 30.0901 89.2224 36.2851 83.344 31.7295C79.1202 28.3926 80.47 20.1519 80.0781 21.5447ZM72.5741 40.1588C73.2562 39.593 78.6847 36.1255 80.2814 35.284C81.1667 35.0809 95.5073 40.5505 99.1504 42.0884C99.4407 42.2045 99.8472 42.4366 100.181 42.0884C100.819 41.6563 101.322 41.0528 101.632 40.3474C96.9442 37.1266 93.7945 35.9949 91.0658 32.4985C90.3835 31.5847 89.7813 30.6139 89.2659 29.5968C89.1208 29.3357 88.9902 29.0455 88.8595 28.7553C88.6821 28.2613 88.4786 27.777 88.2499 27.3045C88.015 26.8787 87.8206 26.4319 87.6693 25.9697C87.446 25.4195 87.2522 24.8577 87.0887 24.2868H91.3125C93.0738 21.849 94.9735 19.5141 97.0023 17.2938C98.3231 17.6565 98.5553 17.5405 99.2666 18.9187C99.6294 20.3696 99.9633 20.7178 100.21 19.0058C100.219 17.9092 100.037 16.8194 99.673 15.785C99.5278 15.3207 99.3246 15.016 99.4408 14.6388C100.087 13.5599 100.889 12.5822 101.821 11.7372C102.75 10.7506 101.995 7.3847 101.516 7.18158C101.037 6.97847 81.4135 14.7549 79.1637 15.6109C78.1622 16.0026 78.2348 22.865 77.3929 24.0111C75.1722 25.7521 68.2342 29.3937 64.62 31.3813C63.8854 31.7053 63.2744 32.2566 62.8771 32.9541C62.4799 33.6516 62.3174 34.4582 62.4138 35.255L62.675 38.8531C63.125 41.9578 62.3847 43.6263 64.2281 44.874C66.9859 46.6295 68.1616 47.1953 71.6016 49.4731C71.979 49.6907 72.6902 49.9373 72.6902 49.0378C72.6902 46.5714 72.5741 42.5962 72.5741 40.1588Z" fill="#4D4D4D"/>
<path d="M84.1857 123.175C82.8213 124.074 81.7472 124.626 80.2667 125.554C78.4959 126.613 76.3187 128.006 72.8352 130.008C71.4708 130.792 71.1805 131.285 71.166 132.417C71.2395 133.983 71.4092 135.543 71.674 137.088C72.1966 139.468 77.117 148.695 77.0445 146.069C76.9719 143.443 76.4494 135.246 76.1446 133.128C76.1446 133.128 80.1216 130.226 85.8404 126.802C87.2918 125.917 87.2918 124.553 87.5676 122.87C87.5746 121.807 87.6571 120.745 87.8144 119.693C87.916 118.605 87.7128 118.039 87.1757 117.792C86.3384 117.168 85.4442 116.624 84.505 116.167C84.4034 119.62 84.4324 119.94 84.1857 123.175Z" fill="#4D4D4D"/>
</g>
<defs>
<clipPath id="clip0_1102_1149">
<rect width="163" height="163" fill="white"/>
</clipPath>
</defs>
</svg>
