<svg width="60" height="60" viewBox="0 0 60 60" fill="none" xmlns="http://www.w3.org/2000/svg">
<circle cx="30" cy="30" r="29" stroke="#69CCCB" stroke-width="2"/>
<path d="M23 42C22.175 42 21.4688 41.7063 20.8813 41.1188C20.2938 40.5312 20 39.825 20 39V34.5H24.5V31.125C23.625 31.075 22.7938 30.8813 22.0063 30.5438C21.2188 30.2063 20.5 29.7 19.85 29.025V27.375H18.125L13.25 22.5C14.15 21.35 15.2625 20.5375 16.5875 20.0625C17.9125 19.5875 19.25 19.35 20.6 19.35C21.275 19.35 21.9313 19.4 22.5688 19.5C23.2063 19.6 23.85 19.7875 24.5 20.0625V18H42.5V37.5C42.5 38.75 42.0625 39.8125 41.1875 40.6875C40.3125 41.5625 39.25 42 38 42H23ZM27.5 34.5H36.5V37.5C36.5 37.925 36.6438 38.2812 36.9313 38.5688C37.2188 38.8563 37.575 39 38 39C38.425 39 38.7813 38.8563 39.0688 38.5688C39.3563 38.2812 39.5 37.925 39.5 37.5V21H27.5V21.9L36.5 30.9V33H34.4L30.125 28.725L29.825 29.025C29.475 29.375 29.1063 29.6875 28.7188 29.9625C28.3313 30.2375 27.925 30.45 27.5 30.6V34.5ZM19.4 24.375H22.85V27.6C23.15 27.8 23.4625 27.9375 23.7875 28.0125C24.1125 28.0875 24.45 28.125 24.8 28.125C25.375 28.125 25.8938 28.0375 26.3563 27.8625C26.8188 27.6875 27.275 27.375 27.725 26.925L28.025 26.625L25.925 24.525C25.2 23.8 24.3875 23.2563 23.4875 22.8938C22.5875 22.5312 21.625 22.35 20.6 22.35C20.1 22.35 19.625 22.3875 19.175 22.4625C18.725 22.5375 18.275 22.65 17.825 22.8L19.4 24.375ZM33.5 37.5H23V39H33.725C33.65 38.775 33.5938 38.5375 33.5563 38.2875C33.5188 38.0375 33.5 37.775 33.5 37.5Z" fill="#69CCCB"/>
</svg>
