<svg width="60" height="60" viewBox="0 0 60 60" fill="none" xmlns="http://www.w3.org/2000/svg">
<circle cx="30" cy="30" r="29" stroke="#69CCCB" stroke-width="2"/>
<path d="M24 31.5C24.425 31.5 24.7812 31.3563 25.0688 31.0688C25.3563 30.7813 25.5 30.425 25.5 30C25.5 29.575 25.3563 29.2188 25.0688 28.9313C24.7812 28.6438 24.425 28.5 24 28.5C23.575 28.5 23.2188 28.6438 22.9313 28.9313C22.6438 29.2188 22.5 29.575 22.5 30C22.5 30.425 22.6438 30.7813 22.9313 31.0688C23.2188 31.3563 23.575 31.5 24 31.5ZM30 31.5C30.425 31.5 30.7813 31.3563 31.0688 31.0688C31.3563 30.7813 31.5 30.425 31.5 30C31.5 29.575 31.3563 29.2188 31.0688 28.9313C30.7813 28.6438 30.425 28.5 30 28.5C29.575 28.5 29.2188 28.6438 28.9313 28.9313C28.6438 29.2188 28.5 29.575 28.5 30C28.5 30.425 28.6438 30.7813 28.9313 31.0688C29.2188 31.3563 29.575 31.5 30 31.5ZM36 31.5C36.425 31.5 36.7812 31.3563 37.0688 31.0688C37.3563 30.7813 37.5 30.425 37.5 30C37.5 29.575 37.3563 29.2188 37.0688 28.9313C36.7812 28.6438 36.425 28.5 36 28.5C35.575 28.5 35.2188 28.6438 34.9313 28.9313C34.6438 29.2188 34.5 29.575 34.5 30C34.5 30.425 34.6438 30.7813 34.9313 31.0688C35.2188 31.3563 35.575 31.5 36 31.5ZM15 48V21C15 20.175 15.2937 19.4688 15.8813 18.8813C16.4688 18.2937 17.175 18 18 18H42C42.825 18 43.5313 18.2937 44.1188 18.8813C44.7063 19.4688 45 20.175 45 21V39C45 39.825 44.7063 40.5312 44.1188 41.1188C43.5313 41.7063 42.825 42 42 42H21L15 48ZM19.725 39H42V21H18V40.6875L19.725 39Z" fill="#69CCCB"/>
</svg>
