<svg width="60" height="60" viewBox="0 0 60 60" fill="none" xmlns="http://www.w3.org/2000/svg">
<circle cx="30" cy="30" r="29" stroke="#69CCCB" stroke-width="2"/>
<path d="M25 39H37V36H25V39ZM25 33H37V30H25V33ZM22 45C21.175 45 20.4688 44.7063 19.8813 44.1188C19.2937 43.5313 19 42.825 19 42V18C19 17.175 19.2937 16.4688 19.8813 15.8813C20.4688 15.2937 21.175 15 22 15H34L43 24V42C43 42.825 42.7063 43.5313 42.1188 44.1188C41.5312 44.7063 40.825 45 40 45H22ZM32.5 25.5V18H22V42H40V25.5H32.5Z" fill="#69CCCB"/>
</svg>
