<svg width="60" height="60" viewBox="0 0 60 60" fill="none" xmlns="http://www.w3.org/2000/svg">
<circle cx="30" cy="30" r="29" stroke="#69CCCB" stroke-width="2"/>
<path d="M33.75 35.25V27.75H35.8125L38.25 30.1875V35.25H33.75ZM31.5 37.5H40.5V29.25L36.75 25.5H31.5V37.5ZM18 42C17.175 42 16.4688 41.7063 15.8813 41.1188C15.2937 40.5312 15 39.825 15 39V21C15 20.175 15.2937 19.4688 15.8813 18.8813C16.4688 18.2937 17.175 18 18 18H27L30 21H42C42.825 21 43.5313 21.2938 44.1188 21.8813C44.7063 22.4688 45 23.175 45 24V39C45 39.825 44.7063 40.5312 44.1188 41.1188C43.5313 41.7063 42.825 42 42 42H18ZM18 39H42V24H28.7625L25.7625 21H18V39Z" fill="#69CCCB"/>
</svg>
