<svg width="61" height="60" viewBox="0 0 61 60" fill="none" xmlns="http://www.w3.org/2000/svg">
<circle cx="30.5" cy="30" r="29" stroke="#69CCCB" stroke-width="2"/>
<path d="M37 31.5L30.775 25.425C30 24.675 29.3438 23.8438 28.8063 22.9313C28.2688 22.0188 28 21.025 28 19.95C28 18.575 28.4813 17.4062 29.4438 16.4438C30.4063 15.4813 31.575 15 32.95 15C33.75 15 34.5 15.1688 35.2 15.5063C35.9 15.8438 36.5 16.3 37 16.875C37.5 16.3 38.1 15.8438 38.8 15.5063C39.5 15.1688 40.25 15 41.05 15C42.425 15 43.5938 15.4813 44.5563 16.4438C45.5188 17.4062 46 18.575 46 19.95C46 21.025 45.7375 22.0188 45.2125 22.9313C44.6875 23.8438 44.0375 24.675 43.2625 25.425L37 31.5ZM37 27.3L41.0875 23.2875C41.5625 22.8125 42 22.3063 42.4 21.7688C42.8 21.2313 43 20.625 43 19.95C43 19.4 42.8125 18.9375 42.4375 18.5625C42.0625 18.1875 41.6 18 41.05 18C40.7 18 40.3688 18.0688 40.0563 18.2063C39.7438 18.3438 39.475 18.55 39.25 18.825L37 21.525L34.75 18.825C34.525 18.55 34.2563 18.3438 33.9438 18.2063C33.6313 18.0688 33.3 18 32.95 18C32.4 18 31.9375 18.1875 31.5625 18.5625C31.1875 18.9375 31 19.4 31 19.95C31 20.625 31.2 21.2313 31.6 21.7688C32 22.3063 32.4375 22.8125 32.9125 23.2875L37 27.3ZM23.5 39.75L33.925 42.6L42.85 39.825C42.725 39.6 42.5438 39.4063 42.3063 39.2438C42.0688 39.0813 41.8 39 41.5 39H33.925C33.25 39 32.7125 38.975 32.3125 38.925C31.9125 38.875 31.5 38.775 31.075 38.625L27.5875 37.4625L28.4125 34.5375L31.45 35.55C31.875 35.675 32.375 35.775 32.95 35.85C33.525 35.925 34.375 35.975 35.5 36C35.5 35.725 35.4188 35.4625 35.2563 35.2125C35.0938 34.9625 34.9 34.8 34.675 34.725L25.9 31.5H23.5V39.75ZM14.5 45V28.5H25.9C26.075 28.5 26.25 28.5188 26.425 28.5563C26.6 28.5938 26.7625 28.6375 26.9125 28.6875L35.725 31.95C36.55 32.25 37.2188 32.775 37.7313 33.525C38.2438 34.275 38.5 35.1 38.5 36H41.5C42.75 36 43.8125 36.4125 44.6875 37.2375C45.5625 38.0625 46 39.15 46 40.5V42L34 45.75L23.5 42.825V45H14.5ZM17.5 42H20.5V31.5H17.5V42Z" fill="#69CCCB"/>
</svg>
