<svg width="61" height="60" viewBox="0 0 61 60" fill="none" xmlns="http://www.w3.org/2000/svg">
<circle cx="30.5" cy="30" r="29" stroke="#69CCCB" stroke-width="2"/>
<g clip-path="url(#clip0_1275_115)">
<path d="M26.125 45.6375C24.975 45.6375 23.9438 45.3375 23.0312 44.7375C22.1188 44.1375 21.4125 43.3125 20.9125 42.2625C20.5125 42.7875 20.0063 43.1937 19.3938 43.4812C18.7812 43.7687 18.15 43.9125 17.5 43.9125C16.225 43.9125 15.1562 43.475 14.2938 42.6C13.4313 41.725 13 40.6625 13 39.4125C13 38.3375 13.35 37.3687 14.05 36.5062C14.75 35.6437 15.6375 35.15 16.7125 35.025C16.3625 34.525 16.0938 33.9937 15.9062 33.4312C15.7188 32.8687 15.625 32.275 15.625 31.65C15.625 30.65 15.8813 29.7125 16.3938 28.8375C16.9063 27.9625 17.625 27.25 18.55 26.7C18.675 27.15 18.8438 27.6312 19.0563 28.1437C19.2688 28.6562 19.5125 29.1 19.7875 29.475C19.4375 29.75 19.1625 30.0812 18.9625 30.4687C18.7625 30.8562 18.6625 31.2625 18.6625 31.6875C18.6625 33.0875 19.2375 33.95 20.3875 34.275C21.5375 34.6 22.625 34.8625 23.65 35.0625L24.3625 36.2625C24.0875 37.0625 23.85 37.7437 23.65 38.3062C23.45 38.8687 23.35 39.375 23.35 39.825C23.35 40.575 23.6188 41.2312 24.1562 41.7937C24.6938 42.3562 25.35 42.6375 26.125 42.6375C27.075 42.6375 27.8625 42.2125 28.4875 41.3625C29.1125 40.5125 29.625 39.5125 30.025 38.3625C30.425 37.2125 30.7313 36.05 30.9438 34.875C31.1562 33.7 31.325 32.8 31.45 32.175L34.375 32.9625C34.15 34.0875 33.875 35.375 33.55 36.825C33.225 38.275 32.7688 39.6562 32.1813 40.9687C31.5938 42.2812 30.8188 43.3875 29.8563 44.2875C28.8938 45.1875 27.65 45.6375 26.125 45.6375ZM17.5 40.9125C17.925 40.9125 18.2812 40.7687 18.5688 40.4812C18.8563 40.1937 19 39.8375 19 39.4125C19 38.9875 18.8563 38.6312 18.5688 38.3437C18.2812 38.0562 17.925 37.9125 17.5 37.9125C17.075 37.9125 16.7188 38.0562 16.4313 38.3437C16.1438 38.6312 16 38.9875 16 39.4125C16 39.8375 16.1438 40.1937 16.4313 40.4812C16.7188 40.7687 17.075 40.9125 17.5 40.9125ZM28.15 34.9875C27 33.9625 25.9563 33.0062 25.0188 32.1187C24.0813 31.2312 23.275 30.3687 22.6 29.5312C21.925 28.6937 21.4062 27.8562 21.0438 27.0187C20.6813 26.1812 20.5 25.3125 20.5 24.4125C20.5 22.7875 21.0563 21.4187 22.1688 20.3062C23.2812 19.1937 24.65 18.6375 26.275 18.6375C26.375 18.6375 26.4625 18.6437 26.5375 18.6562C26.6125 18.6687 26.7 18.675 26.8 18.675C26.7 18.425 26.625 18.175 26.575 17.925C26.525 17.675 26.5 17.4125 26.5 17.1375C26.5 15.8875 26.9375 14.825 27.8125 13.95C28.6875 13.075 29.75 12.6375 31 12.6375C32.25 12.6375 33.3125 13.075 34.1875 13.95C35.0625 14.825 35.5 15.8875 35.5 17.1375C35.5 17.4125 35.475 17.6687 35.425 17.9062C35.375 18.1437 35.3 18.3875 35.2 18.6375H35.725C37.225 18.6375 38.5 19.1187 39.55 20.0812C40.6 21.0437 41.225 22.2375 41.425 23.6625C40.975 23.5875 40.4688 23.55 39.9063 23.55C39.3438 23.55 38.825 23.575 38.35 23.625C38.175 23.05 37.8563 22.575 37.3938 22.2C36.9313 21.825 36.375 21.6375 35.725 21.6375C34.85 21.6375 34.1688 21.8937 33.6813 22.4062C33.1938 22.9187 32.525 23.6625 31.675 24.6375H30.2875C29.4125 23.6125 28.7313 22.8562 28.2438 22.3687C27.7563 21.8812 27.1 21.6375 26.275 21.6375C25.475 21.6375 24.8125 21.9 24.2875 22.425C23.7625 22.95 23.5 23.6125 23.5 24.4125C23.5 24.9875 23.6625 25.5812 23.9875 26.1937C24.3125 26.8062 24.7688 27.4562 25.3563 28.1437C25.9438 28.8312 26.6563 29.5625 27.4938 30.3375C28.3313 31.1125 29.2625 31.95 30.2875 32.85L28.15 34.9875ZM31 18.6375C31.425 18.6375 31.7812 18.4937 32.0688 18.2062C32.3563 17.9187 32.5 17.5625 32.5 17.1375C32.5 16.7125 32.3563 16.3562 32.0688 16.0687C31.7812 15.7812 31.425 15.6375 31 15.6375C30.575 15.6375 30.2188 15.7812 29.9313 16.0687C29.6438 16.3562 29.5 16.7125 29.5 17.1375C29.5 17.5625 29.6438 17.9187 29.9313 18.2062C30.2188 18.4937 30.575 18.6375 31 18.6375ZM35.8375 45.6375C35.2875 45.6375 34.7438 45.5625 34.2063 45.4125C33.6688 45.2625 33.15 45.025 32.65 44.7C32.925 44.35 33.2 43.9375 33.475 43.4625C33.75 42.9875 34 42.55 34.225 42.15C34.5 42.325 34.775 42.45 35.05 42.525C35.325 42.6 35.6 42.6375 35.875 42.6375C36.675 42.6375 37.3438 42.3562 37.8813 41.7937C38.4188 41.2312 38.6875 40.5625 38.6875 39.7875C38.6875 39.3125 38.5875 38.8 38.3875 38.25C38.1875 37.7 37.95 37.025 37.675 36.225L38.3875 35.025C39.4375 34.825 40.5313 34.5625 41.6688 34.2375C42.8063 33.9125 43.375 33.05 43.375 31.65C43.375 30.65 43.0063 29.925 42.2688 29.475C41.5313 29.025 40.725 28.8 39.85 28.8C38.8 28.8 37.575 29 36.175 29.4C34.775 29.8 33.1375 30.3125 31.2625 30.9375L30.475 28.0125C32.425 27.3875 34.1625 26.8625 35.6875 26.4375C37.2125 26.0125 38.6125 25.8 39.8875 25.8C41.6125 25.8 43.125 26.3125 44.425 27.3375C45.725 28.3625 46.375 29.8 46.375 31.65C46.375 32.275 46.2812 32.8687 46.0938 33.4312C45.9062 33.9937 45.6375 34.525 45.2875 35.025C46.3625 35.15 47.25 35.6437 47.95 36.5062C48.65 37.3687 49 38.3375 49 39.4125C49 40.6625 48.5688 41.725 47.7063 42.6C46.8438 43.475 45.775 43.9125 44.5 43.9125C43.85 43.9125 43.2188 43.7687 42.6063 43.4812C41.9938 43.1937 41.4875 42.7875 41.0875 42.2625C40.5875 43.3125 39.8813 44.1375 38.9688 44.7375C38.0563 45.3375 37.0125 45.6375 35.8375 45.6375ZM44.5375 40.9125C44.9625 40.9125 45.3125 40.7687 45.5875 40.4812C45.8625 40.1937 46 39.8375 46 39.4125C46 38.9875 45.8563 38.625 45.5688 38.325C45.2812 38.025 44.925 37.875 44.5 37.875C44.075 37.875 43.7188 38.0187 43.4313 38.3062C43.1438 38.5937 43 38.95 43 39.375C43 39.8 43.15 40.1625 43.45 40.4625C43.75 40.7625 44.1125 40.9125 44.5375 40.9125Z" fill="#69CCCB"/>
</g>
<defs>
<clipPath id="clip0_1275_115">
<rect width="36" height="36" fill="white" transform="translate(13 12)"/>
</clipPath>
</defs>
</svg>
