<svg width="61" height="60" viewBox="0 0 61 60" fill="none" xmlns="http://www.w3.org/2000/svg">
<circle cx="30.5" cy="30" r="29" stroke="#69CCCB" stroke-width="2"/>
<path d="M19.0016 42V27.9375L16.3016 30L14.5391 27.6375L31.0016 15L47.5016 27.6L45.7016 30L31.0016 18.75L22.0016 25.65V39H28.0016V42H19.0016ZM39.2516 45.5625C38.2016 46.2875 37.0453 46.5938 35.7828 46.4813C34.5203 46.3688 33.4391 45.8625 32.5391 44.9625C31.6391 44.0625 31.1328 42.9813 31.0203 41.7188C30.9078 40.4563 31.2141 39.3 31.9391 38.25C31.2141 37.2 30.9078 36.0438 31.0203 34.7812C31.1328 33.5188 31.6391 32.4375 32.5391 31.5375C33.4391 30.6375 34.5203 30.1313 35.7828 30.0188C37.0453 29.9063 38.2016 30.2125 39.2516 30.9375C40.3016 30.2125 41.4578 29.9063 42.7203 30.0188C43.9828 30.1313 45.0641 30.6375 45.9641 31.5375C46.8641 32.4375 47.3703 33.5188 47.4828 34.7812C47.5953 36.0438 47.2891 37.2 46.5641 38.25C47.2891 39.3 47.5953 40.4563 47.4828 41.7188C47.3703 42.9813 46.8641 44.0625 45.9641 44.9625C45.0641 45.8625 43.9828 46.3688 42.7203 46.4813C41.4578 46.5938 40.3016 46.2875 39.2516 45.5625ZM39.2516 41.8875L40.9766 43.0875C41.4266 43.4125 41.9141 43.55 42.4391 43.5C42.9641 43.45 43.4266 43.225 43.8266 42.825C44.2266 42.425 44.4516 41.9625 44.5016 41.4375C44.5516 40.9125 44.4141 40.425 44.0891 39.975L42.8891 38.25L44.0891 36.525C44.4141 36.075 44.5516 35.5875 44.5016 35.0625C44.4516 34.5375 44.2266 34.075 43.8266 33.675C43.4266 33.275 42.9641 33.05 42.4391 33C41.9141 32.95 41.4266 33.0875 40.9766 33.4125L39.2516 34.6125L37.5266 33.4125C37.0766 33.0875 36.5891 32.95 36.0641 33C35.5391 33.05 35.0766 33.275 34.6766 33.675C34.2766 34.075 34.0516 34.5375 34.0016 35.0625C33.9516 35.5875 34.0891 36.075 34.4141 36.525L35.6141 38.25L34.4141 39.975C34.0891 40.425 33.9516 40.9125 34.0016 41.4375C34.0516 41.9625 34.2766 42.425 34.6766 42.825C35.0766 43.225 35.5391 43.45 36.0641 43.5C36.5891 43.55 37.0766 43.4125 37.5266 43.0875L39.2516 41.8875ZM39.2516 40.125C39.7766 40.125 40.2203 39.9438 40.5828 39.5813C40.9453 39.2188 41.1266 38.775 41.1266 38.25C41.1266 37.725 40.9453 37.2812 40.5828 36.9188C40.2203 36.5563 39.7766 36.375 39.2516 36.375C38.7266 36.375 38.2828 36.5563 37.9203 36.9188C37.5578 37.2812 37.3766 37.725 37.3766 38.25C37.3766 38.775 37.5578 39.2188 37.9203 39.5813C38.2828 39.9438 38.7266 40.125 39.2516 40.125Z" fill="#69CCCB"/>
</svg>
