<svg xmlns="http://www.w3.org/2000/svg" aria-hidden="true">
  <defs>
    <symbol id="why-should__01" viewBox="0 0 33 32">
      <path fill="none" stroke="#69cccb" stroke-width="1.067"
        d="M31.733 16c0 8.542-6.925 15.467-15.467 15.467S.799 24.542.799 16C.799 7.458 7.724.533 16.266.533S31.733 7.458 31.733 16z"
        style="stroke:var(--color1, #69cccb)" />
      <path fill="#69cccb" d="M14.933 21.867v-1.6h3.2v1.6h-3.2zm-3.2-4v-1.6h9.6v1.6h-9.6zm-2.4-4v-1.6h14.4v1.6h-14.4z"
        style="fill:var(--color1, #69cccb)" />
    </symbol>
    <symbol id="why-should__02" viewBox="0 0 33 32">
      <path fill="none" stroke="#69cccb" stroke-width="1.067"
        d="M31.733 16c0 8.542-6.925 15.467-15.467 15.467S.799 24.542.799 16C.799 7.458 7.724.533 16.266.533S31.733 7.458 31.733 16z"
        style="stroke:var(--color1, #69cccb)" />
      <path fill="#69cccb"
        d="M13.933 24.34c-.613 0-1.163-.16-1.65-.48s-.863-.76-1.13-1.32c-.213.28-.483.497-.81.65s-.663.23-1.01.23c-.68 0-1.25-.233-1.71-.7s-.69-1.033-.69-1.7c0-.573.187-1.09.56-1.55s.847-.723 1.42-.79c-.187-.267-.33-.55-.43-.85s-.15-.617-.15-.95c0-.533.137-1.033.41-1.5s.657-.847 1.15-1.14c.067.24.157.497.27.77s.243.51.39.71c-.187.147-.333.323-.44.53s-.16.423-.16.65c0 .747.307 1.207.92 1.38s1.193.313 1.74.42l.38.64c-.147.427-.273.79-.38 1.09s-.16.57-.16.81c0 .4.143.75.43 1.05s.637.45 1.05.45c.507 0 .927-.227 1.26-.68s.607-.987.82-1.6c.213-.613.377-1.233.49-1.86s.203-1.107.27-1.44l1.56.42c-.12.6-.267 1.287-.44 2.06s-.417 1.51-.73 2.21-.727 1.29-1.24 1.77-1.177.72-1.99.72zm-4.6-2.52c.227 0 .417-.077.57-.23s.23-.343.23-.57-.077-.417-.23-.57c-.153-.153-.343-.23-.57-.23s-.417.077-.57.23c-.153.153-.23.343-.23.57s.077.417.23.57c.153.153.343.23.57.23zm5.68-3.16c-.613-.547-1.17-1.057-1.67-1.53s-.93-.933-1.29-1.38c-.36-.447-.637-.893-.83-1.34s-.29-.91-.29-1.39c0-.867.297-1.597.89-2.19s1.323-.89 2.19-.89c.053 0 .1.003.14.01s.087.01.14.01a2.108 2.108 0 0 1-.16-.82c0-.667.233-1.233.7-1.7s1.033-.7 1.7-.7 1.233.233 1.7.7.7 1.033.7 1.7c0 .147-.013.283-.04.41s-.067.257-.12.39h.28c.8 0 1.48.257 2.04.77s.893 1.15 1 1.91c-.24-.04-.51-.06-.81-.06s-.577.013-.83.04c-.093-.307-.263-.56-.51-.76s-.543-.3-.89-.3c-.467 0-.83.137-1.09.41s-.617.67-1.07 1.19h-.74c-.467-.547-.83-.95-1.09-1.21s-.61-.39-1.05-.39c-.427 0-.78.14-1.06.42s-.42.633-.42 1.06c0 .307.087.623.26.95s.417.673.73 1.04.693.757 1.14 1.17.943.86 1.49 1.34l-1.14 1.14zm1.52-8.72c.227 0 .417-.077.57-.23s.23-.343.23-.57-.077-.417-.23-.57c-.153-.153-.343-.23-.57-.23s-.417.077-.57.23c-.153.153-.23.343-.23.57s.077.417.23.57c.153.153.343.23.57.23zm2.58 14.4c-.293 0-.583-.04-.87-.12s-.563-.207-.83-.38c.147-.187.293-.407.44-.66s.28-.487.4-.7a1.621 1.621 0 0 0 .88.26c.427 0 .783-.15 1.07-.45s.43-.657.43-1.07c0-.253-.053-.527-.16-.82s-.233-.653-.38-1.08l.38-.64c.56-.107 1.143-.247 1.75-.42s.91-.633.91-1.38c0-.533-.197-.92-.59-1.16s-.823-.36-1.29-.36c-.56 0-1.213.107-1.96.32s-1.62.487-2.62.82l-.42-1.56c1.04-.333 1.967-.613 2.78-.84s1.56-.34 2.24-.34c.92 0 1.727.273 2.42.82s1.04 1.313 1.04 2.3c0 .333-.05.65-.15.95s-.243.583-.43.85c.573.067 1.047.33 1.42.79s.56.977.56 1.55c0 .667-.23 1.233-.69 1.7s-1.03.7-1.71.7c-.347 0-.683-.077-1.01-.23s-.597-.37-.81-.65c-.267.56-.643 1-1.13 1.32s-1.043.48-1.67.48zm4.64-2.52c.227 0 .413-.077.56-.23s.22-.343.22-.57c0-.227-.077-.42-.23-.58s-.343-.24-.57-.24-.417.077-.57.23c-.153.153-.23.343-.23.57s.08.42.24.58c.16.16.353.24.58.24z"
        style="fill:var(--color1, #69cccb)" />
    </symbol>
    <symbol id="why-should__03" viewBox="0 0 33 32">
      <path fill="none" stroke="#69cccb" stroke-width="1.067"
        d="M31.733 16c0 8.542-6.925 15.467-15.467 15.467S.799 24.542.799 16C.799 7.458 7.724.533 16.266.533S31.733 7.458 31.733 16z"
        style="stroke:var(--color1, #69cccb)" />
      <path fill="#69cccb"
        d="M10.134 22.4v-7.5L8.694 16l-.94-1.26L16.534 8l8.8 6.72-.96 1.28-7.84-6-4.8 3.68v7.12h3.2v1.6h-4.8zm10.8 1.9c-.56.387-1.177.55-1.85.49s-1.25-.33-1.73-.81c-.48-.48-.75-1.057-.81-1.73s.103-1.29.49-1.85c-.387-.56-.55-1.177-.49-1.85s.33-1.25.81-1.73 1.057-.75 1.73-.81c.673-.06 1.29.103 1.85.49.56-.387 1.177-.55 1.85-.49s1.25.33 1.73.81c.48.48.75 1.057.81 1.73s-.103 1.29-.49 1.85c.387.56.55 1.177.49 1.85s-.33 1.25-.81 1.73c-.48.48-1.057.75-1.73.81s-1.29-.103-1.85-.49zm0-1.96.92.64c.24.173.5.247.78.22s.527-.147.74-.36c.213-.213.333-.46.36-.74s-.047-.54-.22-.78l-.64-.92.64-.92c.173-.24.247-.5.22-.78s-.147-.527-.36-.74c-.213-.213-.46-.333-.74-.36s-.54.047-.78.22l-.92.64-.92-.64c-.24-.173-.5-.247-.78-.22s-.527.147-.74.36c-.213.213-.333.46-.36.74s.047.54.22.78l.64.92-.64.92c-.173.24-.247.5-.22.78s.147.527.36.74c.213.213.46.333.74.36s.54-.047.78-.22l.92-.64zm0-.94c.28 0 .517-.097.71-.29s.29-.43.29-.71c0-.28-.097-.517-.29-.71s-.43-.29-.71-.29-.517.097-.71.29c-.193.193-.29.43-.29.71s.097.517.29.71c.193.193.43.29.71.29z"
        style="fill:var(--color1, #69cccb)" />
    </symbol>
    <symbol id="why-should__04" viewBox="0 0 33 32">
      <path fill="none" stroke="#69cccb" stroke-width="1.067"
        d="M31.733 16c0 8.542-6.925 15.467-15.467 15.467S.799 24.542.799 16C.799 7.458 7.724.533 16.266.533S31.733 7.458 31.733 16z"
        style="stroke:var(--color1, #69cccb)" />
      <path fill="#69cccb"
        d="m19.733 16.8-3.32-3.24c-.413-.4-.763-.843-1.05-1.33s-.43-1.017-.43-1.59c0-.733.257-1.357.77-1.87S16.84 8 17.573 8c.427 0 .827.09 1.2.27s.693.423.96.73c.267-.307.587-.55.96-.73s.773-.27 1.2-.27c.733 0 1.357.257 1.87.77s.77 1.137.77 1.87c0 .573-.14 1.103-.42 1.59s-.627.93-1.04 1.33l-3.34 3.24zm0-2.24 2.18-2.14c.253-.253.487-.523.7-.81s.32-.61.32-.97c0-.293-.1-.54-.3-.74s-.447-.3-.74-.3c-.187 0-.363.037-.53.11s-.31.183-.43.33l-1.2 1.44-1.2-1.44c-.12-.147-.263-.257-.43-.33s-.343-.11-.53-.11c-.293 0-.54.1-.74.3s-.3.447-.3.74c0 .36.107.683.32.97s.447.557.7.81l2.18 2.14zm-7.2 6.64 5.56 1.52 4.76-1.48c-.067-.12-.163-.223-.29-.31s-.27-.13-.43-.13h-4.04c-.36 0-.647-.013-.86-.04s-.433-.08-.66-.16l-1.86-.62.44-1.56 1.62.54c.227.067.493.12.8.16s.76.067 1.36.08c0-.147-.043-.287-.13-.42s-.19-.22-.31-.26l-4.68-1.72h-1.28v4.4zm-4.8 2.8v-8.8h6.08c.093 0 .187.01.28.03s.18.043.26.07l4.7 1.74c.44.16.797.44 1.07.84s.41.84.41 1.32h1.6c.667 0 1.233.22 1.7.66s.7 1.02.7 1.74v.8l-6.4 2-5.6-1.56V24h-4.8zm1.6-1.6h1.6v-5.6h-1.6v5.6z"
        style="fill:var(--color1, #69cccb)" />
    </symbol>
    <symbol id="how-to-do__01" viewBox="0 0 32 32">
      <path fill="none" stroke="#69cccb" stroke-width="1.067"
        d="M31.467 16c0 8.542-6.925 15.467-15.467 15.467S.533 24.542.533 16C.533 7.458 7.458.533 16 .533S31.467 7.458 31.467 16z"
        style="stroke:var(--color1, #69cccb)" />
      <path fill="#69cccb"
        d="M12.8 16.8c.227 0 .417-.077.57-.23s.23-.343.23-.57-.077-.417-.23-.57c-.153-.153-.343-.23-.57-.23s-.417.077-.57.23c-.153.153-.23.343-.23.57s.077.417.23.57c.153.153.343.23.57.23zm3.2 0c.227 0 .417-.077.57-.23s.23-.343.23-.57c0-.227-.077-.417-.23-.57s-.343-.23-.57-.23c-.227 0-.417.077-.57.23s-.23.343-.23.57c0 .227.077.417.23.57s.343.23.57.23zm3.2 0c.227 0 .417-.077.57-.23s.23-.343.23-.57-.077-.417-.23-.57c-.153-.153-.343-.23-.57-.23s-.417.077-.57.23c-.153.153-.23.343-.23.57s.077.417.23.57c.153.153.343.23.57.23zM8 25.6V11.2c0-.44.157-.817.47-1.13s.69-.47 1.13-.47h12.8c.44 0 .817.157 1.13.47s.47.69.47 1.13v9.6c0 .44-.157.817-.47 1.13s-.69.47-1.13.47H11.2L8 25.6zm2.52-4.8H22.4v-9.6H9.6v10.5l.92-.9z"
        style="fill:var(--color1, #69cccb)" />
    </symbol>
    <symbol id="how-to-do__02" viewBox="0 0 32 32">
      <path fill="none" stroke="#69cccb" stroke-width="1.067"
        d="M31.467 16c0 8.542-6.925 15.467-15.467 15.467S.533 24.542.533 16C.533 7.458 7.458.533 16 .533S31.467 7.458 31.467 16z"
        style="stroke:var(--color1, #69cccb)" />
      <path fill="#69cccb"
        d="M13.333 20.8h6.4v-1.6h-6.4v1.6zm0-3.2h6.4V16h-6.4v1.6zm-1.6 6.4c-.44 0-.817-.157-1.13-.47s-.47-.69-.47-1.13V9.6c0-.44.157-.817.47-1.13s.69-.47 1.13-.47h6.4l4.8 4.8v9.6c0 .44-.157.817-.47 1.13s-.69.47-1.13.47h-9.6zm5.6-10.4v-4h-5.6v12.8h9.6v-8.8h-4z"
        style="fill:var(--color1, #69cccb)" />
    </symbol>
    <symbol id="how-to-do__03" viewBox="0 0 32 32">
      <path fill="none" stroke="#69cccb" stroke-width="1.067"
        d="M31.467 16c0 8.542-6.925 15.467-15.467 15.467S.533 24.542.533 16C.533 7.458 7.458.533 16 .533S31.467 7.458 31.467 16z"
        style="stroke:var(--color1, #69cccb)" />
      <path fill="#69cccb"
        d="M12.267 22.4c-.44 0-.817-.157-1.13-.47s-.47-.69-.47-1.13v-2.4h2.4v-1.8c-.467-.027-.91-.13-1.33-.31s-.803-.45-1.15-.81v-.88h-.92l-2.6-2.6c.48-.613 1.073-1.047 1.78-1.3s1.42-.38 2.14-.38c.36 0 .71.027 1.05.08s.683.153 1.03.3V9.6h9.6V20c0 .667-.233 1.233-.7 1.7s-1.033.7-1.7.7h-8zm2.4-4h4.8V20c0 .227.077.417.23.57s.343.23.57.23.417-.077.57-.23a.774.774 0 0 0 .23-.57v-8.8h-6.4v.48l4.8 4.8v1.12h-1.12l-2.28-2.28-.16.16c-.187.187-.383.353-.59.5s-.423.26-.65.34v2.08zm-4.32-5.4h1.84v1.72c.16.107.327.18.5.22s.353.06.54.06c.307 0 .583-.047.83-.14s.49-.26.73-.5l.16-.16-1.12-1.12c-.387-.387-.82-.677-1.3-.87s-.993-.29-1.54-.29a4.618 4.618 0 0 0-1.48.24l.84.84zm7.52 7h-5.6v.8h5.72c-.04-.12-.07-.247-.09-.38s-.03-.273-.03-.42z"
        style="fill:var(--color1, #69cccb)" />
    </symbol>
    <symbol id="how-to-do__04" viewBox="0 0 32 32">
      <path fill="none" stroke="#69cccb" stroke-width="1.067"
        d="M31.467 16c0 8.542-6.925 15.467-15.467 15.467S.533 24.542.533 16C.533 7.458 7.458.533 16 .533S31.467 7.458 31.467 16z"
        style="stroke:var(--color1, #69cccb)" />
      <path fill="#69cccb"
        d="M18 18.8v-4h1.1l1.3 1.3v2.7H18zM16.8 20h4.8v-4.4l-2-2h-2.8V20zm-7.2 2.4c-.44 0-.817-.157-1.13-.47S8 21.24 8 20.8v-9.6c0-.44.157-.817.47-1.13s.69-.47 1.13-.47h4.8l1.6 1.6h6.4c.44 0 .817.157 1.13.47s.47.69.47 1.13v8c0 .44-.157.817-.47 1.13s-.69.47-1.13.47H9.6zm0-1.6h12.8v-8h-7.06l-1.6-1.6H9.6v9.6z"
        style="fill:var(--color1, #69cccb)" />
    </symbol>
  </defs>
</svg>