<svg xmlns="http://www.w3.org/2000/svg">

	<symbol id="next-screen-button" viewBox="0 0 34 49">
		<rect x="1.25" y="1" width="31.5" height="47.5" rx="15.75" stroke="currentColor" />
		<path d="M10.875 22.875L17 29L23.125 22.875" stroke="currentColor" />
	</symbol>

	<symbol id="mob-menu-close" viewBox="0 0 29 30">
		<path d="M4.66718 25.8103L3.625 24.7681L24.4688 3.92432L25.5109 4.96651L4.66718 25.8103Z" fill="currentColor" />
		<path d="M24.4688 25.8103L3.625 4.96651L4.66718 3.92432L25.5109 24.7681L24.4688 25.8103Z" fill="currentColor" />
	</symbol>

	<symbol id="close-popup" viewBox="0 0 21 21">
		<path d="M17.9445 15.8566L12.5878 10.4999L17.9445 5.14326C18.5228 4.56494 18.5228 3.63389 17.9445 3.05557C17.3662 2.47725 16.4351 2.47725 15.8568 3.05557L10.5002 8.41221L5.14351 3.05557C4.56519 2.47725 3.63413 2.47725 3.05581 3.05557C2.47749 3.63389 2.47749 4.56494 3.05581 5.14326L8.41246 10.4999L3.05581 15.8566C2.47749 16.4349 2.47749 17.3659 3.05581 17.9442C3.63413 18.5226 4.56519 18.5226 5.14351 17.9442L10.5002 12.5876L15.8568 17.9442C16.4351 18.5226 17.3662 18.5226 17.9445 17.9442C18.5187 17.3659 18.5187 16.4308 17.9445 15.8566Z" fill="currentColor" />
	</symbol>

	<symbol id="pdf_icon" viewBox="0 0 56 56">
		<path fill-rule="evenodd" clip-rule="evenodd" d="M49.5 15.75V49C49.5 50.8565 48.7625 52.637 47.4497 53.9497C46.137 55.2625 44.3565 56 42.5 56H39V52.5H42.5C43.4283 52.5 44.3185 52.1312 44.9749 51.4749C45.6312 50.8185 46 49.9283 46 49V15.75H39C37.6076 15.75 36.2723 15.1969 35.2877 14.2123C34.3031 13.2277 33.75 11.8924 33.75 10.5V3.5H14.5C13.5717 3.5 12.6815 3.86875 12.0251 4.52513C11.3687 5.1815 11 6.07174 11 7V38.5H7.5V7C7.5 5.14348 8.2375 3.36301 9.55025 2.05025C10.863 0.737498 12.6435 0 14.5 0L33.75 0L49.5 15.75ZM6.1 41.475H0.5V55.4715H3.2685V50.7745H6.079C7.0835 50.7745 7.9375 50.575 8.641 50.169C9.3515 49.7595 9.894 49.2065 10.2615 48.51C10.643 47.7791 10.8366 46.9648 10.825 46.1405C10.825 45.2655 10.6395 44.4745 10.272 43.771C9.90646 43.0717 9.3476 42.4922 8.662 42.1015C7.962 41.6815 7.1115 41.475 6.1 41.475ZM8.0075 46.1405C8.02012 46.6016 7.91788 47.0587 7.71 47.4705C7.5235 47.8291 7.23319 48.123 6.877 48.314C6.46956 48.5156 6.01889 48.6141 5.5645 48.601H3.258V43.68H5.568C6.331 43.68 6.9295 43.89 7.36 44.3135C7.7905 44.7405 8.0075 45.3495 8.0075 46.1405ZM12.267 41.475V55.4715H17.377C18.7805 55.4715 19.946 55.1915 20.87 54.642C21.805 54.0826 22.5352 53.2371 22.9525 52.2305C23.4075 51.1805 23.6385 49.9135 23.6385 48.4365C23.6385 46.9665 23.411 45.7135 22.9525 44.674C22.5401 43.679 21.817 42.8441 20.891 42.294C19.967 41.748 18.7945 41.475 17.3735 41.475H12.267ZM15.0355 43.7325H17.006C17.874 43.7325 18.581 43.9075 19.1375 44.2645C19.7151 44.6423 20.1509 45.2012 20.3765 45.8535C20.653 46.557 20.7895 47.4355 20.7895 48.489C20.8004 49.1871 20.7203 49.8836 20.5515 50.561C20.4268 51.0953 20.1933 51.5981 19.8655 52.038C19.561 52.4305 19.1575 52.7349 18.6965 52.92C18.1563 53.1221 17.5826 53.2195 17.006 53.207H15.0355V43.7325ZM28.136 49.903V55.4715H25.371V41.475H34.289V43.7605H28.136V47.67H33.757V49.903H28.136Z" fill="currentColor" />
	</symbol>

	<symbol id="slider_arrow" viewBox="0 0 87 24">
		<path d="M86.0607 13.0607C86.6464 12.4749 86.6464 11.5251 86.0607 10.9393L76.5147 1.3934C75.9289 0.807611 74.9792 0.807611 74.3934 1.3934C73.8076 1.97919 73.8076 2.92893 74.3934 3.51472L82.8787 12L74.3934 20.4853C73.8076 21.0711 73.8076 22.0208 74.3934 22.6066C74.9792 23.1924 75.9289 23.1924 76.5147 22.6066L86.0607 13.0607ZM0 13.5L85 13.5V10.5L0 10.5L0 13.5Z" fill="currentColor" />
	</symbol>

	<symbol id="slider_arrow_mob" viewBox="0 0 24 19">
		<path d="M15 1L23 9.5L15 18" stroke="currentColor" />
		<line x1="23" y1="9.5" x2="-4.37112e-08" y2="9.5" stroke="currentColor" />
	</symbol>

	<symbol id="play_icon" viewBox="0 0 136 136">
		<circle cx="68" cy="68" r="67.5" stroke="currentColor" />
		<path d="M83 68L59 81.8564L59 54.1436L83 68Z" fill="currentColor" />
	</symbol>

</svg>