<svg width="112" height="47" viewBox="0 0 112 47" fill="none" xmlns="http://www.w3.org/2000/svg">
    <path d="M12.2313 0.799072H0.0887451V46.4534H12.2313V0.799072Z" fill="#4C519E"/>
    <path d="M32.5473 46.5514C27.9718 46.5514 24.1475 45.5715 21.0716 43.6114C17.996 41.6516 15.9109 38.9612 14.819 35.5427L25.1999 29.35C26.6181 33.0612 29.1675 34.9167 32.8512 34.9167C35.6034 34.9167 36.9795 34.1655 36.9795 32.664C36.9795 31.7477 36.4928 31.0808 35.5218 30.6635C35.0377 30.4548 34.5313 30.2662 34.0048 30.1009C33.8839 30.06 33.1552 29.8286 31.8186 29.411L29.4517 28.7237C20.9902 26.097 16.7605 21.4059 16.7605 14.648C16.7605 10.6467 18.1564 7.33013 20.9507 4.7034C23.8238 2.07641 27.5273 0.763184 32.0606 0.763184C35.7048 0.763184 38.9411 1.64906 41.7773 3.42055C44.6085 5.19441 46.6936 7.70677 48.0302 10.9574L37.9503 17.0254C36.777 13.9404 34.8326 12.3979 32.1225 12.3979C31.1096 12.3979 30.3213 12.6169 29.753 13.0548C29.1875 13.4924 28.9034 14.0447 28.9034 14.7116C28.9034 15.6305 29.3703 16.3381 30.3016 16.8397C31.191 17.2977 33.034 17.944 35.8257 18.7765C39.5908 19.945 42.6048 21.3422 44.8729 22.9687C47.7065 24.9695 49.1221 28.1612 49.1221 32.5393C49.1221 36.9605 47.6446 40.4018 44.6899 42.8605C41.7352 45.3222 37.6862 46.5514 32.5473 46.5514Z" fill="#4C519E"/>
    <path d="M72.933 40.1174L75.882 43.5415L70.3852 46.7794L68.3825 44.5093C66.3916 45.7256 64.1713 46.3328 61.7215 46.3328C58.8564 46.3328 56.599 45.565 54.9491 44.0262C53.299 42.4618 52.4738 40.5265 52.4738 38.2199C52.4738 35.2424 53.8455 32.897 56.5873 31.1855C55.7148 29.8453 55.2778 28.4185 55.2778 26.9056C55.2778 24.6217 56.0894 22.762 57.7159 21.322C59.3423 19.8334 61.3923 19.0896 63.8692 19.0896C68.2122 19.0896 71.3066 21.0996 73.1506 25.1185L67.0717 28.7291C66.3916 26.9177 65.4702 26.0121 64.3047 26.0121C63.2619 26.0121 62.7403 26.521 62.7403 27.5374C62.7403 27.637 62.7463 27.7371 62.7583 27.8353C62.77 27.9354 62.7996 28.0339 62.8485 28.1338C62.8974 28.2323 62.9403 28.3263 62.9759 28.4124C63.0131 28.4988 63.0796 28.605 63.1774 28.7291C63.2736 28.8533 63.3464 28.9576 63.3952 29.0455C63.4441 29.1319 63.5343 29.256 63.6677 29.4166C63.8011 29.5785 63.9046 29.7029 63.9774 29.7891C64.0499 29.877 64.1713 30.0194 64.3416 30.2177C64.5106 30.4161 64.6453 30.5645 64.7417 30.6644L68.5648 35.0927C69.0744 34.0008 69.4386 32.8484 69.6565 31.6321L75.3356 35.0185C74.7771 36.8555 73.9756 38.5546 72.933 40.1174ZM62.5937 40.1554C63.1033 40.1554 63.6498 40.0556 64.2321 39.857L60.6651 35.8742C60.083 36.4207 59.7913 37.0781 59.7913 37.8475C59.7913 38.5168 60.0342 39.0696 60.5201 39.5041C61.0044 39.9375 61.696 40.1554 62.5937 40.1554Z" fill="#4C519E"/>
    <path d="M79.4288 0.818848H96.4284C100.801 0.818848 104.482 2.31882 107.479 5.32192C110.434 8.23469 111.911 12.1937 111.911 17.1962C111.911 22.1559 110.434 26.1363 107.479 29.1394C104.482 32.0974 100.801 33.5765 96.4284 33.5765H91.5714V46.4967H79.4288V0.818848ZM91.5714 20.9161H96.4284C97.3994 20.9161 98.1999 20.5791 98.8273 19.9045C99.4549 19.23 99.7687 18.3298 99.7687 17.1962C99.7687 16.0679 99.4549 15.1651 98.8273 14.4879C98.1999 13.8159 97.3994 13.4789 96.4284 13.4789H91.5714V20.9161Z" fill="#4C519E"/>
</svg>