<svg xmlns="http://www.w3.org/2000/svg">

    <symbol id="address" viewBox="0 0 17 24">
        <path d="M8.26264 23.5C7.8809 22.9596 7.51639 22.4539 7.16262 21.9408C5.24701 19.1627 3.4052 16.3385 1.92456 13.3045C1.43953 12.3107 1.02405 11.2773 0.658184 10.2341C0.0293479 8.44097 0.24542 6.66695 1.08649 5.00151C2.58261 2.03898 5.0545 0.494035 8.39972 0.500017C12.492 0.507342 15.8447 3.67691 16.1972 7.7121C16.3124 9.03111 15.9326 10.2359 15.4606 11.4274C14.6128 13.5669 13.4945 15.5735 12.263 17.5126C11.0219 19.4669 9.70203 21.3723 8.41611 23.2987C8.38 23.3527 8.3374 23.4023 8.26264 23.5ZM10.437 8.35755C10.4347 7.16361 9.47167 6.21094 8.26773 6.21155C7.06345 6.21217 6.09915 7.16708 6.09938 8.35872C6.09955 9.55059 7.06283 10.5028 8.26897 10.5034C9.47285 10.5042 10.4394 9.54757 10.437 8.35755Z" fill="currentColor"/>
    </symbol>

    <symbol id="phone" viewBox="0 0 15 24">
        <path d="M0.364255 11.9755C0.364082 9.02102 0.361606 6.06658 0.365291 3.11215C0.366788 1.94309 1.03284 0.9795 2.0829 0.649554C2.37065 0.559108 2.68344 0.50902 2.985 0.507926C5.83391 0.497621 8.68287 0.49883 11.5318 0.50332C13.0526 0.505738 14.1459 1.59443 14.1469 3.11664C14.151 9.04474 14.1511 14.9728 14.1464 20.9009C14.1452 22.4017 13.0463 23.4931 11.5419 23.4959C8.693 23.5015 5.84404 23.5009 2.99508 23.4966C1.45542 23.4944 0.367306 22.4055 0.365406 20.8676C0.361837 17.9036 0.36437 14.9396 0.364255 11.9755ZM12.3252 3.71234C8.92755 3.71234 5.56453 3.71234 2.19776 3.71234C2.19776 8.56027 2.19776 13.3886 2.19776 18.215C5.58537 18.215 8.94851 18.215 12.3252 18.215C12.3252 13.3741 12.3252 8.55255 12.3252 3.71234ZM8.6542 20.9896C8.65673 20.213 8.05102 19.59 7.2868 19.5832C6.47918 19.5761 5.85838 20.1859 5.85843 20.9863C5.85849 21.7569 6.47158 22.3751 7.23971 22.3792C8.02833 22.3833 8.65161 21.771 8.6542 20.9896Z" fill="currentColor"/>
    </symbol>

    <symbol id="email" viewBox="0 0 23 19">
        <path d="M0.0242376 3.08569C1.05451 4.02521 2.02111 4.90634 2.98731 5.7878C5.18214 7.79022 7.37658 9.79311 9.5716 11.7953C10.6477 12.7769 11.844 12.7809 12.9304 11.7928C16.0157 8.98688 19.0968 6.17632 22.1799 3.36787C22.2606 3.29435 22.3435 3.22321 22.4793 3.1034C22.493 3.25267 22.5099 3.35115 22.5099 3.44964C22.5113 7.29021 22.5175 11.1309 22.5081 14.9714C22.5037 16.7719 21.4426 18.1016 19.7696 18.4313C19.5025 18.484 19.2228 18.4883 18.949 18.4885C13.8098 18.4915 8.67053 18.4725 3.53158 18.5C1.62579 18.5101 0.341219 17.2011 0.0787962 15.8262C0.0255586 15.5472 0.0037616 15.2582 0.00343134 14.9737C-0.00139043 11.1332 -3.34693e-06 7.29259 0.000921376 3.45202C0.000987428 3.35677 0.0126786 3.26152 0.0242376 3.08569Z" fill="currentColor"/>
        <path d="M11.2568 10.2407C7.82934 7.11362 4.43171 4.01375 1.00806 0.890102C1.41025 0.577414 1.85015 0.501388 2.31357 0.501256C3.55752 0.501058 4.80147 0.501388 6.04536 0.501388C10.7239 0.501586 15.4024 0.503172 20.0808 0.500001C20.5745 0.499671 21.0433 0.566449 21.4912 0.881978C18.0807 4.00067 14.6819 7.10873 11.2568 10.2407Z" fill="currentColor"/>
    </symbol>

</svg>