<svg width="194" height="118" viewBox="0 0 194 118" fill="none" xmlns="http://www.w3.org/2000/svg">
<g clip-path="url(#clip0_908_2)">
<path d="M53.7399 20.5439H41.5973V65.6376H53.7399V20.5439Z" fill="white"/>
<path d="M86.3806 42.4403C84.1129 40.8338 81.097 39.4536 77.3332 38.2996C74.5414 37.4773 72.7001 36.8395 71.809 36.3863C70.8777 35.8911 70.4117 35.1906 70.4108 34.2846C70.4094 33.9631 70.4861 33.646 70.6341 33.3608C70.7822 33.0757 70.9973 32.8309 71.2607 32.6478C71.829 32.2156 72.617 31.9993 73.6299 31.9993C76.3404 31.9993 78.2831 33.5228 79.458 36.57L89.5387 30.5754C88.3033 27.4856 86.1112 24.876 83.2858 23.1311C80.4497 21.3814 77.2108 20.5065 73.5691 20.5063C69.0357 20.5063 65.3324 21.8036 62.4592 24.3982C59.665 26.9928 58.2684 30.2669 58.2693 34.2207C58.2693 40.8957 62.4996 45.53 70.9604 48.1237L73.3263 48.802C74.6628 49.2144 75.3916 49.4432 75.5127 49.4834C76.0274 49.643 76.5337 49.8284 77.0298 50.0391C78.0004 50.4516 78.4863 51.1104 78.4875 52.0153C78.4875 53.4987 77.1114 54.2403 74.3592 54.2403C70.6754 54.2403 68.1249 52.4076 66.7078 48.742L56.3267 54.8589C57.381 58.1873 59.6027 61.019 62.5795 62.8286C65.6555 64.7647 69.4808 65.7327 74.0553 65.7325C79.1941 65.7325 83.2412 64.5172 86.1966 62.0867C89.1519 59.6561 90.6299 56.2584 90.6306 51.8934C90.6306 47.569 89.2139 44.418 86.3806 42.4403Z" fill="white"/>
<path d="M116.844 54.3421L111.165 50.9973C110.953 52.1798 110.585 53.3289 110.073 54.4149L106.25 50.0409C106.154 49.9423 106.019 49.7957 105.85 49.5998C105.681 49.4038 105.558 49.2632 105.486 49.1763C105.414 49.0895 105.31 48.9676 105.176 48.8082C105.076 48.6936 104.985 48.5711 104.904 48.4417C104.839 48.3322 104.766 48.2276 104.686 48.1286C104.606 48.0333 104.538 47.9281 104.485 47.8156C104.449 47.7303 104.407 47.6377 104.357 47.5403C104.311 47.448 104.28 47.3483 104.267 47.2455C104.255 47.1477 104.249 47.0493 104.249 46.9507C104.249 45.947 104.771 45.4449 105.813 45.4444C106.979 45.4444 107.902 46.3389 108.58 48.1279L114.659 44.5618C112.815 40.5945 109.721 38.6108 105.378 38.6108C102.901 38.6108 100.85 39.3458 99.2247 40.8158C97.5982 42.2382 96.7855 44.0765 96.7865 46.3309C96.7914 47.8395 97.2476 49.3118 98.0961 50.5572C95.3543 52.2475 93.9831 54.5636 93.9826 57.5053C93.9619 58.5833 94.1722 59.6532 94.5992 60.6426C95.0262 61.632 95.66 62.5179 96.4576 63.2403C98.1079 64.7602 100.365 65.5196 103.23 65.5186C105.574 65.548 107.879 64.9249 109.891 63.7185L111.893 65.9608L117.39 62.7626L114.441 59.3805C115.487 57.8303 116.297 56.1322 116.844 54.3421ZM104.102 59.4157C103.205 59.4157 102.513 59.2013 102.028 58.7724C101.793 58.5711 101.606 58.3197 101.48 58.0366C101.354 57.7535 101.293 57.4458 101.3 57.1359C101.298 56.7672 101.374 56.4023 101.525 56.0661C101.676 55.7299 101.897 55.4303 102.174 55.1879L105.741 59.122C105.214 59.3085 104.661 59.4081 104.102 59.4168V59.4157Z" fill="white"/>
<path d="M148.988 25.011C145.991 22.0448 142.308 20.5621 137.938 20.563H120.937V65.6804H133.079V52.9185H137.936C142.309 52.9185 145.992 51.4575 148.986 48.5357C151.941 45.5694 153.419 41.6372 153.419 36.739C153.419 31.7983 151.942 27.8889 148.988 25.011ZM140.336 39.4144C140.029 39.742 139.657 40.0006 139.243 40.1728C138.83 40.3451 138.385 40.4272 137.937 40.4136H133.08V33.0676H137.937C138.384 33.0541 138.829 33.136 139.243 33.3078C139.656 33.4796 140.029 33.7374 140.336 34.0642C140.963 34.7331 141.277 35.6248 141.277 36.7393C141.277 37.8593 140.964 38.7484 140.336 39.4144Z" fill="white"/>
<path d="M4.62773 0L0 12.4441H2.17815L2.98982 10.0818H7.73922L8.55141 12.4441H10.7296L6.1021 0H4.62773ZM3.66578 8.12181L5.36634 3.17521L7.06716 8.12181H3.66578Z" fill="white"/>
<path d="M19.8314 10.5692V3.56006H13.4412V7.96898C13.4494 8.46963 13.4211 8.97022 13.3564 9.46671C13.3266 9.76719 13.2136 10.0533 13.0302 10.2927C12.9358 10.39 12.8212 10.4653 12.6945 10.5131C12.5678 10.5609 12.4322 10.58 12.2973 10.5692H11.7802V14.6773H13.678V12.4439H19.3057V14.6776H21.2036V10.5692H19.8314ZM14.9592 10.5692C15.3221 9.96066 15.4958 9.25734 15.4582 8.54919V5.4345H17.8058V10.5692H14.9592Z" fill="white"/>
<path d="M28.5094 7.77932C29.0117 7.71511 29.4761 7.47763 29.8231 7.10755C30.1408 6.73587 30.3069 6.2575 30.2882 5.76817C30.3051 5.46068 30.2507 5.15344 30.1294 4.87055C30.0081 4.58766 29.8232 4.3368 29.5891 4.13765C29.123 3.75259 28.4662 3.56006 27.6187 3.56006H23.1875V12.4442H27.5942C28.5037 12.4442 29.207 12.2459 29.7043 11.8494C29.9522 11.6481 30.149 11.3908 30.2786 11.0985C30.4083 10.8062 30.4671 10.4872 30.4502 10.1677V10.1416C30.4701 9.57965 30.2898 9.02895 29.9416 8.58832C29.5739 8.158 29.0668 7.87155 28.5094 7.77932ZM28.0094 5.49007C28.0912 5.57382 28.1545 5.67382 28.1954 5.78364C28.2363 5.89346 28.2538 6.01065 28.2468 6.12767C28.2539 6.23958 28.2364 6.35169 28.1953 6.456C28.1543 6.56031 28.0908 6.65424 28.0094 6.73109C27.8168 6.88199 27.5755 6.9563 27.3317 6.9398H25.2047V5.2631H27.3486C27.59 5.24853 27.8275 5.33008 28.0094 5.49007ZM28.4077 9.71403C28.416 9.85269 28.3954 9.99157 28.3473 10.1218C28.2992 10.2521 28.2246 10.3708 28.1282 10.4706C27.9085 10.6623 27.6222 10.7592 27.3317 10.7401H25.2047V8.64389H27.3317C27.4759 8.6345 27.6205 8.65385 27.7572 8.70082C27.8939 8.74779 28.02 8.82145 28.1282 8.91755C28.225 9.01985 28.2998 9.14104 28.3478 9.27357C28.3959 9.40611 28.4163 9.54716 28.4077 9.68794V9.71403Z" fill="white"/>
<path d="M38.0316 3.88164C37.4046 3.58562 36.7202 3.43213 36.0272 3.43213C35.3343 3.43213 34.6499 3.58562 34.0229 3.88164C33.4732 4.17404 33.0285 4.63195 32.7516 5.19101C32.4449 5.83547 32.2953 6.54385 32.315 7.25773V8.70407C32.2948 9.4263 32.4443 10.1432 32.7516 10.7966C33.0273 11.3598 33.4719 11.8221 34.0229 12.1188C34.6491 12.4176 35.3338 12.5727 36.0272 12.5727C36.7207 12.5727 37.4054 12.4176 38.0316 12.1188C38.5808 11.8236 39.0251 11.3645 39.3029 10.805C39.61 10.1575 39.7596 9.44615 39.7394 8.72937V7.25773C39.7591 6.54386 39.6095 5.83551 39.3029 5.19101C39.0258 4.63206 38.5812 4.17418 38.0316 3.88164ZM37.7136 8.72963C37.7457 9.23226 37.5884 9.72864 37.273 10.1204C36.9339 10.4367 36.488 10.6125 36.025 10.6125C35.562 10.6125 35.1162 10.4367 34.7771 10.1204C34.4642 9.72745 34.3086 9.23157 34.3406 8.72963V7.25747C34.3089 6.75892 34.4662 6.26677 34.781 5.87975C35.1206 5.56604 35.5653 5.3919 36.0268 5.3919C36.4884 5.3919 36.9331 5.56604 37.2727 5.87975C37.5876 6.26672 37.745 6.75888 37.7134 7.25747L37.7136 8.72963Z" fill="white"/>
<path d="M49.2562 3.56006H47.0019L45.2049 7.01754H44.0529V3.56006H42.0273V12.4436H44.0529V8.96895H45.2322L47.29 12.4434H49.7733L46.8485 7.87428L49.2562 3.56006Z" fill="white"/>
<path d="M56.1046 3.82128C55.504 3.54699 54.849 3.41378 54.1893 3.43179C53.5518 3.42358 52.9188 3.53872 52.3247 3.77093C51.8025 3.97021 51.3368 4.29492 50.9686 4.71664L52.3164 5.86452C52.5839 5.66667 52.8815 5.51348 53.1977 5.41084C53.5203 5.30338 53.858 5.24851 54.1979 5.24831C54.6465 5.21966 55.0886 5.36698 55.431 5.65921C55.581 5.80991 55.6975 5.99081 55.7727 6.18998C55.8479 6.38914 55.8803 6.60205 55.8675 6.81466V7.19111H53.5885C52.5714 7.19111 51.8088 7.41077 51.3006 7.8501C50.7925 8.28943 50.5382 8.94842 50.5378 9.82707C50.5378 10.7515 50.7892 11.4405 51.2918 11.894C51.7944 12.3476 52.5516 12.5744 53.5633 12.5744C53.9381 12.5778 54.3116 12.5302 54.6737 12.433C54.9883 12.3509 55.2835 12.2068 55.5423 12.0094C55.6682 11.9108 55.778 11.7933 55.8678 11.6608V12.4443H57.7397V6.73561C57.7577 6.11425 57.6131 5.499 57.3203 4.95117C57.0408 4.45786 56.6162 4.06324 56.1046 3.82128ZM55.3975 10.7065C54.9377 10.8734 54.4493 10.9461 53.9611 10.9204C53.5505 10.9489 53.1408 10.8551 52.7831 10.6509C52.653 10.5583 52.5488 10.4337 52.4806 10.2891C52.4123 10.1445 52.3821 9.98465 52.3931 9.82499C52.3814 9.67953 52.4024 9.5333 52.4544 9.39704C52.5065 9.26079 52.5883 9.13797 52.6939 9.03764C52.9551 8.84775 53.2749 8.75681 53.5966 8.78093H55.8673V10.0426C55.8674 10.1886 55.8221 10.331 55.7378 10.45C55.6534 10.569 55.5342 10.6587 55.3967 10.7065H55.3975Z" fill="white"/>
<path d="M59.1805 5.47729H61.6722V12.4436H63.6892V5.47729H66.1809V3.56006H59.1805V5.47729Z" fill="white"/>
<path d="M72.4358 10.3986C72.1275 10.5407 71.7921 10.6137 71.4528 10.6125C71.1862 10.6299 70.9189 10.5921 70.6674 10.5015C70.416 10.411 70.1857 10.2696 69.9909 10.0861C69.8105 9.88212 69.6723 9.64424 69.5843 9.38623C69.4962 9.12821 69.4602 8.85522 69.4782 8.58312V7.37758C69.4613 7.11059 69.4983 6.84293 69.5871 6.59068C69.6759 6.33844 69.8147 6.10685 69.9951 5.90985C70.1908 5.7295 70.4207 5.59066 70.6712 5.50167C70.9216 5.41269 71.1874 5.37538 71.4526 5.392C71.7873 5.39109 72.1189 5.45799 72.4273 5.5887C72.7348 5.71786 73.0119 5.91027 73.2407 6.15351L74.6137 4.85275C74.3888 4.54628 74.1084 4.28502 73.7872 4.08262C73.4416 3.86465 73.0645 3.70151 72.6693 3.59895C72.2365 3.48538 71.7907 3.42924 71.3434 3.43198C70.6157 3.41121 69.894 3.56986 69.2417 3.89401C68.6688 4.19299 68.2035 4.66434 67.9111 5.24199C67.5895 5.90643 67.4325 6.63896 67.4535 7.37732V8.58312C67.432 9.32982 67.5889 10.0708 67.9111 10.7443C68.2022 11.3261 68.6674 11.802 69.2417 12.105C69.8933 12.4321 70.6155 12.5925 71.3439 12.5718C71.7883 12.5741 72.2312 12.5194 72.6618 12.409C73.0565 12.3093 73.4336 12.149 73.7797 11.9339C74.1011 11.7342 74.3839 11.4779 74.6145 11.1773L73.2415 9.79074C73.0203 10.0498 72.7453 10.2573 72.4358 10.3986Z" fill="white"/>
<path d="M81.9947 6.8031C81.5008 6.54453 80.9499 6.41497 80.3929 6.42638H78.3762V3.56006H76.3507V12.4439H78.3762H80.3927C80.952 12.456 81.5054 12.328 82.003 12.0716C82.4562 11.8332 82.8302 11.4674 83.0794 11.019C83.3412 10.5348 83.4727 9.99054 83.4608 9.43984C83.4727 8.88862 83.3397 8.34397 83.0752 7.86072C82.8232 7.41177 82.4482 7.04474 81.9947 6.8031ZM81.1303 10.1797C81.0338 10.2818 80.9164 10.3618 80.7863 10.4142C80.6562 10.4667 80.5164 10.4903 80.3763 10.4836H78.3762V8.25804H80.376C80.5676 8.25373 80.7565 8.30266 80.922 8.39944C81.0771 8.49334 81.2021 8.62998 81.2821 8.79311C81.37 8.97579 81.4136 9.17676 81.4092 9.37958C81.4231 9.67249 81.3231 9.95936 81.1303 10.1797Z" fill="white"/>
<path d="M92.7667 3.56006H90.5124L88.7154 7.01754H87.5631V3.56006H85.5376V12.4436H87.5631V8.96895H88.7427L90.8005 12.4434H93.2838L90.359 7.87428L92.7667 3.56006Z" fill="white"/>
<path d="M99.6781 4.00109C99.1115 3.61168 98.4365 3.4124 97.7501 3.43184C97.0369 3.4114 96.331 3.57965 95.7032 3.91969C95.1342 4.24638 94.681 4.74304 94.4067 5.34046C94.0925 6.04793 93.9404 6.81712 93.9618 7.59136V8.59263C93.9402 9.3403 94.1001 10.082 94.428 10.7538C94.7248 11.3362 95.196 11.8106 95.7755 12.1104C96.4367 12.4349 97.1666 12.5935 97.9024 12.5724C98.4805 12.5696 99.0523 12.4518 99.5848 12.2257C100.142 11.9944 100.652 11.6622 101.089 11.2458L99.767 9.99618C99.5077 10.2241 99.2109 10.405 98.8898 10.531C98.5756 10.6573 98.2404 10.7226 97.9019 10.7235C97.6243 10.7407 97.346 10.7015 97.0839 10.6081C96.8218 10.5147 96.5812 10.3691 96.3766 10.1801C96.036 9.81411 95.8451 9.33306 95.8415 8.83238H101.317V8.25035C101.339 7.3645 101.197 6.4823 100.898 5.64856C100.663 4.98998 100.239 4.41642 99.6781 4.00109ZM95.8394 7.33465C95.8298 6.80015 96.0043 6.27869 96.3334 5.85831C96.5115 5.66229 96.731 5.5087 96.9759 5.40876C97.2208 5.30883 97.4849 5.26508 97.7488 5.28072C97.9685 5.27182 98.1873 5.31345 98.3886 5.40243C98.5898 5.49142 98.7681 5.6254 98.9098 5.79414C99.226 6.2116 99.4064 6.71656 99.4267 7.24047L99.435 7.33465H95.8394Z" fill="white"/>
<path d="M113.645 3.88164C113.018 3.58562 112.334 3.43213 111.641 3.43213C110.948 3.43213 110.263 3.58562 109.636 3.88164C109.087 4.17404 108.642 4.63195 108.365 5.19101C108.058 5.83547 107.909 6.54385 107.928 7.25773V8.70407C107.908 9.4263 108.058 10.1432 108.365 10.7966C108.641 11.3598 109.085 11.8221 109.636 12.1188C110.262 12.4176 110.947 12.5727 111.641 12.5727C112.334 12.5727 113.019 12.4176 113.645 12.1188C114.194 11.8236 114.638 11.3645 114.916 10.805C115.223 10.1575 115.373 9.44615 115.353 8.72937V7.25773C115.372 6.54386 115.223 5.83551 114.916 5.19101C114.639 4.63206 114.195 4.17418 113.645 3.88164ZM113.327 8.72963C113.359 9.23226 113.202 9.72864 112.887 10.1204C112.548 10.4367 112.102 10.6125 111.639 10.6125C111.176 10.6125 110.73 10.4367 110.391 10.1204C110.078 9.72745 109.922 9.23157 109.954 8.72963V7.25747C109.923 6.75892 110.08 6.26677 110.395 5.87975C110.734 5.56604 111.179 5.3919 111.641 5.3919C112.102 5.3919 112.547 5.56604 112.886 5.87975C113.201 6.26672 113.359 6.75888 113.327 7.25747L113.327 8.72963Z" fill="white"/>
<path d="M123.527 4.22343C122.981 3.91221 122.361 3.75684 121.734 3.77419C121.116 3.74167 120.506 3.92291 120.005 4.28761C119.842 4.41772 119.699 4.5715 119.581 4.7439V4.43319C119.567 4.05199 119.641 3.67267 119.798 3.32495C119.939 3.04007 120.174 2.8132 120.463 2.68318C120.825 2.53159 121.215 2.4604 121.607 2.47448C122.189 2.49293 122.77 2.40297 123.319 2.20916C123.733 2.0588 124.084 1.77217 124.315 1.39598C124.548 0.968902 124.66 0.486394 124.641 0L122.658 0C122.664 0.146232 122.619 0.290046 122.531 0.406456C122.426 0.524294 122.289 0.607767 122.137 0.645946C121.917 0.706289 121.691 0.736565 121.463 0.735951C120.724 0.720725 119.989 0.861048 119.307 1.14789C118.763 1.393 118.32 1.81924 118.053 2.35447C117.756 3.006 117.615 3.71828 117.642 4.43423V7.34281V8.70358C117.622 9.4258 117.771 10.1426 118.078 10.7961C118.354 11.3593 118.799 11.8217 119.35 12.1183C119.976 12.4171 120.66 12.5721 121.354 12.5721C122.047 12.5721 122.732 12.4171 123.358 12.1183C123.907 11.8233 124.352 11.3641 124.629 10.8045C124.936 10.157 125.086 9.44566 125.066 8.72888V7.59926C125.085 6.88989 124.95 6.18484 124.672 5.53255C124.434 4.98785 124.034 4.53049 123.527 4.22343ZM123.039 8.72941C123.071 9.23273 122.912 9.72958 122.594 10.1202C122.434 10.2881 122.239 10.419 122.023 10.5039C121.807 10.5889 121.576 10.6258 121.344 10.6122C121.114 10.6264 120.883 10.5897 120.669 10.5047C120.454 10.4197 120.261 10.2884 120.103 10.1202C119.79 9.72717 119.634 9.23133 119.666 8.72941V7.59978C119.634 7.1011 119.792 6.60882 120.107 6.2218C120.266 6.05549 120.459 5.92574 120.672 5.84151C120.886 5.75728 121.115 5.72058 121.344 5.73395C121.575 5.72026 121.807 5.75675 122.022 5.84094C122.238 5.92514 122.433 6.05504 122.594 6.2218C122.912 6.60768 123.071 7.10041 123.039 7.59978V8.72941Z" fill="white"/>
<path d="M126.336 4.98965L128.404 2.9185V0H126.336V4.98965Z" fill="white"/>
<path d="M133.557 10.3986C133.249 10.5407 132.913 10.6137 132.574 10.6125C132.308 10.6299 132.04 10.5921 131.789 10.5015C131.537 10.411 131.307 10.2696 131.112 10.0861C130.809 9.75418 130.632 9.32517 130.613 8.87504H133.989V7.12922H130.609C130.624 6.67426 130.804 6.24045 131.116 5.90985C131.311 5.7295 131.541 5.59066 131.792 5.50167C132.042 5.41269 132.308 5.37538 132.573 5.392C132.908 5.39109 133.239 5.45799 133.548 5.5887C133.855 5.71786 134.132 5.91027 134.361 6.15351L135.734 4.85275C135.509 4.54628 135.229 4.28502 134.908 4.08262C134.562 3.86465 134.185 3.70151 133.79 3.59895C133.357 3.48538 132.911 3.42924 132.464 3.43198C131.736 3.41121 131.015 3.56986 130.362 3.89401C129.789 4.19299 129.324 4.66434 129.032 5.24199C128.71 5.90643 128.553 6.63896 128.574 7.37732V8.58312C128.553 9.32982 128.709 10.0708 129.032 10.7443C129.323 11.3261 129.788 11.802 130.362 12.105C131.014 12.4321 131.736 12.5925 132.464 12.5718C132.909 12.5741 133.352 12.5194 133.782 12.409C134.177 12.3093 134.554 12.149 134.9 11.9339C135.222 11.7342 135.505 11.4779 135.735 11.1773L134.362 9.79074C134.141 10.0497 133.866 10.2572 133.557 10.3986Z" fill="white"/>
<path d="M144.625 10.5692V3.56006H138.234V7.96898C138.242 8.46963 138.214 8.97022 138.149 9.46671C138.119 9.76719 138.006 10.0533 137.823 10.2927C137.729 10.3903 137.614 10.4658 137.487 10.5139C137.361 10.562 137.225 10.5814 137.09 10.5708H136.573V14.6773H138.471V12.4439H144.098V14.6776H145.996V10.5692H144.623H144.625ZM139.753 10.5692C140.116 9.96074 140.29 9.25737 140.252 8.54919V5.4345H142.6V10.5692H139.753Z" fill="white"/>
<path d="M153.414 7.1459H150.006V3.56006H147.981V12.4436H150.006V9.01173H153.414V12.4436H155.439V3.56006H153.414V7.1459Z" fill="white"/>
<path d="M163.126 3.82128C162.525 3.54699 161.87 3.41378 161.21 3.43179C160.573 3.42358 159.94 3.53872 159.346 3.77093C158.823 3.97021 158.358 4.29492 157.99 4.71664L159.337 5.86452C159.605 5.66667 159.902 5.51348 160.219 5.41084C160.541 5.30338 160.879 5.24851 161.219 5.24831C161.667 5.21966 162.109 5.36698 162.452 5.65921C162.602 5.80991 162.718 5.99081 162.794 6.18998C162.869 6.38914 162.901 6.60205 162.888 6.81466V7.19111H160.609C159.592 7.19111 158.829 7.41077 158.321 7.8501C157.813 8.28943 157.559 8.94842 157.558 9.82707C157.558 10.7515 157.81 11.4405 158.312 11.894C158.815 12.3476 159.572 12.5744 160.584 12.5744C160.959 12.5778 161.332 12.5302 161.694 12.433C162.009 12.3509 162.304 12.2068 162.563 12.0094C162.689 11.9108 162.799 11.7931 162.889 11.6606V12.4443H164.761V6.73561C164.779 6.11425 164.634 5.499 164.341 4.95117C164.062 4.45786 163.637 4.06324 163.126 3.82128ZM162.418 10.7065C161.958 10.8734 161.47 10.9461 160.982 10.9204C160.571 10.9489 160.161 10.8551 159.804 10.6509C159.674 10.5583 159.569 10.4337 159.501 10.2891C159.433 10.1445 159.403 9.98465 159.414 9.82499C159.402 9.67953 159.423 9.5333 159.475 9.39704C159.527 9.26079 159.609 9.13797 159.715 9.03764C159.976 8.84775 160.296 8.75681 160.617 8.78093H162.888V10.041C162.889 10.1872 162.844 10.33 162.759 10.4493C162.675 10.5686 162.556 10.6585 162.418 10.7065Z" fill="white"/>
<path d="M172.652 7.1459H169.245V3.56006H167.219V12.4436H169.245V9.01173H172.652V12.4436H174.677V3.56006H172.652V7.1459Z" fill="white"/>
<path d="M182.652 7.1459H179.245V3.56006H177.22V12.4436H179.245V9.01173H182.652V12.4436H184.677V3.56006H182.652V7.1459Z" fill="white"/>
<path d="M192.992 3.56035H189.872C189.313 3.54827 188.759 3.67622 188.262 3.93263C187.809 4.17079 187.434 4.53667 187.186 4.9853C186.923 5.46925 186.792 6.0135 186.804 6.56416C186.792 7.11538 186.925 7.66003 187.189 8.14329C187.441 8.59207 187.816 8.95893 188.27 9.20038C188.374 9.25545 188.48 9.30423 188.59 9.34648L186.627 12.4442H188.975L190.726 9.57762H191.974V12.4442H194.001V3.56035H192.992ZM189.933 7.7457C189.741 7.75012 189.552 7.70118 189.387 7.6043C189.231 7.51056 189.106 7.37388 189.026 7.21063C188.938 7.02805 188.895 6.82716 188.899 6.62442C188.886 6.33146 188.986 6.04469 189.179 5.8243C189.275 5.72224 189.393 5.64226 189.523 5.58981C189.653 5.53736 189.793 5.51368 189.933 5.52037H191.975V7.7457H189.933Z" fill="white"/>
<path d="M152.908 74.9907H41.0919V76.2393H152.908V74.9907Z" fill="white"/>
<path d="M52.1796 85.2705H47.1861H46.0214H45.1837V97.4947H47.1861V87.1958H52.1796V85.2705Z" fill="white"/>
<path d="M59.5526 97.4944V91.8854C59.5701 91.2746 59.4266 90.6699 59.1366 90.1325C58.8596 89.647 58.4397 89.2593 57.9345 89.0227C57.3402 88.7533 56.6929 88.6225 56.041 88.6403C55.4111 88.6318 54.7854 88.7445 54.1977 88.9724C53.6821 89.1678 53.222 89.4867 52.8572 89.9014L54.1894 91.0279C54.4542 90.8334 54.7484 90.6829 55.0609 90.5823C55.3797 90.4769 55.7131 90.423 56.0488 90.4226C56.4918 90.3944 56.9286 90.539 57.2679 90.8262C57.4159 90.9739 57.5308 91.1515 57.6052 91.3472C57.6796 91.5429 57.7116 91.7522 57.6992 91.9613V92.3312H55.4454C54.4401 92.3312 53.6862 92.547 53.1835 92.9785C52.6809 93.41 52.4296 94.0573 52.4296 94.9205C52.4296 95.8286 52.6781 96.5054 53.1752 96.951C53.6723 97.3966 54.4205 97.6194 55.4199 97.6196C55.7903 97.6229 56.1595 97.5762 56.5176 97.4808C56.8282 97.3998 57.1198 97.258 57.3755 97.0634C57.5005 96.9663 57.6095 96.8502 57.6987 96.7193V97.4918L59.5526 97.4944ZM57.7005 95.1321C57.7011 95.2764 57.6565 95.4174 57.5731 95.535C57.4897 95.6526 57.3717 95.7411 57.2356 95.7879C56.7808 95.9519 56.298 96.0234 55.8153 95.9982C55.4097 96.0263 55.0048 95.9342 54.6509 95.7334C54.5226 95.6428 54.4197 95.5205 54.3522 95.3784C54.2848 95.2363 54.2549 95.0791 54.2656 94.9221C54.2541 94.779 54.2749 94.6352 54.3264 94.5013C54.3779 94.3674 54.4588 94.2468 54.563 94.1486C54.8217 93.9618 55.1377 93.8725 55.4555 93.8963H57.701V95.1355L57.7005 95.1321Z" fill="white"/>
<path d="M67.3529 92.2908H63.9848V88.7681H61.9824V97.4949H63.9848V94.1235H67.3529V97.4949H69.3553V88.7681H67.3529V92.2908Z" fill="white"/>
<path d="M73.8713 94.1235H77.2394V97.4949H79.2418V88.7681H77.2394V92.2908H73.8713V88.7681H71.8689V97.4949H73.8713V94.1235Z" fill="white"/>
<path d="M84.3525 92.3329C83.3472 92.3329 82.5933 92.5486 82.0906 92.9801C81.588 93.4116 81.3367 94.059 81.3367 94.9221C81.3367 95.8302 81.5852 96.507 82.0823 96.9526C82.5794 97.3982 83.3276 97.6211 84.327 97.6212C84.6974 97.6245 85.0666 97.5779 85.4247 97.4824C85.7353 97.4014 86.0269 97.2596 86.2826 97.065C86.4077 96.9678 86.5168 96.8515 86.606 96.7204V97.4934H88.4577V91.8844C88.4751 91.2736 88.3316 90.6689 88.0417 90.1315C87.7647 89.646 87.3447 89.2584 86.8395 89.0217C86.2453 88.7523 85.5979 88.6215 84.946 88.6393C84.3161 88.6308 83.6904 88.7436 83.1027 88.9714C82.5872 89.1668 82.127 89.4858 81.7623 89.9004L83.0944 91.0269C83.3592 90.8324 83.6535 90.682 83.9659 90.5813C84.2847 90.4759 84.6182 90.422 84.9538 90.4216C85.3969 90.3934 85.8336 90.538 86.1729 90.8252C86.3209 90.9729 86.4359 91.1505 86.5102 91.3462C86.5846 91.5419 86.6166 91.7513 86.6042 91.9603V92.3303L84.3525 92.3329ZM86.6066 95.1379V95.1324C86.6071 95.2768 86.5626 95.4177 86.4792 95.5353C86.3958 95.653 86.2778 95.7414 86.1417 95.7883C85.6869 95.9522 85.2041 96.0237 84.7214 95.9985C84.3158 96.0267 83.9109 95.9346 83.5569 95.7337C83.4286 95.6431 83.3258 95.5209 83.2583 95.3788C83.1908 95.2366 83.161 95.0795 83.1716 94.9224C83.1602 94.7793 83.181 94.6355 83.2325 94.5016C83.284 94.3677 83.3648 94.2472 83.4691 94.1489C83.7278 93.9621 84.0438 93.8728 84.3616 93.8966H86.6073L86.6066 95.1379Z" fill="white"/>
<path d="M97.6242 85.2705H95.58V97.4947H97.6242V85.2705Z" fill="white"/>
<path d="M102.19 97.4949H104.536H106.531H108.876H109.823H110.393V99.6892H112.387V95.6115H110.87V88.7681H108.876V95.6115H106.531V88.7681H104.536V95.6115H102.19V88.7681H100.188V97.4949H101.336H102.19Z" fill="white"/>
<path d="M120.857 96.3179L119.551 95.0917C119.294 95.3157 119.001 95.4935 118.683 95.6172C118.373 95.7412 118.042 95.8053 117.707 95.8063C117.433 95.8234 117.158 95.7849 116.899 95.6932C116.64 95.6015 116.402 95.4584 116.199 95.2725C115.863 94.9137 115.674 94.441 115.67 93.9486H121.084V93.377C121.105 92.5062 120.964 91.6391 120.668 90.8203C120.435 90.1726 120.015 89.6094 119.462 89.2028C118.901 88.82 118.234 88.6244 117.556 88.6438C116.851 88.6235 116.154 88.7887 115.532 89.123C114.971 89.4429 114.522 89.9308 114.25 90.5187C113.94 91.2133 113.79 91.9691 113.811 92.73V93.7137C113.789 94.4485 113.947 95.1773 114.271 95.8366C114.566 96.4095 115.032 96.8755 115.603 97.1692C116.258 97.4883 116.979 97.6439 117.706 97.6226C118.278 97.6201 118.843 97.5044 119.37 97.2821C119.921 97.0547 120.425 96.7279 120.857 96.3179ZM116.157 91.0256C116.334 90.8328 116.551 90.6819 116.793 90.5837C117.035 90.4856 117.296 90.4427 117.556 90.4582C117.773 90.4493 117.989 90.4902 118.188 90.5776C118.387 90.665 118.564 90.7967 118.704 90.9627C119.017 91.372 119.195 91.8683 119.215 92.3835L119.224 92.4759H115.667C115.658 91.9498 115.831 91.437 116.157 91.0248V91.0256Z" fill="white"/>
<path d="M125.264 94.1235H128.633V97.4949H130.635V88.7681H128.633V92.2908H125.264V88.7681H123.262V97.4949H125.264V94.1235Z" fill="white"/>
<path d="M140.807 97.4949L137.915 93.0064L140.296 88.7681H138.067L136.29 92.1645H135.151V88.7681H133.149V97.4949H135.151V94.0815H136.317L138.352 97.4949H140.807Z" fill="white"/>
<path d="M148.385 90.3699C148.11 89.8198 147.671 89.3699 147.128 89.0835C146.508 88.7928 145.831 88.6421 145.147 88.6421C144.462 88.6421 143.786 88.7928 143.165 89.0835C142.623 89.3699 142.183 89.8198 141.908 90.3699C141.605 91.0025 141.457 91.6987 141.477 92.4004V93.8211C141.457 94.5309 141.605 95.2353 141.908 95.8766C142.182 96.4309 142.621 96.8852 143.165 97.1756C143.785 97.4691 144.461 97.6213 145.147 97.6213C145.832 97.6213 146.508 97.4691 147.128 97.1756C147.67 96.8866 148.109 96.4356 148.385 95.885C148.688 95.2495 148.836 94.5506 148.816 93.8462V92.4001C148.836 91.6986 148.688 91.0025 148.385 90.3699ZM146.813 93.8462C146.845 94.3404 146.689 94.8283 146.378 95.2124C146.041 95.5234 145.601 95.6961 145.144 95.6961C144.687 95.6961 144.246 95.5234 143.91 95.2124C143.601 94.8271 143.447 94.3397 143.479 93.8462V92.4001C143.448 91.9098 143.603 91.426 143.914 91.0466C144.251 90.7383 144.69 90.5674 145.146 90.5674C145.602 90.5674 146.041 90.7383 146.378 91.0466C146.689 91.426 146.844 91.9098 146.813 92.4001V93.8462Z" fill="white"/>
<path d="M49.6118 107.608H52.0749V114.452H54.069V107.608H56.5323V105.725H49.6118V107.608Z" fill="white"/>
<path d="M63.7126 105.981C63.1183 105.712 62.471 105.581 61.8191 105.599C61.1892 105.59 60.5635 105.703 59.9758 105.931C59.4603 106.126 59.0001 106.445 58.6353 106.86L59.9675 107.986C60.2323 107.792 60.5265 107.641 60.839 107.541C61.1577 107.435 61.4912 107.381 61.8269 107.381C62.2699 107.353 62.7067 107.498 63.046 107.785C63.1939 107.932 63.3089 108.11 63.3833 108.306C63.4577 108.501 63.4897 108.711 63.4773 108.92V109.29H61.2232C60.2179 109.29 59.464 109.506 58.9614 109.937C58.4587 110.369 58.2074 111.016 58.2074 111.879C58.2074 112.787 58.4559 113.464 58.953 113.91C59.4501 114.355 60.1984 114.578 61.1977 114.578C61.5682 114.582 61.9374 114.535 62.2954 114.44C62.606 114.359 62.8976 114.217 63.1533 114.022C63.2784 113.925 63.3875 113.809 63.4768 113.678V114.451H65.3284V108.842C65.3458 108.231 65.2023 107.626 64.9124 107.088C64.6355 106.604 64.2165 106.218 63.7126 105.981ZM63.4786 112.095V112.09C63.4791 112.234 63.4346 112.375 63.3512 112.492C63.2678 112.61 63.1498 112.699 63.0137 112.745C62.5589 112.909 62.0761 112.981 61.5934 112.956C61.1878 112.984 60.7828 112.892 60.429 112.691C60.3007 112.6 60.1978 112.478 60.1303 112.336C60.0628 112.194 60.033 112.037 60.0437 111.88C60.0322 111.736 60.053 111.593 60.1045 111.459C60.156 111.325 60.2369 111.204 60.3411 111.106C60.5998 110.919 60.9158 110.83 61.2336 110.854H63.4794L63.4786 112.095Z" fill="white"/>
<path d="M77.7381 105.725H74.37H73.5154H72.3676V114.452H74.37V107.65H77.7381V114.452H79.7405V105.725H78.8523H77.7381Z" fill="white"/>
<path d="M87.3398 105.981C86.7455 105.712 86.0982 105.581 85.4463 105.599C84.8164 105.59 84.1907 105.703 83.603 105.931C83.0875 106.126 82.6273 106.445 82.2625 106.86L83.5947 107.986C83.8595 107.792 84.1537 107.641 84.4662 107.541C84.7849 107.435 85.1184 107.381 85.4541 107.381C85.8971 107.353 86.3339 107.498 86.6732 107.785C86.8211 107.932 86.9361 108.11 87.0105 108.306C87.0849 108.501 87.1169 108.711 87.1045 108.92V109.29H84.8504C83.8451 109.29 83.0912 109.506 82.5885 109.937C82.0859 110.369 81.8346 111.016 81.8346 111.879C81.8346 112.787 82.0831 113.464 82.5802 113.91C83.0773 114.355 83.8256 114.578 84.8249 114.578C85.1954 114.582 85.5646 114.535 85.9226 114.44C86.2332 114.359 86.5248 114.217 86.7805 114.022C86.9057 113.925 87.0148 113.809 87.104 113.678V114.451H88.9556V108.842C88.973 108.231 88.8295 107.626 88.5396 107.088C88.2627 106.604 87.8437 106.218 87.3398 105.981ZM87.1058 112.095V112.09C87.1063 112.234 87.0618 112.375 86.9784 112.492C86.895 112.61 86.777 112.699 86.6409 112.745C86.1861 112.909 85.7033 112.981 85.2206 112.956C84.815 112.984 84.41 112.892 84.0562 112.691C83.9279 112.6 83.825 112.478 83.7575 112.336C83.69 112.194 83.6602 112.037 83.6709 111.88C83.6594 111.736 83.6802 111.593 83.7317 111.459C83.7832 111.325 83.8641 111.204 83.9683 111.106C84.227 110.919 84.543 110.83 84.8608 110.854H87.1066L87.1058 112.095Z" fill="white"/>
<path d="M97.1134 106.028C96.6403 105.733 96.091 105.583 95.534 105.599C95.0537 105.596 94.5841 105.741 94.1891 106.015C93.8644 106.243 93.5916 106.537 93.3888 106.878V105.725H91.387V118H93.3888V113.333C93.5572 113.677 93.8113 113.971 94.1264 114.187C94.5314 114.454 95.0078 114.591 95.4921 114.579C96.0556 114.594 96.6115 114.445 97.0923 114.15C97.5516 113.849 97.9071 113.413 98.1102 112.901C98.3568 112.274 98.4752 111.604 98.458 110.93V109.282C98.4754 108.6 98.3587 107.922 98.1146 107.285C97.9175 106.773 97.5679 106.334 97.1134 106.028ZM96.4556 110.93C96.4866 111.411 96.3405 111.886 96.0451 112.266C95.8992 112.426 95.7198 112.551 95.5199 112.632C95.3199 112.714 95.1044 112.75 94.889 112.737C94.6068 112.746 94.3271 112.682 94.0762 112.552C93.855 112.432 93.6765 112.245 93.5651 112.018C93.441 111.755 93.3807 111.465 93.3891 111.174V109.004C93.3811 108.711 93.4413 108.421 93.5651 108.155C93.6751 107.928 93.854 107.741 94.0762 107.621C94.328 107.494 94.6073 107.432 94.889 107.441C95.1056 107.428 95.3221 107.466 95.5223 107.549C95.7226 107.633 95.9013 107.761 96.0451 107.924C96.341 108.315 96.4867 108.8 96.4556 109.29V110.93Z" fill="white"/>
<path d="M99.6308 107.608H102.094V114.452H104.088V107.608H106.551V105.725H99.6308V107.608Z" fill="white"/>
<path d="M114.016 109.248H110.648V105.725H108.646V114.452H110.648V111.081H114.016V114.452H116.019V105.725H114.016V109.248Z" fill="white"/>
<path d="M123.932 106.158C123.371 105.775 122.704 105.58 122.026 105.599C121.322 105.579 120.624 105.744 120.003 106.078C119.441 106.398 118.993 106.886 118.721 107.474C118.411 108.168 118.26 108.924 118.281 109.685V110.669C118.26 111.404 118.418 112.132 118.742 112.792C119.036 113.365 119.502 113.831 120.074 114.124C120.728 114.443 121.45 114.599 122.177 114.578C122.749 114.575 123.314 114.46 123.841 114.237C124.391 114.01 124.895 113.684 125.328 113.275L124.021 112.049C123.765 112.273 123.471 112.451 123.154 112.574C122.844 112.698 122.512 112.763 122.178 112.763C121.904 112.781 121.629 112.742 121.37 112.65C121.111 112.559 120.873 112.416 120.67 112.23C120.334 111.871 120.145 111.398 120.141 110.905H125.555V110.334C125.576 109.463 125.435 108.596 125.139 107.777C124.906 107.129 124.486 106.565 123.932 106.158ZM120.139 109.433C120.13 108.907 120.303 108.394 120.628 107.982C120.805 107.79 121.022 107.639 121.264 107.54C121.506 107.442 121.767 107.399 122.027 107.415C122.244 107.406 122.46 107.447 122.659 107.534C122.858 107.622 123.035 107.753 123.175 107.919C123.488 108.329 123.666 108.825 123.686 109.34L123.695 109.433H120.139Z" fill="white"/>
<path d="M133.459 106.028C132.986 105.733 132.436 105.583 131.879 105.599C131.399 105.596 130.929 105.741 130.534 106.015C130.21 106.243 129.937 106.537 129.734 106.878V105.725H127.733V118H129.734V113.334C129.903 113.677 130.157 113.971 130.472 114.187C130.877 114.454 131.353 114.59 131.837 114.579C132.401 114.594 132.957 114.445 133.438 114.15C133.897 113.849 134.252 113.413 134.455 112.901C134.702 112.274 134.82 111.604 134.803 110.93V109.282C134.821 108.6 134.704 107.922 134.46 107.285C134.263 106.773 133.913 106.334 133.459 106.028ZM132.801 110.93C132.832 111.411 132.686 111.886 132.39 112.266C132.245 112.426 132.065 112.551 131.865 112.632C131.665 112.714 131.45 112.75 131.234 112.737C130.952 112.746 130.672 112.682 130.422 112.552C130.2 112.432 130.022 112.245 129.91 112.018C129.786 111.755 129.726 111.465 129.734 111.174V109.004C129.726 108.711 129.787 108.421 129.91 108.155C130.02 107.928 130.199 107.741 130.422 107.621C130.673 107.494 130.953 107.432 131.234 107.441C131.451 107.428 131.667 107.466 131.868 107.549C132.068 107.633 132.247 107.761 132.39 107.924C132.686 108.315 132.832 108.8 132.801 109.29V110.93Z" fill="white"/>
<path d="M139.009 111.328V105.725H137.065V114.444H138.8L142.445 108.978V114.444H144.388V105.725H142.671L139.009 111.328Z" fill="white"/>
</g>
<defs>
<clipPath id="clip0_908_2">
<rect width="194" height="118" fill="white"/>
</clipPath>
</defs>
</svg>
