<svg width="36" height="36" viewBox="0 0 36 36" fill="none" xmlns="http://www.w3.org/2000/svg">
<g clip-path="url(#clip0_195_268)">
<path d="M18.0572 0C21.8655 0.127524 25.3238 1.22071 28.43 3.4106C29.105 3.88645 29.2694 4.64718 28.8398 5.2577C28.4086 5.87054 27.6394 5.9882 26.9646 5.51363C24.8837 4.05007 22.5952 3.11192 20.0668 2.80097C15.6062 2.25237 11.6084 3.379 8.14839 6.25046C5.19319 8.70302 3.40777 11.8684 2.81723 15.6599C1.68763 22.9122 5.71757 29.7272 12.2845 32.3381C18.2731 34.7191 24.8656 33.2593 29.2757 28.5691C31.6998 25.9909 33.0458 22.9089 33.3621 19.3767C33.5545 17.2277 33.2756 15.1418 32.6167 13.0954C32.3736 12.3407 32.6846 11.6601 33.3502 11.4122C34.0511 11.1512 34.8251 11.4989 35.024 12.2733C35.3617 13.5884 35.7474 14.9119 35.8812 16.255C36.3686 21.1468 35.0613 25.5562 31.9546 29.37C28.9391 33.0719 25.0326 35.2871 20.2785 35.8616C11.9046 36.8736 4.14043 32.262 1.23263 24.3441C-1.16074 17.8269 -0.0329056 11.759 4.39941 6.39804C7.00629 3.2449 10.4006 1.29441 14.4102 0.474888C15.6082 0.230025 16.8406 0.153591 18.0572 0Z" fill="#4C519E"/>
<path d="M16.6906 22.5871C18.1504 20.9189 19.5756 19.2908 21.0003 17.6622C25.2142 12.8457 29.4274 8.02875 33.6422 3.21305C34.1205 2.66654 34.655 2.51063 35.207 2.74274C35.7337 2.96418 36.0862 3.4928 35.9786 4.05263C35.9193 4.36142 35.7516 4.68496 35.5437 4.92437C32.6612 8.24289 29.7633 11.548 26.869 14.8563C23.8955 18.2551 20.9235 21.655 17.9449 25.0493C17.7542 25.2665 17.5376 25.4851 17.2885 25.6218C16.7675 25.9079 16.2302 25.7703 15.7342 25.275C13.6353 23.179 11.5386 21.0807 9.44106 18.9832C9.05368 18.5958 8.66525 18.2095 8.27922 17.8208C7.64714 17.1844 7.59107 16.4247 8.13365 15.8741C8.67599 15.3237 9.45109 15.3688 10.0801 15.9967C12.17 18.083 14.2572 20.1719 16.346 22.2592C16.4483 22.3615 16.5554 22.4587 16.6906 22.5871Z" fill="#4C519E"/>
</g>
<defs>
<clipPath id="clip0_195_268">
<rect width="35.9937" height="36" fill="white" transform="translate(0.00390625)"/>
</clipPath>
</defs>
</svg>
