<svg xmlns="http://www.w3.org/2000/svg">

    <symbol id="facebook" viewBox="1 0 44 44">
        <path fill-rule="evenodd" clip-rule="evenodd" d="M19.8606 33.968H24.8062V21.9985H28.1055L28.5426 17.8743H24.8062L24.8114 15.8092C24.8114 14.7341 24.914 14.157 26.457 14.157H28.5191V10.032H25.2191C21.2554 10.032 19.8606 12.0333 19.8606 15.3978V17.8743H17.39V21.9993H19.8606V33.968ZM22.9663 44C10.8164 44 0.966309 34.1499 0.966309 22C0.966309 9.8494 10.8164 0 22.9663 0C35.1162 0 44.9663 9.8494 44.9663 22C44.9663 34.1499 35.1162 44 22.9663 44Z" fill="currentColor"/>
    </symbol>

    <symbol id="youtube" viewBox="0 0 44 44">
        <path fill-rule="evenodd" clip-rule="evenodd" d="M22 0C34.1421 0 44 9.85789 44 22C44 34.1421 34.1421 44 22 44C9.85789 44 0 34.1421 0 22C0 9.85789 9.85789 0 22 0ZM35.1755 15.3809C34.8593 14.1976 33.9275 13.266 32.7443 12.9497C30.5995 12.375 22 12.375 22 12.375C22 12.375 13.4005 12.375 11.2557 12.9497C10.0727 13.266 9.14074 14.1976 8.82449 15.3809C8.25 17.5255 8.25 22.0002 8.25 22.0002C8.25 22.0002 8.25 26.4747 8.82449 28.6191C9.14074 29.8024 10.0727 30.7343 11.2557 31.0505C13.4005 31.625 22 31.625 22 31.625C22 31.625 30.5995 31.625 32.7443 31.0505C33.9275 30.7343 34.8593 29.8024 35.1755 28.6191C35.75 26.4747 35.75 22.0002 35.75 22.0002C35.75 22.0002 35.75 17.5255 35.1755 15.3809ZM19.2499 26.1253V17.8751L26.3945 22.0002L19.2499 26.1253Z" fill="currentColor"/>
    </symbol>

    <symbol id="telegram" viewBox="1 0 44 44">
        <path d="M22.9663 0C10.816 0 0.966309 9.84973 0.966309 22C0.966309 34.1503 10.816 44 22.9663 44C35.1166 44 44.9663 34.1503 44.9663 22C44.9663 9.84973 35.1166 0 22.9663 0ZM34.4011 13.9164L30.4937 32.5703C30.4464 32.7959 30.3432 33.0061 30.1935 33.1814C30.0438 33.3567 29.8525 33.4916 29.6371 33.5737C29.4217 33.6557 29.1891 33.6824 28.9607 33.6511C28.7323 33.6198 28.5154 33.5317 28.33 33.3947L22.6465 29.1957L19.2031 32.4442C19.158 32.4867 19.1049 32.5198 19.0469 32.5416C18.9889 32.5634 18.9272 32.5734 18.8652 32.571C18.8033 32.5687 18.7425 32.554 18.6863 32.5279C18.6301 32.5018 18.5797 32.4647 18.5379 32.4189L18.464 32.3376L19.0623 26.5476L29.846 16.6947C29.8994 16.6461 29.9325 16.5792 29.939 16.5073C29.9454 16.4354 29.9247 16.3637 29.8809 16.3064C29.8371 16.249 29.7734 16.2101 29.7023 16.1975C29.6312 16.1848 29.558 16.1992 29.497 16.2378L15.7059 24.9665L9.76631 22.9717C9.60838 22.9186 9.47073 22.818 9.37226 22.6836C9.27378 22.5492 9.2193 22.3877 9.21629 22.2211C9.21327 22.0545 9.26188 21.8911 9.35543 21.7532C9.44898 21.6154 9.5829 21.5098 9.73881 21.4511L32.978 12.6968C33.1573 12.6293 33.3514 12.6112 33.54 12.6444C33.7287 12.6777 33.9049 12.761 34.0503 12.8856C34.1958 13.0102 34.305 13.1717 34.3667 13.353C34.4284 13.5343 34.4403 13.7289 34.4011 13.9164Z" fill="currentColor"/>
    </symbol>

    <symbol id="viber" viewBox="0 0 44 44">
        <path d="M22.0009 0C9.8505 0 0 9.84872 0 21.9991C0 34.1496 9.8505 44 22.0009 44C34.1504 44 44.0009 34.1496 44.0009 21.9991C44.0009 9.84872 34.1504 0 22.0009 0ZM20.9709 11.6219C21.1501 11.458 21.2758 11.4352 21.8971 11.4542C22.2209 11.4657 22.6974 11.5037 22.9565 11.5342C24.2675 11.698 25.3271 12.0144 26.4894 12.5822C27.6328 13.1425 28.3644 13.6722 29.3324 14.6364C30.2395 15.5472 30.7426 16.2371 31.2761 17.3079C32.0193 18.8019 32.4423 20.5778 32.5148 22.5329C32.5415 23.1997 32.5224 23.3485 32.3699 23.5389C32.0803 23.9086 31.4438 23.8477 31.2266 23.4323C31.158 23.295 31.139 23.1771 31.1161 22.6435C31.0779 21.8241 31.0209 21.2944 30.9065 20.6617C30.4568 18.1807 29.2678 16.1989 27.3698 14.7775C25.7882 13.5884 24.1533 13.0092 22.0115 12.8834C21.2874 12.8415 21.1617 12.8147 20.9978 12.689C20.6927 12.4489 20.6774 11.8849 20.9709 11.6219ZM25.5137 16.5306C24.7477 16.0733 23.6158 15.7341 22.583 15.6503C22.2094 15.6197 22.0037 15.5436 21.8627 15.3796C21.6455 15.1319 21.6226 14.7966 21.8055 14.5184C22.0038 14.2097 22.3085 14.1601 23.2195 14.2973C25.5328 14.6365 27.324 15.7113 28.4978 17.4567C29.1571 18.4399 29.5688 19.5948 29.7097 20.8333C29.7592 21.2869 29.7592 22.1138 29.7059 22.2511C29.6563 22.3806 29.4962 22.556 29.3591 22.6283C29.2105 22.7045 28.8942 22.6969 28.7188 22.6055C28.4253 22.4568 28.3377 22.2205 28.3377 21.5803C28.3377 20.5932 28.0823 19.5528 27.6403 18.7448C27.1373 17.8226 26.4055 17.0604 25.5137 16.5306ZM26.8019 21.6107C26.577 21.8165 26.1616 21.8242 25.91 21.6298C25.7271 21.4926 25.67 21.3478 25.628 20.9553C25.5785 20.4332 25.487 20.0673 25.3308 19.7281C24.9954 19.0078 24.4047 18.6343 23.4062 18.5124C22.9374 18.4552 22.7963 18.4019 22.644 18.2227C22.3658 17.8911 22.4725 17.3538 22.8573 17.1556C23.0023 17.0831 23.0632 17.0756 23.3833 17.0947C23.5815 17.1061 23.875 17.1403 24.0312 17.1747C24.782 17.3347 25.3575 17.6205 25.8491 18.0817C26.4817 18.6801 26.8286 19.4042 26.981 20.4446C27.0838 21.1229 27.0419 21.3897 26.8019 21.6107ZM32.4956 31.6225C32.2135 32.3504 31.116 33.7147 30.3499 34.2978C29.6563 34.8237 29.1647 35.0257 28.5168 35.0562C27.9833 35.0829 27.7622 35.0371 27.08 34.7552C21.7292 32.5485 17.4571 29.2559 14.0652 24.732C12.2931 22.3692 10.9439 19.9187 10.0216 17.3767C9.48428 15.8942 9.45757 15.2502 9.89964 14.4917C10.0903 14.1716 10.902 13.3789 11.4927 12.9368C12.476 12.2051 12.9296 11.9344 13.2916 11.8582C13.5392 11.8049 13.9699 11.8468 14.2443 11.9459C14.3777 11.9915 14.5835 12.0982 14.7017 12.1745C15.4257 12.6547 17.4419 15.2348 18.1011 16.523C18.4783 17.2584 18.6041 17.8034 18.486 18.2074C18.364 18.6419 18.1621 18.8706 17.2588 19.5985C16.8968 19.8919 16.5575 20.193 16.5043 20.2731C16.3671 20.4712 16.2565 20.86 16.2565 21.1343C16.2604 21.7708 16.672 22.9256 17.2131 23.8136C17.6323 24.5034 18.3831 25.3875 19.1263 26.0659C19.999 26.8664 20.7688 27.4112 21.6377 27.8419C22.7543 28.3983 23.4366 28.5393 23.9359 28.3069C24.0616 28.2497 24.195 28.1735 24.237 28.1392C24.275 28.1049 24.5685 27.7467 24.8887 27.3504C25.506 26.5728 25.6471 26.4472 26.0701 26.3023C26.6075 26.1194 27.1563 26.1689 27.7088 26.4509C28.128 26.6682 29.0427 27.2361 29.6334 27.6476C30.4108 28.1927 32.0724 29.5495 32.2974 29.82C32.6938 30.3077 32.7623 30.9326 32.4956 31.6225Z" fill="currentColor"/>
    </symbol>
		<symbol id="instagram" viewBox="0 0 32 32">
      <path d="M20.16 8.465h-8.94a2.906 2.906 0 0 0-2.905 2.905v8.94a2.906 2.906 0 0 0 2.905 2.905h8.94a2.906 2.906 0 0 0 2.905-2.905v-8.94a2.906 2.906 0 0 0-2.905-2.905zM15.691 20.31a4.47 4.47 0 1 1-.002-8.937 4.47 4.47 0 0 1 .003 8.936zm4.752-8.134a1.125 1.125 0 0 1-1.033-.689 1.116 1.116 0 0 1 1.961-1.048 1.117 1.117 0 0 1-.929 1.738z" fill="currentColor"/>
      <path d="M15.69 12.934a2.899 2.899 0 0 0-2.684 1.794 2.906 2.906 0 1 0 5.591 1.113 2.906 2.906 0 0 0-2.905-2.905z" fill="currentColor"/>
      <path d="M15.69.196A15.648 15.648 0 0 0 .346 18.893a15.646 15.646 0 0 0 30.989-3.052A15.644 15.644 0 0 0 15.691.197zm8.94 20.114a4.472 4.472 0 0 1-4.47 4.47h-8.94a4.466 4.466 0 0 1-4.47-4.47v-8.94a4.466 4.466 0 0 1 4.47-4.47h8.94a4.466 4.466 0 0 1 4.47 4.47v8.94z" fill="currentColor"/>
    </symbol>
    <symbol id="tiktok" viewBox="0 0 32 32">
      <path d="M15.69.196C7.049.196.046 7.2.046 15.84S7.05 31.484 15.69 31.484c8.641 0 15.644-7.004 15.644-15.644S24.33.196 15.69.196zm3.514 6.478c.001.28.083 4.329 4.331 4.581l.001 3.128c-.322.018-2.796-.161-4.337-1.535l-.005 6.089c.059 4.226-3.051 6.798-7.117 5.909-7.01-2.097-4.68-12.494 2.358-11.381 0 3.357.002-.001.002 3.357-2.908-.428-3.881 1.991-3.107 3.723.703 1.577 3.598 1.918 4.608-.306.114-.435.171-.932.171-1.489V6.659l3.095.015z" fill="currentColor"/>
    </symbol>

</svg>