<svg width="46" height="46" viewBox="0 0 46 46" fill="none" xmlns="http://www.w3.org/2000/svg">
<circle cx="23" cy="23" r="23" fill="#4C519E"/>
<path d="M32.9872 31.5127L28.5449 27.0704C29.4627 25.687 30 24.0306 30 22.25C30 17.4252 26.0747 13.5 21.25 13.5C16.4252 13.5 12.5 17.4252 12.5 22.25C12.5 27.0747 16.4252 31 21.25 31C23.0306 31 24.687 30.4627 26.0704 29.5449L30.5127 33.9872C31.1952 34.6706 32.3047 34.6706 32.9872 33.9872C33.6706 33.3039 33.6706 32.1961 32.9872 31.5127ZM15.125 22.25C15.125 18.8725 17.8725 16.125 21.25 16.125C24.6275 16.125 27.375 18.8725 27.375 22.25C27.375 25.6275 24.6275 28.375 21.25 28.375C17.8725 28.375 15.125 25.6275 15.125 22.25Z" fill="white"/>
<path d="M25.625 22.25C25.625 22.733 25.233 23.125 24.75 23.125H22.125V25.75C22.125 26.233 21.733 26.625 21.25 26.625C20.767 26.625 20.375 26.233 20.375 25.75V23.125H17.75C17.267 23.125 16.875 22.733 16.875 22.25C16.875 21.767 17.267 21.375 17.75 21.375H20.375V18.75C20.375 18.267 20.767 17.875 21.25 17.875C21.733 17.875 22.125 18.267 22.125 18.75V21.375H24.75C25.233 21.375 25.625 21.767 25.625 22.25Z" fill="white"/>
</svg>
