<svg width="134" height="117" viewBox="0 0 134 117" fill="none" xmlns="http://www.w3.org/2000/svg">
<path d="M19.8173 20.8816H6.72754V70.2394H19.8173V20.8816Z" fill="#4C519E"/>
<path d="M41.7187 70.3454C36.7863 70.3454 32.6636 69.286 29.3478 67.1669C26.0323 65.0481 23.7845 62.1395 22.6074 58.4436L33.7981 51.7486C35.327 55.7608 38.0753 57.7668 42.0463 57.7668C45.0132 57.7668 46.4967 56.9547 46.4967 55.3314C46.4967 54.3408 45.972 53.6198 44.9252 53.1686C44.4034 52.943 43.8574 52.7391 43.2899 52.5604C43.1596 52.5161 42.374 52.266 40.9331 51.8145L38.3816 51.0715C29.2601 48.2317 24.7004 43.16 24.7004 35.8539C24.7004 31.5281 26.2052 27.9424 29.2175 25.1026C32.3147 22.2625 36.3071 20.8428 41.1941 20.8428C45.1225 20.8428 48.6113 21.8005 51.6687 23.7157C54.7208 25.6335 56.9685 28.3496 58.4094 31.8639L47.5432 38.4242C46.2784 35.0889 44.1822 33.4213 41.2608 33.4213C40.1688 33.4213 39.3191 33.658 38.7064 34.1315C38.0968 34.6046 37.7905 35.2017 37.7905 35.9227C37.7905 36.9162 38.2939 37.6812 39.2978 38.2234C40.2566 38.7186 42.2434 39.4173 45.2529 40.3174C49.3117 41.5807 52.5608 43.0912 55.0058 44.8496C58.0604 47.0127 59.5865 50.4633 59.5865 55.1966C59.5865 59.9764 57.9937 63.6969 54.8085 66.3551C51.6233 69.0164 47.2584 70.3454 41.7187 70.3454Z" fill="#4C519E"/>
<path d="M85.2544 63.3893L88.4334 67.0912L82.5078 70.5918L80.3489 68.1374C78.2026 69.4524 75.8092 70.1089 73.1682 70.1089C70.0797 70.1089 67.6462 69.2788 65.8676 67.6152C64.0888 65.9238 63.1992 63.8316 63.1992 61.3379C63.1992 58.1189 64.6779 55.5832 67.6336 53.7328C66.693 52.2839 66.2219 50.7413 66.2219 49.1057C66.2219 46.6365 67.0969 44.626 68.8502 43.0691C70.6035 41.4598 72.8134 40.6556 75.4835 40.6556C80.1653 40.6556 83.5011 42.8287 85.489 47.1736L78.9358 51.0771C78.2026 49.1188 77.2094 48.1397 75.953 48.1397C74.8288 48.1397 74.2666 48.6899 74.2666 49.7887C74.2666 49.8964 74.2731 50.0046 74.2859 50.1108C74.2986 50.2191 74.3305 50.3256 74.3832 50.4335C74.4359 50.54 74.4821 50.6417 74.5205 50.7348C74.5606 50.8281 74.6324 50.9429 74.7377 51.0771C74.8414 51.2114 74.9199 51.3241 74.9726 51.4192C75.0253 51.5126 75.1225 51.6468 75.2663 51.8204C75.4101 51.9955 75.5216 52.13 75.6001 52.2231C75.6783 52.3182 75.8092 52.4721 75.9928 52.6865C76.1749 52.901 76.3201 53.0614 76.4241 53.1694L80.5454 57.9569C81.0947 56.7765 81.4874 55.5306 81.7222 54.2156L87.8443 57.8767C87.2423 59.8627 86.3783 61.6997 85.2544 63.3893ZM74.1085 63.4304C74.6579 63.4304 75.247 63.3225 75.8748 63.1077L72.0295 58.8019C71.402 59.3927 71.0876 60.1034 71.0876 60.9353C71.0876 61.6588 71.3493 62.2565 71.8731 62.7262C72.3953 63.1948 73.1408 63.4304 74.1085 63.4304Z" fill="#4C519E"/>
<path d="M92.2568 20.9031H110.583C115.297 20.9031 119.265 22.5247 122.495 25.7714C125.681 28.9205 127.273 33.2006 127.273 38.609C127.273 43.971 125.681 48.2743 122.495 51.521C119.265 54.7189 115.297 56.318 110.583 56.318H105.347V70.2863H92.2568V20.9031ZM105.347 42.6307H110.583C111.629 42.6307 112.492 42.2663 113.169 41.537C113.845 40.8077 114.183 39.8346 114.183 38.609C114.183 37.3891 113.845 36.4131 113.169 35.6809C112.492 34.9545 111.629 34.5901 110.583 34.5901H105.347V42.6307Z" fill="#4C519E"/>
<path d="M3.19611 0H4.21467L7.41096 8.72735H5.90647L3.70539 2.22685L1.50432 8.72735H0L3.19611 0ZM1.50432 5.6962H5.98243V7.0708H1.50432V5.6962Z" fill="#4C519E"/>
<path d="M8.13672 7.41281H14.0432V8.7274H8.13672V7.41281ZM8.13672 7.41281H9.44799V10.2939H8.13672V7.41281ZM8.35329 7.41281H8.49372C8.71998 7.41281 8.88897 7.34786 9.00012 7.21777C9.11146 7.08787 9.18653 6.89466 9.22549 6.63851C9.26446 6.38254 9.28404 6.03235 9.28404 5.58812V2.49695H10.6774V5.99631C10.6774 6.68864 10.524 7.21173 10.2177 7.56595C9.9113 7.92017 9.47313 8.09709 8.90369 8.09709H8.7629L8.35329 7.41281ZM9.99821 2.49695H12.814V3.81154H9.99821V2.49695ZM12.2988 2.49695H13.6979V8.72722H12.2988V2.49695ZM13.3348 7.41281H14.6462V10.2939H13.3348V7.41281Z" fill="#4C519E"/>
<path d="M16.0166 2.49695H17.4099V8.72721H16.0166V2.49695ZM16.7775 7.53283H18.8791C19.117 7.53283 19.3005 7.46989 19.4295 7.34383C19.558 7.21776 19.6225 7.04066 19.6225 6.8125V6.79457C19.6225 6.56257 19.558 6.38235 19.4295 6.25428C19.3005 6.12639 19.117 6.06235 18.8791 6.06235H16.7775V4.86797H18.8791C19.082 4.86797 19.238 4.81893 19.3474 4.72087C19.4566 4.6228 19.5113 4.48173 19.5113 4.29767C19.5113 4.10556 19.4566 3.95663 19.3474 3.85051C19.238 3.74439 19.0857 3.69133 18.8909 3.69133H16.7775V2.49695H19.0782C19.6634 2.49695 20.1172 2.63198 20.4392 2.90203C20.7612 3.17227 20.9221 3.55338 20.9221 4.04555C20.9221 4.42575 20.8145 4.7388 20.6001 4.98488C20.3855 5.23097 20.0829 5.38813 19.6927 5.45601C20.1181 5.5442 20.4478 5.7332 20.682 6.02338C20.9162 6.31338 21.0333 6.67656 21.0333 7.11274V7.13067C21.0333 7.63895 20.8614 8.03213 20.5181 8.31024C20.1747 8.58834 19.6888 8.72721 19.0606 8.72721H16.7775V7.53283Z" fill="#4C519E"/>
<path d="M23.5008 8.49921C23.1163 8.28716 22.8237 7.97813 22.6226 7.57195C22.4215 7.16577 22.3213 6.6767 22.3213 6.10439V5.08985C22.3213 4.52577 22.4215 4.04256 22.6226 3.64041C22.8237 3.23825 23.1163 2.93215 23.5008 2.72211C23.885 2.51207 24.3466 2.40686 24.8851 2.40686C25.4237 2.40686 25.885 2.51207 26.2696 2.72211C26.6539 2.93215 26.9465 3.23825 27.1478 3.64041C27.3487 4.04256 27.4491 4.52577 27.4491 5.08985V6.12232C27.4491 6.69061 27.3487 7.17565 27.1478 7.57799C26.9465 7.97996 26.6539 8.28716 26.2696 8.49921C25.885 8.71145 25.4237 8.81739 24.8851 8.81739C24.3466 8.81739 23.885 8.71145 23.5008 8.49921ZM25.7456 7.09771C25.9486 6.86772 26.05 6.54241 26.05 6.12232V5.08985C26.05 4.67379 25.9486 4.35177 25.7456 4.12362C25.5427 3.89546 25.2558 3.78147 24.8851 3.78147C24.5145 3.78147 24.2275 3.89546 24.0246 4.12362C23.8217 4.35177 23.7204 4.67379 23.7204 5.08985V6.12232C23.7204 6.54241 23.8206 6.86772 24.0217 7.09771C24.2227 7.32787 24.5105 7.44278 24.8851 7.44278C25.2558 7.44278 25.5427 7.32787 25.7456 7.09771Z" fill="#4C519E"/>
<path d="M29.0293 2.49695H30.4284V8.72722H29.0293V2.49695ZM29.6673 4.92195H32.3308V6.29051H29.6673V4.92195ZM31.1074 5.14992L32.4655 2.49695H34.0226L31.9736 6.22446L31.1074 5.14992ZM31.1309 6.0984L32.3249 5.46809L34.3798 8.7274H32.6645L31.1309 6.0984Z" fill="#4C519E"/>
<path d="M35.4272 8.34023C35.0799 8.02205 34.9062 7.53885 34.9062 6.89061C34.9062 6.27457 35.0819 5.81241 35.4331 5.50412C35.7844 5.19619 36.3111 5.04195 37.0136 5.04195H38.6411L38.723 6.15839H37.0195C36.7424 6.15839 36.5345 6.21841 36.396 6.33843C36.2576 6.45864 36.1883 6.64251 36.1883 6.89061C36.1883 7.15078 36.278 7.34381 36.4576 7.46987C36.637 7.59593 36.9084 7.65905 37.2713 7.65905C37.7163 7.65905 38.0469 7.60892 38.2634 7.50884C38.48 7.40894 38.5883 7.25288 38.5883 7.04082L38.7113 7.92911C38.6449 8.12506 38.5289 8.28918 38.3629 8.42128C38.197 8.55338 37.9971 8.65236 37.763 8.71841C37.5288 8.78428 37.2733 8.81739 36.9962 8.81739C36.2974 8.81739 35.7745 8.65822 35.4272 8.34023ZM38.5883 4.77794C38.5883 4.42976 38.4877 4.15971 38.2868 3.96759C38.0858 3.77548 37.8019 3.67961 37.4351 3.67961C37.2009 3.67961 36.9707 3.71767 36.7442 3.7936C36.5181 3.86971 36.315 3.97565 36.1356 4.11159L35.2047 3.30728C35.4428 3.02332 35.7551 2.8023 36.1414 2.64404C36.5276 2.48614 36.957 2.4071 37.4293 2.4071C37.9443 2.4071 38.3854 2.49822 38.7522 2.68009C39.1189 2.86232 39.3991 3.12633 39.5923 3.4725C39.7854 3.81866 39.882 4.23582 39.882 4.72396V8.72738H38.5883V4.77794Z" fill="#4C519E"/>
<path d="M40.877 2.49695H45.7122V3.84155H40.877V2.49695ZM42.598 3.15123H43.9912V8.7274H42.598V3.15123Z" fill="#4C519E"/>
<path d="M47.825 8.49025C47.4231 8.27215 47.1167 7.95416 46.9059 7.53591C46.6951 7.11783 46.5898 6.61267 46.5898 6.02023V5.17402C46.5898 4.58981 46.6951 4.09068 46.9059 3.67645C47.1167 3.26222 47.4231 2.94715 47.825 2.73107C48.2269 2.51499 48.7108 2.40686 49.2767 2.40686C49.6006 2.40686 49.9061 2.44601 50.1929 2.52414C50.4797 2.60208 50.7373 2.71516 50.9654 2.86317C51.1938 3.01119 51.384 3.19141 51.5363 3.40329L50.5879 4.31573C50.4279 4.14374 50.2405 4.01164 50.026 3.91961C49.8115 3.82758 49.587 3.78147 49.3528 3.78147C48.9197 3.78147 48.584 3.9026 48.3459 4.14466C48.1078 4.38672 47.9889 4.72978 47.9889 5.17402V6.02023C47.9889 6.47654 48.1067 6.82765 48.3431 7.07374C48.579 7.31982 48.9157 7.44278 49.3528 7.44278C49.5908 7.44278 49.8172 7.39283 50.0318 7.29293C50.2464 7.19285 50.4319 7.05068 50.5879 6.86662L51.5363 7.83908C51.3802 8.04711 51.1881 8.22422 50.9597 8.37022C50.7314 8.51641 50.4737 8.62747 50.1869 8.7034C49.9002 8.77933 49.5967 8.81739 49.2767 8.81739C48.7108 8.81739 48.2269 8.70834 47.825 8.49025Z" fill="#4C519E"/>
<path d="M52.7373 2.49695H54.1364V8.72722H52.7373V2.49695ZM53.4339 7.3528H55.5179C55.7364 7.3528 55.9101 7.28181 56.0388 7.13965C56.1678 6.99785 56.2321 6.81068 56.2321 6.57868C56.2321 6.42261 56.2028 6.28557 56.1442 6.16738C56.0859 6.04937 56.0027 5.95734 55.8955 5.89129C55.788 5.82524 55.6623 5.7923 55.5179 5.7923H53.4339V4.50772H55.5295C55.9471 4.50772 56.3159 4.5959 56.6359 4.77192C56.9559 4.94793 57.2046 5.19511 57.3822 5.5131C57.56 5.83127 57.6487 6.20049 57.6487 6.62058C57.6487 7.04066 57.5607 7.40988 57.3853 7.72806C57.2097 8.04605 56.9619 8.29213 56.6418 8.46613C56.3218 8.64031 55.9512 8.7274 55.5295 8.7274H53.4339V7.3528Z" fill="#4C519E"/>
<path d="M59.083 2.49695H60.4821V8.72722H59.083V2.49695ZM59.721 4.92195H62.3845V6.29051H59.721V4.92195ZM61.1611 5.14992L62.5192 2.49695H64.0763L62.0274 6.22446L61.1611 5.14992ZM61.1846 6.0984L62.3786 5.46809L64.4335 8.7274H62.7182L61.1846 6.0984Z" fill="#4C519E"/>
<path d="M66.1541 8.49321C65.7481 8.27713 65.4379 7.96005 65.2233 7.54179C65.0086 7.12372 64.9014 6.61855 64.9014 6.02629V5.32406C64.9014 4.70784 65.0039 4.18163 65.2086 3.74544C65.4135 3.30925 65.7122 2.97716 66.1044 2.74901C66.4965 2.52085 66.9678 2.40686 67.5182 2.40686C68.037 2.40686 68.4811 2.53988 68.8499 2.80609C69.2186 3.07231 69.4996 3.45727 69.6927 3.96152C69.8859 4.46559 69.9825 5.07395 69.9825 5.78624V6.19443H65.8556V5.14384H68.6829L68.6772 5.07779C68.638 4.64179 68.5191 4.30367 68.3202 4.06361C68.121 3.82338 67.8536 3.70335 67.5182 3.70335C67.0965 3.70335 66.7708 3.83838 66.5404 4.10862C66.3102 4.37868 66.1952 4.76181 66.1952 5.25801V6.05026C66.1952 6.52249 66.32 6.88568 66.5696 7.13963C66.8194 7.39377 67.1707 7.52093 67.6234 7.52093C67.8536 7.52093 68.0808 7.47574 68.3052 7.38572C68.5297 7.2957 68.7317 7.17074 68.9113 7.01064L69.8243 7.88705C69.5161 8.18309 69.1697 8.41216 68.7853 8.57427C68.401 8.73637 68.0134 8.81725 67.6234 8.81725C67.0496 8.81725 66.5599 8.7093 66.1541 8.49321Z" fill="#4C519E"/>
<path d="M75.7283 8.49921C75.3438 8.28716 75.0513 7.97813 74.8502 7.57195C74.649 7.16577 74.5488 6.6767 74.5488 6.10439V5.08985C74.5488 4.52577 74.649 4.04256 74.8502 3.64041C75.0513 3.23825 75.3438 2.93215 75.7283 2.72211C76.1126 2.51207 76.5741 2.40686 77.1126 2.40686C77.6512 2.40686 78.1125 2.51207 78.4972 2.72211C78.8815 2.93215 79.174 3.23825 79.3753 3.64041C79.5763 4.04256 79.6766 4.52577 79.6766 5.08985V6.12232C79.6766 6.69061 79.5763 7.17565 79.3753 7.57799C79.174 7.97996 78.8815 8.28716 78.4972 8.49921C78.1125 8.71145 77.6512 8.81739 77.1126 8.81739C76.5741 8.81739 76.1126 8.71145 75.7283 8.49921ZM77.9732 7.09771C78.1761 6.86772 78.2776 6.54241 78.2776 6.12232V5.08985C78.2776 4.67379 78.1761 4.35177 77.9732 4.12362C77.7703 3.89546 77.4833 3.78147 77.1126 3.78147C76.742 3.78147 76.455 3.89546 76.2521 4.12362C76.0492 4.35177 75.9479 4.67379 75.9479 5.08985V6.12232C75.9479 6.54241 76.0481 6.86772 76.2492 7.09771C76.4502 7.32787 76.738 7.44278 77.1126 7.44278C77.4833 7.44278 77.7703 7.32787 77.9732 7.09771Z" fill="#4C519E"/>
<path d="M81.2568 3.10923C81.2568 2.51698 81.3515 2.03084 81.5408 1.65064C81.73 1.27044 82.0188 0.988494 82.4072 0.804432C82.7955 0.62037 83.292 0.524314 83.897 0.516264C84.0843 0.512238 84.2394 0.491381 84.3623 0.453141C84.4853 0.415267 84.5761 0.35928 84.6345 0.28518C84.693 0.21108 84.7223 0.116121 84.7223 0.00012207H86.0921C86.0921 0.396239 86.0169 0.722281 85.8668 0.978431C85.7165 1.23458 85.4871 1.42468 85.179 1.54855C84.8706 1.67278 84.4765 1.73462 83.9965 1.73462C83.6765 1.73462 83.413 1.78384 83.2063 1.88172C82.9993 1.97979 82.8463 2.12982 82.7466 2.332C82.6471 2.53399 82.5974 2.79307 82.5974 3.10923V5.40195H81.2568V3.10923ZM82.4365 8.49917C82.052 8.28711 81.7593 7.97809 81.5583 7.57191C81.3574 7.16573 81.2568 6.67666 81.2568 6.10435V5.14983L82.3047 4.06357C82.3984 3.59939 82.5936 3.24719 82.8901 3.00714C83.1866 2.76709 83.5847 2.64706 84.0843 2.64706C84.5643 2.64706 84.977 2.75208 85.3225 2.96213C85.6678 3.17217 85.9312 3.47827 86.1126 3.88061C86.2942 4.28258 86.3848 4.76579 86.3848 5.33005V6.12228C86.3848 6.69057 86.2843 7.17561 86.0833 7.57794C85.8824 7.97992 85.5897 8.28711 85.2054 8.49917C84.8209 8.71141 84.3596 8.81734 83.821 8.81734C83.2825 8.81734 82.8208 8.71141 82.4365 8.49917ZM84.6785 7.09766C84.8834 6.86768 84.9858 6.54237 84.9858 6.12228V5.33005C84.9858 4.9138 84.8834 4.59179 84.6785 4.36363C84.4734 4.13566 84.1857 4.02149 83.8149 4.02149C83.448 4.02149 83.1632 4.13566 82.9605 4.36363C82.7574 4.59179 82.6559 4.9138 82.6559 5.33005V6.12228C82.6559 6.54237 82.7565 6.86768 82.9574 7.09766C83.1584 7.32783 83.4443 7.44273 83.8149 7.44273C84.1857 7.44273 84.4734 7.32783 84.6785 7.09766Z" fill="#4C519E"/>
<path d="M87.2627 0H88.6911V2.0468L87.2627 3.49915V0Z" fill="#4C519E"/>
<path d="M90.0437 8.49025C89.6418 8.27215 89.3355 7.95416 89.1246 7.53591C88.9138 7.11783 88.8086 6.61267 88.8086 6.02023V5.17402C88.8086 4.58981 88.9138 4.0905 89.1246 3.67645C89.3355 3.26222 89.6418 2.94715 90.0437 2.73107C90.4458 2.51499 90.9296 2.40686 91.4954 2.40686C91.8194 2.40686 92.1248 2.44601 92.4116 2.52396C92.6986 2.60208 92.9561 2.71516 93.1843 2.86317C93.4126 3.01119 93.6029 3.19123 93.755 3.40329L92.8067 4.31555C92.6469 4.14356 92.4594 4.01164 92.2448 3.91943C92.0302 3.8274 91.8057 3.78147 91.5716 3.78147C91.1384 3.78147 90.8028 3.9026 90.5648 4.14466C90.3267 4.38672 90.2079 4.72978 90.2079 5.17402V6.02023C90.2079 6.47636 90.3257 6.82765 90.5618 7.07374C90.7979 7.31982 91.1346 7.44278 91.5716 7.44278C91.8095 7.44278 92.0359 7.39283 92.2505 7.29275C92.4653 7.19285 92.6506 7.05068 92.8067 6.86662L93.755 7.83908C93.599 8.04711 93.4068 8.22422 93.1784 8.37004C92.9502 8.51623 92.6925 8.62729 92.4059 8.70322C92.1189 8.77933 91.8156 8.81739 91.4954 8.81739C90.9296 8.81739 90.4458 8.70834 90.0437 8.49025ZM89.7393 5.00002H92.5492V6.22442H89.7393V5.00002Z" fill="#4C519E"/>
<path d="M94.334 7.41281H100.24V8.7274H94.334V7.41281ZM94.334 7.41281H95.6453V10.2939H94.334V7.41281ZM94.5506 7.41281H94.691C94.9172 7.41281 95.086 7.34786 95.1974 7.21777C95.3087 7.08787 95.3838 6.89466 95.4226 6.63851C95.4617 6.38254 95.4813 6.03235 95.4813 5.58812V2.49695H96.8745V5.99631C96.8745 6.68864 96.7213 7.21173 96.4149 7.56595C96.1086 7.92017 95.6704 8.09709 95.1008 8.09709H94.9602L94.5506 7.41281ZM96.1955 2.49695H99.0112V3.81154H96.1955V2.49695ZM98.496 2.49695H99.8951V8.72722H98.496V2.49695ZM99.532 7.41281H100.843V10.2939H99.532V7.41281Z" fill="#4C519E"/>
<path d="M102.214 2.49695H103.613V8.72721H102.214V2.49695ZM103.016 5.01196H106.745V6.32051H103.016V5.01196ZM105.966 2.49695H107.365V8.72721H105.966V2.49695Z" fill="#4C519E"/>
<path d="M109.349 8.34023C109.002 8.02205 108.828 7.53885 108.828 6.89061C108.828 6.27457 109.004 5.81241 109.355 5.50412C109.706 5.19619 110.233 5.04195 110.935 5.04195H112.563L112.645 6.15839H110.941C110.664 6.15839 110.456 6.21841 110.318 6.33843C110.179 6.45864 110.11 6.64251 110.11 6.89061C110.11 7.15078 110.2 7.34381 110.379 7.46987C110.559 7.59593 110.83 7.65905 111.193 7.65905C111.638 7.65905 111.969 7.60892 112.185 7.50884C112.402 7.40894 112.51 7.25288 112.51 7.04082L112.633 7.92911C112.567 8.12506 112.451 8.28918 112.285 8.42128C112.119 8.55338 111.919 8.65236 111.685 8.71841C111.451 8.78428 111.195 8.81739 110.918 8.81739C110.219 8.81739 109.696 8.65822 109.349 8.34023ZM112.51 4.77794C112.51 4.42976 112.41 4.15971 112.209 3.96759C112.008 3.77548 111.724 3.67961 111.357 3.67961C111.123 3.67961 110.893 3.71767 110.666 3.7936C110.44 3.86971 110.237 3.97565 110.058 4.11159L109.127 3.30728C109.365 3.02332 109.677 2.8023 110.063 2.64404C110.45 2.48614 110.879 2.4071 111.351 2.4071C111.866 2.4071 112.307 2.49822 112.674 2.68009C113.041 2.86232 113.321 3.12633 113.514 3.4725C113.707 3.81866 113.804 4.23582 113.804 4.72396V8.72738H112.51V4.77794Z" fill="#4C519E"/>
<path d="M115.503 2.49695H116.902V8.72721H115.503V2.49695ZM116.305 5.01196H120.034V6.32051H116.305V5.01196ZM119.255 2.49695H120.654V8.72721H119.255V2.49695Z" fill="#4C519E"/>
<path d="M122.409 2.49695H123.808V8.72721H122.409V2.49695ZM123.211 5.01196H126.94V6.32051H123.211V5.01196ZM126.161 2.49695H127.561V8.72721H126.161V2.49695Z" fill="#4C519E"/>
<path d="M128.906 8.7274L130.616 5.99027L132.009 6.26636L130.528 8.7274H128.906ZM131.148 6.71663C130.731 6.71663 130.362 6.62863 130.042 6.45262C129.722 6.27642 129.473 6.02942 129.296 5.71125C129.118 5.39308 129.029 5.02386 129.029 4.60377C129.029 4.18369 129.117 3.81447 129.293 3.49648C129.468 3.1783 129.716 2.93222 130.036 2.75822C130.356 2.58404 130.727 2.49695 131.148 2.49695H133.303V3.87155H131.189C130.971 3.87155 130.797 3.94254 130.668 4.0847C130.54 4.22668 130.475 4.41386 130.475 4.64585C130.475 4.80192 130.504 4.93896 130.563 5.05697C130.622 5.17517 130.704 5.26701 130.812 5.33306C130.919 5.39911 131.045 5.43205 131.189 5.43205H133.303V6.71663H131.148ZM132.6 2.49695H133.999V8.72722H132.6V2.49695Z" fill="#4C519E"/>
<path d="M2.79833 89.0916H1.12402V99.3224H2.79833V89.0916Z" fill="#4C519E"/>
<path d="M4.89746 92.0188H6.53729V99.3224H4.89746V92.0188ZM5.83719 97.7461H12.7886V99.3224H5.83719V97.7461ZM8.45879 92.0188H10.0919V99.3224H8.45879V92.0188ZM12.0134 92.0188H13.6465V99.3224H12.0134V92.0188ZM13.2555 97.7461H14.8886V101.159H13.2555V97.7461Z" fill="#4C519E"/>
<path d="M17.5243 99.0479C17.0484 98.7947 16.6846 98.4229 16.4332 97.9326C16.1815 97.4426 16.0557 96.8503 16.0557 96.1559V95.3326C16.0557 94.6102 16.1759 93.9934 16.4158 93.482C16.656 92.9706 17.006 92.5814 17.466 92.3138C17.9256 92.0462 18.478 91.9126 19.1235 91.9126C19.7316 91.9126 20.2524 92.0685 20.6845 92.3806C21.1167 92.6927 21.4463 93.1439 21.6725 93.735C21.8989 94.3258 22.0122 95.0391 22.0122 95.874V96.3526H17.1742V95.121H20.4886L20.4819 95.0437C20.4359 94.5325 20.2966 94.1362 20.0635 93.8549C19.83 93.5734 19.5167 93.4326 19.1232 93.4326C18.6288 93.4326 18.2471 93.5908 17.9769 93.9077C17.707 94.2244 17.5722 94.6736 17.5722 95.2553V96.1839C17.5722 96.7375 17.7185 97.1633 18.0111 97.4609C18.304 97.7587 18.7157 97.9077 19.2465 97.9077C19.5164 97.9077 19.7826 97.8546 20.0458 97.7493C20.309 97.6436 20.5458 97.4971 20.7563 97.3095L21.8266 98.3369C21.4654 98.6839 21.0593 98.9526 20.6086 99.1425C20.1582 99.3324 19.7039 99.4272 19.2465 99.4272C18.5741 99.428 18.0001 99.3012 17.5243 99.0479Z" fill="#4C519E"/>
<path d="M23.7979 92.0188H25.438V99.3224H23.7979V92.0188ZM24.7381 94.9668H29.1094V96.5008H24.7381V94.9668ZM28.1969 92.0188H29.837V99.3224H28.1969V92.0188Z" fill="#4C519E"/>
<path d="M31.8945 92.0186H33.5346V99.322H31.8945V92.0186ZM32.6426 94.8615H35.765V96.4657H32.6426V94.8615ZM34.3306 95.1288L35.9228 92.0188H37.7481L35.3463 96.3886L34.3306 95.1288ZM34.3583 96.2404L35.758 95.5014L38.1669 99.3223H36.156L34.3583 96.2404Z" fill="#4C519E"/>
<path d="M40.0994 99.0551C39.6487 98.8064 39.3056 98.4443 39.0699 97.968C38.8342 97.4917 38.7168 96.9186 38.7168 96.2476V95.0583C38.7168 94.3969 38.8342 93.8307 39.0699 93.3592C39.3056 92.8878 39.6487 92.5289 40.0994 92.2827C40.5497 92.0366 41.0909 91.9132 41.7221 91.9132C42.3535 91.9132 42.8942 92.0366 43.3451 92.2827C43.7955 92.5289 44.1385 92.8878 44.3745 93.3592C44.6099 93.8307 44.7277 94.3972 44.7277 95.0583V96.2687C44.7277 96.9349 44.6099 97.5034 44.3745 97.9752C44.1385 98.4463 43.7955 98.8064 43.3451 99.0551C42.8942 99.3038 42.3532 99.4281 41.7221 99.4281C41.0909 99.4281 40.55 99.3038 40.0994 99.0551ZM42.731 97.4121C42.969 97.1425 43.0878 96.761 43.0878 96.2687V95.0583C43.0878 94.5705 42.969 94.193 42.731 93.9255C42.4931 93.6579 42.1568 93.5243 41.7224 93.5243C41.288 93.5243 40.9514 93.6579 40.7137 93.9255C40.4757 94.193 40.3572 94.5705 40.3572 95.0583V96.2687C40.3572 96.7613 40.4746 97.1425 40.7103 97.4121C40.946 97.6819 41.2835 97.8167 41.7224 97.8167C42.1568 97.8167 42.4931 97.6819 42.731 97.4121Z" fill="#4C519E"/>
<path d="M46.0312 97.6056H47.7058V100.005L46.0312 101.708V97.6056Z" fill="#4C519E"/>
<path d="M54.8528 98.9671C54.3197 98.6598 53.91 98.2204 53.6241 97.6478C53.3383 97.0756 53.1953 96.3977 53.1953 95.6144V92.8069C53.1953 92.0233 53.3383 91.3457 53.6241 90.7735C53.91 90.2012 54.3197 89.7603 54.8528 89.4505C55.3856 89.141 56.0137 88.9862 56.7362 88.9862C57.3354 88.9862 57.8788 89.1176 58.3659 89.3806C58.8533 89.6433 59.2583 90.0219 59.5809 90.5168C59.9032 91.0116 60.124 91.5967 60.2429 92.2723H58.5548C58.4724 91.9439 58.3421 91.6567 58.1639 91.4103C57.9853 91.1641 57.7734 90.9754 57.5291 90.8437C57.2841 90.7124 57.0201 90.6467 56.7362 90.6467C56.3567 90.6467 56.0285 90.7346 55.7516 90.9103C55.4747 91.0864 55.2609 91.336 55.1101 91.6598C54.959 91.9834 54.8836 92.3657 54.8836 92.8066V95.6141C54.8836 96.055 54.9593 96.4377 55.1101 96.7609C55.2611 97.0847 55.475 97.3335 55.7516 97.5068C56.0285 97.6804 56.3567 97.7672 56.7362 97.7672C57.0243 97.7672 57.2908 97.7038 57.5358 97.5773C57.7805 97.4508 57.9921 97.2655 58.1706 97.0213C58.3488 96.7775 58.4772 96.4842 58.5548 96.1419H60.2429C60.1196 96.8172 59.8965 97.4026 59.5739 97.8974C59.2513 98.3923 58.8466 98.7709 58.3592 99.0336C57.8721 99.2963 57.3309 99.4277 56.7362 99.4277C56.0134 99.428 55.3856 99.2743 54.8528 98.9671Z" fill="#4C519E"/>
<path d="M61.959 92.0186H63.5924V99.322H61.959V92.0186ZM62.8511 97.9222H65.3146C65.5934 97.9222 65.8087 97.8486 65.9598 97.7007C66.1105 97.5527 66.1859 97.3452 66.1859 97.0779V97.0568C66.1859 96.7849 66.1103 96.5736 65.9598 96.4234C65.8087 96.2735 65.5934 96.1984 65.3146 96.1984H62.8511V94.7984H65.3146C65.5525 94.7984 65.7355 94.741 65.8636 94.6259C65.9917 94.5108 66.0559 94.3455 66.0559 94.1299C66.0559 93.9046 65.9917 93.7301 65.8636 93.6056C65.7355 93.4811 65.557 93.4192 65.3286 93.4192H62.8511V92.0191H65.548C66.2341 92.0191 66.7661 92.1773 67.1436 92.494C67.5211 92.8107 67.7097 93.2575 67.7097 93.8346C67.7097 94.2804 67.5836 94.6473 67.3322 94.9357C67.0805 95.2241 66.726 95.4083 66.2683 95.488C66.7669 95.5913 67.1537 95.8129 67.4281 96.153C67.7027 96.4931 67.8398 96.9188 67.8398 97.43V97.4511C67.8398 98.047 67.6383 98.5079 67.2358 98.834C66.8333 99.1601 66.2636 99.3229 65.5273 99.3229H62.8508V97.9222H62.8511Z" fill="#4C519E"/>
<path d="M69.5078 89.0916H71.1412V90.7732H69.5078V89.0916ZM69.5078 92.0188H71.1412V99.3224H69.5078V92.0188Z" fill="#4C519E"/>
<path d="M72.1914 92.0188H77.8598V93.5951H72.1914V92.0188ZM74.209 92.7855H75.8421V99.3224H74.209V92.7855Z" fill="#4C519E"/>
<path d="M79.094 97.7744C79.4281 97.7744 79.6876 97.6407 79.8729 97.3732C80.0581 97.1056 80.1506 96.7255 80.1506 96.2332V92.0186H81.7288V96.4303C81.7288 97.0542 81.6318 97.5865 81.4376 98.0276C81.2431 98.4685 80.9581 98.8052 80.5831 99.0373C80.2078 99.2695 79.7571 99.3857 79.2311 99.3857H79.0938V97.7744H79.094ZM81.0912 92.0188H84.687V93.6302H81.0912V92.0188ZM83.7742 92.0188H85.4143V99.3223H83.7742V92.0188Z" fill="#4C519E"/>
<path d="M91.8775 99.3155V94.3055L92.042 94.4883L88.8923 99.3155H87.4717V92.0186H89.0639V97.1482L88.8994 96.9651L92.0627 92.0186H93.4694V99.3155H91.8775Z" fill="#4C519E"/>
<path d="M95.502 92.0188H97.1418V99.3224H95.502V92.0188ZM96.442 97.7461H100.402V99.3224H96.442V97.7461ZM99.6947 92.0188H101.335V99.3224H99.6947V92.0188ZM100.937 97.7461H102.57V101.159H100.937V97.7461Z" fill="#4C519E"/>
<path d="M104.147 92.0186H105.788V99.322H104.147V92.0186ZM104.964 97.7109H107.407C107.663 97.7109 107.867 97.6279 108.018 97.4611C108.169 97.2949 108.244 97.0753 108.244 96.8035C108.244 96.6204 108.21 96.46 108.142 96.3212C108.073 96.183 107.976 96.075 107.85 95.9977C107.724 95.9203 107.577 95.8817 107.407 95.8817H104.964V94.3757H107.421C107.91 94.3757 108.343 94.4791 108.718 94.6856C109.093 94.892 109.385 95.1816 109.593 95.5545C109.802 95.9274 109.906 96.3603 109.906 96.8529C109.906 97.3454 109.802 97.778 109.597 98.1513C109.391 98.5239 109.1 98.8126 108.725 99.0165C108.35 99.2206 107.915 99.3229 107.421 99.3229H104.964V97.7109H104.964Z" fill="#4C519E"/>
<path d="M111.587 92.0186H113.227V99.322H111.587V92.0186ZM112.335 94.8615H115.457V96.4657H112.335V94.8615ZM114.023 95.1288L115.615 92.0188H117.44L115.038 96.3886L114.023 95.1288ZM114.05 96.2404L115.45 95.5014L117.859 99.3223H115.848L114.05 96.2404Z" fill="#4C519E"/>
<path d="M123.226 99.3155V94.3055L123.391 94.4883L120.241 99.3155H118.82V92.0186H120.412V97.1482L120.248 96.9651L123.411 92.0186H124.818V99.3155H123.226Z" fill="#4C519E"/>
<path d="M131.282 99.3152V94.3055L131.446 94.4883L128.297 99.3152H126.876V92.0185H128.468V97.1479L128.304 96.9649L131.467 92.0182H132.874V99.3149H131.282V99.3152ZM128.204 90.0731C127.845 89.6299 127.665 88.9648 127.665 88.0785H128.997C128.997 88.5477 129.064 88.898 129.199 89.1305C129.334 89.3626 129.539 89.4788 129.813 89.4788H129.937C130.211 89.4788 130.416 89.3629 130.551 89.1305C130.686 88.8983 130.753 88.5477 130.753 88.0785H132.085C132.085 88.9648 131.905 89.6302 131.546 90.0731C131.187 90.5165 130.651 90.7381 129.937 90.7381H129.813C129.099 90.7381 128.563 90.5165 128.204 90.0731Z" fill="#4C519E"/>
<path d="M28.1865 105.965H33.8549V107.541H28.1865V105.965ZM30.2042 106.732H31.8373V113.268H30.2042V106.732Z" fill="#4C519E"/>
<path d="M35.8373 112.815C35.43 112.442 35.2266 111.875 35.2266 111.116C35.2266 110.393 35.4326 109.851 35.8443 109.49C36.256 109.129 36.8734 108.948 37.6971 108.948H39.6049L39.701 110.257H37.7041C37.3793 110.257 37.1354 110.327 36.9732 110.468C36.8109 110.609 36.7296 110.824 36.7296 111.116C36.7296 111.421 36.835 111.647 37.0455 111.794C37.2557 111.942 37.5738 112.016 37.9992 112.016C38.5208 112.016 38.9084 111.958 39.1623 111.84C39.4162 111.723 39.5432 111.54 39.5432 111.291L39.6873 112.333C39.6093 112.562 39.4734 112.755 39.2789 112.91C39.0844 113.064 38.8501 113.181 38.5755 113.258C38.3011 113.335 38.0015 113.374 37.6766 113.374C36.8574 113.374 36.2442 113.188 35.8373 112.815ZM39.5429 108.638C39.5429 108.23 39.4249 107.914 39.1895 107.688C38.9538 107.463 38.6211 107.351 38.1909 107.351C37.9165 107.351 37.6467 107.395 37.381 107.484C37.1158 107.574 36.8779 107.698 36.6674 107.857L35.5761 106.915C35.8552 106.581 36.2212 106.322 36.6741 106.137C37.127 105.952 37.6304 105.859 38.1839 105.859C38.7876 105.859 39.3047 105.966 39.7349 106.179C40.1648 106.393 40.4933 106.703 40.7198 107.108C40.9459 107.514 41.0594 108.003 41.0594 108.575V113.268H39.5429V108.638Z" fill="#4C519E"/>
<path d="M46.8242 105.965H48.4643V113.268H46.8242V105.965ZM47.7642 105.965H52.1355V107.576H47.7642V105.965ZM51.223 105.965H52.8631V113.268H51.223V105.965Z" fill="#4C519E"/>
<path d="M55.1898 112.815C54.7826 112.442 54.5791 111.875 54.5791 111.116C54.5791 110.393 54.7851 109.851 55.1968 109.49C55.6085 109.129 56.2259 108.948 57.0496 108.948H58.9574L59.0535 110.257H57.0567C56.7318 110.257 56.488 110.327 56.3257 110.468C56.1634 110.609 56.0822 110.824 56.0822 111.116C56.0822 111.421 56.1875 111.647 56.398 111.794C56.6082 111.942 56.9263 112.016 57.3518 112.016C57.8733 112.016 58.261 111.958 58.5149 111.84C58.7688 111.723 58.8958 111.54 58.8958 111.291L59.0398 112.333C58.9619 112.562 58.826 112.755 58.6315 112.91C58.437 113.064 58.2027 113.181 57.928 113.258C57.6536 113.335 57.354 113.374 57.0292 113.374C56.21 113.374 55.5967 113.188 55.1898 112.815ZM58.8955 108.638C58.8955 108.23 58.7775 107.914 58.5421 107.688C58.3064 107.463 57.9737 107.351 57.5435 107.351C57.2691 107.351 56.9992 107.395 56.7335 107.484C56.4684 107.574 56.2304 107.698 56.0199 107.857L54.9286 106.915C55.2077 106.581 55.5738 106.322 56.0267 106.137C56.4796 105.952 56.9829 105.859 57.5365 105.859C58.1402 105.859 58.6573 105.966 59.0875 106.179C59.5174 106.393 59.8459 106.703 60.0723 107.108C60.2985 107.514 60.412 108.003 60.412 108.575V113.268H58.8955V108.638Z" fill="#4C519E"/>
<path d="M62.4023 105.964H64.0424V116.237H62.4023V105.964ZM64.6464 113.047C64.3308 112.828 64.0977 112.52 63.9466 112.122L64.0427 110.524C64.0427 110.801 64.0907 111.037 64.1868 111.231C64.2829 111.426 64.4225 111.575 64.6055 111.678C64.7885 111.781 65.0105 111.833 65.2711 111.833C65.6781 111.833 65.9939 111.701 66.2181 111.439C66.4423 111.176 66.5545 110.803 66.5545 110.32V108.948C66.5545 108.455 66.4423 108.074 66.2181 107.805C65.9939 107.535 65.6781 107.4 65.2711 107.4C65.0105 107.4 64.7885 107.45 64.6055 107.551C64.4225 107.652 64.2829 107.801 64.1868 107.998C64.0909 108.195 64.0427 108.432 64.0427 108.709L63.8984 107.196C64.0996 106.769 64.3662 106.44 64.698 106.208C65.0295 105.975 65.3967 105.859 65.7994 105.859C66.3025 105.859 66.7335 105.979 67.0928 106.218C67.4519 106.457 67.7254 106.808 67.9129 107.27C68.1004 107.732 68.1943 108.289 68.1943 108.941V110.321C68.1943 110.963 68.0993 111.513 67.9095 111.97C67.7198 112.428 67.4415 112.776 67.0757 113.016C66.7097 113.255 66.2728 113.374 65.7649 113.374C65.335 113.374 64.962 113.265 64.6464 113.047Z" fill="#4C519E"/>
<path d="M69.1553 105.965H74.8237V107.541H69.1553V105.965ZM71.1729 106.732H72.806V113.268H71.1729V106.732Z" fill="#4C519E"/>
<path d="M76.5381 105.965H78.1782V113.268H76.5381V105.965ZM77.4784 108.913H81.8497V110.447H77.4784V108.913ZM80.9372 105.965H82.5773V113.268H80.9372V105.965Z" fill="#4C519E"/>
<path d="M85.8993 112.994C85.4234 112.741 85.0596 112.369 84.8082 111.879C84.5565 111.389 84.4307 110.796 84.4307 110.102V109.279C84.4307 108.556 84.5509 107.939 84.7908 107.428C85.031 106.917 85.381 106.527 85.841 106.26C86.3009 105.993 86.853 105.859 87.4985 105.859C88.1066 105.859 88.6271 106.015 89.0595 106.327C89.4917 106.639 89.8213 107.09 90.0475 107.681C90.2739 108.272 90.3872 108.986 90.3872 109.82V110.299H85.5492V109.068H88.8636L88.8569 108.991C88.8109 108.479 88.6716 108.083 88.4385 107.801C88.205 107.52 87.8917 107.379 87.4985 107.379C87.0041 107.379 86.6223 107.538 86.3522 107.854C86.0823 108.171 85.9475 108.62 85.9475 109.202V110.13C85.9475 110.684 86.0938 111.11 86.3864 111.408C86.6792 111.706 87.0909 111.855 87.6218 111.855C87.8917 111.855 88.1579 111.801 88.4211 111.696C88.6843 111.59 88.9211 111.444 89.1316 111.256L90.2019 112.284C89.8406 112.631 89.4345 112.899 88.9839 113.089C88.5335 113.279 88.0792 113.374 87.6218 113.374C86.9491 113.374 86.3749 113.247 85.8993 112.994Z" fill="#4C519E"/>
<path d="M92.1709 105.964H93.811V116.237H92.1709V105.964ZM94.4147 113.047C94.0991 112.828 93.8659 112.52 93.7149 112.122L93.811 110.524C93.811 110.801 93.8589 111.037 93.9551 111.231C94.0512 111.426 94.1908 111.575 94.3738 111.678C94.5568 111.781 94.7788 111.833 95.0394 111.833C95.4464 111.833 95.7622 111.701 95.9864 111.439C96.2106 111.176 96.3227 110.803 96.3227 110.32V108.948C96.3227 108.455 96.2106 108.074 95.9864 107.805C95.7622 107.535 95.4464 107.4 95.0394 107.4C94.7788 107.4 94.5568 107.45 94.3738 107.551C94.1908 107.652 94.0512 107.801 93.9551 107.998C93.8592 108.195 93.811 108.432 93.811 108.709L93.6667 107.196C93.8679 106.769 94.1344 106.44 94.4663 106.208C94.7978 105.975 95.165 105.859 95.5677 105.859C96.0708 105.859 96.5021 105.979 96.8611 106.218C97.2202 106.457 97.4937 106.808 97.6812 107.27C97.8687 107.732 97.9626 108.289 97.9626 108.941V110.321C97.9626 110.963 97.8676 111.513 97.6778 111.97C97.4881 112.428 97.2098 112.776 96.844 113.016C96.478 113.255 96.0411 113.374 95.5332 113.374C95.1033 113.374 94.7306 113.265 94.4147 113.047Z" fill="#4C519E"/>
<path d="M104.222 113.261V108.251L104.387 108.435L101.237 113.261H99.8164V105.964H101.409V111.094L101.244 110.911L104.407 105.964H105.814V113.261H104.222Z" fill="#4C519E"/>
<path d="M132.152 80.0907H1.84766V81.4574H132.152V80.0907Z" fill="#4C519E"/>
</svg>
