<svg width="140" height="78" viewBox="0 0 140 78" fill="none" xmlns="http://www.w3.org/2000/svg">
<path d="M20.2526 71.8696H17.3451V59.0363H17.2573L12.0312 71.7192H9.82552L4.59945 59.0363H4.51172V71.8696H1.59163V53.7852H5.33887L10.8783 67.4331H10.9785L16.5179 53.7852H20.2526V71.8696ZM27.6593 69.7266C28.5533 69.7266 29.3053 69.4634 29.9152 68.937C30.5335 68.4023 30.8426 67.7381 30.8426 66.9443V65.9292L27.7721 66.1172C27.0202 66.1673 26.4353 66.3553 26.0176 66.6812C25.6082 66.9986 25.4035 67.4206 25.4035 67.9469C25.4035 68.49 25.6082 68.9245 26.0176 69.2503C26.4353 69.5678 26.9826 69.7266 27.6593 69.7266ZM26.7194 72.0827C25.4244 72.0827 24.3591 71.7109 23.5236 70.9673C22.6965 70.2237 22.2829 69.2587 22.2829 68.0723C22.2829 66.8942 22.7173 65.9626 23.5863 65.2775C24.4635 64.5924 25.7126 64.1997 27.3335 64.0994L30.8426 63.8989V62.9465C30.8426 62.253 30.6212 61.7141 30.1784 61.3298C29.7439 60.9454 29.1382 60.7533 28.3612 60.7533C27.6343 60.7533 27.0411 60.9162 26.5815 61.242C26.122 61.5679 25.8421 62.0107 25.7419 62.5705H22.8468C22.9137 61.3089 23.4526 60.2854 24.4635 59.5C25.4829 58.7063 26.8238 58.3094 28.4865 58.3094C30.1324 58.3094 31.4483 58.7104 32.4342 59.5125C33.4285 60.3146 33.9256 61.3841 33.9256 62.7209V71.8696H30.9178V69.7516H30.8551C30.4792 70.4618 29.911 71.0299 29.1507 71.4561C28.3904 71.8738 27.58 72.0827 26.7194 72.0827ZM36.2065 62.395C36.2065 61.1752 36.6995 60.1893 37.6854 59.4373C38.6713 58.6854 39.9705 58.3094 41.583 58.3094C43.137 58.3094 44.3987 58.6937 45.3678 59.4624C46.3454 60.2227 46.855 61.217 46.8968 62.4451H43.9893C43.9391 61.8687 43.6968 61.4175 43.2624 61.0916C42.8279 60.7658 42.2472 60.6029 41.5203 60.6029C40.8352 60.6029 40.2838 60.7533 39.866 61.054C39.4483 61.3465 39.2394 61.735 39.2394 62.2196C39.2394 62.9548 39.8744 63.477 41.1444 63.7861L43.513 64.3125C44.8415 64.6216 45.7898 65.0561 46.3579 65.6159C46.9261 66.1757 47.2101 66.9485 47.2101 67.9344C47.2101 69.1877 46.6838 70.2028 45.631 70.9798C44.5783 71.7485 43.2122 72.1328 41.5329 72.1328C39.8786 72.1328 38.546 71.7568 37.535 71.0049C36.5324 70.2446 35.9768 69.2294 35.8682 67.9595H38.9386C39.0305 68.5694 39.3063 69.0373 39.7658 69.3631C40.2337 69.689 40.8603 69.8519 41.6457 69.8519C42.406 69.8519 43.0034 69.7099 43.4378 69.4258C43.8806 69.1334 44.102 68.7407 44.102 68.2477C44.102 67.8634 43.9642 67.5584 43.6885 67.3328C43.4211 67.0989 42.9658 66.8984 42.3224 66.7313L39.9036 66.1673C37.4389 65.5908 36.2065 64.3334 36.2065 62.395ZM66.4727 71.8696L64.9312 67.195H58.2764L56.7349 71.8696H53.4012L59.8179 53.7852H63.4648L69.8815 71.8696H66.4727ZM61.5599 56.981L59.0283 64.701H64.1667L61.6476 56.981H61.5599ZM76.9499 69.4007C77.9525 69.4007 78.7504 69.0247 79.3436 68.2728C79.9368 67.5125 80.2334 66.4848 80.2334 65.1898C80.2334 63.8947 79.9326 62.8629 79.3311 62.0942C78.7378 61.3172 77.9441 60.9287 76.9499 60.9287C75.964 60.9287 75.1786 61.313 74.5937 62.0817C74.0172 62.8504 73.729 63.8864 73.729 65.1898C73.729 66.5015 74.0172 67.5334 74.5937 68.2853C75.1786 69.0289 75.964 69.4007 76.9499 69.4007ZM76.9373 76.8826C75.3081 76.8826 73.9462 76.5067 72.8517 75.7547C71.7656 75.0111 71.1431 74.0503 70.9844 72.8722H74.0799C74.247 73.3819 74.5979 73.7913 75.1326 74.1004C75.6674 74.4179 76.3024 74.5767 77.0376 74.5767C78.0402 74.5767 78.8214 74.3177 79.3812 73.7996C79.9493 73.29 80.2334 72.6049 80.2334 71.7443V69.501H80.1582C79.8073 70.2279 79.26 70.8085 78.5164 71.243C77.7812 71.6691 76.9415 71.8822 75.9974 71.8822C74.3431 71.8822 73.0188 71.2806 72.0246 70.0775C71.0303 68.866 70.5332 67.2326 70.5332 65.1772C70.5332 63.0801 71.0303 61.4217 72.0246 60.2018C73.0188 58.9736 74.364 58.3595 76.0601 58.3595C76.9958 58.3595 77.8313 58.5851 78.5666 59.0363C79.3018 59.4791 79.8616 60.089 80.2459 60.866H80.2961V58.5851H83.354V71.6566C83.354 73.244 82.7691 74.5098 81.5994 75.4539C80.4297 76.4064 78.8757 76.8826 76.9373 76.8826ZM91.6255 60.7282C90.7566 60.7282 90.0297 61.029 89.4448 61.6305C88.8683 62.2237 88.5467 62.9882 88.4798 63.924H94.6834C94.65 62.9799 94.3534 62.2112 93.7936 61.618C93.2338 61.0248 92.5111 60.7282 91.6255 60.7282ZM94.696 67.8968H97.616C97.4155 69.1584 96.7764 70.1819 95.6986 70.9673C94.6208 71.7443 93.3007 72.1328 91.7383 72.1328C89.7498 72.1328 88.1874 71.5229 87.0511 70.3031C85.9148 69.0749 85.3467 67.3997 85.3467 65.2775C85.3467 63.172 85.9106 61.4843 87.0386 60.2144C88.1749 58.9444 89.6997 58.3094 91.613 58.3094C93.4928 58.3094 94.9842 58.9151 96.0871 60.1266C97.1899 61.3298 97.7414 62.9423 97.7414 64.9642V65.9793H88.4547V66.1673C88.4547 67.2368 88.7555 68.0973 89.3571 68.749C89.967 69.4007 90.7816 69.7266 91.8009 69.7266C92.5195 69.7266 93.1377 69.5636 93.6558 69.2378C94.1821 68.9036 94.5289 68.4566 94.696 67.8968ZM99.7591 71.8696V58.5851H102.754V60.866H102.817C103.185 60.064 103.719 59.4415 104.421 58.9987C105.131 58.5559 105.988 58.3345 106.99 58.3345C108.444 58.3345 109.572 58.7731 110.374 59.6504C111.185 60.5277 111.59 61.7391 111.59 63.2848V71.8696H108.469V63.9115C108.469 62.959 108.244 62.2321 107.792 61.7308C107.35 61.2295 106.69 60.9788 105.812 60.9788C104.918 60.9788 104.204 61.2713 103.669 61.8561C103.143 62.441 102.88 63.2138 102.88 64.1746V71.8696H99.7591ZM125.802 63.3224H122.857C122.723 62.5788 122.405 61.9814 121.904 61.5303C121.403 61.0707 120.751 60.841 119.949 60.841C118.963 60.841 118.178 61.2337 117.593 62.019C117.008 62.7961 116.716 63.8655 116.716 65.2274C116.716 66.606 117.008 67.6838 117.593 68.4608C118.178 69.2294 118.972 69.6138 119.974 69.6138C120.759 69.6138 121.403 69.4049 121.904 68.9871C122.405 68.561 122.727 67.9678 122.869 67.2075H125.814C125.689 68.6947 125.092 69.8895 124.022 70.7918C122.961 71.6858 121.599 72.1328 119.937 72.1328C117.981 72.1328 116.427 71.5187 115.274 70.2905C114.121 69.054 113.545 67.3663 113.545 65.2274C113.545 63.1136 114.121 61.4342 115.274 60.1893C116.427 58.936 117.973 58.3094 119.911 58.3094C121.616 58.3094 122.994 58.7856 124.047 59.7381C125.108 60.6822 125.693 61.877 125.802 63.3224ZM129.16 76.8075C128.484 76.8075 128.074 76.7907 127.932 76.7573V74.2884C128.074 74.3218 128.375 74.3385 128.835 74.3385C129.478 74.3385 129.979 74.2049 130.339 73.9375C130.698 73.6701 130.965 73.2315 131.141 72.6216C131.141 72.6132 131.17 72.4921 131.228 72.2581C131.295 72.0242 131.324 71.8989 131.316 71.8822L126.591 58.5851H130L133.133 69.2127H133.183L136.317 58.5851H139.6L134.8 72.396C134.232 74.0419 133.53 75.1866 132.695 75.8299C131.859 76.4816 130.681 76.8075 129.16 76.8075Z" fill="black"/>
<g clip-path="url(#clip0_601_2)">
<path d="M67.2958 20.1666C66.8889 19.4766 66.6017 18.7967 66.4743 18.0572C66.1098 15.9419 66.6643 14.081 68.1147 12.5193C70.7806 9.64888 75.3338 9.82785 77.7788 12.8883C78.9253 14.3235 79.3879 15.9808 79.0927 17.7952C78.6512 20.5091 77.0721 22.287 74.444 23.065C72.8168 23.5467 71.2278 23.3008 69.7355 22.4929C69.56 22.3979 69.4723 22.417 69.3373 22.554C68.4405 23.4646 67.5333 24.3649 66.6299 25.2689C66.5856 25.3132 66.5446 25.3609 66.4811 25.43C66.6796 25.6247 66.8707 25.8107 67.0601 25.9982C67.1781 26.1152 67.3001 26.2289 67.4089 26.3539C67.5943 26.5667 67.6074 26.8329 67.4146 27.032C66.9036 27.5599 66.3851 28.0809 65.8569 28.5917C65.6484 28.7933 65.3551 28.7638 65.1336 28.5489C64.8814 28.3041 64.6357 28.0527 64.3867 27.8047C64.3421 27.7604 64.295 27.7188 64.2515 27.6785C63.9344 28.0003 63.6267 28.3128 63.2962 28.6485C63.5617 28.9088 63.84 29.1799 64.1165 29.4528C64.4304 29.763 64.4288 30.0314 64.116 30.3432C63.6544 30.8036 63.195 31.2657 62.7327 31.7252C62.4579 31.9983 62.1872 32.0004 61.9129 31.7273C61.143 30.9608 60.3748 30.1926 59.6083 29.4228C59.0954 28.9079 59.0968 28.3229 59.6119 27.8073C62.1143 25.3032 64.6177 22.8 67.1218 20.2976C67.1712 20.2477 67.2344 20.2121 67.2958 20.1666ZM72.7873 13.6911C71.0291 13.6836 69.5857 15.1033 69.5755 16.8505C69.5649 18.6276 70.9897 20.0744 72.758 20.0821C74.5186 20.0897 75.9633 18.6577 75.9691 16.8989C75.9749 15.1319 74.5532 13.6986 72.7873 13.6911Z" fill="black"/>
<path d="M69.2029 42.4058C57.5116 42.4058 48 32.8942 48 21.2029C48 9.5116 57.5116 0 69.2029 0C80.8942 0 90.4058 9.5116 90.4058 21.2029C90.4058 32.8942 80.8942 42.4058 69.2029 42.4058ZM69.2029 2.29634C58.7777 2.29634 50.2963 10.7778 50.2963 21.2029C50.2963 31.628 58.7777 40.1095 69.2029 40.1095C79.6281 40.1095 88.1095 31.628 88.1095 21.2029C88.1095 10.7778 79.6281 2.29634 69.2029 2.29634Z" fill="black"/>
</g>
<defs>
<clipPath id="clip0_601_2">
<rect width="42.4058" height="42.4058" fill="white" transform="translate(48)"/>
</clipPath>
</defs>
</svg>
