<svg width="148" height="212" viewBox="0 0 148 212" fill="none" xmlns="http://www.w3.org/2000/svg">
<path d="M8.12018 172.847H8.82934C9.4484 172.85 10.0666 172.8 10.6774 172.699C11.2318 172.63 11.7699 172.466 12.2679 172.213C12.758 171.978 13.169 171.605 13.4506 171.141C13.7769 170.608 13.934 169.989 13.9011 169.366C13.9293 168.719 13.7731 168.078 13.4506 167.517C13.1706 167.059 12.7581 166.698 12.2679 166.481C11.5058 166.085 10.6613 165.874 9.80269 165.865H8.12018V172.847ZM23.7847 188.222H14.9292L8.23091 177.494H8.12125V188.222H0.929688V160.344H11.6278C14.08 160.235 16.4977 160.954 18.4927 162.384C20.2633 163.743 21.1672 165.922 21.2045 168.922C21.2407 170.739 20.7155 172.523 19.7006 174.031C18.6483 175.485 17.0737 176.474 15.3074 176.791L23.7847 188.222Z" fill="#434345"/>
<path d="M39.9206 168.557H39.8527L36.9568 177.462H42.7815L39.9206 168.557ZM34.9881 182.989L33.1401 187.827H25.6953L36.0733 159.948H43.7208L53.8884 187.827H46.4096L44.6471 182.989H34.9881Z" fill="#434345"/>
<path d="M78.6979 181.677V187.84H55.582L68.3638 166.098H57.3818V159.936H80.0724L67.3586 181.677H78.6979Z" fill="#434345"/>
<path d="M96.6941 166.196C95.6976 166.185 94.7088 166.372 93.7853 166.747C92.8617 167.122 92.0218 167.676 91.3144 168.378C90.6051 169.011 90.0371 169.787 89.6473 170.654C89.2575 171.522 89.0547 172.461 89.0521 173.412C89.0209 174.489 89.2049 175.56 89.5934 176.564C89.9819 177.569 90.567 178.485 91.3144 179.26C92.3635 180.359 93.7217 181.114 95.2092 181.425C96.6967 181.736 98.2435 181.587 99.6449 181C100.578 180.6 101.415 180.007 102.102 179.26C102.84 178.48 103.415 177.561 103.797 176.558C104.179 175.554 104.359 174.486 104.326 173.412C104.325 172.464 104.125 171.527 103.741 170.66C103.357 169.794 102.797 169.016 102.096 168.378C101.388 167.669 100.545 167.111 99.6163 166.736C98.6878 166.361 97.6931 166.177 96.6919 166.196H96.6941ZM96.6941 159.189C100.526 159.162 104.23 160.57 107.078 163.135C108.536 164.405 109.699 165.979 110.485 167.746C111.271 169.513 111.66 171.431 111.625 173.364C111.689 175.374 111.353 177.377 110.635 179.256C109.918 181.135 108.834 182.853 107.447 184.309C106.035 185.709 104.354 186.809 102.507 187.543C100.659 188.278 98.682 188.632 96.6941 188.584C94.7132 188.642 92.7415 188.292 90.9013 187.557C89.061 186.822 87.3914 185.716 85.9961 184.309C83.215 181.35 81.6962 177.424 81.7618 173.364C81.7278 171.427 82.121 169.506 82.9134 167.738C83.7059 165.97 84.8782 164.399 86.3468 163.135C89.1819 160.574 92.8732 159.166 96.6941 159.189Z" fill="#434345"/>
<path d="M117.897 159.948H124.805L130.289 174.842L136.082 159.948H143.07L147.143 187.827H140.137L138.158 171.774H138.092L131.602 187.827H128.823L122.617 171.774H122.55L120.294 187.827H113.318L117.897 159.948Z" fill="#434345"/>
<path d="M3.14691 209.475V201.539H0V200.608H7.55223V201.549H4.40526V209.485L3.14691 209.475Z" fill="#3B3B3C"/>
<path d="M11.3846 208.731C12.633 208.731 13.2622 207.893 13.2622 206.204C13.2622 204.515 12.6429 203.702 11.4109 203.702C10.1788 203.702 9.5639 204.541 9.5639 206.215C9.5639 207.888 10.1974 208.736 11.4054 208.736L11.3846 208.731ZM11.3846 209.621C10.9678 209.638 10.5523 209.564 10.167 209.404C9.78178 209.244 9.4361 209.002 9.154 208.695C8.60945 207.982 8.31445 207.109 8.31445 206.211C8.31445 205.314 8.60945 204.441 9.154 203.728C9.76555 203.145 10.5781 202.819 11.423 202.819C12.2679 202.819 13.0803 203.145 13.6919 203.728C14.2406 204.442 14.5382 205.318 14.5382 206.219C14.5382 207.12 14.2406 207.996 13.6919 208.71C13.3953 209.019 13.0357 209.26 12.6376 209.417C12.2394 209.575 11.812 209.644 11.3846 209.621Z" fill="#3B3B3C"/>
<path d="M20.5564 207.218V204.511C20.3454 204.267 20.086 204.069 19.7945 203.929C19.503 203.79 19.1858 203.713 18.8629 203.703C18.6115 203.695 18.3622 203.75 18.1383 203.865C17.9165 203.98 17.7278 204.149 17.5903 204.358C17.2559 204.893 17.0949 205.519 17.1289 206.149C17.1289 207.577 17.6305 208.291 18.6338 208.292C19.0151 208.269 19.3862 208.16 19.7199 207.974C20.0537 207.788 20.3414 207.53 20.5618 207.218H20.5564ZM16.4021 211.638L16.5402 210.616C17.1695 210.926 17.86 211.092 18.5615 211.101C19.8922 211.101 20.5571 210.395 20.5564 208.984V207.96C20.3829 208.38 20.0841 208.737 19.7006 208.981C19.3172 209.226 18.8678 209.346 18.4135 209.326C18.058 209.341 17.7039 209.272 17.3801 209.124C17.0563 208.976 16.7719 208.754 16.5501 208.476C16.0647 207.812 15.8224 207.001 15.864 206.18C15.8247 205.305 16.1026 204.446 16.6466 203.76C16.8935 203.458 17.2064 203.216 17.5611 203.054C17.9158 202.892 18.3031 202.813 18.693 202.823C19.052 202.822 19.4066 202.901 19.7314 203.054C20.0561 203.207 20.3428 203.431 20.5706 203.708V202.962H21.7577V207.699C21.7792 208.456 21.7264 209.213 21.5999 209.96C21.5181 210.41 21.3124 210.827 21.0058 211.166C20.6835 211.462 20.3034 211.688 19.8895 211.829C19.4756 211.971 19.0369 212.025 18.6009 211.989C17.8538 211.992 17.1112 211.874 16.4021 211.638Z" fill="#3B3B3C"/>
<path d="M24.779 205.514H27.6551C27.6551 204.301 27.1991 203.697 26.2992 203.697C25.3993 203.697 24.8864 204.301 24.779 205.514ZM28.8104 209.263C28.1487 209.479 27.4597 209.6 26.764 209.622C26.3269 209.639 25.8912 209.562 25.486 209.397C25.0809 209.232 24.7157 208.983 24.415 208.665C24.106 208.332 23.8661 207.942 23.709 207.516C23.5519 207.09 23.4808 206.637 23.4997 206.183C23.46 205.304 23.7457 204.441 24.3022 203.759C24.5483 203.455 24.8607 203.212 25.2154 203.048C25.5702 202.884 25.9578 202.803 26.3485 202.812C26.6984 202.793 27.0476 202.86 27.3659 203.006C27.6842 203.152 27.9622 203.374 28.1758 203.651C28.6476 204.353 28.8741 205.191 28.8203 206.035V206.404H24.7275C24.8941 207.949 25.6511 208.722 26.9986 208.721C27.6204 208.693 28.2331 208.56 28.8104 208.327V209.263Z" fill="#3B3B3C"/>
<path d="M32.8326 209.621C32.5764 209.637 32.3197 209.599 32.0786 209.511C31.8375 209.423 31.617 209.286 31.4307 209.11C31.2539 208.917 31.1174 208.691 31.0294 208.445C30.9415 208.199 30.9039 207.938 30.9188 207.677V203.85H30.1055V202.96H30.9188V201.779L32.1004 201.669V202.964H33.8048V203.848H32.1004V207.465C32.1004 208.315 32.4691 208.739 33.2064 208.739C33.3979 208.734 33.5883 208.709 33.7742 208.662V209.481C33.4676 209.568 33.1512 209.615 32.8326 209.621Z" fill="#3B3B3C"/>
<path d="M35.4727 209.473V200.003H36.6542V204.188C36.8862 203.783 37.2186 203.445 37.6193 203.206C38.0199 202.966 38.4754 202.834 38.9418 202.822C39.1921 202.811 39.4419 202.853 39.6747 202.946C39.9074 203.039 40.1179 203.179 40.2922 203.359C40.6453 203.753 40.8292 204.269 40.8041 204.797V209.479H39.6269V205.181C39.6518 204.826 39.5758 204.471 39.4077 204.157C39.3254 204.051 39.2176 203.967 39.0942 203.914C38.9707 203.86 38.8358 203.838 38.7018 203.85C38.2694 203.9 37.8561 204.056 37.499 204.305C37.1418 204.554 36.852 204.887 36.6553 205.275V209.491L35.4727 209.473Z" fill="#3B3B3C"/>
<path d="M43.837 205.514H46.7066C46.7066 204.302 46.2546 203.697 45.3507 203.697C44.4468 203.698 43.9422 204.303 43.837 205.514ZM47.863 209.263C47.2013 209.479 46.5122 209.6 45.8165 209.622C45.3796 209.639 44.9441 209.562 44.5392 209.397C44.1343 209.232 43.7693 208.982 43.4687 208.665C42.8483 207.991 42.5207 207.099 42.5578 206.183C42.5215 205.304 42.8068 204.442 43.3602 203.759C43.6065 203.455 43.9191 203.212 44.274 203.048C44.6289 202.883 45.0167 202.803 45.4077 202.812C45.7574 202.793 46.1063 202.86 46.4245 203.006C46.7426 203.152 47.0204 203.374 47.2338 203.651C47.7056 204.353 47.9321 205.191 47.8783 206.035V206.404H43.7855C43.9594 207.949 44.7164 208.722 46.0566 208.721C46.6784 208.693 47.2911 208.56 47.8685 208.327L47.863 209.263Z" fill="#3B3B3C"/>
<path d="M49.9277 209.474V202.961H51.1247V204.188C51.2919 203.783 51.5757 203.437 51.9401 203.194C52.3045 202.951 52.733 202.822 53.1711 202.823C53.2963 202.823 53.4213 202.833 53.5449 202.853V203.949C53.3722 203.888 53.191 203.853 53.0078 203.847C52.602 203.872 52.2112 204.01 51.8795 204.245C51.5478 204.481 51.2883 204.804 51.1302 205.178V209.475L49.9277 209.474Z" fill="#3B3B3C"/>
<path d="M59.9564 209.475L57.6699 200.608H58.8822L60.6985 207.617L62.3821 200.608H63.5944L65.1761 207.52L67.1195 200.608H68.1433L65.6561 209.485H64.4285L62.837 202.655L61.2005 209.5L59.9564 209.475Z" fill="#3B3B3C"/>
<path d="M70.0907 205.514H72.9614C72.9614 204.302 72.5109 203.697 71.6099 203.697C70.7089 203.698 70.2025 204.303 70.0907 205.514ZM74.1222 209.263C73.4605 209.479 72.7715 209.6 72.0758 209.622C71.6396 209.638 71.2049 209.561 70.8008 209.396C70.3966 209.231 70.0324 208.982 69.7323 208.665C69.4247 208.332 69.1859 207.941 69.0296 207.515C68.8733 207.089 68.8026 206.637 68.8214 206.183C68.7854 205.305 69.0693 204.443 69.6205 203.759C69.8665 203.455 70.1789 203.212 70.5336 203.047C70.8884 202.883 71.2761 202.803 71.6669 202.812C72.0166 202.793 72.3656 202.86 72.6837 203.006C73.0018 203.152 73.2796 203.374 73.493 203.651C73.9655 204.353 74.1922 205.191 74.1375 206.035V206.404H70.0446C70.2156 207.949 70.973 208.722 72.3169 208.721C72.9384 208.693 73.5507 208.56 74.1277 208.327L74.1222 209.263Z" fill="#3B3B3C"/>
<path d="M84.5327 206.076L82.9981 202.255L81.4636 206.076H84.5327ZM85.8634 209.474L84.8955 207.013H81.1358L80.1581 209.474H78.9863L82.5114 200.607H83.7599L87.2236 209.486L85.8634 209.474Z" fill="#3B3B3C"/>
<path d="M88.5449 209.474V202.961H89.7265V204.188C89.8919 203.782 90.1752 203.435 90.5401 203.191C90.9049 202.948 91.3344 202.819 91.773 202.823C91.8997 202.822 92.0261 202.833 92.1511 202.853V203.949C91.9783 203.888 91.7972 203.854 91.614 203.847C91.2085 203.873 90.8181 204.012 90.4865 204.247C90.155 204.482 89.8952 204.804 89.7364 205.178V209.475L88.5449 209.474Z" fill="#3B3B3C"/>
<path d="M94.3133 205.514H97.1741C97.1741 204.302 96.7221 203.697 95.8182 203.697C94.9143 203.698 94.4126 204.304 94.3133 205.514ZM98.3404 209.263C97.6787 209.479 96.9896 209.6 96.2939 209.622C95.8568 209.639 95.4211 209.562 95.016 209.397C94.6109 209.232 94.2457 208.983 93.945 208.665C93.3254 207.991 92.998 207.098 93.0341 206.183C92.9993 205.304 93.2847 204.443 93.8375 203.759C94.0837 203.455 94.3961 203.212 94.7509 203.048C95.1056 202.884 95.4932 202.803 95.884 202.812C96.2338 202.793 96.5829 202.86 96.9013 203.006C97.2196 203.152 97.4976 203.374 97.7112 203.651C98.1829 204.353 98.4095 205.191 98.3557 206.035V206.404H94.2628C94.436 207.949 95.1931 208.722 96.534 208.721C97.1558 208.693 97.7685 208.56 98.3459 208.327L98.3404 209.263Z" fill="#3B3B3C"/>
<path d="M104.189 200.608H105.447V206.211C105.395 206.898 105.575 207.582 105.959 208.154C106.157 208.37 106.402 208.537 106.676 208.642C106.949 208.747 107.242 208.789 107.534 208.763C107.811 208.793 108.09 208.756 108.35 208.656C108.609 208.557 108.842 208.397 109.028 208.19C109.373 207.6 109.522 206.916 109.453 206.236V200.608H110.549V206.236C110.631 207.179 110.366 208.12 109.803 208.881C109.489 209.18 109.115 209.408 108.705 209.551C108.296 209.694 107.861 209.748 107.429 209.709C106.982 209.747 106.532 209.691 106.109 209.542C105.686 209.394 105.299 209.158 104.973 208.85C104.387 208.097 104.105 207.151 104.185 206.2L104.189 200.608Z" fill="#3B3B3C"/>
<path d="M112.807 209.475V200.004H113.983V206.118L116.746 202.962H118.015L115.38 206L118.562 209.475H117.028L113.958 206.134V209.475H112.807Z" fill="#3B3B3C"/>
<path d="M119.98 209.474V202.961H121.162V204.188C121.329 203.783 121.613 203.437 121.978 203.194C122.342 202.951 122.77 202.822 123.209 202.823C123.334 202.823 123.459 202.833 123.582 202.853V203.949C123.41 203.888 123.228 203.853 123.045 203.847C122.639 203.872 122.249 204.01 121.917 204.245C121.585 204.481 121.326 204.804 121.168 205.178V209.475L119.98 209.474Z" fill="#3B3B3C"/>
<path d="M128.212 208.001V206.318H127.813C127.265 206.293 126.722 206.421 126.242 206.686C126.064 206.778 125.914 206.917 125.809 207.087C125.703 207.257 125.646 207.453 125.643 207.654C125.642 207.788 125.668 207.922 125.72 208.046C125.772 208.17 125.848 208.282 125.945 208.375C126.042 208.47 126.156 208.544 126.282 208.595C126.407 208.645 126.542 208.669 126.677 208.667C127.244 208.628 127.779 208.393 128.191 208.001H128.212ZM128.385 208.646C127.85 209.217 127.119 209.566 126.338 209.624C125.84 209.637 125.357 209.453 124.994 209.112C124.824 208.946 124.69 208.747 124.602 208.526C124.514 208.306 124.473 208.07 124.482 207.833C124.471 207.504 124.548 207.178 124.706 206.889C124.863 206.6 125.095 206.358 125.377 206.188C126.161 205.765 127.046 205.567 127.935 205.615H128.216V204.833C128.236 204.676 128.218 204.517 128.166 204.369C128.113 204.22 128.028 204.085 127.915 203.975C127.801 203.866 127.665 203.783 127.515 203.734C127.365 203.686 127.206 203.673 127.05 203.697C126.339 203.722 125.645 203.92 125.029 204.275V203.297C125.735 202.991 126.495 202.826 127.265 202.811C127.848 202.767 128.426 202.951 128.877 203.323C129.064 203.53 129.206 203.773 129.294 204.037C129.381 204.301 129.414 204.581 129.388 204.858V207.769C129.388 208.444 129.598 208.793 130.013 208.793C130.089 208.798 130.166 208.798 130.243 208.793L130.325 209.442C130.048 209.572 129.745 209.639 129.439 209.637C129.17 209.639 128.911 209.537 128.715 209.352C128.519 209.168 128.402 208.915 128.388 208.646H128.385Z" fill="#3B3B3C"/>
<path d="M131.785 209.454V202.962H132.991V209.474L131.785 209.454ZM131.785 201.781V200.611H132.991V201.792L131.785 201.781Z" fill="#3B3B3C"/>
<path d="M135.332 209.474V202.961H136.514V204.19C136.747 203.785 137.08 203.446 137.481 203.207C137.882 202.967 138.338 202.835 138.806 202.823C139.056 202.812 139.306 202.854 139.538 202.946C139.771 203.039 139.982 203.18 140.156 203.36C140.506 203.755 140.689 204.27 140.668 204.798V209.479H139.486V205.182C139.512 204.828 139.439 204.474 139.277 204.159C139.194 204.052 139.086 203.968 138.962 203.915C138.839 203.861 138.704 203.84 138.57 203.852C138.137 203.901 137.724 204.057 137.367 204.306C137.009 204.555 136.72 204.888 136.523 205.277V209.493L135.332 209.474Z" fill="#3B3B3C"/>
<path d="M143.699 205.514H146.574C146.574 204.301 146.119 203.697 145.218 203.697C144.317 203.697 143.806 204.301 143.699 205.514ZM147.73 209.263C147.068 209.479 146.379 209.6 145.684 209.622C145.248 209.638 144.813 209.561 144.409 209.396C144.005 209.231 143.64 208.982 143.34 208.665C143.033 208.332 142.794 207.941 142.638 207.515C142.481 207.089 142.411 206.637 142.429 206.183C142.39 205.304 142.676 204.441 143.233 203.759C143.479 203.455 143.791 203.212 144.146 203.048C144.501 202.884 144.888 202.803 145.279 202.812C145.629 202.793 145.978 202.86 146.297 203.006C146.615 203.152 146.893 203.374 147.106 203.651C147.578 204.353 147.805 205.191 147.751 206.035V206.404H143.658C143.828 207.949 144.585 208.722 145.929 208.721C146.551 208.693 147.163 208.56 147.74 208.327L147.73 209.263Z" fill="#3B3B3C"/>
<path d="M43.3862 0H147.142V104.01H138.661C127.244 104.134 115.825 104.272 104.403 104.426L86.0984 104.474H43.2656V61.6443L61.6408 61.6081V85.6228H128.859V18.7369H61.5575V42.7637L43.339 42.7276C43.3551 28.4913 43.3708 14.2487 43.3862 0Z" fill="#1679D3"/>
<path fill-rule="evenodd" clip-rule="evenodd" d="M104.409 104.426V146.773H0.744141V42.7209H43.35L61.5674 42.7571H104.397V85.6524H86.1795V61.6026H61.6222L43.2481 61.6388H19.0579V128.344H86.1017V104.474L104.409 104.426Z" fill="#FFD500"/>
</svg>
