<svg width="222" height="52" viewBox="0 0 222 52" fill="none" xmlns="http://www.w3.org/2000/svg">
<path d="M69.081 15.0256H69.8607C70.5418 15.0283 71.222 14.9739 71.8941 14.8631C72.5036 14.787 73.0953 14.6059 73.643 14.3279C74.182 14.0692 74.6342 13.6594 74.9445 13.1483C75.3035 12.5628 75.476 11.882 75.4391 11.1962C75.4708 10.485 75.2992 9.77943 74.9445 9.16216C74.6364 8.65933 74.1824 8.26228 73.643 8.0239C72.8058 7.58856 71.878 7.35616 70.9345 7.34546H69.0836L69.081 15.0256ZM86.3122 31.9376H76.5742L69.2055 20.1359H69.0836V31.9376H61.1699V1.26917H72.9375C76.024 1.26917 78.5411 2.01704 80.4887 3.51279C82.4364 5.00854 83.4308 7.40587 83.4721 10.7048C83.512 12.7034 82.9343 14.6656 81.8179 16.3238C80.6604 17.9232 78.9281 19.0117 76.9849 19.3607L86.3122 31.9376Z" fill="#434345"/>
<path d="M104.054 10.3054H103.979L100.794 20.1002H107.206L104.054 10.3054ZM98.6364 26.1803L96.6024 31.5015H88.4121L99.8269 0.835571H108.238L119.423 31.5015H111.194L109.255 26.1803H98.6364Z" fill="#434345"/>
<path d="M146.711 24.7358V31.5137H121.285L135.343 7.59937H123.264V0.821411H148.223L134.239 24.7358H146.711Z" fill="#434345"/>
<path d="M166.508 7.70755C165.412 7.69619 164.324 7.90245 163.308 8.31436C162.293 8.72628 161.369 9.33568 160.59 10.1072C159.81 10.8042 159.186 11.6574 158.757 12.6115C158.329 13.5656 158.106 14.5991 158.103 15.645C158.068 16.8289 158.27 18.0078 158.697 19.1125C159.124 20.2172 159.768 21.2254 160.59 22.078C161.346 22.8902 162.262 23.5367 163.281 23.9766C164.299 24.4166 165.398 24.6403 166.508 24.6337C167.624 24.6504 168.731 24.4313 169.756 23.9909C170.782 23.5505 171.703 22.8987 172.459 22.078C173.27 21.2196 173.905 20.2095 174.325 19.1057C174.746 18.0018 174.944 16.8258 174.91 15.645C174.907 14.6022 174.688 13.5713 174.265 12.6179C173.843 11.6645 173.227 10.8095 172.456 10.1072C171.677 9.32804 170.749 8.71391 169.728 8.30159C168.706 7.88927 167.612 7.68722 166.511 7.70755H166.508ZM166.508 0.000928939C170.724 -0.0272056 174.798 1.52256 177.93 4.34566C181.183 7.18797 182.851 10.9387 182.932 15.598C182.878 20.5689 181.346 24.5817 178.336 27.6364C175.326 30.6911 171.384 32.2569 166.508 32.3339C161.649 32.2797 157.727 30.7139 154.74 27.6364C151.753 24.5589 150.201 20.5461 150.084 15.598C150.165 10.934 151.846 7.18324 155.126 4.34566C158.244 1.52606 162.304 -0.0235001 166.508 0.000928939Z" fill="#434345"/>
<path d="M189.83 0.835571H197.428L203.461 17.2194L209.833 0.835571H217.519L222 31.5015H214.293L212.117 13.8433H212.042L204.905 31.5015H201.848L195.022 13.8433H194.947L192.466 31.5015H184.793L189.83 0.835571Z" fill="#434345"/>
<path d="M64.5898 49.0389V40.414H61.1699V39.4021H69.3776V40.4256H65.9577V49.0499L64.5898 49.0389Z" fill="#3B3B3C"/>
<path d="M73.5417 48.2328C74.896 48.2328 75.5821 47.3209 75.5821 45.4855C75.5821 43.6501 74.9095 42.7666 73.5694 42.7666C72.2293 42.7666 71.5625 43.6784 71.5625 45.4971C71.5625 47.3157 72.2519 48.2328 73.5617 48.2328H73.5417ZM73.5417 49.2001C73.0887 49.2186 72.6372 49.138 72.2185 48.9642C71.7999 48.7903 71.4241 48.5273 71.1175 48.1934C70.5257 47.4179 70.2051 46.4694 70.2051 45.4939C70.2051 44.5183 70.5257 43.5698 71.1175 42.7943C71.7817 42.1597 72.665 41.8057 73.5836 41.8057C74.5022 41.8057 75.3855 42.1597 76.0497 42.7943C76.6459 43.5714 76.969 44.5234 76.969 45.5029C76.969 46.4823 76.6459 47.4344 76.0497 48.2115C75.7269 48.5464 75.3359 48.8081 74.9032 48.9788C74.4705 49.1496 74.0062 49.2255 73.5417 49.2014V49.2001Z" fill="#3B3B3C"/>
<path d="M83.5113 46.5874V43.646C83.2823 43.3798 83.0004 43.1641 82.6835 43.0128C82.3666 42.8615 82.0217 42.7777 81.6707 42.7669C81.3978 42.7578 81.1271 42.8181 80.8839 42.9422C80.6407 43.0662 80.433 43.25 80.2803 43.4763C79.9172 44.0582 79.7424 44.7379 79.7798 45.4227C79.7798 46.9756 80.3248 47.7523 81.4147 47.7527C81.8292 47.7269 82.2326 47.6085 82.5954 47.4064C82.9582 47.2043 83.2711 46.9236 83.5113 46.5848V46.5874ZM78.9969 51.3919L79.1472 50.2794C79.831 50.6168 80.5814 50.7972 81.3437 50.8076C82.7896 50.8076 83.5126 50.0404 83.5126 48.506V47.3935C83.3233 47.8499 82.9982 48.2371 82.5813 48.5024C82.1645 48.7678 81.6761 48.8985 81.1825 48.8768C80.7963 48.8925 80.4119 48.8171 80.0603 48.6568C79.7086 48.4965 79.3996 48.2557 79.1582 47.9539C78.6305 47.232 78.3675 46.3505 78.4133 45.4575C78.3706 44.5068 78.6727 43.5726 79.2639 42.8269C79.5328 42.4992 79.8729 42.2372 80.2584 42.0608C80.6438 41.8844 81.0644 41.7984 81.4882 41.8093C81.8783 41.8091 82.2637 41.8953 82.6166 42.0617C82.9695 42.228 83.2812 42.4704 83.5293 42.7715V41.9595H84.8191V47.1091C84.8422 47.932 84.7845 48.7552 84.6469 49.5668C84.5577 50.0539 84.3343 50.5063 84.002 50.8734C83.6519 51.195 83.2389 51.4405 82.7892 51.5946C82.3394 51.7486 81.8626 51.8079 81.3889 51.7685C80.576 51.7737 79.7677 51.6465 78.9956 51.3919H78.9969Z" fill="#3B3B3C"/>
<path d="M88.0994 44.734H91.2246C91.2246 43.4165 90.7293 42.76 89.7509 42.76C88.7726 42.76 88.2161 43.4165 88.0994 44.734ZM92.4808 48.8098C91.7615 49.0436 91.0126 49.1739 90.2565 49.1968C89.7816 49.2151 89.3083 49.1318 88.8682 48.9524C88.4281 48.773 88.0314 48.5017 87.7047 48.1566C87.3693 47.7959 87.1085 47.3726 86.9373 46.9109C86.7661 46.4491 86.6878 45.9581 86.707 45.466C86.6643 44.51 86.9752 43.5717 87.5802 42.8303C87.8475 42.4999 88.187 42.235 88.5726 42.0562C88.9581 41.8773 89.3795 41.7891 89.8045 41.7984C90.1846 41.778 90.5639 41.8503 90.9098 42.0093C91.2556 42.1683 91.5576 42.4091 91.7895 42.711C92.3028 43.4736 92.5493 44.3848 92.4905 45.3022V45.702H88.0407C88.2217 47.3814 89.0446 48.2211 90.5094 48.2211C91.185 48.191 91.8506 48.0462 92.4776 47.7928L92.4808 48.8098Z" fill="#3B3B3C"/>
<path d="M96.852 49.1989C96.5736 49.2153 96.2948 49.1745 96.0328 49.0789C95.7707 48.9832 95.5311 48.8349 95.3287 48.643C95.1362 48.4341 94.9878 48.1887 94.8923 47.9212C94.7968 47.6537 94.7561 47.3697 94.7728 47.0862V42.9265H93.8887V41.9592H94.7728V40.6745L96.0568 40.552V41.9592H97.909V42.9207H96.0581V46.8469C96.0581 47.77 96.4586 48.2315 97.2596 48.2315C97.4678 48.2265 97.6748 48.1984 97.8768 48.1477V49.0377C97.5434 49.1346 97.1991 49.1887 96.852 49.1989Z" fill="#3B3B3C"/>
<path d="M99.7207 49.0398V38.7471H101.005V43.2956C101.257 42.8558 101.618 42.4883 102.053 42.2286C102.489 41.9688 102.983 41.8254 103.49 41.8123C103.762 41.8001 104.034 41.8458 104.287 41.9464C104.54 42.047 104.769 42.2002 104.959 42.3959C105.342 42.8236 105.542 43.3849 105.515 43.9585V49.0462H104.236V44.3758C104.264 43.9904 104.183 43.6049 104.002 43.2633C103.912 43.1481 103.795 43.0571 103.661 42.9989C103.527 42.9406 103.38 42.9169 103.235 42.9299C102.452 42.9299 101.711 43.4459 101.011 44.4777V49.0565L99.7207 49.0398Z" fill="#3B3B3C"/>
<path d="M108.815 44.7344H111.934C111.934 43.4183 111.443 42.7603 110.461 42.7603C109.478 42.7603 108.93 43.4183 108.815 44.7344ZM113.191 48.8102C112.472 49.044 111.723 49.1742 110.967 49.1971C110.492 49.2154 110.019 49.132 109.578 48.9526C109.138 48.7732 108.741 48.5019 108.414 48.1569C107.741 47.4243 107.385 46.4548 107.425 45.4605C107.386 44.5052 107.697 43.5683 108.298 42.8248C108.565 42.4945 108.905 42.2298 109.29 42.051C109.676 41.8721 110.097 41.7838 110.522 41.7929C110.902 41.7725 111.281 41.8448 111.627 42.0038C111.973 42.1628 112.275 42.4037 112.507 42.7055C113.02 43.4681 113.267 44.3793 113.208 45.2967V45.6966H108.758C108.947 47.3759 109.77 48.2156 111.227 48.2156C111.903 48.1854 112.568 48.0406 113.196 47.7873L113.191 48.8102Z" fill="#3B3B3C"/>
<path d="M115.436 49.0376V41.9592H116.737V43.2935C116.919 42.8538 117.228 42.4781 117.624 42.214C118.02 41.95 118.485 41.8094 118.961 41.8102C119.097 41.8107 119.233 41.8219 119.367 41.8437V43.0387C119.18 42.9719 118.985 42.9345 118.787 42.9278C117.974 42.9278 117.294 43.4098 116.746 44.3737V49.0447L115.436 49.0376Z" fill="#3B3B3C"/>
<path d="M126.333 49.0389L123.848 39.4021H125.165L127.139 47.0204L128.969 39.4021H130.286L132.005 46.9146L134.118 39.4021H135.23L132.527 49.0499H131.193L129.463 41.6264L127.684 49.0666L126.333 49.0389Z" fill="#3B3B3C"/>
<path d="M137.346 44.7344H140.465C140.465 43.4183 139.976 42.7603 138.997 42.7603C138.018 42.7603 137.467 43.4183 137.346 44.7344ZM141.727 48.8102C141.008 49.0437 140.259 49.174 139.503 49.1971C139.029 49.2149 138.556 49.1313 138.117 48.9519C137.678 48.7725 137.282 48.5015 136.956 48.1569C136.622 47.7948 136.362 47.3702 136.192 46.9075C136.022 46.4448 135.946 45.953 135.966 45.4605C135.927 44.5059 136.235 43.5693 136.834 42.8248C137.101 42.4945 137.441 42.2298 137.826 42.051C138.212 41.8721 138.633 41.7838 139.058 41.7929C139.438 41.7725 139.817 41.8448 140.163 42.0038C140.509 42.1628 140.811 42.4037 141.043 42.7055C141.556 43.4681 141.803 44.3793 141.744 45.2967V45.6966H137.294C137.479 47.3759 138.302 48.2156 139.763 48.2156C140.439 48.1854 141.104 48.0406 141.732 47.7873L141.727 48.8102Z" fill="#3B3B3C"/>
<path d="M153.044 45.3462L151.375 41.193L149.707 45.3462H153.044ZM154.489 49.0389L153.438 46.3639H149.351L148.289 49.0389H147.016L150.847 39.4021H152.201L155.966 49.0499L154.489 49.0389Z" fill="#3B3B3C"/>
<path d="M157.402 49.0377V41.9592H158.687V43.2935C158.868 42.8529 159.176 42.4764 159.573 42.2122C159.969 41.9479 160.435 41.808 160.911 41.8102C161.049 41.8104 161.187 41.8216 161.323 41.8437V43.0394C161.135 42.9725 160.938 42.9349 160.739 42.9278C159.927 42.9278 159.243 43.4115 158.698 44.3737V49.0448L157.402 49.0377Z" fill="#3B3B3C"/>
<path d="M163.675 44.7343H166.783C166.783 43.4183 166.292 42.7603 165.31 42.7603C164.327 42.7603 163.782 43.4183 163.675 44.7343ZM168.051 48.8101C167.332 49.0438 166.583 49.1741 165.827 49.1971C165.352 49.2155 164.878 49.1322 164.438 48.9528C163.998 48.7734 163.601 48.502 163.274 48.1568C162.601 47.4242 162.245 46.4548 162.284 45.4605C162.246 44.5051 162.557 43.5684 163.158 42.8247C163.425 42.4943 163.764 42.2295 164.15 42.0506C164.536 41.8718 164.957 41.7836 165.382 41.7929C165.762 41.7726 166.141 41.845 166.487 42.004C166.833 42.163 167.135 42.4037 167.367 42.7054C167.88 43.468 168.127 44.3793 168.067 45.2967V45.6965H163.617C163.806 47.3758 164.629 48.2155 166.086 48.2155C166.762 48.1854 167.427 48.0406 168.054 47.7873L168.051 48.8101Z" fill="#3B3B3C"/>
<path d="M174.408 39.4039H175.776V45.4931C175.719 46.2398 175.915 46.9841 176.332 47.6058C176.548 47.8394 176.815 48.0205 177.112 48.1352C177.408 48.2499 177.727 48.2951 178.044 48.2675C178.345 48.299 178.649 48.259 178.931 48.1509C179.213 48.0427 179.466 47.8695 179.668 47.6452C180.043 47.0037 180.205 46.26 180.13 45.5209V39.4039H181.326V45.5209C181.414 46.5461 181.126 47.5684 180.514 48.3958C180.173 48.7211 179.766 48.9699 179.321 49.1256C178.876 49.2813 178.404 49.3403 177.934 49.2987C177.449 49.3397 176.96 49.2778 176.5 49.1168C176.04 48.9559 175.619 48.6997 175.265 48.3649C174.628 47.5463 174.322 46.5178 174.409 45.4841L174.408 39.4039Z" fill="#3B3B3C"/>
<path d="M183.773 49.0398V38.7471H185.052V45.3922L188.055 41.9613H189.434L186.57 45.2638L190.029 49.0398H188.361L185.025 45.4083V49.0398H183.773Z" fill="#3B3B3C"/>
<path d="M191.568 49.0376V41.9592H192.852V43.2935C193.035 42.8538 193.343 42.4781 193.739 42.214C194.135 41.95 194.601 41.8094 195.077 41.8102C195.213 41.8107 195.349 41.8219 195.483 41.8437V43.0387C195.295 42.9717 195.098 42.9342 194.899 42.9278C194.087 42.9278 193.407 43.4098 192.858 44.3737V49.0447L191.568 49.0376Z" fill="#3B3B3C"/>
<path d="M200.514 47.4387V45.6091H200.08C199.485 45.5828 198.894 45.7214 198.373 46.0096C198.179 46.1092 198.017 46.2596 197.902 46.4447C197.788 46.6298 197.726 46.8425 197.723 47.0601C197.72 47.2064 197.748 47.3515 197.805 47.4864C197.861 47.6213 197.945 47.7432 198.051 47.8443C198.156 47.9469 198.28 48.0277 198.416 48.0822C198.553 48.1366 198.699 48.1636 198.846 48.1616C199.462 48.1196 200.044 47.8639 200.491 47.4387H200.514ZM200.703 48.139C200.121 48.7596 199.327 49.1387 198.479 49.2012C197.937 49.216 197.412 49.0162 197.017 48.6453C196.832 48.465 196.688 48.2482 196.592 48.0088C196.496 47.7694 196.451 47.5126 196.46 47.2549C196.449 46.8976 196.533 46.5438 196.704 46.23C196.875 45.9161 197.127 45.6537 197.433 45.4698C198.285 45.01 199.247 44.7946 200.214 44.8474H200.52V43.9968C200.54 43.8268 200.522 43.6543 200.465 43.4928C200.408 43.3313 200.314 43.1851 200.191 43.0656C200.069 42.9461 199.92 42.8565 199.757 42.8038C199.594 42.7511 199.421 42.7368 199.252 42.7618C198.479 42.7893 197.725 43.0052 197.055 43.3906V42.3284C197.823 41.9957 198.649 41.8163 199.485 41.8003C200.119 41.7526 200.747 41.9518 201.237 42.3562C201.44 42.5805 201.595 42.8447 201.69 43.1319C201.786 43.4191 201.821 43.7231 201.793 44.0245V47.1884C201.793 47.9223 202.021 48.3003 202.471 48.3003C202.555 48.3067 202.638 48.3067 202.722 48.3003L202.811 49.0064C202.51 49.1483 202.181 49.2206 201.848 49.218C201.555 49.2207 201.272 49.1099 201.059 48.9088C200.845 48.7077 200.718 48.4319 200.703 48.139Z" fill="#3B3B3C"/>
<path d="M204.402 49.0169V41.961H205.709V49.0395L204.402 49.0169ZM204.402 40.6763V39.4039H205.709V40.6886L204.402 40.6763Z" fill="#3B3B3C"/>
<path d="M208.254 49.0396V41.9611H209.538V43.2954C209.792 42.8557 210.154 42.4884 210.59 42.2287C211.026 41.969 211.522 41.8255 212.029 41.8121C212.301 41.7999 212.573 41.8457 212.826 41.9463C213.079 42.0469 213.308 42.2001 213.497 42.3957C213.877 42.8255 214.076 43.3853 214.054 43.9584V49.0467H212.769V44.3756C212.796 43.9909 212.717 43.606 212.541 43.2631C212.451 43.1479 212.333 43.0569 212.199 42.9987C212.065 42.9404 211.919 42.9167 211.773 42.9297C210.99 42.9297 210.244 43.4457 209.549 44.4775V49.0595L208.254 49.0396Z" fill="#3B3B3C"/>
<path d="M217.346 44.7343H220.471C220.471 43.4168 219.976 42.7603 218.997 42.7603C218.019 42.7603 217.462 43.4168 217.346 44.7343ZM221.727 48.8101C221.008 49.0437 220.259 49.1739 219.503 49.1971C219.029 49.2149 218.556 49.1313 218.117 48.9519C217.678 48.7725 217.282 48.5014 216.956 48.1569C216.622 47.7948 216.362 47.3701 216.192 46.9074C216.023 46.4447 215.946 45.953 215.967 45.4605C215.924 44.5045 216.234 43.5661 216.839 42.8248C217.107 42.4945 217.446 42.2298 217.832 42.0509C218.217 41.8721 218.639 41.7838 219.064 41.7929C219.444 41.7725 219.823 41.8449 220.169 42.0039C220.515 42.1629 220.817 42.4037 221.049 42.7055C221.562 43.4683 221.808 44.3793 221.75 45.2967V45.6965H217.3C217.485 47.3759 218.308 48.2155 219.769 48.2155C220.444 48.1854 221.11 48.0406 221.737 47.7873L221.727 48.8101Z" fill="#3B3B3C"/>
<path d="M13.9046 1.26917H47.7318V35.1789H44.9664C41.244 35.2193 37.5212 35.2645 33.798 35.3144L27.8287 35.3305H13.8652V21.367L19.8558 21.3547V29.1845H41.7703V7.37771H19.8319V15.2114L13.8923 15.1991C13.8966 10.5575 13.9007 5.9142 13.9046 1.26917Z" fill="#1679D3"/>
<path fill-rule="evenodd" clip-rule="evenodd" d="M33.7976 35.3153V49.1214H0V15.1981H13.8906L19.8302 15.2104H33.7937V29.1951H27.8541V21.3544H19.8476L13.8571 21.366H5.9712V43.1135H27.8283V35.3314L33.7976 35.3153Z" fill="#FFD500"/>
</svg>
