<svg xmlns="http://www.w3.org/2000/svg" aria-hidden="true">
  <defs>
    <symbol id="ico-facebook" viewBox="0 0 32 32">
      <path d="M13.741 24.704h3.597v-8.705h2.399L20.055 13h-2.717l.004-1.502c0-.782.075-1.202 1.197-1.202h1.5v-3h-2.4c-2.883 0-3.897 1.455-3.897 3.902v1.801h-1.797v3h1.797v8.705zM16 32C7.164 32 0 24.836 0 16S7.164 0 16 0s16 7.163 16 16c0 8.836-7.164 16-16 16z"/>
    </symbol>
    <symbol id="ico-telegram" viewBox="0 0 32 32">
      <path d="M16 0C7.163 0 0 7.163 0 16s7.163 16 16 16 16-7.163 16-16S24.837 0 16 0zm8.316 10.121-2.842 13.567a.99.99 0 0 1-.623.729.995.995 0 0 1-.951-.13l-4.133-3.054-2.504 2.363a.337.337 0 0 1-.376.061.339.339 0 0 1-.108-.079l-.054-.059.435-4.211 7.843-7.166a.21.21 0 0 0-.104-.361.21.21 0 0 0-.149.029l-10.03 6.348-4.32-1.451a.58.58 0 0 1-.4-.545.587.587 0 0 1 .38-.56l16.901-6.367a.78.78 0 0 1 1.01.477.782.782 0 0 1 .025.41z"/>
    </symbol>
    <symbol id="ico-youtube" viewBox="0 0 32 32">
      <path d="M16 0c8.831 0 16 7.169 16 16s-7.169 16-16 16S0 24.831 0 16 7.169 0 16 0zm9.582 11.186a2.504 2.504 0 0 0-1.768-1.768C22.254 9 16 9 16 9s-6.254 0-7.814.418c-.86.23-1.538.908-1.768 1.768C6 12.746 6 16 6 16s0 3.254.418 4.814c.23.861.908 1.538 1.768 1.768C9.746 23 16 23 16 23s6.254 0 7.814-.418a2.504 2.504 0 0 0 1.768-1.768C26 19.254 26 16 26 16s0-3.254-.418-4.814zM14 19v-6l5.196 3L14 19z"/>
    </symbol>
  </defs>
</svg>