<svg width="119" height="113" viewBox="0 0 119 113" fill="none" xmlns="http://www.w3.org/2000/svg">
<g clip-path="url(#clip0_501_93)">
<path d="M116.202 107.766C114.739 107.734 113.274 107.757 111.812 107.756C109.844 107.756 107.876 107.756 105.856 107.756V46.9856C106.407 46.9856 106.873 46.9856 107.339 46.9856C110.309 46.9856 113.281 47.0093 116.252 46.9717C118.189 46.9472 119.399 45.341 118.881 43.5776C118.537 42.4048 117.529 41.7486 115.958 41.7471C105.882 41.7393 95.8064 41.7393 85.731 41.7471C85.3988 41.7471 85.0669 41.8033 84.5543 41.8502V107.687H79.3433V73.5206H62.0934V107.678H56.8342V73.5317H39.5876V107.672H34.364V41.8505C33.9467 41.8056 33.6569 41.7473 33.3668 41.7473C23.2051 41.743 13.0434 41.7443 2.88165 41.7512C1.09439 41.7535 0.00498561 42.7804 7.83944e-05 44.3484C-0.00457055 45.9242 1.09361 46.9645 2.85814 46.9781C5.8283 47.0006 8.80001 46.9846 11.7709 46.9848H13.1328V107.756H11.6772C8.79226 107.756 5.90733 107.744 3.02267 107.761C1.12047 107.772 0.0109259 108.742 7.83944e-05 110.35C-0.0107691 111.974 1.10472 112.966 2.9754 112.996C3.27681 113.001 3.57821 112.998 3.87936 112.998H93.139C100.804 112.998 108.468 112.995 116.132 112.989C117.883 112.986 118.988 111.917 118.973 110.343C118.96 108.823 117.889 107.803 116.202 107.766Z" fill="white"/>
<path d="M79.3491 20.538C79.3491 18.6255 79.4113 16.786 79.3103 14.9555C79.2419 14.3593 78.9448 13.8128 78.4813 13.4306C76.5628 11.9773 74.5674 10.625 72.5991 9.23749C68.2459 6.1695 63.8921 3.10151 59.4937 0C52.9821 4.59219 46.5065 9.16504 40.0668 13.7186C39.9522 13.8041 39.8561 13.9119 39.7843 14.0355C39.7125 14.159 39.6664 14.2958 39.6489 14.4376C39.6156 16.4449 39.6301 18.4533 39.6301 20.538H79.3491Z" fill="white"/>
<path d="M79.299 25.9258H39.7197V36.3301H79.299V25.9258Z" fill="white"/>
<path d="M79.2807 57.6158H39.7148V68.0287H79.2807V57.6158Z" fill="white"/>
<path d="M79.2789 41.8175H39.6973V52.2123H79.2789V41.8175Z" fill="white"/>
</g>
<defs>
<clipPath id="clip0_501_93">
<rect width="119" height="113" fill="white"/>
</clipPath>
</defs>
</svg>
