<svg width="118" height="113" viewBox="0 0 118 113" fill="none" xmlns="http://www.w3.org/2000/svg">
<path d="M69.6692 0H0V113H69.6692V0ZM31.4361 91.547H24.2143V78.3778H31.4361V91.547ZM31.4361 64.9962H24.2143V51.8271H31.4361V64.9962ZM31.4361 38.6579H24.2143V25.4887H31.4361V38.6579ZM53.3139 91.547H46.0921V78.3778H53.3139V91.547ZM53.3139 64.9962H46.0921V51.8271H53.3139V64.9962ZM53.3139 38.6579H46.0921V25.4887H53.3139V38.6579Z" fill="white"/>
<path d="M117.46 98.7688V46.3045H75.6162V113H103.229C111.088 113 117.46 106.628 117.46 98.7688ZM101.317 91.7594H87.2985V84.75H101.317V91.7594ZM101.317 74.1297H87.2985V66.9079H101.317V74.1297Z" fill="white"/>
</svg>
