<svg width="89" height="113" viewBox="0 0 89 113" fill="none" xmlns="http://www.w3.org/2000/svg">
<g clip-path="url(#clip0_501_99)">
<path d="M56.5753 76.4927C56.3421 80.0061 56.1109 83.3978 55.8929 86.7909C55.4069 94.3516 54.9229 101.913 54.4408 109.474C54.3113 111.451 52.9782 112.89 50.9553 112.93C46.3861 113.022 41.8156 113.024 37.2438 112.939C35.156 112.9 33.8428 111.492 33.7063 109.41C33.1387 100.81 32.5844 92.2088 32.0435 83.6071C31.894 81.2885 31.7335 78.9709 31.5675 76.4927C30.8905 76.4927 30.2629 76.4978 29.6356 76.4927C27.0859 76.4686 25.5843 75.121 25.3627 72.5882C25.1634 70.3122 25.0258 68.0311 24.8595 65.7522C24.3108 58.2366 23.8228 50.7158 23.1779 43.2084C22.9594 40.6633 23.9633 38.9602 26.0016 37.6976C28.7084 36.0203 31.7304 35.2317 34.8297 34.7482C42.2723 33.5876 49.6986 33.6037 57.0082 35.5864C58.9474 36.1124 60.8254 37.0303 62.5775 38.0357C64.4644 39.1186 65.1466 40.89 64.9599 43.1496C64.2748 51.4182 63.7114 59.6969 63.1055 67.9722C62.9972 69.4512 62.9209 70.9321 62.7986 72.4109C62.5696 75.1764 61.1281 76.4836 58.3328 76.4937C57.7785 76.4944 57.227 76.4927 56.5753 76.4927Z" fill="white"/>
<path d="M18.324 39.4802C18.5995 43.8287 18.824 47.8212 19.1114 51.8092C19.6242 58.9256 20.187 66.0383 20.7037 73.1544C20.8852 75.6571 21.9204 77.7067 23.8583 79.2637C24.1154 79.4408 24.3179 79.6862 24.4431 79.9721C24.5683 80.258 24.6113 80.5732 24.5673 80.8823C24.2219 85.9214 23.9216 90.9636 23.5912 96.0037C23.4601 98.0068 22.4498 98.9913 20.4318 99.0118C17.3047 99.0453 14.1771 99.0453 11.049 99.0118C9.04758 98.992 8.05877 98.1033 7.92377 96.1332C7.44248 89.0943 7.00306 82.0525 6.54487 75.0122C6.47268 73.9009 6.38532 72.7908 6.29629 71.5606C5.6889 71.5606 5.17632 71.5876 4.66736 71.5556C2.88779 71.4461 1.83232 70.471 1.69684 68.7121C1.21073 62.3976 0.754709 56.0809 0.289061 49.7647C0.200503 48.5653 0.160316 47.3611 0.0272388 46.167C-0.15517 44.5275 0.591552 43.391 1.87756 42.5258C4.27318 40.9135 7.01991 40.2796 9.80898 39.975C12.7015 39.66 15.6244 39.6261 18.324 39.4802Z" fill="white"/>
<path d="M81.8464 71.6254C81.6077 75.3181 81.3769 78.9128 81.143 82.5074C80.8463 87.0681 80.5655 91.6297 80.2399 96.1885C80.1083 98.0304 79.1401 98.9771 77.304 99.0041C74.0566 99.0538 70.8084 99.0538 67.5596 99.0041C65.7444 98.9764 64.7168 97.9934 64.5929 96.1885C64.2358 90.989 63.9138 85.7871 63.627 80.5829C63.6346 80.3597 63.6874 80.1403 63.7822 79.938C63.8771 79.7357 64.012 79.5548 64.1788 79.4062C66.1739 77.7602 67.2973 75.6925 67.4852 73.1061C68.1042 64.5899 68.7438 56.0751 69.3529 47.5585C69.5379 44.9696 69.6505 42.3757 69.8043 39.6412C74.7941 39.4593 79.9836 39.5512 84.8812 41.717C87.6607 42.9463 88.2967 44.097 88.0852 47.0565C87.5851 54.054 87.0798 61.0514 86.5299 68.0451C86.3157 70.7718 85.4441 71.5193 82.7253 71.572C82.488 71.5765 82.2505 71.6004 81.8464 71.6254Z" fill="white"/>
<path d="M43.9821 28.342C40.2322 28.3102 36.6472 26.7962 34.0096 24.1305C31.3721 21.4648 29.8963 17.8638 29.9043 14.1138C29.938 6.35664 36.3654 -0.0223823 44.126 -2.3261e-06C51.9397 0.0226183 58.3154 6.48033 58.2617 14.3184C58.2085 22.0931 51.8119 28.3754 43.9821 28.342Z" fill="white"/>
<path d="M5.08594 24.61C5.09136 22.4966 5.72422 20.4324 6.90428 18.6791C8.08433 16.9258 9.75844 15.5624 11.7143 14.7617C13.6702 13.961 15.8199 13.7592 17.8906 14.1817C19.9614 14.6043 21.86 15.6322 23.3459 17.1352C24.8317 18.6381 25.8378 20.5485 26.2366 22.6239C26.6353 24.6994 26.4088 26.8466 25.5858 28.7932C24.7627 30.7397 23.3802 32.3981 21.6135 33.558C19.8468 34.7178 17.7754 35.327 15.6621 35.3082C12.8465 35.2742 10.1577 34.1323 8.17817 32.1299C6.1986 30.1275 5.08763 27.4258 5.08594 24.61Z" fill="white"/>
<path d="M83.0819 24.7039C83.0753 26.11 82.7904 27.5008 82.2438 28.7963C81.6971 30.0918 80.8995 31.2663 79.8969 32.2521C78.8943 33.2379 77.7065 34.0156 76.4019 34.5403C75.0974 35.0649 73.7019 35.3263 72.296 35.3092C66.4875 35.2593 61.6799 30.3639 61.7398 24.5593C61.7427 23.1537 62.0233 21.7625 62.5655 20.4657C63.1076 19.1689 63.9006 17.9919 64.8988 17.0024C65.8971 16.0129 67.0811 15.2304 68.3827 14.6998C69.6842 14.1692 71.0778 13.9009 72.4834 13.9104C73.8889 13.9199 75.2788 14.207 76.5731 14.7552C77.8674 15.3034 79.0406 16.1018 80.0254 17.1047C81.0102 18.1077 81.7872 19.2952 82.3117 20.5993C82.8363 21.9034 83.098 23.2982 83.0819 24.7037V24.7039Z" fill="white"/>
</g>
<defs>
<clipPath id="clip0_501_99">
<rect width="88.1231" height="113" fill="white"/>
</clipPath>
</defs>
</svg>
