<svg width="64" height="63" viewBox="0 0 64 63" fill="none" xmlns="http://www.w3.org/2000/svg">
<path d="M22.0823 51.1877C17.2833 51.1877 13.1936 49.5395 9.81303 46.2429C6.43247 42.9468 4.74219 38.9076 4.74219 34.1252C4.74219 29.5617 6.35591 25.6797 9.58334 22.4794C12.8108 19.2791 16.7347 17.4921 21.3552 17.1185L16.5901 12.2321L19.3562 9.46533L28.9224 19.0315L19.3562 28.5976L16.5901 25.7909L21.2443 21.1367C17.7508 21.5471 14.7832 22.9596 12.3416 25.3741C9.90031 27.7891 8.67969 30.7062 8.67969 34.1252C8.67969 37.7902 9.99284 40.8938 12.6192 43.4361C15.2459 45.9789 18.4086 47.2502 22.1072 47.2502H28.7203V51.1877H22.0823ZM35.2828 28.6226V11.8127H56.939V28.6226H35.2828ZM35.2828 51.1877V34.3779H56.939V51.1877H35.2828ZM39.2203 47.2502H53.0015V38.3147H39.2203V47.2502Z" fill="#4C519E"/>
</svg>
