<svg width="64" height="63" viewBox="0 0 64 63" fill="none" xmlns="http://www.w3.org/2000/svg">
<path d="M32 58.7593L14.2104 45.4178C13.6215 44.9868 13.158 44.4332 12.8198 43.7568C12.4816 43.0804 12.3125 42.3686 12.3125 41.6213V11.3078C12.3125 9.98178 12.7719 8.85938 13.6906 7.94063C14.6094 7.02188 15.7318 6.5625 17.0578 6.5625H46.9422C48.2682 6.5625 49.3906 7.02188 50.3094 7.94063C51.2281 8.85938 51.6875 9.98178 51.6875 11.3078V41.6213C51.6875 42.3686 51.5184 43.0804 51.1802 43.7568C50.842 44.4332 50.3785 44.9868 49.7896 45.4178L32 58.7593ZM32 53.8125L47.4219 42.2527C47.5229 42.1682 47.6028 42.0713 47.6614 41.9619C47.7205 41.8526 47.75 41.7307 47.75 41.5964V11.3078C47.75 11.1057 47.6658 10.9207 47.4973 10.7527C47.3293 10.5842 47.1443 10.5 46.9422 10.5H17.0578C16.8557 10.5 16.6707 10.5842 16.5027 10.7527C16.3342 10.9207 16.25 11.1057 16.25 11.3078V41.5964C16.25 41.7307 16.2795 41.8526 16.3386 41.9619C16.3972 42.0713 16.4771 42.1682 16.5781 42.2527L32 53.8125ZM29.2437 38.4661L43.1661 24.5438L40.4 21.6969L29.2437 32.8532L23.6807 27.2902L20.8339 30.0563L29.2437 38.4661ZM32 10.5H16.25H47.75H32Z" fill="#4C519E"/>
</svg>
