<svg width="64" height="63" viewBox="0 0 64 63" fill="none" xmlns="http://www.w3.org/2000/svg">
<path d="M8.375 46.5937C7.09969 46.5937 6.01512 46.1471 5.12131 45.2537C4.22794 44.3599 3.78125 43.2753 3.78125 42C3.78125 40.7247 4.22794 39.6401 5.12131 38.7463C6.01512 37.8529 7.09969 37.4062 8.375 37.4062C8.67119 37.4062 8.93872 37.4189 9.17759 37.4443C9.41647 37.4692 9.65381 37.5508 9.88963 37.6891L22.4391 25.1396C22.3008 24.9038 22.2192 24.6665 22.1943 24.4276C22.1689 24.1887 22.1562 23.9212 22.1562 23.625C22.1562 22.3497 22.6029 21.2651 23.4963 20.3713C24.3901 19.4779 25.4747 19.0312 26.75 19.0312C28.0253 19.0312 29.1099 19.4779 30.0037 20.3713C30.8971 21.2651 31.3437 22.3497 31.3437 23.625C31.3437 23.7799 31.2663 24.2679 31.1114 25.0891L38.4109 32.3886C38.6467 32.284 38.8755 32.2192 39.0973 32.1943C39.3196 32.1689 39.5788 32.1562 39.875 32.1562C40.1712 32.1562 40.4346 32.1689 40.6651 32.1943C40.8957 32.2192 41.1203 32.3008 41.3391 32.4391L51.3141 22.4641C51.1758 22.2453 51.0942 22.0207 51.0693 21.7901C51.0439 21.5596 51.0312 21.2962 51.0312 21C51.0312 19.7247 51.4779 18.6401 52.3713 17.7463C53.2651 16.8529 54.3497 16.4062 55.625 16.4062C56.9003 16.4062 57.9849 16.8529 58.8787 17.7463C59.7721 18.6401 60.2187 19.7247 60.2187 21C60.2187 22.2753 59.7721 23.3599 58.8787 24.2537C57.9849 25.1471 56.9003 25.5938 55.625 25.5938C55.3288 25.5938 55.0654 25.5811 54.8349 25.5557C54.6043 25.5307 54.3797 25.4492 54.1609 25.3109L44.1859 35.2859C44.3242 35.5047 44.4057 35.7293 44.4307 35.9599C44.4561 36.1904 44.4688 36.4538 44.4688 36.75C44.4688 38.0253 44.0221 39.1099 43.1287 40.0037C42.2349 40.8971 41.1503 41.3437 39.875 41.3437C38.5997 41.3437 37.5151 40.8971 36.6213 40.0037C35.7279 39.1099 35.2812 38.0253 35.2812 36.75C35.2812 36.4538 35.2939 36.1863 35.3193 35.9474C35.3442 35.7085 35.4258 35.4712 35.5641 35.2354L28.2646 27.9359C28.0288 28.0742 27.7915 28.1557 27.5526 28.1807C27.3137 28.2061 27.0462 28.2187 26.75 28.2187C26.5951 28.2187 26.1071 28.1413 25.2859 27.9864L12.7364 40.5359C12.841 40.7717 12.9057 41.0005 12.9307 41.2223C12.9561 41.4446 12.9688 41.7038 12.9688 42C12.9688 43.2753 12.5221 44.3599 11.6287 45.2537C10.7349 46.1471 9.65031 46.5937 8.375 46.5937Z" fill="#4C519E"/>
</svg>
