<svg width="63" height="63" viewBox="0 0 63 63" fill="none" xmlns="http://www.w3.org/2000/svg">
<path d="M15.75 56.4375C13.916 56.4375 12.3637 55.8022 11.0932 54.5317C9.82275 53.2612 9.1875 51.7129 9.1875 49.8868V43.3125H17.0625V7.06714L20.6975 10.1975L24.3823 7.06714L28.0672 10.1975L31.7527 7.06714L35.4375 10.1975L39.1223 7.06714L42.8078 10.1975L46.4927 7.06714L50.1775 10.1975L53.8125 7.06714V49.875C53.8125 51.709 53.1772 53.2612 51.9067 54.5317C50.6362 55.8022 49.084 56.4375 47.25 56.4375H15.75ZM47.25 52.5C47.9937 52.5 48.6172 52.2484 49.1203 51.7453C49.6234 51.2422 49.875 50.6187 49.875 49.875V13.125H21V43.3125H44.625V49.875C44.625 50.6187 44.8766 51.2422 45.3797 51.7453C45.8828 52.2484 46.5062 52.5 47.25 52.5ZM24.1297 22.9687V19.0312H39.0213V22.9687H24.1297ZM24.1297 30.8437V26.9062H39.0213V30.8437H24.1297ZM44.4734 23.3218C43.8307 23.3218 43.283 23.0956 42.8302 22.6432C42.3778 22.1904 42.1516 21.6427 42.1516 21C42.1516 20.3573 42.3778 19.8095 42.8302 19.3567C43.283 18.9044 43.8307 18.6782 44.4734 18.6782C45.1161 18.6782 45.6638 18.9044 46.1167 19.3567C46.5695 19.8095 46.7959 20.3573 46.7959 21C46.7959 21.6427 46.5695 22.1904 46.1167 22.6432C45.6638 23.0956 45.1161 23.3218 44.4734 23.3218ZM44.4734 31.1968C43.8307 31.1968 43.283 30.9706 42.8302 30.5182C42.3778 30.0654 42.1516 29.5177 42.1516 28.875C42.1516 28.2323 42.3778 27.6845 42.8302 27.2317C43.283 26.7794 43.8307 26.5532 44.4734 26.5532C45.1161 26.5532 45.6638 26.7794 46.1167 27.2317C46.5695 27.6845 46.7959 28.2323 46.7959 28.875C46.7959 29.5177 46.5695 30.0654 46.1167 30.5182C45.6638 30.9706 45.1161 31.1968 44.4734 31.1968ZM15.75 52.5H40.6875V47.25H13.125V49.875C13.125 50.6187 13.3766 51.2422 13.8797 51.7453C14.3828 52.2484 15.0062 52.5 15.75 52.5Z" fill="#4C519E"/>
</svg>
