<svg width="63" height="63" viewBox="0 0 63 63" fill="none" xmlns="http://www.w3.org/2000/svg">
<path d="M44.625 41.5203C42.6899 41.5203 41.0452 40.843 39.6907 39.4885C38.3362 38.134 37.6589 36.4893 37.6589 34.5542C37.6589 32.6191 38.3362 30.9743 39.6907 29.6198C41.0452 28.2653 42.6899 27.5881 44.625 27.5881C46.5601 27.5881 48.2048 28.2653 49.5593 29.6198C50.9138 30.9743 51.5911 32.6191 51.5911 34.5542C51.5911 36.4893 50.9138 38.134 49.5593 39.4885C48.2048 40.843 46.5601 41.5203 44.625 41.5203ZM44.625 37.5828C45.4698 37.5828 46.1858 37.2892 46.7729 36.7021C47.36 36.115 47.6536 35.399 47.6536 34.5542C47.6536 33.7094 47.36 32.9934 46.7729 32.4063C46.1858 31.8187 45.4698 31.5249 44.625 31.5249C43.7802 31.5249 43.0642 31.8187 42.4771 32.4063C41.89 32.9934 41.5964 33.7094 41.5964 34.5542C41.5964 35.399 41.89 36.115 42.4771 36.7021C43.0642 37.2892 43.7802 37.5828 44.625 37.5828ZM29.7839 58.4568V51.7525C29.7839 50.9926 29.965 50.2779 30.3273 49.6086C30.6895 48.9392 31.1966 48.4054 31.8485 48.0073C33.1562 47.2273 34.5354 46.5806 35.9861 46.0674C37.4369 45.5543 38.9183 45.1745 40.4303 44.9282L44.625 50.2031L48.7948 44.9282C50.3151 45.1745 51.7943 45.5543 53.2324 46.0674C54.67 46.5806 56.0464 47.2273 57.3615 48.0073C58.0143 48.4041 58.5239 48.9359 58.8906 49.6027C59.2576 50.269 59.4495 50.9773 59.4661 51.7276V58.4568H29.7839ZM33.6558 54.5193H43.0146L38.9412 49.3297C38.0137 49.5646 37.112 49.8698 36.2362 50.2451C35.3603 50.6209 34.5002 51.0394 33.6558 51.5005V54.5193ZM46.2354 54.5193H55.5286V51.5005C54.7109 51.0123 53.8641 50.5916 52.9883 50.2386C52.1128 49.8851 51.2113 49.5906 50.2838 49.3553L46.2354 54.5193ZM13.9447 53.8125C12.6278 53.8125 11.5056 53.3479 10.5781 52.4186C9.65103 51.4894 9.1875 50.3722 9.1875 49.0672V13.9328C9.1875 12.6278 9.65213 11.5106 10.5814 10.5814C11.5106 9.65212 12.6278 9.1875 13.9328 9.1875H49.0672C50.3722 9.1875 51.4894 9.65212 52.4186 10.5814C53.3479 11.5106 53.8125 12.6278 53.8125 13.9328V25.3411C53.2639 24.7185 52.6792 24.1356 52.0583 23.5922C51.4375 23.0488 50.7098 22.671 49.875 22.4588V13.9328C49.875 13.697 49.7993 13.5034 49.6479 13.3521C49.4966 13.2007 49.303 13.125 49.0672 13.125H13.9328C13.697 13.125 13.5034 13.2007 13.3521 13.3521C13.2007 13.5034 13.125 13.697 13.125 13.9328V49.0672C13.125 49.303 13.2007 49.4966 13.3521 49.6479C13.5034 49.7993 13.697 49.875 13.9328 49.875H23.7661C23.6856 50.1878 23.625 50.5008 23.5843 50.8141C23.5441 51.1269 23.5239 51.4397 23.5239 51.7525V53.8125H13.9447ZM19.0313 23.2713H37.9614C38.8465 22.6487 39.8031 22.1861 40.8312 21.8833C41.8593 21.5806 42.9052 21.4123 43.9688 21.3787V19.3344H19.0313V23.2713ZM19.0313 33.4688H31.5249C31.5586 32.7688 31.6529 32.0948 31.8078 31.4468C31.9627 30.7993 32.1646 30.1608 32.4135 29.5313H19.0313V33.4688ZM19.0313 43.6656H27.2291C27.6938 43.2889 28.1827 42.9433 28.6958 42.6287C29.209 42.3137 29.7332 42.0335 30.2682 41.788V39.7287H19.0313V43.6656ZM13.125 49.875V13.125V22.4188V21.3281V49.875Z" fill="#4C519E"/>
</svg>
