<svg width="36" height="36" viewBox="0 0 36 36" fill="none" xmlns="http://www.w3.org/2000/svg">
<path d="M26.4375 22.5V34.3125C26.4375 34.7063 26.2294 35.0775 25.8919 35.28C25.7119 35.3869 25.515 35.4375 25.3125 35.4375C25.1269 35.4375 24.9469 35.3925 24.7781 35.3025L18 31.6519L11.2219 35.3025C10.8731 35.4881 10.4512 35.4825 10.1081 35.28C9.77062 35.0775 9.5625 34.7063 9.5625 34.3125V22.5C9.5625 21.8812 10.0687 21.375 10.6875 21.375H25.3125C25.9312 21.375 26.4375 21.8812 26.4375 22.5Z" fill="url(#paint0_linear_1026_519)"/>
<path fill-rule="evenodd" clip-rule="evenodd" d="M29.8125 13.5C29.8125 14.355 29.7225 15.1875 29.5481 15.9862C28.5019 20.8631 24.4462 24.6262 19.4231 25.2225C18.9562 25.2844 18.4838 25.3125 18 25.3125C11.4806 25.3125 6.1875 20.0194 6.1875 13.5C6.1875 6.98063 11.4806 1.6875 18 1.6875C24.5194 1.6875 29.8125 6.98063 29.8125 13.5Z" fill="url(#paint1_linear_1026_519)"/>
<path d="M29.5477 15.9863C28.5015 20.8631 24.4459 24.6263 19.4227 25.2225L13.584 19.3838L14.0621 19.3219L17.5721 16.4475L15.4402 14.3156L19.1584 7.02563L23.6302 11.4975L24.4177 10.8506L29.5477 15.9863Z" fill="url(#paint2_linear_1026_519)"/>
<path fill-rule="evenodd" clip-rule="evenodd" d="M15.2543 9.96531L16.4901 7.49537C16.7759 6.92387 17.3603 6.56274 17.9993 6.56274C18.6383 6.56274 19.2227 6.92387 19.5085 7.49537L20.7443 9.96531L23.4752 10.3771C24.1069 10.4727 24.6306 10.9165 24.8281 11.5246C25.0255 12.1321 24.8629 12.7992 24.4079 13.2481L22.4408 15.1864L22.8925 17.9112C22.9971 18.5412 22.7367 19.1768 22.2197 19.5526C21.7028 19.9277 21.0182 19.9795 20.4507 19.6853L17.9993 18.4135L15.5479 19.6853C14.9804 19.9795 14.2958 19.9277 13.7789 19.5526C13.2619 19.1768 13.0015 18.5412 13.1061 17.9112L13.5578 15.1864L11.5907 13.2481C11.1357 12.7992 10.9731 12.1321 11.1706 11.5246C11.368 10.9165 11.8917 10.4727 12.5234 10.3771L15.2543 9.96531Z" fill="#FEF156"/>
<path fill-rule="evenodd" clip-rule="evenodd" d="M18 0.5625C25.1404 0.5625 30.9375 6.35962 30.9375 13.5C30.9375 20.6404 25.1404 26.4375 18 26.4375C10.8596 26.4375 5.0625 20.6404 5.0625 13.5C5.0625 6.35962 10.8596 0.5625 18 0.5625ZM18 2.8125C12.1016 2.8125 7.3125 7.60162 7.3125 13.5C7.3125 19.3984 12.1016 24.1875 18 24.1875C23.8984 24.1875 28.6875 19.3984 28.6875 13.5C28.6875 7.60162 23.8984 2.8125 18 2.8125Z" fill="url(#paint3_linear_1026_519)"/>
<defs>
<linearGradient id="paint0_linear_1026_519" x1="18" y1="35.4375" x2="18" y2="21.375" gradientUnits="userSpaceOnUse">
<stop stop-color="#A4EEFF"/>
<stop offset="0.5821" stop-color="#02C0FC"/>
<stop offset="0.8247" stop-color="#27A6FF"/>
</linearGradient>
<linearGradient id="paint1_linear_1026_519" x1="18" y1="1.6875" x2="18" y2="25.3125" gradientUnits="userSpaceOnUse">
<stop stop-color="#FEF156"/>
<stop offset="0.5167" stop-color="#FFC242"/>
<stop offset="0.6284" stop-color="#FFBE42"/>
<stop offset="0.7379" stop-color="#FEB241"/>
<stop offset="0.8466" stop-color="#FE9F41"/>
<stop offset="0.9542" stop-color="#FD8340"/>
<stop offset="1" stop-color="#FC753F"/>
</linearGradient>
<linearGradient id="paint2_linear_1026_519" x1="28.2855" y1="24.4018" x2="16.9972" y2="13.1136" gradientUnits="userSpaceOnUse">
<stop offset="0.2058" stop-color="#F99E0D" stop-opacity="0"/>
<stop offset="0.3182" stop-color="#F49020" stop-opacity="0.078"/>
<stop offset="0.544" stop-color="#E86D50" stop-opacity="0.233"/>
<stop offset="0.6405" stop-color="#E25D66" stop-opacity="0.3"/>
</linearGradient>
<linearGradient id="paint3_linear_1026_519" x1="5.0625" y1="13.5" x2="30.9375" y2="13.5" gradientUnits="userSpaceOnUse">
<stop stop-color="#FEF156"/>
<stop offset="0.4469" stop-color="#FFC242"/>
<stop offset="1" stop-color="#FC753F"/>
</linearGradient>
</defs>
</svg>
