<svg width="29" height="28" viewBox="0 0 29 28" fill="none" xmlns="http://www.w3.org/2000/svg">
<path d="M28.1757 13.3331L23.3813 18.0851L24.4802 24.7592C24.6533 25.8035 24.2318 26.8402 23.3813 27.4682C22.5233 28.0887 21.4093 28.172 20.4761 27.6877L14.5 24.5701L8.52394 27.6877C8.11751 27.8995 7.68097 27.9979 7.25196 27.9979C6.67994 27.9979 6.10792 27.8239 5.62623 27.4682C4.7682 26.8402 4.34672 25.8035 4.51983 24.7592L5.6187 18.0851L0.824305 13.3331C0.0791791 12.5915 -0.191776 11.5018 0.139391 10.4954C0.463032 9.48145 1.31353 8.76259 2.35219 8.59612L9.01316 7.5897L12.0238 1.5361C12.4979 0.590227 13.4463 0 14.5 0C15.5537 0 16.5021 0.590227 16.9762 1.5361L19.9868 7.5897L26.6403 8.59612C27.6865 8.76259 28.537 9.48145 28.8606 10.4879C29.1918 11.5018 28.9208 12.5915 28.1757 13.3331Z" fill="url(#paint0_linear_1026_533)"/>
<defs>
<linearGradient id="paint0_linear_1026_533" x1="14.5" y1="0" x2="14.5" y2="28.0002" gradientUnits="userSpaceOnUse">
<stop stop-color="#FEF156"/>
<stop offset="0.4469" stop-color="#FFC242"/>
<stop offset="1" stop-color="#FC753F"/>
</linearGradient>
</defs>
</svg>
