<svg aria-hidden="true" style="position: absolute; width: 0; height: 0; overflow: hidden;" version="1.1" xmlns="http://www.w3.org/2000/svg" xmlns:xlink="http://www.w3.org/1999/xlink">
<defs>
<symbol id="icon-help-item__01" viewBox="0 0 32 32">
<path fill="#4c519e" style="fill: var(--color1, #4c519e)" d="M16.667 28.179l-0.205-3.513h-1.128c-2.968 0-5.487-1.036-7.559-3.108s-3.108-4.591-3.108-7.559c0-2.968 1.036-5.487 3.108-7.559s4.591-3.108 7.559-3.108c1.484 0 2.871 0.277 4.16 0.832s2.419 1.317 3.388 2.286c0.969 0.969 1.731 2.099 2.286 3.388s0.832 2.677 0.832 4.16c0 1.513-0.236 2.965-0.708 4.358s-1.12 2.695-1.945 3.908c-0.825 1.213-1.808 2.321-2.95 3.323s-2.385 1.866-3.731 2.591zM18.667 24.467c1.578-1.333 2.861-2.894 3.85-4.683s1.483-3.717 1.483-5.783c0-2.422-0.839-4.472-2.517-6.15s-3.728-2.517-6.15-2.517c-2.422 0-4.472 0.839-6.15 2.517s-2.517 3.728-2.517 6.15c0 2.422 0.839 4.472 2.517 6.15s3.728 2.517 6.15 2.517h3.333v1.8zM15.338 21.031c0.327 0 0.604-0.114 0.832-0.342s0.342-0.506 0.342-0.832c0-0.326-0.114-0.604-0.342-0.832s-0.506-0.342-0.832-0.342c-0.326 0-0.604 0.114-0.832 0.342s-0.342 0.506-0.342 0.832c0 0.326 0.114 0.604 0.342 0.832s0.506 0.342 0.832 0.342zM14.564 16.964h1.59c0.017-0.607 0.103-1.056 0.258-1.349s0.575-0.781 1.26-1.467c0.392-0.391 0.71-0.803 0.955-1.236s0.368-0.911 0.368-1.436c0-1.048-0.358-1.851-1.073-2.409s-1.57-0.837-2.563-0.837c-0.901 0-1.661 0.249-2.281 0.746s-1.063 1.096-1.33 1.797l1.482 0.579c0.145-0.386 0.382-0.752 0.71-1.097s0.801-0.518 1.418-0.518c0.677 0 1.18 0.186 1.51 0.558s0.495 0.779 0.495 1.222c0 0.412-0.113 0.77-0.34 1.074s-0.508 0.625-0.845 0.962c-0.71 0.615-1.156 1.132-1.34 1.551s-0.276 1.039-0.276 1.859z"></path>
</symbol>
<symbol id="icon-help-item__02" viewBox="0 0 32 32">
<path fill="#4c519e" style="fill: var(--color1, #4c519e)" d="M23.205 15.795h1.59v-2.421l2.095 1.21 0.795-1.374-2.095-1.21 2.095-1.21-0.795-1.374-2.095 1.21v-2.421h-1.59v2.421l-2.095-1.21-0.795 1.374 2.095 1.21-2.095 1.21 0.795 1.374 2.095-1.21v2.421zM3.077 27.077c-0.674 0-1.244-0.233-1.71-0.7s-0.7-1.037-0.7-1.71v-17.333c0-0.674 0.233-1.244 0.7-1.71s1.037-0.7 1.71-0.7h25.846c0.674 0 1.244 0.233 1.71 0.7s0.7 1.037 0.7 1.71v17.333c0 0.674-0.233 1.244-0.7 1.71s-1.037 0.7-1.71 0.7h-25.846zM20.456 25.077h8.467c0.103 0 0.197-0.043 0.282-0.128s0.128-0.18 0.128-0.282v-17.333c0-0.102-0.043-0.196-0.128-0.282s-0.179-0.128-0.282-0.128h-25.846c-0.103 0-0.197 0.043-0.282 0.128s-0.128 0.18-0.128 0.282v17.333c0 0.102 0.043 0.196 0.128 0.282s0.179 0.128 0.282 0.128h0.467c0.933-1.436 2.145-2.573 3.636-3.41s3.097-1.256 4.82-1.256 3.33 0.419 4.82 1.256c1.491 0.838 2.703 1.974 3.636 3.41zM12 18.821c1.017 0 1.882-0.357 2.596-1.071s1.071-1.579 1.071-2.596c0-1.017-0.357-1.883-1.071-2.596s-1.579-1.070-2.596-1.070-1.882 0.357-2.596 1.070c-0.714 0.714-1.071 1.579-1.071 2.596s0.357 1.882 1.071 2.596c0.714 0.714 1.579 1.071 2.596 1.071zM6.067 25.077h11.867c-0.764-0.844-1.661-1.5-2.69-1.967s-2.11-0.7-3.244-0.7c-1.133 0-2.211 0.233-3.233 0.7s-1.922 1.122-2.7 1.967zM12 16.821c-0.463 0-0.857-0.162-1.181-0.486s-0.486-0.718-0.486-1.181c0-0.463 0.162-0.857 0.486-1.181s0.717-0.486 1.181-0.486 0.857 0.162 1.181 0.486c0.324 0.324 0.486 0.718 0.486 1.181s-0.162 0.857-0.486 1.181c-0.324 0.324-0.717 0.486-1.181 0.486z"></path>
</symbol>
<symbol id="icon-help-item__03" viewBox="0 0 32 32">
<path fill="#4c519e" style="fill: var(--color1, #4c519e)" d="M5.411 27.667v-2h15.333v2h-15.333zM13.149 20.79l-7.072-7.072 2.338-2.405 7.138 7.072-2.405 2.405zM21.052 12.887l-7.072-7.138 2.405-2.338 7.072 7.072-2.405 2.405zM27.467 26.205l-16.938-16.938 1.405-1.405 16.938 16.938-1.405 1.405z"></path>
</symbol>
</defs>
</svg>
