<svg xmlns="http://www.w3.org/2000/svg" width="60" height="60" viewBox="0 0 60 60" fill="none">
	<g clip-path="url(#clip0_732_167)">
		<path
			d="M55.3756 16.169V9.8251C55.4175 8.32606 55.122 6.83676 54.5111 5.46721C53.9002 4.09766 52.9894 2.88284 51.846 1.91248C50.7647 1.06603 49.504 0.478336 48.1605 0.194412C46.817 -0.0895126 45.4263 -0.0621293 44.095 0.274464L5.38526 9.06397C3.84801 9.41606 2.47712 10.2826 1.49959 11.5202C0.522058 12.7577 -0.00347178 14.292 0.010019 15.869C0.010019 15.9197 0.0142958 15.9692 0.0176069 16.019C0.0142958 16.0688 0.010019 16.1183 0.010019 16.169V48.4657C0.010019 51.5248 1.22524 54.4586 3.38835 56.6218C5.55147 58.7849 8.48528 60.0002 11.5444 60.0002H48.4549C51.5141 60.0002 54.4479 58.785 56.6111 56.6218C58.7742 54.4587 59.9895 51.5248 59.9895 48.4657V25.3965C59.9908 23.6056 59.5745 21.839 58.7736 20.2372C57.9727 18.6354 56.8092 17.2424 55.3756 16.169ZM45.1095 4.77338C45.7656 4.59582 46.4535 4.57001 47.121 4.69792C47.7885 4.82583 48.4181 5.1041 48.9621 5.51161C49.5674 6.04882 50.0436 6.71578 50.3552 7.46275C50.6668 8.20971 50.8057 9.01738 50.7615 9.82552V14.0938C50.0022 13.9397 49.2293 13.8623 48.4545 13.8625H5.69926C5.92171 13.7219 6.16665 13.6204 6.42342 13.5626L45.1095 4.77338ZM48.4545 55.3865H11.5447C10.6358 55.3865 9.73588 55.2075 8.89621 54.8597C8.05655 54.5119 7.29361 54.0021 6.65096 53.3594C6.00832 52.7168 5.49855 51.9538 5.15076 51.1142C4.80297 50.2745 4.62397 49.3745 4.62399 48.4657V18.476H48.4549C50.2904 18.476 52.0507 19.2051 53.3486 20.5029C54.6464 21.8008 55.3756 23.561 55.3756 25.3965V27.7035H41.5343C39.087 27.7035 36.7399 28.6757 35.0094 30.4062C33.2789 32.1367 32.3067 34.4837 32.3067 36.931C32.3067 39.3783 33.2789 41.7254 35.0094 43.4559C36.7399 45.1864 39.087 46.1586 41.5343 46.1586H55.3756V48.4657C55.3756 50.3011 54.6464 52.0613 53.3485 53.3592C52.0506 54.657 50.2904 55.3861 48.4549 55.3861L48.4545 55.3865ZM55.3752 41.5453H41.5343C40.3106 41.5453 39.137 41.0592 38.2718 40.1939C37.4065 39.3286 36.9204 38.1551 36.9204 36.9314C36.9204 35.7078 37.4065 34.5342 38.2718 33.669C39.137 32.8037 40.3106 32.3176 41.5343 32.3176H55.3756L55.3752 41.5453Z"
			fill="#4C519E" />
	</g>
	<defs>
		<clipPath id="clip0_732_167">
			<rect width="59.9794" height="60" fill="white" transform="translate(0.00976562)" />
		</clipPath>
	</defs>
</svg>