<svg xmlns="http://www.w3.org/2000/svg" width="58" height="60" viewBox="0 0 58 60" fill="none">
	<path
		d="M46.7781 60H11.2225C8.27567 60 5.44952 58.8294 3.36578 56.7457C1.28204 54.6619 0.111413 51.8358 0.111413 48.8889C0.1091 48.6238 0.154256 48.3604 0.244746 48.1111C2.38029 42.4777 6.17437 37.6246 11.1259 34.1926C16.0774 30.7607 21.9535 28.9114 27.9781 28.8889H30.0225C36.0471 28.9114 41.9232 30.7607 46.8747 34.1926C51.8262 37.6246 55.6203 42.4777 57.7558 48.1111C57.8463 48.3604 57.8915 48.6238 57.8892 48.8889C57.8892 51.8358 56.7185 54.6619 54.6348 56.7457C52.5511 58.8294 49.7249 60 46.7781 60ZM4.55586 49.2667C4.65245 50.9685 5.39724 52.5687 6.63717 53.7384C7.8771 54.908 9.51796 55.5583 11.2225 55.5556H46.7781C48.4826 55.5583 50.1235 54.908 51.3634 53.7384C52.6034 52.5687 53.3481 50.9685 53.4447 49.2667C51.5745 44.578 48.3451 40.5557 44.1714 37.7165C39.9977 34.8772 35.0704 33.3508 30.0225 33.3334H27.9781C22.9302 33.3508 18.0029 34.8772 13.8292 37.7165C9.65549 40.5557 6.42607 44.578 4.55586 49.2667Z"
		fill="#4C519E" />
	<path
		d="M28.9994 26.6667C26.3623 26.6667 23.7844 25.8847 21.5918 24.4196C19.3991 22.9545 17.6901 20.8721 16.681 18.4358C15.6718 15.9994 15.4077 13.3185 15.9222 10.7321C16.4367 8.14572 17.7066 5.76995 19.5713 3.90525C21.436 2.04055 23.8117 0.770672 26.3981 0.256202C28.9846 -0.258267 31.6655 0.00577715 34.1018 1.01495C36.5381 2.02411 38.6205 3.73308 40.0856 5.92574C41.5507 8.11839 42.3327 10.6963 42.3327 13.3333C42.3327 16.8696 40.9279 20.2609 38.4274 22.7614C35.927 25.2619 32.5356 26.6667 28.9994 26.6667ZM28.9994 4.44445C27.2413 4.44445 25.5227 4.96577 24.061 5.9425C22.5992 6.91922 21.4599 8.30748 20.7871 9.93171C20.1143 11.5559 19.9383 13.3432 20.2813 15.0675C20.6242 16.7917 21.4708 18.3756 22.714 19.6187C23.9571 20.8619 25.5409 21.7084 27.2652 22.0514C28.9895 22.3944 30.7768 22.2184 32.401 21.5456C34.0252 20.8728 35.4135 19.7335 36.3902 18.2717C37.3669 16.81 37.8882 15.0914 37.8882 13.3333C37.8882 10.9759 36.9517 8.71493 35.2847 7.04794C33.6178 5.38095 31.3568 4.44445 28.9994 4.44445Z"
		fill="#4C519E" />
	<path
		d="M46.7781 60H11.2225C8.27567 60 5.44952 58.8294 3.36578 56.7457C1.28204 54.6619 0.111413 51.8358 0.111413 48.8889C0.1091 48.6238 0.154256 48.3604 0.244746 48.1111C2.38029 42.4777 6.17437 37.6246 11.1259 34.1926C16.0774 30.7607 21.9535 28.9114 27.9781 28.8889H30.0225C36.0471 28.9114 41.9232 30.7607 46.8747 34.1926C51.8262 37.6246 55.6203 42.4777 57.7558 48.1111C57.8463 48.3604 57.8915 48.6238 57.8892 48.8889C57.8892 51.8358 56.7185 54.6619 54.6348 56.7457C52.5511 58.8294 49.7249 60 46.7781 60ZM4.55586 49.2667C4.65245 50.9685 5.39724 52.5687 6.63717 53.7384C7.8771 54.908 9.51796 55.5583 11.2225 55.5556H46.7781C48.4826 55.5583 50.1235 54.908 51.3634 53.7384C52.6034 52.5687 53.3481 50.9685 53.4447 49.2667C51.5745 44.578 48.3451 40.5557 44.1714 37.7165C39.9977 34.8772 35.0704 33.3508 30.0225 33.3334H27.9781C22.9302 33.3508 18.0029 34.8772 13.8292 37.7165C9.65549 40.5557 6.42607 44.578 4.55586 49.2667Z"
		fill="#4C519E" />
</svg>