<svg width="57" height="66" viewBox="0 0 57 66" fill="none" xmlns="http://www.w3.org/2000/svg">
<g clip-path="url(#clip0_2_87)">
<path d="M0.182422 24.8703C0.182422 20.5087 0.190004 16.1469 0.17141 11.7853C0.169424 11.31 0.292724 11.0748 0.754151 10.8909C9.76154 7.29797 18.7597 3.68174 27.7689 0.0930026C28.0812 -0.0314394 28.5295 -0.030535 28.8421 0.0939069C37.8286 3.67197 46.8042 7.27735 55.7887 10.8605C56.2642 11.0502 56.4225 11.287 56.4216 11.8003C56.4048 20.2839 56.4129 28.7676 56.4086 37.2514C56.4062 41.8312 54.6757 45.7844 51.9637 49.3626C48.378 54.0934 43.8118 57.7221 38.7587 60.7105C35.537 62.6158 32.1259 64.201 28.7855 65.9013C28.534 66.0293 28.1217 66.031 27.8588 65.9174C21.2365 63.0588 15.0333 59.5032 9.60773 54.6959C6.20895 51.6843 3.30048 48.2819 1.53349 44.0232C0.632476 41.8518 0.18513 39.5874 0.183867 37.2362C0.180978 33.1143 0.182603 28.9923 0.182422 24.8703ZM6.23982 15.2006C6.22736 15.3733 6.20805 15.5155 6.20805 15.6576C6.20678 22.9189 6.18765 30.1801 6.22935 37.4411C6.23531 38.479 6.43028 39.5456 6.7193 40.5462C7.63583 43.7191 9.5969 46.2548 11.8865 48.5398C16.5336 53.1776 22.0289 56.5696 27.9404 59.3239C28.1863 59.4384 28.6062 59.3852 28.8577 59.2485C31.5013 57.8115 34.191 56.4446 36.7425 54.8561C40.5359 52.495 43.9952 49.7008 46.8091 46.177C49.1861 43.2002 50.4916 39.9034 50.4196 35.995C50.2969 29.3352 50.3747 22.6714 50.4035 16.0095C50.4062 15.3672 50.1923 15.1076 49.624 14.8817C42.6994 12.1286 35.7874 9.34349 28.8613 6.59383C28.5307 6.46269 28.057 6.47282 27.7234 6.60414C23.7016 8.18788 19.6941 9.80761 15.6823 11.4165C12.5357 12.6786 9.38839 13.9388 6.23982 15.2006Z" fill="#4C519E"/>
<path d="M12.8096 31.3028C14.1556 29.9498 15.5384 28.56 16.9353 27.1557C19.9191 30.1658 22.9321 33.2054 25.9411 36.241C30.642 31.5294 35.2482 26.9128 39.8175 22.333C41.3308 23.8498 42.727 25.2491 44.0942 26.6194C38.1095 32.6145 32.0902 38.6445 26.1106 44.6345C21.7005 40.2143 17.2594 35.7628 12.8096 31.3028Z" fill="#4C519E"/>
</g>
<defs>
<clipPath id="clip0_2_87">
<rect width="56.25" height="66" fill="white" transform="translate(0.171387)"/>
</clipPath>
</defs>
</svg>
