<svg width="72" height="66" viewBox="0 0 72 66" fill="none" xmlns="http://www.w3.org/2000/svg">
<g clip-path="url(#clip0_2_80)">
<path d="M66.3077 16.2808V0H48.1206C36.2842 0 24.4483 0.0141664 12.6126 0.0158579C5.19892 0.0164922 0.40793 4.81637 0.407296 12.2324C0.405604 26.0459 0.405816 39.8634 0.407507 53.6771C0.40793 57.3815 1.55266 60.4912 3.71801 62.6667C5.88504 64.8438 8.9822 65.996 12.6752 65.997C20.3944 65.9992 28.1115 66.0002 35.8307 66.0002C41.6829 66.0002 47.4905 66 53.3427 65.9996L71.5937 65.9992V16.2808H66.3077ZM59.5417 16.1613C59.5417 16.1829 59.2391 16.1998 59.0771 16.1998L51.001 16.203C38.2555 16.2081 25.089 16.2136 12.1271 16.1952C10.3024 16.1924 8.67477 15.3541 7.76283 13.9522C6.91898 12.6555 6.81009 11.1062 7.45836 9.63738C8.31025 7.70737 9.87278 6.76604 12.0965 6.76604C12.0973 6.76604 12.0982 6.76604 12.099 6.76604C17.0019 6.76604 21.8537 6.7301 26.7566 6.72925L59.5419 6.6914V16.1613H59.5417ZM7.10483 22.1343C7.73915 22.2064 8.22842 22.2857 8.78218 22.363C10.4821 22.6003 12.0785 22.8248 13.7224 22.8312C26.4012 22.8813 39.2873 22.8597 51.7535 22.8546C55.7996 22.8527 59.84 22.8354 63.8869 22.8354H65.0391V59.4143H51.9216C38.8756 59.4143 25.8294 59.3767 12.783 59.375C8.77774 59.3744 7.08728 57.6283 7.08686 53.5811C7.0858 46.3713 7.10504 39.1426 7.10504 31.933V22.1343H7.10483Z" fill="#4C519E"/>
<path d="M54.9291 46.4885C57.8689 46.5058 60.3092 44.1096 60.3428 41.172C60.3766 38.2237 58.0117 35.777 55.0697 35.7161C52.1313 35.6552 49.6478 38.018 49.5717 40.9466C49.4934 43.9605 51.9201 46.4707 54.9291 46.4885Z" fill="#4C519E"/>
</g>
<defs>
<clipPath id="clip0_2_80">
<rect width="71.1874" height="66" fill="white" transform="translate(0.40625)"/>
</clipPath>
</defs>
</svg>
