<svg xmlns="http://www.w3.org/2000/svg" width="46" height="60" viewBox="0 0 46 60" fill="none">
	<g clip-path="url(#clip0_732_182)">
		<path
			d="M42.8392 25.0228H39.1031V16.1236C39.1031 7.23774 31.8831 0.00848389 23.0003 0.00848389C14.1174 0.00848389 6.89746 7.24248 6.89746 16.1341V25.0228H3.20279C1.92259 25.0228 0.863281 26.0396 0.863281 27.3198V54.2076C0.863281 57.4029 3.48436 60 6.67967 60H39.3624C42.5577 60 45.1373 57.4029 45.1373 54.2076V27.3198C45.1373 26.0396 44.1194 25.0228 42.8392 25.0228ZM11.5283 16.1341C11.5283 9.79866 16.6737 4.64435 23.0003 4.64435C29.3269 4.64435 34.4722 9.79389 34.4722 16.1236V25.0228H11.5283V16.1341ZM40.5064 54.2076C40.5064 54.8468 40.0014 55.3691 39.3624 55.3691H6.67967C6.04061 55.3691 5.49416 54.8467 5.49416 54.2076V29.6537H40.5064V54.2076Z"
			fill="#4C519E" />
		<path
			d="M23.001 49.4558C24.2812 49.4558 25.3164 48.4181 25.3164 47.1379V38.7934C25.3164 37.5133 24.2811 36.4755 23.001 36.4755C21.7208 36.4755 20.6855 37.5133 20.6855 38.7934V47.1379C20.6855 48.4181 21.7208 49.4558 23.001 49.4558Z"
			fill="#4C519E" />
	</g>
	<defs>
		<clipPath id="clip0_732_182">
			<rect width="44.274" height="60" fill="white" transform="translate(0.863281)" />
		</clipPath>
	</defs>
</svg>