<svg xmlns="http://www.w3.org/2000/svg" width="66" height="60" viewBox="0 0 66 60" fill="none">
	<g clip-path="url(#clip0_732_160)">
		<path
			d="M57.7015 7.66603C60.2418 7.77194 62.3148 8.76596 63.8342 10.8115C64.7916 12.0731 65.3085 13.6142 65.3055 15.198C65.3174 24.1032 65.3174 33.0085 65.3055 41.9138C65.3022 43.8203 64.5746 45.6542 63.27 47.0444C61.9655 48.4347 60.1815 49.2773 58.2791 49.4018C56.5809 49.5149 54.8708 49.4474 53.1662 49.4635C52.3341 49.4715 52.2278 49.5721 52.2255 50.3882C52.2214 51.8686 52.2298 53.349 52.2236 54.8294C52.214 57.1429 51.0445 58.9174 49.0465 59.6661C47.0239 60.424 45.0325 59.88 43.4676 58.1363C41.0405 55.4313 38.6075 52.7325 36.1988 50.0118C36.0448 49.8242 35.8486 49.6757 35.6262 49.5786C35.4037 49.4816 35.1614 49.4387 34.9192 49.4534C31.3295 49.4714 27.7398 49.4704 24.15 49.4506C23.6039 49.447 23.2254 49.598 22.8902 50.0274C22.0586 51.093 21.062 51.941 19.6838 52.2141C16.5774 52.8293 13.8279 50.5938 13.7767 47.3923C13.752 45.8447 13.7747 44.297 13.7706 42.7493C13.7683 41.8948 13.6655 41.7938 12.7901 41.7913C11.377 41.787 9.96313 41.7993 8.54975 41.7887C3.95072 41.7545 0.687126 38.4689 0.685242 33.8669C0.681742 25.2309 0.681742 16.5948 0.685242 7.95874C0.687799 3.29039 3.97252 0.00459863 8.65284 0.00298366C22.2716 -0.00213042 35.8903 -0.00257902 49.509 0.00163785C54.155 0.00163785 57.2354 2.83659 57.6377 7.4729C57.6535 7.53894 57.6749 7.60354 57.7015 7.66603ZM29.1847 4.30971C22.3416 4.30971 15.4986 4.31016 8.6558 4.31106C6.32876 4.31227 4.9952 5.65687 4.9952 7.99683C4.99296 16.61 4.99269 25.2235 4.99439 33.8373C4.99439 36.1313 6.32473 37.4662 8.62889 37.4807C10.0871 37.4899 11.5457 37.4701 13.0038 37.4841C16.0259 37.5133 18.0548 39.546 18.0776 42.5644C18.089 44.0448 18.0556 45.526 18.0987 47.0055C18.1082 47.3307 18.3567 47.649 18.495 47.9704C18.7879 47.8161 19.1533 47.7281 19.3625 47.4977C21.7616 44.8586 24.1632 42.2208 26.508 39.5337C27.7461 38.1149 29.2209 37.4555 31.1089 37.4679C37.256 37.5083 43.4037 37.485 49.5511 37.4814C52.018 37.4802 53.3216 36.1676 53.3218 33.6966C53.3218 25.1731 53.3215 16.6492 53.321 8.12495C53.321 5.61569 52.0145 4.30863 49.5114 4.30877C42.7359 4.30895 35.9603 4.30926 29.1847 4.30971ZM27.314 45.1185C27.6838 45.1354 27.9006 45.154 28.1176 45.1541C30.4055 45.1559 32.6944 45.1882 34.9812 45.1434C36.7933 45.1078 38.2164 45.7798 39.4068 47.1362C41.8033 49.8669 44.2437 52.559 46.6883 55.2469C46.8767 55.4543 47.3074 55.665 47.503 55.5833C47.7153 55.494 47.8904 55.0663 47.8974 54.7816C47.9353 53.2575 47.9064 51.7319 47.9179 50.2068C47.9403 47.2263 49.973 45.1859 52.9491 45.1586C54.4295 45.1451 55.9099 45.1689 57.3903 45.1524C59.6895 45.1265 61.0029 43.7856 61.0034 41.486C61.0045 37.337 61.0045 33.1879 61.0034 29.0387C61.0034 24.486 61.0112 19.9332 60.9994 15.3805C60.9944 13.4143 59.4349 11.8741 57.6304 12.0686V12.8602C57.6304 19.9247 57.6413 26.9894 57.6245 34.0541C57.6181 36.723 56.5142 38.8641 54.3375 40.4226C52.9378 41.4246 51.348 41.797 49.6425 41.7944C43.4512 41.7855 37.2599 41.7878 31.0687 41.8016C30.7337 41.8024 30.2894 41.8512 30.0833 42.0614C29.1603 43.0024 28.3042 44.0106 27.3133 45.1185H27.314Z"
			fill="#4C519E" />
		<path
			d="M26.9957 18.7398C26.9957 16.7942 26.9942 14.9581 26.9969 13.1224C26.9877 12.7863 26.9983 12.45 27.0286 12.1152C27.078 11.5728 27.336 11.0707 27.7483 10.7148C28.1606 10.3589 28.695 10.1769 29.2388 10.2071C29.773 10.2134 30.2839 10.4264 30.6645 10.8013C31.0451 11.1762 31.2656 11.6839 31.28 12.2179C31.3284 14.1004 31.3006 15.9848 31.3047 17.8684C31.3047 18.1324 31.3047 18.3964 31.3047 18.7397H32.3066C34.0785 18.7397 35.8506 18.7255 37.6225 18.7459C38.7173 18.7584 39.4944 19.3585 39.7778 20.3388C40.0319 21.2177 39.7081 22.2186 38.8831 22.6698C38.407 22.9073 37.8822 23.0312 37.3501 23.0316C35.3788 23.072 33.4059 23.0479 31.343 23.0479C31.3295 23.3428 31.3074 23.5997 31.3065 23.8574C31.2992 25.7635 31.3217 27.6699 31.2812 29.5752C31.2598 30.5788 30.5464 31.3479 29.5778 31.5609C28.7085 31.7521 27.7125 31.3355 27.3034 30.5042C27.1101 30.0786 27.0097 29.6167 27.0088 29.1493C26.9759 27.4006 26.9953 25.6511 26.9953 23.9019V23.0888C26.6877 23.0735 26.4309 23.0506 26.1744 23.0495C24.2679 23.0416 22.361 23.0639 20.4553 23.0226C19.9703 22.9958 19.509 22.8037 19.1483 22.4783C18.7876 22.1529 18.5492 21.7137 18.4728 21.234C18.3963 20.7542 18.4865 20.2628 18.7282 19.8414C18.97 19.42 19.3487 19.0941 19.8014 18.9179C20.1624 18.7999 20.5404 18.7423 20.9202 18.7475C22.6697 18.7305 24.4193 18.7401 26.1689 18.7402L26.9957 18.7398Z"
			fill="#4C519E" />
	</g>
	<defs>
		<clipPath id="clip0_732_160">
			<rect width="64.6355" height="60" fill="white" transform="translate(0.682617)" />
		</clipPath>
	</defs>
</svg>