<svg width="56" height="66" viewBox="0 0 56 66" fill="none" xmlns="http://www.w3.org/2000/svg">
<g clip-path="url(#clip0_2_93)">
<path d="M40.0806 26.966C40.0004 23.2361 40.182 19.6034 39.7854 16.035C39.1708 10.5064 34.1619 6.19627 28.6126 5.98531C22.7609 5.76282 17.616 9.61015 16.3538 15.201C16.1441 16.1296 16.11 17.1 16.0223 18.0536C15.8784 19.617 14.9155 20.699 13.4237 20.9384C12.1096 21.1492 10.7634 20.3997 10.2624 19.1271C10.1119 18.7448 10.0261 18.3116 10.0225 17.9008C9.94414 9.19808 16.647 1.41116 25.2484 0.193369C34.9384 -1.17871 43.6468 4.87497 45.6384 14.4142C45.8901 15.6201 45.9746 16.8757 45.9991 18.1109C46.0518 20.7814 46.0153 23.4537 46.0153 26.1253C46.0153 26.3802 46.0153 26.6354 46.0153 26.8362C47.0505 27.0621 48.0565 27.1846 48.9958 27.5035C52.6041 28.7289 55.0038 32.1275 55.0118 35.9834C55.0262 42.8966 55.0193 49.8099 55.0152 56.7232C55.0121 62.0642 51.0907 65.9862 45.7281 65.9909C35.4403 65.9997 25.1524 65.9979 14.8647 65.9896C12.8976 65.988 10.9206 66.051 8.96529 65.8845C4.66736 65.5184 1.08359 61.7337 1.03887 57.4228C0.963205 50.1355 0.956736 42.846 1.03845 35.5588C1.09245 30.7382 5.23315 26.9705 10.2703 26.9673C19.8551 26.9611 29.44 26.9657 39.0247 26.966C39.323 26.966 39.6213 26.966 40.0806 26.966ZM28.0076 32.9783C22.1032 32.9783 16.1989 32.9768 10.2946 32.9792C8.26139 32.98 7.02883 34.1769 7.02644 36.1869C7.01842 43.0519 7.01814 49.9169 7.02658 56.7818C7.02897 58.7626 8.26055 59.9792 10.2344 59.9797C22.0665 59.9822 33.8988 59.982 45.7309 59.9799C47.7901 59.9795 48.9994 58.7733 49.0012 56.7007C49.0071 49.906 49.0065 43.1113 49.0015 36.3166C48.9999 34.1561 47.8135 32.9809 45.6502 32.98C39.7695 32.9776 33.8885 32.9792 28.0076 32.9783Z" fill="#4C519E"/>
<path d="M25.0258 52.3907C25.0248 52.3673 25.0224 52.3436 25.0252 52.3205C25.1819 51.0397 24.8601 50.1068 23.791 49.144C21.2492 46.8548 21.4517 42.8469 23.9941 40.5369C26.5198 38.242 30.4408 38.5242 32.6345 41.1589C34.8092 43.7709 34.3596 47.7252 31.6173 49.7496C31.1447 50.0984 30.9637 50.4406 30.9898 51.0141C31.0353 52.0185 31.0224 53.0275 30.9923 54.0333C30.9422 55.7044 29.6611 56.9669 28.0345 56.9865C26.3986 57.0062 25.0798 55.7037 25.0292 54.0059C25.0133 53.468 25.0268 52.9292 25.0258 52.3907Z" fill="#4C519E"/>
</g>
<defs>
<clipPath id="clip0_2_93">
<rect width="54.0409" height="66" fill="white" transform="translate(0.979492)"/>
</clipPath>
</defs>
</svg>
