<svg width="93" height="66" viewBox="0 0 93 66" fill="none" xmlns="http://www.w3.org/2000/svg">
<g clip-path="url(#clip0_2_69)">
<path d="M3.77134 10.3622C3.77134 8.92779 3.77134 7.53685 3.77134 5.92149C4.81724 5.92149 5.79131 5.96699 6.75985 5.91288C9.69577 5.74893 12.3677 4.60371 15.1066 3.66999C18.4808 2.51965 21.8538 1.27996 25.3234 0.515933C31.014 -0.737084 36.4923 0.386 41.7081 2.86027C42.9985 3.47243 44.2633 4.15366 45.4799 4.90108C46.0977 5.28064 46.5266 5.25297 47.127 4.8851C50.5494 2.78813 54.1847 1.21561 58.1547 0.466542C63.2628 -0.497302 68.189 0.277175 73.0156 1.98148C75.6785 2.92175 78.3083 3.9565 80.9688 4.90436C83.0714 5.65343 85.2498 6.01392 87.4885 5.96637C87.8883 5.95797 88.2886 5.96514 88.8012 5.96514C88.8012 7.50201 88.8012 8.91877 88.8012 10.3878C89.1679 10.4294 89.4284 10.4767 89.6902 10.4858C91.501 10.5491 92.2895 11.3373 92.2921 13.149C92.2995 18.613 92.295 24.0769 92.2948 29.5409C92.2944 40.0589 92.2937 50.577 92.2931 61.095C92.2929 63.4762 91.6197 64.1628 89.279 64.163C76.9354 64.1634 64.5917 64.155 52.2483 64.1872C51.6206 64.1888 50.9183 64.4165 50.3799 64.7487C47.7068 66.3973 45.0809 66.4118 42.3741 64.8217C41.743 64.451 40.9399 64.1927 40.2148 64.1905C27.9053 64.1526 15.5958 64.164 3.28636 64.1626C0.989927 64.1624 0.297642 63.4711 0.297437 61.1733C0.2958 45.362 0.296414 29.5509 0.297028 13.7396C0.297028 11.174 0.780174 10.6565 3.3324 10.4733C3.43001 10.4663 3.52517 10.4257 3.77134 10.3622ZM48.0982 54.0018C49.2464 53.4423 50.1853 52.9709 51.1357 52.5239C56.9827 49.7734 63.0653 48.9206 69.3272 50.6733C72.9875 51.6978 76.5396 53.108 80.1498 54.3163C81.3551 54.7197 82.5899 55.0345 83.9677 55.4353C83.9677 54.793 83.9677 54.3901 83.9677 53.9872C83.9677 40.2967 83.9673 26.6059 83.9685 12.9153C83.9687 10.7083 83.9718 10.7087 81.8661 10.2165C81.7339 10.1855 81.6038 10.1427 81.4756 10.0974C78.2375 8.95423 75.0014 7.80552 71.7616 6.66707C67.9645 5.33269 64.1061 4.5078 60.0412 5.08594C55.9765 5.66388 52.368 7.34256 48.9211 9.47785C48.2873 9.87032 48.081 10.3068 48.0821 11.0389C48.1036 24.9002 48.0982 38.7616 48.0984 52.6229C48.0982 53.026 48.0982 53.4292 48.0982 54.0018ZM44.4909 53.9759C44.4909 53.4398 44.4909 53.0668 44.4909 52.6938C44.4909 39.1037 44.4643 25.5136 44.5294 11.9238C44.5363 10.4718 44.1179 9.6789 42.8673 8.95423C38.4813 6.41233 33.9057 4.65208 28.7396 4.92117C25.4004 5.09516 22.278 6.15102 19.1606 7.27021C16.0585 8.38387 12.9366 9.45777 9.7721 10.371C8.84428 10.6389 8.59687 10.9202 8.59831 11.8253C8.62225 25.9618 8.61488 40.0983 8.61447 54.2346C8.61447 54.5678 8.61447 54.9011 8.61447 55.3517C9.17743 55.2324 9.61821 55.1869 10.0254 55.0453C13.1089 53.9733 16.1932 52.9025 19.2635 51.7935C26.4043 49.2145 33.5048 48.9774 40.5531 52.1159C41.821 52.6805 43.0642 53.3 44.4909 53.9759Z" fill="#4C519E"/>
<path d="M63.4398 13.6049C68.1333 13.6168 72.4696 15.1022 76.7219 16.8856C77.9798 17.4131 78.4444 18.7488 77.9577 19.962C77.4819 21.1486 76.2238 21.7364 74.9326 21.3198C72.6055 20.5691 70.3135 19.6976 67.9621 19.0365C64.6341 18.1009 61.2981 18.3001 57.9985 19.3101C57.4552 19.4765 56.8642 19.6444 56.3137 19.597C55.1872 19.5001 54.3679 18.5912 54.2639 17.5146C54.1446 16.2792 54.7096 15.2254 55.9372 14.9206C58.3994 14.3091 60.8974 13.8418 63.3807 13.3151C63.4003 13.4117 63.4199 13.5084 63.4398 13.6049Z" fill="#4C519E"/>
<path d="M54.2449 38.6892C54.2549 37.5262 54.8719 36.7507 56.1263 36.3238C60.748 34.7508 65.4178 34.7068 70.0837 36.0315C72.2045 36.6336 74.2767 37.421 76.3425 38.1996C77.9008 38.7868 78.4955 40.0799 77.9587 41.4371C77.4355 42.7602 76.1213 43.185 74.5405 42.6825C71.7621 41.7994 68.993 40.8481 66.1582 40.1943C63.3551 39.5479 60.545 40.0082 57.8023 40.8493C57.2694 41.0126 56.6583 41.1008 56.116 41.0155C54.9537 40.8319 54.2348 39.8602 54.2449 38.6892Z" fill="#4C519E"/>
<path d="M63.4831 24.299C68.1988 24.3141 72.5113 25.8879 76.7681 27.6418C77.9976 28.1484 78.4466 29.5446 77.9431 30.7477C77.4387 31.9531 76.1446 32.4733 74.7813 32.0253C72.3625 31.2305 69.9728 30.3242 67.5153 29.6762C64.4257 28.8616 61.3101 29.0655 58.2485 29.9924C57.8908 30.1007 57.538 30.2378 57.1724 30.3046C55.8725 30.5421 54.6682 29.8531 54.3341 28.7056C53.9491 27.3837 54.5444 26.1315 55.8889 25.678C57.0449 25.288 58.2305 24.947 59.4297 24.7359C60.7654 24.5008 62.1307 24.4371 63.4831 24.299Z" fill="#4C519E"/>
<path d="M29.2886 13.3276C31.7398 13.8477 34.2083 14.2988 36.6351 14.9146C38.0303 15.2688 38.6661 16.6798 38.2497 18.0027C37.8764 19.1885 36.5639 19.9407 35.3023 19.5054C30.1225 17.7176 25.1124 18.4245 20.1625 20.3925C19.3097 20.7315 18.4513 21.0639 17.5757 21.3353C16.3362 21.7195 15.094 21.1228 14.6375 19.9829C14.1631 18.7981 14.5732 17.4393 15.7554 16.9407C19.1749 15.4985 22.651 14.2062 26.3783 13.794C27.3249 13.6893 28.2769 13.6346 29.2266 13.5567C29.2473 13.4803 29.268 13.404 29.2886 13.3276Z" fill="#4C519E"/>
<path d="M29.1436 35.101C31.7214 35.089 34.2222 35.5521 36.6527 36.3803C38.025 36.848 38.6688 38.1774 38.2474 39.4952C37.8789 40.648 36.6044 41.4313 35.3909 41.0058C29.7988 39.045 24.4619 40.0783 19.1937 42.2291C18.6283 42.4599 18.0578 42.6962 17.4682 42.8464C16.1893 43.1723 15.0237 42.5396 14.6052 41.3477C14.1779 40.1312 14.6342 38.8779 15.8635 38.3693C20.1203 36.6078 24.4427 35.0722 29.1436 35.101Z" fill="#4C519E"/>
<path d="M29.2719 24.3892C31.7822 24.3574 34.2888 24.7857 36.7053 25.6737C38.5135 26.3382 38.997 28.68 37.4885 29.756C36.9044 30.1724 35.8677 30.4348 35.2274 30.214C29.9142 28.3835 24.8303 29.2617 19.8023 31.2678C19.0761 31.5576 18.355 31.8708 17.6082 32.0962C16.3174 32.4858 15.0662 31.8544 14.615 30.6456C14.1669 29.4449 14.6066 28.154 15.8269 27.648C20.1126 25.8705 24.4603 24.2994 29.2719 24.3892Z" fill="#4C519E"/>
</g>
<defs>
<clipPath id="clip0_2_69">
<rect width="92" height="66" fill="white" transform="translate(0.296387)"/>
</clipPath>
</defs>
</svg>
